<svg xmlns="http://www.w3.org/2000/svg" width="224.783" height="61.138" viewBox="0 0 224.783 61.138">
  <g id="Group_207" data-name="Group 207" transform="translate(-207.546 -43.404)">
    <path id="Path_8" data-name="Path 8" d="M10.539,208.36l9.53,6.9H69.127l-9.558-6.919Z" transform="translate(197.007 -113.297)" fill="#0e0e0e"/>
    <g id="Group_42" data-name="Group 42" transform="translate(207.546 43.404)">
      <g id="Group_44" data-name="Group 44" transform="translate(0 0)">
        <path id="Path_9" data-name="Path 9" d="M61.3,210.009H12.238a2.583,2.583,0,0,1-1.513-.49l-9.53-6.9a2.58,2.58,0,0,1,1.512-4.67l49.03-.02h0a2.582,2.582,0,0,1,1.513.49l9.558,6.918a2.58,2.58,0,0,1-1.513,4.67m-48.223-5.16H53.331L50.9,203.09l-40.234.017Z" transform="translate(-0.096 -148.871)" fill="#0e0e0e"/>
        <rect id="Rectangle_37" data-name="Rectangle 37" width="5.16" height="7.977" transform="translate(59.526 38.454) rotate(-89.863)" fill="#0e0e0e"/>
        <path id="Path_10" data-name="Path 10" d="M36.469,121.8H2.585A2.58,2.58,0,0,1,0,119.224V92.441a2.58,2.58,0,0,1,2.58-2.58H36.778a2.58,2.58,0,0,1,2.58,2.58v26.782a2.58,2.58,0,0,1-2.574,2.58Zm-31.3-5.16H34.2V95.023H5.165Z" transform="translate(-0.004 -67.588)" fill="#0e0e0e"/>
        <path id="Path_11" data-name="Path 11" d="M210.068,61.142a2.579,2.579,0,0,1-1.513-.49l-9.563-6.921a2.58,2.58,0,0,1-1.067-2.09V2.586A2.58,2.58,0,0,1,202.024.5l15.871,11.555a2.58,2.58,0,0,1,1.061,2.086V35.9a2.58,2.58,0,0,1-4.093,2.091l-2.215-1.6V58.561a2.581,2.581,0,0,1-2.58,2.58m-6.983-10.819,4.4,3.186V31.335a2.58,2.58,0,0,1,4.093-2.09l2.215,1.6V15.454l-10.711-7.8Z" transform="translate(-148.867 -0.004)" fill="#0e0e0e"/>
        <path id="Path_12" data-name="Path 12" d="M25.374,27.433H2.581A2.58,2.58,0,0,1,0,24.853V2.581A2.58,2.58,0,0,1,2.58,0L25.4,0a2.581,2.581,0,0,1,2.58,2.583l-.022,22.273a2.58,2.58,0,0,1-2.58,2.578M5.161,22.272H22.8L22.813,5.16H5.161Z" transform="translate(0 0.001)" fill="#0e0e0e"/>
        <path id="Path_13" data-name="Path 13" d="M120.808,54.221H105.944a2.58,2.58,0,0,1-2.58-2.58v-24.2h-8.82a2.579,2.579,0,0,1-2.579-2.583l.022-22.272A2.58,2.58,0,0,1,94.566.006h26.242a2.58,2.58,0,0,1,2.58,2.58V51.641a2.579,2.579,0,0,1-2.58,2.58m-12.284-5.16h9.7V5.167H97.144l-.017,17.111h8.818a2.58,2.58,0,0,1,2.58,2.58Z" transform="translate(-69.17 -0.004)" fill="#0e0e0e"/>
        <rect id="Rectangle_38" data-name="Rectangle 38" width="5.154" height="27.791" transform="translate(89.732 33.309)" fill="#0e0e0e"/>
        <rect id="Rectangle_39" data-name="Rectangle 39" width="27.053" height="5.154" transform="translate(80.513 33.308)" fill="#0e0e0e"/>
        <path id="Path_14" data-name="Path 14" d="M665.969,134.384v10.7a6.768,6.768,0,0,0-3.04-2.361,7.616,7.616,0,0,0-2.83-.59,11.757,11.757,0,0,0-3.931.59,9.461,9.461,0,0,0-3.4,1.993c-6.046,5.7-2.56,17.46,7.207,17.46,4.066,0,5.971-2.006,5.991-3.757v3.757h5.16V134.384Zm-2.107,22.277c-5.816,4.544-12.895-3.875-7.822-8.786,6.106-5.35,13.692,3.672,7.822,8.786" transform="translate(-488.727 -101.075)" fill="#0e0e0e"/>
        <path id="Path_15" data-name="Path 15" d="M566.422,165.653v3.087c2.013-1.959,3.641-3.087,5.917-3.087a7.727,7.727,0,0,1,5.937,2.56,10,10,0,0,1,2.357,7.045v10.436H575.48V175.3c0-1.534-.878-5.228-4.411-5.242-3.958-.007-4.64,4.093-4.64,5.633v10h-5.167V165.653Z" transform="translate(-422.148 -124.594)" fill="#0e0e0e"/>
        <path id="Path_16" data-name="Path 16" d="M478.2,177.753c.15,1.244,1.776,3.566,5.5,3.528,3-.031,4.442-1.271,4.941-1.826l2.922,3.057a8.827,8.827,0,0,1-3.559,2.363,12.4,12.4,0,0,1-4.379.813,9.93,9.93,0,0,1-7.432-2.839,9.759,9.759,0,0,1-2.714-6.961,10.369,10.369,0,0,1,2.677-7.385,9.3,9.3,0,0,1,7.131-2.858,8.889,8.889,0,0,1,7.3,3.115,10.785,10.785,0,0,1,2.111,6.946c0,.652,0,1.33,0,2.048Zm10.033-4.01a4,4,0,0,0-1.5-2.838,5.279,5.279,0,0,0-3.3-.973,5.58,5.58,0,0,0-3.294.973,4.8,4.8,0,0,0-1.872,2.838Z" transform="translate(-356.125 -124.587)" fill="#0e0e0e"/>
        <path id="Path_17" data-name="Path 17" d="M343.961,14.057c2.41-1.085,4.465-2.222,4.46-5.837C348.413.153,340.889.173,338,.173H324.826v27.78H338c6.934,0,10.381-2.729,10.405-8.179a5.67,5.67,0,0,0-4.449-5.717m-1.592,7.864a2.937,2.937,0,0,1-2.087.866H330.068a.081.081,0,0,1-.08-.084V16.962a.081.081,0,0,1,.08-.084h10.214a2.954,2.954,0,0,1,2.087,5.043m.866-13.39a3.189,3.189,0,0,1-3.188,3.188H329.989V5.336h10.058a3.189,3.189,0,0,1,3.188,3.188Z" transform="translate(-244.315 -0.13)" fill="#0e0e0e"/>
        <path id="Path_18" data-name="Path 18" d="M678.858,31.39v2.951a6.77,6.77,0,0,0-3.04-2.361,7.617,7.617,0,0,0-2.83-.59,11.756,11.756,0,0,0-3.931.59,9.46,9.46,0,0,0-3.4,1.993c-6.046,5.7-2.56,17.46,7.207,17.46,4.067,0,5.971-2.006,5.992-3.757v3.757h5.16V31.39Zm-2.108,14.53c-5.816,4.544-12.895-3.875-7.822-8.786,6.106-5.35,13.692,3.672,7.822,8.786" transform="translate(-498.421 -23.609)" fill="#0e0e0e"/>
        <path id="Path_19" data-name="Path 19" d="M767.928,31.4v3.087c2.013-1.959,3.641-3.087,5.917-3.087a7.727,7.727,0,0,1,5.937,2.56,10,10,0,0,1,2.357,7.045V51.442h-5.154v-10.4c0-1.534-.878-5.228-4.411-5.242-3.958-.007-4.64,4.093-4.64,5.633v10h-5.167V31.4Z" transform="translate(-573.709 -23.618)" fill="#0e0e0e"/>
        <path id="Path_20" data-name="Path 20" d="M857.259,34.944a11.127,11.127,0,0,1-4.005.838,6.687,6.687,0,0,1-5.14-1.729,7.323,7.323,0,0,1-2.047-5.417V21.881H840.9V15.748h5.163V10.59h5.167v5.158h6.027v6.133h-6.041v6.754a2.3,2.3,0,0,0,.7,1.832,2.035,2.035,0,0,0,1.655.716,5.194,5.194,0,0,0,2.344-.595Z" transform="translate(-632.478 -7.965)" fill="#0e0e0e"/>
        <rect id="Rectangle_40" data-name="Rectangle 40" width="5.162" height="20.042" transform="translate(125.566 7.781)" fill="#0e0e0e"/>
        <rect id="Rectangle_41" data-name="Rectangle 41" width="5.154" height="27.777" transform="translate(135.886 0.045)" fill="#0e0e0e"/>
        <rect id="Rectangle_42" data-name="Rectangle 42" width="5.142" height="27.777" transform="translate(146.205 0.045)" fill="#0e0e0e"/>
        <rect id="Rectangle_43" data-name="Rectangle 43" width="5.161" height="20.042" transform="translate(156.506 7.781)" fill="#0e0e0e"/>
        <path id="Path_21" data-name="Path 21" d="M636.6,2.755A2.576,2.576,0,1,1,634.023.179,2.576,2.576,0,0,1,636.6,2.755" transform="translate(-474.936 -0.134)" fill="#0e0e0e"/>
        <path id="Path_22" data-name="Path 22" d="M511.788,2.755A2.576,2.576,0,1,1,509.211.179a2.576,2.576,0,0,1,2.577,2.576" transform="translate(-381.061 -0.134)" fill="#0e0e0e"/>
        <path id="Path_23" data-name="Path 23" d="M439.193,31.391v2.772a5.865,5.865,0,0,1,5.2-2.777,6.959,6.959,0,0,1,5.042,1.866l-2.183,4.279a5.331,5.331,0,0,0-3.494-1.34,5.127,5.127,0,0,0-3.495,1.212c-.925.806-1.072,2.056-1.072,3.749V51.428h-5.16V31.391Z" transform="translate(-326.454 -23.606)" fill="#0e0e0e"/>
        <path id="Path_24" data-name="Path 24" d="M418.309,165.651v2.772a5.864,5.864,0,0,1,5.2-2.777,6.959,6.959,0,0,1,5.042,1.866l-2.183,4.279a5.331,5.331,0,0,0-3.494-1.34,5.127,5.127,0,0,0-3.495,1.212c-.925.806-1.072,2.056-1.072,3.749v10.277h-5.16V165.651Z" transform="translate(-310.746 -124.588)" fill="#0e0e0e"/>
        <path id="Path_25" data-name="Path 25" d="M768.572,169.279h-3.724l-.611,1.356h-1.455l3.195-7.192h1.465l3.195,7.192h-1.465Zm-1.862-4.326-1.323,3.062h2.646Z" transform="translate(-573.72 -122.932)" fill="#0e0e0e"/>
        <path id="Path_26" data-name="Path 26" d="M799.87,163.481v7.182h-1.16l-.081-.7a1.782,1.782,0,0,1-1.618.811,2.542,2.542,0,0,1-1.857-.713,3.008,3.008,0,0,1-.02-3.9,2.535,2.535,0,0,1,1.847-.689,2.357,2.357,0,0,1,.941.221,1.42,1.42,0,0,1,.707.59v-2.805Zm-3.8,3.571a1.612,1.612,0,0,0,.005,2.147,1.367,1.367,0,0,0,1.012.416,1.485,1.485,0,0,0,0-2.97,1.382,1.382,0,0,0-1.017.406" transform="translate(-597.521 -122.96)" fill="#0e0e0e"/>
        <path id="Path_27" data-name="Path 27" d="M824.144,171.98l-2.136,5.1h-1.343l-2.147-5.1h1.354l.692,1.675.773,2.137.763-2.116.692-1.7Z" transform="translate(-615.64 -129.353)" fill="#0e0e0e"/>
        <path id="Path_28" data-name="Path 28" d="M768.572,211.295h-3.724l-.611,1.356h-1.455l3.195-7.192h1.465l3.195,7.192h-1.465Zm-1.862-4.326-1.323,3.062h2.646Z" transform="translate(-573.72 -154.534)" fill="#0e0e0e"/>
        <path id="Path_29" data-name="Path 29" d="M798.984,211.84l.916.7-.631.74a2.321,2.321,0,0,1,.58,1.51,1.959,1.959,0,0,1-1.241,1.9,1.654,1.654,0,0,1,1.241,1.644,1.8,1.8,0,0,1-.412,1.187,2.383,2.383,0,0,1-1.018.725,3.706,3.706,0,0,1-1.307.226,3.011,3.011,0,0,1-2.025-.621,2.031,2.031,0,0,1-.682-1.711h1.231a.867.867,0,0,0,.407.807,1.889,1.889,0,0,0,1.068.313,2.049,2.049,0,0,0,1.007-.241.75.75,0,0,0,.437-.684.854.854,0,0,0-.366-.729,1.775,1.775,0,0,0-1.058-.267,2.849,2.849,0,0,1-2-.683,2.4,2.4,0,0,1-.748-1.865,2.333,2.333,0,0,1,.809-1.891,2.918,2.918,0,0,1,1.938-.678,2.273,2.273,0,0,1,1.292.318Zm-2.93,1.906a1.3,1.3,0,0,0-.427,1.043,1.281,1.281,0,0,0,.438,1.017,1.573,1.573,0,0,0,1.068.38,1.516,1.516,0,0,0,1.053-.38,1.3,1.3,0,0,0,.422-1.017,1.319,1.319,0,0,0-.422-1.023,1.506,1.506,0,0,0-1.053-.385,1.6,1.6,0,0,0-1.079.365" transform="translate(-597.489 -159.333)" fill="#0e0e0e"/>
        <path id="Path_30" data-name="Path 30" d="M819.881,216.551a1.117,1.117,0,0,0,.458.781,1.682,1.682,0,0,0,1.038.3,2.378,2.378,0,0,0,.753-.128,1.4,1.4,0,0,0,.59-.344l.793.791a2.408,2.408,0,0,1-.966.611,3.524,3.524,0,0,1-1.19.211,2.738,2.738,0,0,1-2.02-.734,2.655,2.655,0,0,1-.738-1.968,2.518,2.518,0,0,1,2.666-2.65,2.47,2.47,0,0,1,1.984.807,3.023,3.023,0,0,1,.549,2.327Zm2.727-1.037a1.022,1.022,0,0,0-.407-.735,1.486,1.486,0,0,0-.9-.252,1.576,1.576,0,0,0-.9.252,1.243,1.243,0,0,0-.509.735Z" transform="translate(-615.701 -160.519)" fill="#0e0e0e"/>
        <path id="Path_31" data-name="Path 31" d="M846.333,218.853V216.2a1.479,1.479,0,0,0-.315-.976,1.1,1.1,0,0,0-.9-.38,1.172,1.172,0,0,0-.921.411,1.473,1.473,0,0,0-.361,1.008v2.589h-1.231v-5.076h1.109l.081.689a2.334,2.334,0,0,1,1.649-.761,1.971,1.971,0,0,1,1.521.663,2.6,2.6,0,0,1,.605,1.824v2.661Z" transform="translate(-633.76 -160.736)" fill="#0e0e0e"/>
        <path id="Path_32" data-name="Path 32" d="M870.151,218.019a2.641,2.641,0,0,1-1.934.8,2.718,2.718,0,0,1-1.907-.694,2.986,2.986,0,0,1,0-3.977,2.718,2.718,0,0,1,1.907-.694,2.476,2.476,0,0,1,1.811.75l-.784.832a1.468,1.468,0,0,0-1.007-.4,1.38,1.38,0,0,0-1.038.421,1.487,1.487,0,0,0-.407,1.079,1.437,1.437,0,0,0,.407,1.088,1.41,1.41,0,0,0,1.017.391,1.48,1.48,0,0,0,1.1-.421Z" transform="translate(-651.017 -160.549)" fill="#0e0e0e"/>
        <path id="Path_33" data-name="Path 33" d="M889.679,214.038l-3.154,7.387h-1.363l1.028-2.4-2.005-4.983h1.445l.763,2.188.478,1.428.519-1.4.916-2.219Z" transform="translate(-665.031 -160.986)" fill="#0e0e0e"/>
      </g>
    </g>
  </g>
</svg>
