<?xml version="1.0" encoding="UTF-8"?>
<svg xmlns="http://www.w3.org/2000/svg" viewBox="0 0 1080 1080">
  <defs>
    <style>
      .cls-1 {
        fill: #f12c2e;
      }

      .cls-2 {
        fill: #fff;
      }

      .cls-3 {
        fill: #0f48f6;
      }

      .cls-4 {
        fill: #0e0e0e;
      }
    </style>
  </defs>
  <g id="Layer_32" data-name="Layer 32">
    <path class="cls-2" d="m462.78,313.46s10.89-4.46,19.78-3.13,60.89-.89,68.22,5.78,4.67,30.36,4.67,30.36l-2.02,120.99s-1.09,35.27-6.43,36.52-66.72,2.14-66.72,2.14c0,0-17.49,8.33-24.05-15.5v-154.5s-.92-20.37,6.55-22.65Z"/>
  </g>
  <g id="Layer_31" data-name="Layer 31">
    <path class="cls-1" d="m556.66,354.55c.45-6.34.99-12.68,1.33-19.02.3-5.53.12-11.18-2.47-16.19-5.76-11.14-19.39-9.11-29.89-9.45-13.23-.42-26.45-1.02-39.68-1.45-9.41-.31-22.71-1.89-28.1,8.15-.05.09-.09.17-.14.26-3.09,6.03-2.61,15.78-3.08,22.54-1.89,27.01-2.06,54.48-1.88,81.56.08,12.7.15,25.4.29,38.11.07,6.57.13,13.14.21,19.71.06,5.19.23,10.43,1.81,15.42,2.42,7.66,10.13,15.29,18.29,13.37,11.54,1.43,23.22,1.56,34.84,1.22,7.33-.21,14.67-.49,21.99-1,3.44-.24,6.88-.5,10.32-.77,2.68-.21,5.33-.4,7.59-2.03,4.38-3.17,5.39-9.59,6.27-14.56,1.19-6.69,1.63-13.5,1.84-20.29.43-14.33.12-28.69-.06-43.02-.19-15.86-.27-31.71-.22-47.56m-3.63-1.57c-.22,26.81-1.21,53.61-1.41,80.42-.05,6.75-.08,13.52-.63,20.26-.49,6-.96,12.83-3.25,18.45-1.16,2.85-2.56,3.77-5.58,4.13-3.41.41-6.89.51-10.32.75-6.46.46-12.91,1.04-19.37,1.39-11.87.64-23.75.73-35.62.38-.33-.17-.72-.24-1.12-.13-.12.03-.23.04-.34.07-2.04-.07-4.09-.14-6.13-.23-1.98-.66-3.8-1.86-5.32-3.49-3.42-3.66-4.39-8.9-4.72-13.75-.73-10.86-.29-21.88-.34-32.77-.17-37.1-.16-74.1.4-111.26.11-7.28.31-15.34,3.91-21.87,4.48-8.13,12.5-6.93,20.62-6.69,11.09.32,22.17.61,33.26.83,5.76.11,11.51.32,17.27.49,5.04.15,11.36-.53,15.31,3.28,4.16,4,4.68,10.25,4.47,15.72"/>
    <path class="cls-1" d="m506.75,339.97c12.26.54,20.74,11.72,23.36,22.9,2.65,11.3-4.58,21.85-15.19,25.58-13.79,4.84-29.82-3.34-32.98-17.92-3.19-14.71,9.42-31.24,24.81-30.56Z"/>
    <rect class="cls-1" x="469.89" y="436.86" width="72.33" height="16.33" rx="8.17" ry="8.17"/>
    <path class="cls-2" d="m505.29,440.12c.02-.41.41-.26.6-.29,2.49.08,4.63,2.32,4.6,4.72,0,.06,0,.12,0,.18,0,.2,0,.4-.28.4-.32,0-.27-.31-.28-.54,0-.02,0-.04,0-.06-.33-2.56-1.52-3.76-4.11-4.16-.22-.03-.54.01-.53-.26Zm1.03.97c-.25-.03-.58-.14-.64.19-.06.36.3.32.54.37,1.6.35,2.16.92,2.42,2.48.01.07.01.14.02.22.01.18.06.35.34.3.14-.02.19-.11.2-.21.01-.1,0-.23,0-.32.01-1.49-1.29-2.85-2.89-3.04Zm.15,1.22c-.17,0-.33.02-.39.2-.09.26.1.32.3.35.66.1,1,.48,1.07,1.12,0,.08.04.16.09.21.05.06.13.1.22.09.05,0,.1-.02.13-.05.11-.08.13-.23.12-.39.01-.72-.82-1.55-1.53-1.54Zm3.32,5.04c-.32-.26-.67-.48-1.01-.72-.68-.47-1.3-.5-1.8.25-.28.42-.68.44-1.1.26-1.15-.51-2.03-1.3-2.55-2.44-.08-.18-.13-.35-.14-.52-.02-.3.11-.57.45-.8.28-.19.57-.41.55-.83-.03-.54-1.36-2.34-1.89-2.53-.22-.08-.44-.07-.66,0-1.24.41-1.75,1.4-1.26,2.58.27.65.58,1.27.93,1.85,1.52,2.54,3.76,4.39,6.65,5.61.2.09.43.12.54.15.81,0,1.75-.75,2.02-1.51.26-.73-.29-1.02-.73-1.36Z"/>
  </g>
  <g id="Layer_26" data-name="Layer 26">
    <g>
      <g>
        <g>
          <path class="cls-1" d="m407.17,395.53c-.43,1.47-1.01,2.91-1.8,4.25-1.21,2.06-2.91,3.92-5.26,5.49-.26.2-.52.36-.78.52-10.89,6.67-25.44,4.18-37.5,3.86-28.41-.72-56.82-1.47-85.26-2.03-14.16-.29-28.31-.56-42.47-.85-6.96-.13-13.89-.29-20.86-.42-4.02-.1-8.43-.07-12.06-2-.69-.33-1.31-.75-1.93-1.27-2.26-1.9-3.56-4.48-4.28-7.32-1.41-5.07-1.08-11.05-1.41-15.76-.72-10.69-1.47-21.41-2.19-32.14-1.11-16.28-2.26-32.6-3.37-48.91-.39-5.85-1.05-12.29.2-17.75.69-3.01,1.93-5.72,4.09-7.88,1.8-1.8,4.22-3.2,7.49-4.12,6.7-1.86,13.37-.1,20.07-.03,6.93.07,14.03-.43,21.02-.36,15.24.16,30.47.59,45.71.82,25.01.39,49.99.72,75,1.21,6.21.1,12.46.1,18.7.36,2.98.13,6.02.39,8.89,1.21,1.18.29,2.32.72,3.4,1.24,2.06,1.01,3.66,2.29,4.94,3.79,5.03,5.79,4.81,14.65,5.23,22.36,1.41,24.85,3.04,49.73,4.81,74.57.03.62.1,1.27.13,1.9.33,6.51,1.14,13.37-.49,19.26Z"/>
          <path class="cls-2" d="m301.05,363.78c-1.05,2.16-3.86,3.53-6.28,1.57-9.91-8.08-19.84-16.12-29.82-24.06-3.01-2.35-6.02-4.71-9.02-7.06-7.59-5.95-15.27-11.8-23.05-17.59-9.94-7.42-20.07-14.58-30.01-21.97-5.33-3.96-10.56-8.3-14.68-13.47.69-3.01,1.93-5.72,4.09-7.88,6.15,5.43,12.46,10.63,19.16,15.46,9.78,7.03,19.71,13.83,29.2,21.25,7.39,5.79,14.71,11.7,22,17.72,2.91,2.39,5.85,4.81,8.76,7.26,8.43,7.06,16.84,14.19,25.24,21.28,1.14.95,2.26,1.93,3.4,2.88,1.6,1.37,1.73,3.17,1.01,4.61Z"/>
          <path class="cls-2" d="m397.5,277.44c-2.62,2.26-5.23,4.48-7.81,6.73-10.07,8.76-20.11,17.56-29.98,26.55-9.97,9.09-20.07,18.01-30.04,27.13-1.8,1.63-3.56,3.24-5.33,4.87-2.91,2.65-5.82,5.33-8.73,8.01-4.68,4.35-9.25,9.48-14.55,13.04-.2.16-.36.29-.52.39-4.02,2.62-8.01-2.42-5.36-6.02.46-.62.95-1.24,1.47-1.86,3.86-4.58,8.89-8.5,13.21-12.59,2.45-2.29,4.94-4.58,7.39-6.87,1.67-1.57,3.37-3.14,5.03-4.71.69-.62,1.41-1.27,2.09-1.93,9.64-8.89,19.26-17.85,29.13-26.48,10.14-8.93,20.21-17.88,30.41-26.74,1.73-1.54,3.5-3.07,5.26-4.58,1.18.29,2.32.72,3.4,1.24,2.06,1.01,3.66,2.29,4.94,3.79Z"/>
          <path class="cls-2" d="m271.4,335.01c-2.16,2.06-4.28,4.15-6.44,6.28-10.4,10.17-20.73,20.47-31.12,30.67-8.37,8.21-16.67,16.45-24.91,24.75-2.55,2.58-5.13,5.17-7.75,7.65-.69-.33-1.31-.75-1.93-1.27-2.26-1.9-3.56-4.48-4.28-7.32,1.9-2.06,3.83-4.05,5.75-6.08,8.11-8.44,16.25-16.8,24.45-25.14,10.1-10.27,20.4-20.34,30.76-30.31,2.22-2.19,4.45-4.35,6.7-6.47,2.91,2.39,5.85,4.81,8.76,7.26Z"/>
          <path class="cls-2" d="m405.38,399.78c-1.21,2.06-2.91,3.92-5.26,5.49-9.68-8.24-19.39-16.38-29.2-24.45-11.31-9.28-22.62-18.6-34-27.89-4.18-3.4-8.4-6.8-12.59-10.2-2.39-1.96-4.74-3.92-7.09-5.89,1.67-1.57,3.37-3.14,5.03-4.71,2.48,1.9,4.94,3.79,7.39,5.72,4.02,3.2,8.01,6.41,12,9.58,11.44,9.15,22.82,18.37,34.1,27.72,9.87,8.21,19.78,16.41,29.62,24.62Z"/>
        </g>
        <g>
          <path class="cls-2" d="m371.88,466.55c-.51,16.88-2.6,33.76-4.06,50.56-.55,6.19.7,16.18-5.31,20.1-2.75,1.79-6.3,1.9-9.48,2.31-3.81.51-7.62.99-11.42,1.46-15.45,1.98-31.78,2.67-47.12-.33-4.14-.81-7.91-2.2-11.9-3.44-3.29-1.03-5.6-.37-8.71.81-6.55,2.45-12.82,4.8-19.44,1.24-2.49-1.35-4.14-4.1-3.66-6.96-2.45-1.32-3.41-4.98-1.57-7.65,3.66-5.35,5.13-11.9,6.88-18.12,1.5-5.27,2.89-10.62,4.1-15.96,2.05-9.01,3.66-18.05,4.94-27.21-2.86-1.57-5.64-3.29-8.35-5.13-13.4-7.03-27.06-13.58-40.97-19.55-.77-.33-1.32-.81-1.68-1.35-11.9-3.26-24.02-6.15-35.7-10.44-6.74-2.45-13.29-5.38-19.41-9.15-6.08-3.81-12.49-8.2-15.71-14.83-3.7-7.51-1.17-15.74.88-23.36,2.05-7.51,4.8-14.54,9.34-20.87.4-.59.88-.92,1.39-1.21.92-6.48,2.53-12.85,5.02-18.97,1.57-3.95,3.41-8.35,8.09-9.19,1.94-.37,3.81.07,5.6.92.77.37,1.87,1.28,2.89,1.76.29-.88.62-1.79.95-2.71-1.06-6,2.89-10.69,8.27-12.16,3.7-1.79,8.06-2.01,11.97-.33,2.31.84,4.36,2.31,5.82,4.5.07.11.11.26.15.37.92.62,1.79,1.32,2.64,2.01.4-1.32.95-2.6,1.76-3.77-.44-.81-.66-1.72-.48-2.53,2.16-8.75,13.11-9.67,19.04-4.06,3.59,3.37,5.57,8.24,7.07,12.82,1.98,6.01,3.77,12.05,5.6,18.05,3.62,11.75,7.65,24.13,13.69,35.15,3.22,3.66,6.48,7.32,9.7,10.98.95-.11,1.94.07,2.89.66,4.54,2.71,9.12,5.35,13.73,7.91,5.02,1.06,9.81,2.78,14.35,5.27,1.65.88,2.53,2.31,2.78,3.81.26.15.55.29.84.44.81-.37,1.72-.48,2.75-.22,13.62,3.11,25.92,9.3,38.12,15.89,3.66,1.98,7.29,3.99,10.84,6.15.7-.26,1.43-.4,2.23-.37,18.2,1.24,21.09,22.44,20.65,36.69Z"/>
          <path class="cls-3" d="m954.44,873.77c-.26,3.04-.88,5.71-1.83,8.17-.44,20.36-20.17,32.48-37.6,38.04-5.75,1.83-11.64,3.29-17.43,4.91-5.9,1.65-11.64,3.7-17.65,4.87-12.19,2.45-24.94.55-37.24-.04-2.6-.11-5.16-.22-7.76-.29-2.34-.11-4.69-.18-7.07-.22-41.3-1.17-82.6.44-123.83,2.38-22.15,1.03-44.34,2.64-66.49,2.86-17.06.18-35.26-.99-50.6-9.23-16.84-9.04-25.08-25.23-32-42.25-8.2-20.1-15.34-40.64-21.38-61.51-5.78-20.03-10.51-40.39-14.21-60.89-29.7,4.91-59.35,9.85-89.08,14.57-22.74,3.66-45.48,7.29-68.21,10.91-21.57,3.44-43.39,6.99-65.28,4.61-18.31-1.98-36.8-8.39-50.49-21.05-13.88-12.82-21.71-30.43-23.43-49.1-2.01-21.27-.26-43.35,1.54-64.63,1.83-22.01,4.83-43.94,8.53-65.72,3.73-21.79,8.06-43.5,13.04-65.1.51-2.34,1.06-4.69,1.65-6.99,2.64,0,5.27.11,7.84.18.88,0,1.72.04,2.56.04,6.7,0,13.4.11,20.1.22,12.78.18,25.59.33,38.37.4,13.11.11,26.22.26,39.32.37h8.68c2.12,0,4.21,0,6.3.07-.15,2.45-.33,4.91-.44,7.36-1.54,26.11-2.27,52.25-2.34,78.39v1.21c2.2-.37,4.43-.73,6.63-1.14,15.85-2.89,31.53-6.96,47.05-11.72,25.04-7.69,49.8-16.66,75.35-22.52,22.52-5.2,45.55-7.8,68.58-5.02,7.69.95,15.38,2.27,23.03,3.88,2.42.48,4.83.99,7.21,1.54,16.15,3.59,32.18,8.06,48.11,11.86,53.93,12.93,107.9,25.81,161.84,38.74,6.59,1.61,13.29,3.22,19.74,5.45-.07.33-.11.66-.18.95,18.78,5.45,35.55,18.49,46.79,34.09,7.07,9.81,12.19,20.83,17.32,31.71,5.71,12.19,11.42,24.39,17.14,36.58,10.98,23.36,21.82,46.76,30.83,70.96,4.43,11.9,8.57,23.95,12.12,36.1,3.37,11.68,5.97,23.8,4.91,35.99Z"/>
          <path class="cls-3" d="m918.01,560.57c-.37,28.78-13.36,54.48-29.8,77.44-3.66,5.09-7.29,10.73-12.45,14.46-5.6,4.1-12.93,4.47-19.55,5.35-15.82,2.12-31.75,3.48-47.53.59-15.49-2.82-30.5-7.43-46.13-9.67-16-2.31-32.15-3.48-48.22-4.76-16.22-1.32-32.44-2.64-48.66-3.95-14.94-1.21-29.88-2.6-43.9-8.39-1.43-.59-2.09-1.65-2.2-2.78-2.67-1.83-5.2-3.88-7.43-6.26-7.8-8.31-11.97-20.03-14.21-30.98-2.49-12.16-3.3-25.78-.11-37.9,3.66-13.8,13.8-22.55,24.75-30.87,11.35-8.64,23.29-16.55,35.66-23.62,24.42-13.99,50.57-24.93,77.7-32.4,27.42-7.58,57.52-13.44,86.08-11.24,25.56,1.94,50.35,13.88,67.92,32.55,18.2,19.44,28.38,45.77,28.08,72.42Z"/>
          <path class="cls-2" d="m799.05,428.57c-.11-1.32-.18-2.64-.29-3.92-.18-2.01-1.39-3.37-2.93-4.03-.95-3.48-2.01-6.85-3.3-10.14-3-7.91-6.77-15.53-10.91-22.88-3.99-7.18-8.09-14.61-13.22-21.05-10.58-13.36-26.43-15.78-42.36-18.27-14.19-2.23-28.78-3.04-42.28,1.4-.24-.17-.47-.36-.73-.52-4.54-2.68-9.66-.27-13.57,2.35-3.19,2.14-6.14,4.74-8.71,7.59-1.31,1.46-2.52,3.02-3.62,4.65-1.36,2.02-2.85,4.32-3.03,6.81-4.16,4.85-7.45,10.64-9.95,16.27-4.25,9.56-6.52,19.92-8.17,30.21-.88,5.6-1.72,11.2-2.53,16.84-.33.29-.59.7-.73,1.17-8.75,23.8-15.41,50.75-3.55,74.73,10.32,20.94,31.82,28.01,53.31,31.38,1.94,4.69,3.48,9.45,4.65,14.32-1.28.44-2.42,1.68-2.42,3.11.07,3.66,1.03,7.07,2.71,10.14.04,1.39.04,2.78-.18,4.21-.37,2.75,2.42,4.5,4.76,3.15,3.26-1.87,6.55-3.63,9.92-5.35.48,1.61,2.05,2.97,3.88,2.2,9.63-3.99,19.08-8.35,28.38-13.04,6.74-2.67,13.58-5.13,20.54-7.25,1.54-.48,2.6-2.45,1.98-3.99-.51-1.28-.99-2.56-1.43-3.84,1.39-.4,2.67-1.61,2.75-3.26.81-12.6-8.75-27.53-1.72-39.4,2.6-4.39,6.99-5.05,11.53-5.49.11.4.29.81.51,1.14,4.06,5.68,11.9,6.37,17.43,2.31,4.83-3.55,7.54-9.59,9.41-15.53,7.25-7.21,11.72-16.84,12.34-27.24.7-11.02-3.48-19.84-8.49-28.78Z"/>
          <path class="cls-4" d="m705.18,533.67c-17.09,2.05-35.34,2.84-51.34-4.56-15.98-7.38-24.28-20.87-27.16-37.87-1.53-9.03-2.16-18.35-1.02-27.47,1.1-8.82,4.22-17.05,6.77-25.51,4.87-16.15,4-33.68,10.95-49.23,6.82-15.28,18.82-27.77,33.73-35.32,2.15-1.09.34-4.75-1.88-3.81-14.54,6.1-26.59,16.6-34.57,30.23-9.44,16.12-8.9,34.38-13.44,51.95-2.49,9.63-6.47,18.81-7.91,28.71-1.46,9.98-1.02,20.18.61,30.11,2.76,16.94,9.77,31.62,24.86,40.71,18.29,11.02,40.36,10.37,60.75,7.37,3.35-.49,3.09-5.72-.34-5.31Z"/>
          <path class="cls-4" d="m689.73,569.98c-.07,1.61-.29,3.4-.66,5.2-2.89,1.06-5.75,2.16-8.61,3.26.92-1.94,1.57-3.81,1.94-5.82.77-3.84.4-7.73-.55-11.5-1.83-7.36-5.93-15.38-3.22-22.99.99-2.71,4.43-1.21,4.83.95,1.03,5.27,2.09,10.33,3.66,15.49,1.57,5.02,2.89,10.11,2.6,15.41Z"/>
          <path class="cls-4" d="m649.38,442.43c1.18-1.72-5.02,1.56-2.98,1.41,3.16-.23,11.02-3.95,12.56-5.42,6.21-5.94,10.78-14.1,11.88-22.68,1.9-14.78-8.6-34.68-25.65-33.4-2.37.18-3.45,3.92-.94,4.84,6.96,2.53,12.73,6.3,16.36,12.93,3.73,6.81,3.66,14.87.62,21.92-1.58,3.67-3.82,6.97-6.54,9.89-2.83,3.03-6.25,4.88-9.47,7.39-2.92,2.27-4.84,2.04-5.09,5.72"/>
          <path class="cls-4" d="m668.06,401.84c-3.55-8.5-9.27-17.15-17.98-21.01-8.91-3.95-18.5-1.45-25.63,4.79-14.33,12.55-23.95,42.7-4.6,55.3,10.11,6.58,26.2,5.24,35.96-1.26,3.34-2.23,3.68-6.6-.09-5.44-4.58,1.41-9.33,3.61-15.92,3.61-3.91,0-9.47-.16-13.13-1.65-8.1-3.31-11.05-12.14-10.09-20.33,1.56-13.26,12.62-34.37,28.94-30.59,8.66,2,14.89,10.34,18.58,17.9,1.14,2.35,5.02,1.2,3.96-1.33Z"/>
          <path class="cls-4" d="m688.12,426.57c-.03-2.96-2.41-5.11-4.56-6.77-2.27-1.75-4.7-3.33-7.23-4.67-1.97-1.05-4.53-2.04-6.81-1.7-2.51.38-4.43,1.69-5.18,4.18-.3.98.49,2.08,1.4,2.37,1.03.33,2-.13,2.53-1.06-.15.26.04.02.03-.02.07-.03.13-.05.18-.08.07-.01.14-.03.17-.03.16-.01.69.07.12-.03.17.03.34.05.51.08.39.07.78.14,1.17.22.18.04.35.09.53.14.05.02.07.02.16.06.37.15.74.31,1.1.5.95.51,1.88,1.07,2.79,1.65.04.03.36.23.47.3.12.08.39.26.43.29.51.35,1.02.71,1.52,1.09.92.68,1.81,1.4,2.67,2.15.22.19,1.03.71,1.09.99-.29-.34-.35-.41-.19-.21.08.09.15.19.22.28.12.16.23.33.34.5.06.1.08.12.11.16.06.32.14.61.24.88-.23,1.43.83,2.74,2.37,2.73,1.37-.01,2.38-.76,3.07-1.85.48-.57.76-1.27.75-2.16Z"/>
          <path class="cls-4" d="m749.99,407.82c-10.2-15.53-32.43-15.56-47.49-7.63-12.19,6.41-23.81,20.05-21.96,34.65,1.92,15.16,14.25,27.64,28.76,31.45,28.19,7.39,53.16-21.36,45.26-48.5-1.02-3.52-2.55-6.9-4.57-9.96Zm-4.86,37.09c-6.21,9.83-18.65,15.92-30.23,14.32-11.29-1.57-21.42-9.51-25.14-20.38-8.65-25.31,29.33-47.3,49.34-33.04,11.92,8.5,13.54,27.23,6.03,39.11Z"/>
          <path class="cls-4" d="m802.6,464.47c-3.25-8.9-12.59-12.74-21.59-11.71-9.07,1.03-17.22,6.45-20.73,15.02-1.03,2.53,2.47,4.21,3.81,1.84,3.04-5.36,8.87-9.19,14.86-10.44,5.88-1.23,14.19.05,17.03,6.06,5.97,12.6-2.57,28.48-15.57,31.9-3.75.99-7.76.98-11.54.17-4.05-.87-7.07-3.01-10.6-4.98-2.53-1.41-5.88,2.16-3.87,4.47,5.72,6.56,16.52,8.56,24.77,7.2,8.92-1.48,16.41-6.71,20.92-14.54,4.25-7.39,5.45-16.9,2.5-24.97Z"/>
          <path class="cls-4" d="m789.02,469.32c-7.67.64-15.61,2.73-22.35,6.5-2.74,1.53-.47,6.01,2.43,4.93,3.35-1.24,6.7-2.5,10.17-3.39,2.5-.64,5.04-1.04,7.62-1.37,1.67.45,3.46-.03,4.74-1.43,1.85-2.01.07-5.46-2.61-5.24Z"/>
          <path class="cls-4" d="m779.44,481.94c-.03-2.22-.38-4.48-.58-6.69-.1-1.14-.99-2.05-2.14-2.12-1.04-.07-2.29.69-2.39,1.83-.21,2.35-.55,4.73-.61,7.1-.03,1.1-.06,2.21-.05,3.3,0,1.31.27,2.5.74,3.72.34.87,1.08,1.48,2.02,1.54.85.06,1.88-.42,2.21-1.27.24-.63.6-1.32.7-1.98.1-.65.11-1.34.14-1.99.05-1.14-.02-2.29-.04-3.43Z"/>
          <path class="cls-4" d="m826.88,387.09c-14.51-18.83-34.77-30.99-55.34-42.11-22.04-11.91-50.53-14.98-75.01-20.87-9.63-2.32-21.45-4-27.96,3.46-3.17,3.63-4.22,8.66-6.94,12.63-2.74,4-6.98,6.66-10.89,9.53-3.91,2.87-7.78,6.32-9.14,10.98-1.36,4.66.9,10.64,5.65,11.66,8.43-7.01,16.85-14.03,25.28-21.04-.55,1.55-1.1,3.11-1.65,4.66,14.72,1.87,29.43,3.75,44.15,5.62,11.03,1.41,22.73,3.09,31.26,10.23,11.28,9.45,10.23,17.59,9.76,29.45-.54,13.38,9.14,19.03,9.98,30.15.5,6.59-6.48,12.54-9.04,18.1-3.33,7.21-5.24,14.97-5.75,22.92-.22,2.86,2.27,4.43,4.76,3.18,4.87-2.42,9.96-6.96,11.17-12.49,2.64-2.6,5.6-5.13,8.9-7.07,7.07-2.56,15.41-1.25,21.46,4.21.18.11.37.15.51.26.77,5.6,1.54,11.2,2.34,16.81.15,1.28.99,2.16,2.01,2.56-1.21,3.15-2.93,6.15-4.98,8.75-4.43,5.68-8.83,7.72-15.28,10.98-6.41,3.22-9.72,4.3-15.73,1.16.48-.37-3.71.31-3.23-.02,1.9-1.39.44-4.91-1.9-3.88-5.93,2.64-11.31,6.85-10.58,14.06.4,3.92,1.43,7.84,2.2,11.72.81,3.99,1.61,7.98,2.42,12.01.55,2.67,4.5,2.49,5.53.33.95-1.9,2.01-3.81,3.15-5.68,1.1-.4,2.16-.88,3.04-1.35,10.91-5.68,21.6-11.79,30.76-20.1,16.95-15.41,30.79-37.35,38.01-59.1,7.1-21.42,5.13-43.53-8.9-61.73Z"/>
          <path class="cls-4" d="m764.17,549.49c-1.94.62-5.66,1.53-7.56,2.19-.59-2.2-1.02-4.43-1.32-6.74-.66-5.13-.81-11.02,1.17-15.89.84-2.12,4.17-1.36,4.28.84.11,2.45-.18,4.87-.11,7.32.07,2.38.18,4.72.55,7.1.26,1.83,2.47,3.38,2.98,5.18Z"/>
          <path class="cls-4" d="m858.95,526.3c-31.31,8.9-62.39,18.56-93.22,28.89-1.94.62-3.88,1.28-5.82,1.94-25.26,8.53-50.38,17.54-75.35,26.99-1.79.66-3.62,1.35-5.38,2.05-4.76,1.76-9.48,3.59-14.21,5.42-1.35.51-3.19-.15-3.95-1.36-5.35-8.53-7.65-18.27-6.88-28.3.7-8.97,3.99-20.32,11.57-25.81,1.65-1.21,3.59.77,2.86,2.45-1.68,3.88-4.1,7.36-5.49,11.42-1.36,3.88-2.23,7.98-2.49,12.08-.4,7.62,1.25,15.23,4.83,21.93,4.83-1.87,9.67-3.73,14.54-5.57,2.86-1.1,5.71-2.2,8.61-3.26,22.88-8.6,45.92-16.77,69.09-24.57,1.9-.66,3.84-1.32,5.79-1.94,30.9-10.32,62.03-19.96,93.33-28.89,4.25-1.21,6.44,5.31,2.2,6.52Z"/>
          <path class="cls-4" d="m857.77,518.98c-5.61-8.72-13.67-15.61-23.07-19.95-4.59-2.12-9.51-3.66-14.5-4.47-2.5-.41-5.03-.6-7.56-.62-2.5-.02-5.25-.2-7.15,1.63-.75.72-.63,2.31.22,2.91,1.88,1.32,4.01.98,6.21,1.07,2.27.1,4.55.4,6.79.79,4.62.8,9.08,2.25,13.3,4.29,8.29,4,15.44,10.21,20.45,17.94,2.24,3.46,7.54-.11,5.31-3.58Z"/>
          <path class="cls-4" d="m684.44,562.92c-.33-5.45-1.83-10.73-3.73-15.84.68-.47,1.14-1.31.92-2.37-.83-4.1-7.84-7.71-12.55-7.27-4.65.43-3.18,4.7-4.74,8.68-.19.48-.32.98-.49,1.48-.04.04-.04.09-.05.14-.31.93-1.43,1.48-1.66,2.43-.41.19.03.84-.29,1.25-3.55,4.5-4.38,10.15-3.79,15.74.58,5.5,1.74,11.98,5.64,16.15,4.4,4.7,12,.9,15.8-2.88,4.4-4.37,5.28-11.59,4.93-17.49Z"/>
          <path class="cls-4" d="m851.53,516.6c-1.96-.65-3.75-1.61-5.46-2.7-.39-.76-.85-1.47-1.37-2.13-2.99-4.23-7.64-6.91-12.69-8.8-7.84-2.93-15.85-5.78-24.33-5.35-2.35.12-3.93,2.14-4.26,4.26-4.82,1.2-9.54,3.36-13.73,5.53-6.43,3.33-12.71,7.13-18.5,11.49-2.17,1.64-4.3,3.43-5.48,5.72-2.3-.13-4.61,1.11-5.12,4.04-.41,2.33-.7,4.75-.47,7.12.03.26.15.72.31,1.27-.7.89-1.12,2.01-1,3.34.23,2.44.2,5.96,2.16,7.75,2.33,2.12,5.01,1.28,7.6.39,6.91-2.36,13.58-5.46,20.4-8.06,2.45-.94,4.93-1.83,7.39-2.74.18,0,.33.06.53.03,9.18-1.02,18.33-3.74,27.35-5.72,8.97-1.98,17.84-4.22,26.19-8.12,2.67-1.25,4.16-6.11.46-7.34Z"/>
          <path class="cls-4" d="m375.34,463.17c-.4,9.96-1.76,19.92-2.6,29.88-.73,8.75-1.39,17.54-1.98,26.29-2.09-.07-4.17-.07-6.3-.07.59-9.15,1.28-18.31,2.05-27.43.81-9.67,2.2-19.33,2.53-29,.22-7.98-.62-16.59-6.48-22.59-6.3-6.48-15.74-10.69-23.73-14.72-7.98-4.03-16.18-7.62-24.61-10.73-16.04-5.97-33.25-9.92-47.16-20.43-12.05-9.04-20.39-22.08-26.22-35.77-3.08-7.18-5.46-14.61-7.43-22.15-2.01-7.76-3.37-17.98-11.06-22.33-7.76-4.39-13.07,1.94-14.35,9.08-1.21,6.74.07,13.69,1.35,20.32,5.68,29.88,19.3,59.13,45.81,75.76,2.49,1.57.7,5.6-2.05,4.25-32.15-16.07-47.86-54.78-51.74-88.72-1.28-11.28,1.57-29.26,16.55-28.52,18.67.92,20.36,25.59,24.75,39,5.31,16.18,13.36,32.11,26.88,42.99,15.16,12.19,35.26,15.85,52.95,22.92,9.34,3.73,18.45,8.06,27.24,12.92,7.47,4.17,15.96,8.49,20.72,15.93,4.36,6.85,5.16,15.16,4.87,23.14Z"/>
          <path class="cls-4" d="m234.71,426.89c-9.59-8.43-21.16-14.49-30.82-22.89-9.39-8.17-15.33-17.63-18.09-29.8-2.78-12.26-3.81-25.2-4.68-37.72-.4-5.8-.71-13.06,4.03-17.33,6.09-5.48,14.19-.14,15.96,6.01,1.18,4.09,6.64.77,5.54-3.3-1.53-5.7-6.84-9.55-12.74-11.31-6.07-1.81-12.21,1.15-15.88,6.04-4.37,5.82-4.51,13.39-4.06,20.34.56,8.58,1.47,17.17,2.57,25.7,1.92,14.8,5.8,29.04,16.37,40.09,5.31,5.54,11.85,9.85,18.16,14.15,6.89,4.69,13.75,9.97,21.09,13.91,2.38,1.27,4.52-2.16,2.55-3.89Z"/>
          <path class="cls-4" d="m217.41,425.97c-11.87-2.98-22.11-7.7-32.48-14.16-8.78-5.47-19.68-11.4-23.78-21.5-2.23-5.5-2.54-11.65-3.02-17.5-.44-5.35-.73-10.74-.42-16.11.4-6.95,4.6-31.63,16.24-25.32,3.17,1.72,6.22-2.99,3.45-5.27-11.61-9.58-21.63,7.53-24.35,16.79-3.88,13.25-2.91,28.95-.45,42.39,2.53,13.81,12.08,21.65,23.42,28.75,12.33,7.72,26.09,16.63,41.03,17.43,3.28.18,3.25-4.77.36-5.49Z"/>
          <path class="cls-4" d="m267.03,462.62c-.48,2.64-1.03,5.24-1.57,7.87-.11.55-.22,1.1-.33,1.65-1.54-1.24-3.11-2.42-4.72-3.59-12.56-9.23-26.36-16.48-40.86-22.77-19.7-8.53-41.27-12.93-60.38-22.85-11.13-5.79-21.31-14.24-21.86-27.64-.59-13.69,5.97-28.16,12.41-39.87,2.2-3.99,8.57-.95,6.41,3.08-5.24,9.67-10.14,20.61-11.39,31.67-.62,5.46.11,10.91,3.44,15.41,2.89,3.95,7.29,7.03,11.46,9.56,9.19,5.56,19.48,8.97,29.55,12.56,16.66,5.93,33.06,12.63,49.36,19.44,8.35,3.48,16.81,7.43,24.39,12.56,1.39.92,2.78,1.9,4.1,2.93Z"/>
          <path class="cls-4" d="m267.11,462.26c-.04.11-.04.26-.07.37-.48,2.64-1.03,5.24-1.57,7.87-.11.55-.22,1.1-.33,1.65-3.04,15.41-6.37,30.76-9.7,46.1-2.56-.07-5.2-.18-7.84-.18,3.88-16.59,8.16-33.1,12.82-49.5.15-.59.33-1.14.48-1.72.66-2.38,1.36-4.76,2.05-7.14.04-.07.04-.18.07-.26,1.39.88,2.78,1.83,4.1,2.82Z"/>
          <g>
            <path class="cls-2" d="m516.51,652.93c-8.01-1.48-15.8,7.11-21.46,11.58-7.56,5.96-15.08,12.01-22.7,17.91-4.53,3.51-9.91,9.24-16.03,9.66-6.01.43-9.62-4.14-12.03-9.05-3.18-6.53-7.05-11.24-12.64-15.89-4.95-4.08-10.18-7.96-14.19-13-8.06-10.18-10.29-23.31-10.69-35.94-.29-7.73.06-15.48.67-23.17.42-5.16.74-10.39,1.32-15.57-.5-.04-1.01-.05-1.52-.14-2.74,4.86-7.91,8.7-13.05,6.75-5.95-2.27-9.38-9.57-11.5-15.08-2.33-5.99-3.69-12.41-3.35-18.87.65-12.72,8.05-23.87,19.86-28.72,6.85-2.81,8.52-10.98,14.51-15.28,4.02-2.92,8.75-3.9,13.26-2.76,4.45-9.1,17.15-10.47,25.81-6.2,6.28,3.12,11.17,8.35,15.87,13.44,2.74,2.91,5.49,5.88,8.21,8.82,1.8,1.91,4.02,5.32,6.64,6.85,10.31-22.73,19.57-45.57,26.32-69.65,1.85-6.56,5.18-15.16,13.45-14.72,7.8.41,11.97,8.6,11.53,15.6-.3,4.77-2.19,9.38-3.78,13.83-1.83,5.14-3.73,10.26-5.58,15.36-3.98,10.79-8.03,21.56-11.74,32.46-3.64,10.73-7.22,21.6-9.68,32.65-2.45,11.21-2.86,22.64-2.31,34.03.51,10.51,1.12,21.37,3.09,31.7,1.9,10.39,7.48,19.1,13.18,27.79.45.65.51,1.27.48,1.85,1.07,1.46.14,4.16-1.94,3.76Z"/>
            <path class="cls-4" d="m515.2,630.94c-15.38-38.04-6.69-79.73,6.92-116.85,3.92-10.69,8.02-21.34,10.99-32.35,2.44-9.05,5.09-19.24,3.51-28.65-1.18-7-5.54-13.77-13.29-14-7.11-.21-12.32,5.98-15.35,11.71-5.34,10.08-8.26,21.82-11.99,32.57-4.49,12.94-9.02,25.87-13.19,38.91.35-1.09-13.86-11.52-15.27-12.83-5.28-4.9-9.71-13.38-15.7-16.94-5.85-3.47-13.6-1.34-19.11,1.76-2.6,1.47-6.64,3.27-7.39,6.48-.11.46-.1.92-.05,1.38-1.73-.5-3.53-.77-5.42-.73-9.37.21-15.35,9.71-18.41,17.53-.18.46-.16.96-.06,1.46-3.42-.16-6.81.48-10.04,2.38-9.44,5.56-15.72,19.91-15.96,30.49-.26,11.08,2.38,26.14,11.19,33.73,4.58,3.94,11.41,6.04,17.09,3.18.81-.41,1.54-.92,2.22-1.48-.75,11.82-1.84,23.63-2.24,35.46-.36,10.54.71,21.46,7.23,30.16,6.4,8.54,16.23,13.87,24.24,20.81,5.98,10.41,12.27,20.58,17.25,31.54,1.76,3.88,7.7.81,5.89-3.06-4.49-9.61-10.18-18.35-15.34-27.58-6.52-11.65-19.24-15.99-26.56-26.98-6.49-9.75-5.6-18.73-5.43-29.68.2-13.05,2.4-26,2.24-39.09-.06-4.53-.8-9.08-3.37-12.91-1.35-2.01-3.15-3.56-4.8-5.3-1.53-1.61-2.23-3.64-4.12-4.85-.87-.55-2.28-.37-2.81.6-3.74,6.94,8.57,12.52,6.42,20.41-1.57,5.76-7.04,7.98-11.95,4.71-4.96-3.3-7.09-9.46-8.33-14.99-1.34-5.97-2.66-12.7-1.33-18.77,1.25-5.74,4.08-12.09,7.83-16.65,9.48-11.51,24.38-.12,33.57,6.14,11.91,8.11,22.31,18.09,33.86,26.63,1.97,1.46,4.27-1.44,2.71-3.2-9.93-11.29-21.7-21.54-34.06-30.09-5.62-3.88-12.71-8.73-20-10.73.1-.16.22-.3.3-.48.14-.32.28-.64.42-.96.02-.04.05-.1.08-.16,1.94-3.73,6.76-9.66,11.23-10.33,2.75-.41,5.59.53,7.95,1.87,6.02,3.41,11.24,8.85,16.35,13.45,10.4,9.35,20.33,19.38,31.33,28.03,1.86,1.46,3.84-1.33,2.53-2.99-11.1-14.07-24.42-26.87-37.8-38.75-2.62-2.33-5.43-4.65-8.49-6.43.42-.43.71-.97.73-1.57,3.08-4.22,9.59-5.96,14.56-4.93,6,1.24,11.21,10.41,15.43,14.65,8.76,8.8,18.5,16.31,28.2,24.02,2.85,2.3,6.97-2.49,4.18-4.94-2.31-2.03-4.66-4.02-7.01-6.03.48-.29.9-.71,1.15-1.38,7.74-20.51,14.74-41.3,21.93-62.01,1.96-5.65,5.54-16.97,13.08-17.12,9.41-.18,8.18,14.55,7.32,20.42-3.04,20.8-12.22,40.05-18.75,59.86-5.5,16.67-9.38,34.03-10.46,51.58-.67,10.87-.18,21.83,1.7,32.57.99,5.64,1.6,11.42,3.49,16.86.93,2.69,2.12,5.57,4.06,7.71,3.07,3.41,3.76,1.23,6.48-1.73-.52-.48-1.05-1.01-1.59-1.55Z"/>
            <path class="cls-3" d="m837.7,757.35c-16.84,34.94-35.52,69.07-53.97,103.21-9.2,17.02-18.02,34.43-27.94,51.08-7.97,13.45-18.82,24.05-33.64,30.01-29.49,11.83-67.1,8-96.22-4.37-34.04-14.47-60.08-41.7-83.72-68.99-25-28.83-47.73-59.46-69.24-90.79-5.37-7.84-10.69-15.74-15.95-23.65-4.61-6.98-9.76-14.02-12.91-21.8-5.49-13.53-5.33-30.16,7.99-38.85.2-.11.38-.16.61-.23,12.34-10.59,24.69-21.18,36.55-32.35,6.94-6.56,13.68-13.33,20.24-20.24,1.16-1.23,2.3-2.47,3.46-3.7,1.27-1.38,2.55-2.8,3.81-4.19,1.83,1.72,3.65,3.48,5.53,5.18,8.76,8.34,17.53,16.67,26.55,24.76,23.91,21.41,47.2,43.5,70.73,65.27,9.26,8.57,18.56,17.16,27.77,25.76,12.68-24.7,25.1-49.62,43.1-71.04,19.91-23.73,47.49-43.46,79.74-46.45,28.65-2.66,59.02,9.46,74.33,34.52,16.94,27.76,5.9,60.45-6.84,86.86Z"/>
            <path class="cls-4" d="m676.07,767.62c-25.51-24.25-51.74-47.73-78.55-70.53-13.08-11.13-26.4-21.99-39.82-32.71-13.82-11.05-27.64-22.31-42.23-32.34-2.74-1.88-6.5,2.31-3.85,4.55,13.3,11.25,27.22,21.79,40.75,32.77,13.53,10.99,26.87,22.2,40.17,33.46,26.64,22.56,52.64,45.87,78.15,69.7,3.39,3.16,8.78-1.66,5.37-4.9Z"/>
            <path class="cls-4" d="m774.1,648.71c-3.37-13.26-25.57-9.5-35.15-7.58-13.37,2.67-26.43,8.46-36.47,17.83-12.12,11.32-19.38,27.72-27.53,41.9-4.55,7.93-9.19,15.81-13.64,23.8-2.23,4-4.45,8-6.64,12.02-2.1,3.84-4.82,7.77-5.8,12.07-.42,1.83,1.64,3.5,3.21,2.08,5.47-4.98,9.04-13.18,12.88-19.45,4.3-7.01,8.44-14.12,12.62-21.2,7.73-13.09,14.7-27.41,24.03-39.45,7.72-9.97,18.81-16.78,30.79-20.45,5.74-1.76,11.7-2.9,17.68-3.42,3.46-.3,7.07-.47,10.52.1,3.7.61,6.49,2.55,9.67,4.39,1.79,1.04,4.39-.42,3.83-2.64Z"/>
            <path class="cls-2" d="m780.09,887.19c-8.48,12.97-18.08,25.25-28.67,36.58-6.36,6.8-13.3,13.95-20.86,20.11-2.13-.98-4.28-1.92-6.47-2.84,3.28-2.67,6.54-5.38,9.64-8.28,6.22-5.87,12.11-11.98,17.71-18.45,20.6-23.96,36.8-51.63,49.9-80.3,7.15-15.63,13.46-31.64,19.37-47.82,2.99-8.23,5.88-16.5,8.73-24.78,2.53-7.47,4.36-15.96,8.37-22.8,1.38-2.36,5.45-1.09,5.13,1.67-.57,5.06-2.61,9.84-4.22,14.64-1.56,4.58-3.13,9.16-4.69,13.74-3.27,9.42-6.58,18.82-10.09,28.15-11.78,31.37-25.48,62.25-43.85,90.38Z"/>
          </g>
          <path class="cls-2" d="m600.7,607.69c-1.06.84-2.75.66-3.88.07-2.42-1.25-3.11-3.59-3.88-6.08-.81-2.6-1.5-5.24-2.09-7.91-1.1-5.16-1.83-10.43-2.16-15.71-.18-2.78-.18-5.53-.07-8.28,2.42.48,4.83.99,7.21,1.54,0,1.39.07,2.75.15,4.1.26,4.47.77,8.9,1.65,13.26.48,2.38,1.03,4.69,1.68,6.99.26.99.55,1.98.88,2.97.18.62.4,1.25.62,1.87,3.29,1.61,2.2,5.42-.11,7.18Z"/>
          <path class="cls-2" d="m375.34,631.16c-.15,4.32-5.79,4.54-6.55.44-1.06-5.38-.92-11.17-.95-16.66-.04-3.29.04-6.55.15-9.85v1.21c2.2-.37,4.43-.73,6.63-1.14-.07,3.33-.04,6.63.04,9.96.15,5.35.84,10.73.7,16.04Z"/>
        </g>
      </g>
      <path class="cls-2" d="m684.42,179.98c-6.46,2.06-12.88,4.23-19.29,6.43-1.11.38-2.17.5-2.73-.51-.58-1.03.14-1.94,1.02-2.63,1.66-1.29,3.31-2.6,5.29-4.15-1.14-.5-1.89-.87-2.66-1.16-3.55-1.35-7.12-2.63-10.65-4.04-.62-.25-1.07-.97-1.59-1.47.64-.37,1.28-1.05,1.92-1.05,2.36-.02,4.77-.09,7.07.34,5.97,1.1,11.89,2.46,17.84,3.7.44.1.92.04,1.38.06l4.43,1.72c.42,1.73-.51,2.3-2.03,2.78Z"/>
      <path class="cls-2" d="m597.26,195.48c-.4.52-.68,1.28-1.21,1.52-1.64.75-3.36,1.36-5.08,1.93-10.24,3.39-19.77,8.38-29.5,12.92-2.44,1.14-4.86,2.31-7.32,3.39-1.03.45-2.19,1.49-3.25.33-1.14-1.27.27-2.16.88-3.05,2.31-3.4,4.69-6.75,7.03-10.13.17-.24.24-.56.37-.89-5.85-1.81-11.8-2.54-17.79-2.97-1.37-.1-2.8-.15-3.27-1.75-.31-1.05,1.24-2.45,3.13-2.57,6.06-.4,12.13-.94,18.2-.89,9.39.07,18.79.61,28.18.93,2.68.09,5.36.04,8.03.2.55.04,1.07.68,1.6,1.04Z"/>
      <path class="cls-2" d="m494.24,229.79c-3.12,3.03-6.37,5.93-9.63,8.79-3.2,2.82-6.49,5.51-9.74,8.28-3.06,2.61-6.1,5.27-9.17,7.87-6.28,5.3-12.57,10.58-18.88,15.85-1.02.86-1.89,2.62-3.53,1.44-1.35-.98-.5-2.47-.12-3.72,1.81-5.96,4.93-11.28,8.15-16.56,1.3-2.13,2.45-4.35,3.67-6.54-.11-.23-.21-.45-.32-.67-2.11-.12-4.22-.22-6.33-.37-3.62-.25-7.24-.63-10.87-.77-3.63-.14-7.27-.19-10.89-.04-5.66.23-11.33.67-17,.98-.93.05-1.92.05-2.8-.21-.57-.18-1.29-.85-1.36-1.37-.07-.53.44-1.39.93-1.69.73-.43,1.09-.83,1.31-1.69.14-.56.86-1.19,1.46-1.38,3.96-1.32,7.93-2.63,11.96-3.75,3.04-.85,6.13-1.62,9.25-2.05,8.45-1.17,16.9-2.31,25.38-3.14,11.17-1.1,22.36-1.93,33.55-2.84,1.25-.1,2.55-.12,3.78.08,2.22.36,2.81,1.94,1.2,3.5Z"/>
    </g>
  </g>
</svg>