<?xml version="1.0" encoding="utf-8"?>
<!-- Generator: Adobe Illustrator 27.0.0, SVG Export Plug-In . SVG Version: 6.00 Build 0)  -->
<svg version="1.1" id="Layer_1" xmlns="http://www.w3.org/2000/svg" xmlns:xlink="http://www.w3.org/1999/xlink" x="0px" y="0px"
	 viewBox="0 0 1920 776" style="enable-background:new 0 0 1920 776;" xml:space="preserve">
<style type="text/css">
	.st0{fill:#0F48F6;}
	.st1{fill:#0041E2;}
	.st2{fill:#DDFF07;}
	.st3{fill:#174C99;}
	.st4{fill:url(#SVGID_1_);}
	.st5{fill:#FFFFFF;}
	.st6{fill:#09181F;}
	.st7{fill:#049EFF;}
	.st8{fill:#A8E1FC;}
	.st9{fill:#F7BA5F;}
	.st10{fill:url(#SVGID_00000178919455331701977370000004262722461838116519_);}
	.st11{fill:url(#SVGID_00000108289096975962309570000007245885773144867218_);}
	.st12{fill:#F6BB5D;}
	.st13{fill:url(#SVGID_00000090271037523443820900000014772053149959206327_);}
	.st14{fill:url(#SVGID_00000025443295705476899680000009215946076908428176_);}
	.st15{fill:url(#SVGID_00000043459258825818960600000010766924205580991379_);}
	.st16{fill:#0C3D77;}
	.st17{fill:url(#SVGID_00000011011264448949542530000009669201516317476010_);}
	.st18{fill:url(#SVGID_00000101067803518076290880000007571084655278433179_);}
	.st19{fill:url(#SVGID_00000092457803771209880240000005782678371839459727_);}
	.st20{fill:url(#SVGID_00000152243956789832359330000009375482002975222415_);}
	.st21{fill:url(#SVGID_00000167365748763750284010000000749833987277759679_);}
	.st22{fill:#FDD615;}
	.st23{fill:url(#SVGID_00000036248634195280990280000018205043952271721400_);}
	.st24{fill:url(#SVGID_00000179637675382029836770000014040168058337212578_);}
	.st25{fill:url(#SVGID_00000116225268730001090280000005486624634992673190_);}
	.st26{fill:url(#SVGID_00000073706413831326127550000011249812336439250581_);}
	.st27{filter:url(#Adobe_OpacityMaskFilter);}
	.st28{filter:url(#Adobe_OpacityMaskFilter_00000136372538778911280130000001772885122883148200_);}
	
		.st29{mask:url(#SVGID_00000108311342394436725560000005548742172729479863_);fill:url(#SVGID_00000134215685030917235900000017332013909309475994_);}
	.st30{opacity:0.57;fill:url(#SVGID_00000132770342071850757840000017793733948996419506_);}
	.st31{fill:url(#SVGID_00000025444760528594621160000002267231842247798161_);}
	.st32{fill:#FB7247;}
	.st33{fill:url(#SVGID_00000123398703680832794950000008758031514936455084_);}
	.st34{fill:url(#SVGID_00000029766987556166079960000011815785368203119769_);}
	.st35{fill:url(#SVGID_00000088830012992551049650000010928520238840488358_);}
	.st36{fill:url(#SVGID_00000057117793782831896150000004491673431079796128_);}
	.st37{fill:#CDE200;}
	.st38{fill:url(#SVGID_00000160186249120154434490000017716091492304727691_);}
	.st39{fill:url(#SVGID_00000024001435720507123520000007642613946758312894_);}
	.st40{fill:url(#SVGID_00000073686513386628679570000009054951970553437321_);}
	.st41{fill:url(#SVGID_00000140714851759217831050000005679986485488896162_);}
	.st42{fill:url(#SVGID_00000174575460994562096270000014121104563179271100_);}
	.st43{fill:url(#SVGID_00000016044508752150724530000008269255350246326441_);}
	.st44{fill:url(#SVGID_00000092443894808659151410000017446515689156283025_);}
	.st45{fill:url(#SVGID_00000078760972450916226350000005101975301594546592_);}
	.st46{fill:url(#SVGID_00000056423255275970199840000010547282197174673540_);}
	.st47{fill:url(#SVGID_00000105402972113183207650000012470169103322317737_);}
	.st48{fill:#19B6E0;}
	.st49{fill:url(#SVGID_00000181082927066585522000000007297123794842010261_);}
	.st50{fill:url(#SVGID_00000108289965774781154180000012960249952135427481_);}
	.st51{fill:#8ED6EF;}
	.st52{fill:#A9E1FA;}
	.st53{fill:#1D6A77;}
	.st54{fill:#DAE4E8;}
	.st55{fill:url(#SVGID_00000036248490009975811420000002833006896352655791_);}
	.st56{fill:url(#SVGID_00000170237553663664594050000009752799079822657694_);}
	.st57{fill:url(#SVGID_00000005959763925159544220000003897975772321933723_);}
	.st58{fill:#0496C7;}
	.st59{fill:url(#SVGID_00000059307945627309550400000015788534972604332722_);}
	.st60{fill:url(#SVGID_00000132053878828680400210000014282999781118049214_);}
	.st61{fill:#E28E29;}
	.st62{fill:url(#SVGID_00000078757478781398940120000016171981319329029277_);}
</style>
<rect x="1" y="1" class="st0" width="1920" height="777"/>
<rect x="-3" y="631.64" class="st1" width="1922" height="144.36"/>
<g>
	<path class="st2" d="M450.18,634.26h-97.52V353.05h-88.14v-79.74h273.55v79.74h-87.9V634.26z"/>
	<path class="st2" d="M803.97,634.26h-214.3V273.31h214.3v78.26H687.19v56.78h108.14v78.27H687.19v68.14h116.78V634.26z"/>
	<path class="st2" d="M1088.64,634.26l-17.77-67.65H953.59l-18.27,67.65H828.17l117.76-362.44h130.11l119.25,362.44H1088.64z
		 M1050.62,486.63l-15.56-59.25c-3.62-13.17-8.02-30.21-13.21-51.11c-5.18-20.9-8.6-35.88-10.24-44.93
		c-1.48,8.39-4.41,22.22-8.77,41.47c-4.36,19.26-14.04,57.2-29.01,113.82H1050.62z"/>
	<path class="st2" d="M1391.58,634.26l-73.82-259.98h-2.22c3.45,44.28,5.18,78.68,5.18,103.2v156.78h-86.41V273.31h129.87
		l75.3,256.27h1.97l73.82-256.27h130.11v360.96h-89.62V476.01c0-8.23,0.13-17.36,0.37-27.41c0.25-10.04,1.36-34.64,3.33-73.82h-2.22
		l-72.83,259.48H1391.58z"/>
</g>
<g>
	<g>
		<path class="st3" d="M1670.67,538.07c-5.05,19.26-6.73,50.58-7.27,72.52l38.52-22.06v-95.45l-8.93-2.95v3.83
			C1692.99,493.97,1679.06,506.03,1670.67,538.07z"/>
		<path class="st3" d="M1657.55,544.62c-12.73,37.87-11.77,76.06-11.77,76.06l17.61-10.09c0.54-21.94,2.22-53.27,7.27-72.52
			c8.4-32.04,22.33-44.1,22.33-44.1v-3.83l-3.63-1.2C1689.37,488.94,1670.81,505.18,1657.55,544.62z"/>
		<linearGradient id="SVGID_1_" gradientUnits="userSpaceOnUse" x1="1712.5031" y1="556.6993" x2="1618.0496" y2="552.7224">
			<stop  offset="0" style="stop-color:#174C99"/>
			<stop  offset="1" style="stop-color:#262D99"/>
		</linearGradient>
		<path class="st4" d="M1657.55,544.62c-12.73,37.87-11.77,76.06-11.77,76.06l17.61-10.09c0.54-21.94,2.22-53.27,7.27-72.52
			c8.4-32.04,22.33-44.1,22.33-44.1v-3.83l-3.63-1.2C1689.37,488.94,1670.81,505.18,1657.55,544.62z"/>
	</g>
	<polygon class="st5" points="1826.24,623.49 1832.84,627.5 1838.23,623.7 1830.27,616.2 	"/>
	<path class="st5" d="M1737.28,472.44l-13.32,16.47c-2.19,2.71-6.06,3.34-8.99,1.47l-6.51-4.14c-0.61-0.39-1.42-0.24-1.85,0.35
		l-4.69,6.49l-10.9-8.58c0,0,8.46-12.99,12.64-18.32c4.17-5.33,18.09-8.23,18.09-8.23L1737.28,472.44z"/>
	<path class="st6" d="M1721.86,463.75c0,0,8.93,11.54,16.87,10.55s14.14-8.35,13.68-15.77c-2.2,3.07-12-1.39-16.7-7.83
		c-4.7-6.43-13.22-8.12-19.59-3.01c-6.38,5.1-18.61,23.36-18.61,23.36s5.45,8,12.17,4.52
		C1716.41,472.1,1721.86,463.75,1721.86,463.75z"/>
	<path class="st5" d="M1730.12,481.31c0,0,1.91,1.78,0.86,2.99c-1.04,1.22-2.98-0.38-2.98-0.38S1728.12,482.01,1730.12,481.31z"/>
	<path class="st5" d="M1723.67,553.39h21.04c0,0,6.46,3.2,7.13,4.31c0.66,1.1,2.07,5.11,2.07,5.77c0,0.66-1.13,0.8-1.96-0.91
		c-0.83-1.71-1.27-2.98-1.6-3.37c-0.33-0.39-4.18-2.56-4.18-2.56s2.41,2.72,2.52,3.39c0.11,0.66-1.16,4.64-1.77,4.64
		c-0.61,0-1.16-0.44-0.99-1.44c0.17-0.99,0.94-2.87,0.72-3.09c-0.22-0.22-1.93-2.26-1.93-2.26s1.55,2.15,1.49,2.49
		c-0.06,0.33-1.6,3.87-2.1,4.03c-0.5,0.17-0.94-1.1-0.72-2.26c0.22-1.16,0.83-1.49,0.66-1.99s-1.77-1.77-1.77-1.77
		s0.22,2.87,0.11,3.42c-0.11,0.55-1.82,1.6-2.82,2.1s-0.5-1.16,0.11-1.77c0.61-0.61,0.83-0.72,0.83-0.72l-0.44-2.38
		c0,0-3.54,0.11-7.13,0.28c-3.59,0.17-7.29-0.39-7.29-0.39L1723.67,553.39z"/>
	<polygon class="st7" points="1701.92,493.08 1697.02,501.59 1684.06,494.19 1691.02,484.5 	"/>
	<path class="st6" d="M1830.25,627.5v5.47c0,0.58,0.47,1.05,1.05,1.05h25.68c0,0-0.19-3.43-5.08-4.27
		c-4.9-0.84-11.9-4.56-12.55-5.02c-0.65-0.47-0.73-2.87-1.14-3.37c-0.41-0.5-1.68-0.81-1.68,1.03s-0.53,3.77-2.87,3.77
		c-2.34,0-3.03-0.5-3.21-1.03C1830.25,624.6,1827.91,625.2,1830.25,627.5z"/>
	<polygon class="st6" points="1722.66,567.98 1771.39,567.98 1787.69,525.6 1784.8,525.6 1769.32,564.41 1723.22,564.41 	"/>
	<g>
		<path class="st5" d="M1808.31,515.84h-41.25c-2.4,0-4.34-1.94-4.34-4.34v-25.85c0-2.4,1.94-4.34,4.34-4.34h41.25
			c2.4,0,4.34,1.94,4.34,4.34v25.85C1812.65,513.9,1810.71,515.84,1808.31,515.84z"/>
		<path class="st8" d="M1810.56,484.88c0-0.77-0.62-1.39-1.39-1.39c-0.77,0-1.39,0.62-1.39,1.39s0.62,1.39,1.39,1.39
			C1809.94,486.27,1810.56,485.65,1810.56,484.88z"/>
		<circle class="st8" cx="1766.34" cy="484.88" r="1.39"/>
		<circle class="st9" cx="1770.48" cy="484.88" r="1.39"/>
		<path class="st8" d="M1776.1,505.34h-10.08c-0.33,0-0.59-0.27-0.59-0.59v-12.9c0-0.33,0.27-0.59,0.59-0.59h10.08
			c0.33,0,0.59,0.27,0.59,0.59v12.9C1776.69,505.08,1776.43,505.34,1776.1,505.34z"/>
		<rect x="1782.58" y="491.26" class="st8" width="26.6" height="3.07"/>
		<rect x="1782.58" y="496.77" class="st8" width="26.6" height="3.07"/>
		<rect x="1782.58" y="502.28" class="st8" width="26.6" height="3.07"/>
		<rect x="1765.43" y="507.79" class="st8" width="43.75" height="3.07"/>
	</g>
	<path class="st5" d="M1795.83,459.96h-13.26h-13.26c-2.4,0-4.35-1.95-4.35-4.35v-14.05c0-2.4,1.95-4.35,4.35-4.35h26.51
		c2.4,0,4.35,1.95,4.35,4.35v14.05C1800.19,458.01,1798.24,459.96,1795.83,459.96z"/>
	<polygon class="st5" points="1772.48,458.63 1765.74,466.77 1781.1,458.19 	"/>
	<g>
		<path class="st2" d="M1690.8,612.39c11.05-2.87,54.84-29.19,61.55-28.75c6.07,0.4,66.39,31.28,77.96,37.22
			c2.07-2.75,3.66-5.29,3.66-5.29s-70.48-47.59-79.32-47.59s-52.73,20.55-52.73,20.55l-29.63,16.97
			C1674.75,608.14,1681.91,614.7,1690.8,612.39z"/>
		<path class="st2" d="M1678.21,634.26c20.77,0,71.14-36.46,76.23-37.34c5.08-0.88,24.97,12.59,72.03,28.5
			c1.3-1.3,2.65-2.97,3.85-4.57c-11.56-5.94-71.89-36.82-77.96-37.22c-6.71-0.44-50.5,25.88-61.55,28.75
			c-8.89,2.31-16.05-4.25-18.51-6.89l-21.98,12.59C1650.31,618.09,1657.44,634.26,1678.21,634.26z"/>
		<path class="st2" d="M1678.21,634.26c20.77,0,71.14-36.46,76.23-37.34c5.08-0.88,24.97,12.59,72.03,28.5
			c1.3-1.3,2.65-2.97,3.85-4.57c-11.56-5.94-71.89-36.82-77.96-37.22c-6.71-0.44-50.5,25.88-61.55,28.75
			c-8.89,2.31-16.05-4.25-18.51-6.89l-21.98,12.59C1650.31,618.09,1657.44,634.26,1678.21,634.26z"/>
	</g>
	<g>
		<path class="st7" d="M1677.6,527.88c0,12.59,0,51.2,0,51.2s0.58,5.47,8.12,1.33c5.94-3.27,30.41-18.29,39.15-23.67l-1.2-3.35
			l-29.94,11.38v-39c0,0,0.44-14.14-8.95-14.14c-0.25,0-0.48,0.02-0.73,0.02C1683.95,511.71,1677.6,515.39,1677.6,527.88z"/>
		<path class="st7" d="M1671.41,529.2c0,13.04,0,54.35,0,54.35s-1.22,12.26,8.95,7.29s45.29-31.93,45.29-31.93l-0.78-2.18
			c-8.74,5.38-33.21,20.41-39.15,23.67c-7.54,4.14-8.12-1.33-8.12-1.33s0-38.61,0-51.2c0-12.49,6.35-16.17,6.45-16.23
			C1675.2,511.89,1671.41,516.51,1671.41,529.2z"/>
		
			<linearGradient id="SVGID_00000022552423664934896180000015496636513157763237_" gradientUnits="userSpaceOnUse" x1="1699.6808" y1="549.1781" x2="1641.5175" y2="556.9663">
			<stop  offset="0" style="stop-color:#049EFF"/>
			<stop  offset="0.493" style="stop-color:#0484FF"/>
			<stop  offset="1" style="stop-color:#0465FF"/>
		</linearGradient>
		<path style="fill:url(#SVGID_00000022552423664934896180000015496636513157763237_);" d="M1671.41,529.2c0,13.04,0,54.35,0,54.35
			s-1.22,12.26,8.95,7.29s45.29-31.93,45.29-31.93l-0.78-2.18c-8.74,5.38-33.21,20.41-39.15,23.67c-7.54,4.14-8.12-1.33-8.12-1.33
			s0-38.61,0-51.2c0-12.49,6.35-16.17,6.45-16.23C1675.2,511.89,1671.41,516.51,1671.41,529.2z"/>
	</g>
	
		<linearGradient id="SVGID_00000018224607952761150710000014845825697478013837_" gradientUnits="userSpaceOnUse" x1="1716.4332" y1="496.4156" x2="1674.5648" y2="490.1187">
		<stop  offset="0" style="stop-color:#049EFF"/>
		<stop  offset="0.493" style="stop-color:#0484FF"/>
		<stop  offset="1" style="stop-color:#0465FF"/>
	</linearGradient>
	<polygon style="fill:url(#SVGID_00000018224607952761150710000014845825697478013837_);" points="1695.71,488.19 1690.28,496.73 
		1697.33,501.04 1697.02,501.59 1684.06,494.19 1691.02,484.5 	"/>
	<polygon class="st6" points="1684.3,494.32 1697.02,501.59 1683.07,495.82 	"/>
	<polygon class="st6" points="1701.92,576.57 1681.55,590.23 1701.92,580.46 	"/>
	<g>
		<path class="st6" d="M1682.24,570.05c-0.13,0-0.25-0.08-0.3-0.2c-0.07-0.17,0.01-0.37,0.17-0.44l11.29-4.87v-48.6
			c0-0.18,0.15-0.33,0.33-0.33c0.18,0,0.33,0.15,0.33,0.33v48.82c0,0.13-0.08,0.25-0.2,0.31l-11.49,4.95
			C1682.33,570.04,1682.29,570.05,1682.24,570.05z"/>
	</g>
	<g>
		<path class="st6" d="M1693.73,533.56c-0.03,0-0.06,0-0.09-0.01c-0.18-0.05-0.28-0.23-0.23-0.41l3.01-11.14
			c0.05-0.18,0.22-0.28,0.41-0.23c0.18,0.05,0.28,0.23,0.23,0.41l-3.01,11.14C1694.01,533.46,1693.88,533.56,1693.73,533.56z"/>
	</g>
	<polygon class="st6" points="1650.31,618.09 1682.24,599.8 1652.17,621.24 	"/>
	<polygon class="st6" points="1827.54,624.28 1832.29,618.1 1828.63,624.94 	"/>
	<circle class="st9" cx="1719.36" cy="481.31" r="2.73"/>
</g>
<g>
	<path class="st5" d="M689.87,699.83l1.68-10.56l-8.3,1.06v15.02C683.24,705.35,688.94,702.7,689.87,699.83z"/>
	<polygon class="st5" points="654.89,612.69 644.44,626.4 645.7,628.59 649.14,629.12 651.86,627.87 662,617.72 	"/>
	<path class="st5" d="M722.31,537.6c0,0-9.54-8.92-10.01-9.32c-0.46-0.4-6.19-0.79-6.52,0.07c-0.33,0.86,5.24,1.19,5.5,1.33
		c0.26,0.13,2.1,2.64,2.1,2.64s-1.81-1.91-2.5-2.04c-0.69-0.13-5.21-0.07-5.12,0.4c0.08,0.46,1.27,1.02,2.33,1.02
		c1.06,0,2.72,0.24,2.72,0.24l1.79,1.19l-2.45-0.27l0.13,1.66c0,0,2.37,1.53,3.11,2.33c0.75,0.8,3.8,3.59,7.69,4.03
		C723.1,538.75,722.31,537.6,722.31,537.6z"/>
	<g>
		<path class="st3" d="M808.24,561.78c-19.78-2.01-62.19-12.21-83-19.93l0.67-3.89c0,0,24.73,7.77,48.76,10.99
			c18.08,2.42,46.39,5.85,59.3,7.4C832.4,558.04,825.83,563.57,808.24,561.78z"/>
		<path class="st12" d="M819.37,573.29c0,0-16.43-2.65-42.87-10.51c-26.44-7.86-51.53-19.35-51.53-19.35l0.27-1.58
			c20.8,7.72,63.22,17.93,83,19.93c17.59,1.78,24.16-3.74,25.73-5.43c4.24,0.51,6.83,0.82,6.83,0.82L819.37,573.29z"/>
		
			<linearGradient id="SVGID_00000033347434872986238390000011978124023861532040_" gradientUnits="userSpaceOnUse" x1="868.3303" y1="535.9261" x2="849.6864" y2="620.3564" gradientTransform="matrix(-1 0 0 1 1648.0417 0)">
			<stop  offset="0" style="stop-color:#174C99"/>
			<stop  offset="1" style="stop-color:#262D99"/>
		</linearGradient>
		<path style="fill:url(#SVGID_00000033347434872986238390000011978124023861532040_);" d="M819.37,573.29
			c0,0-16.43-2.65-42.87-10.51c-26.44-7.86-51.53-19.35-51.53-19.35l0.32-1.86c20.8,7.72,63.35,16.9,83.13,18.91
			c17.59,1.78,23.75-2.47,25.32-4.16c4.24,0.51,7.06,0.84,7.06,0.84L819.37,573.29z"/>
	</g>
	<g>
		<path class="st5" d="M658.29,618.16l-5.7-4.94l45.47-48.47c4.07-4.34,10.4-5.43,15.62-2.96c-0.4,2.15-1.87,5.47-6.14,10.27
			C699.63,580.93,678.46,603.19,658.29,618.16z"/>
		
			<linearGradient id="SVGID_00000013190262416154012460000008790400462946465967_" gradientUnits="userSpaceOnUse" x1="1012.0438" y1="570.7314" x2="839.6083" y2="638.9283" gradientTransform="matrix(-1 0 0 1 1648.0417 0)">
			<stop  offset="0" style="stop-color:#FFFFFF"/>
			<stop  offset="1" style="stop-color:#72C0FF"/>
		</linearGradient>
		<path style="fill:url(#SVGID_00000013190262416154012460000008790400462946465967_);" d="M770.08,601.56l2.23,9.16l-35.05,3.43
			c0,0-26.5-27.83-30.61-28.75c-4.11-0.93-8.22,8.61-18.15,17.09c-9.94,8.48-27.96,17.62-27.96,17.62l-2.25-1.95
			c20.17-14.97,41.34-37.23,49.24-46.11c4.27-4.8,5.74-8.13,6.14-10.27c0.71,0.33,1.4,0.73,2.05,1.19L770.08,601.56z"/>
	</g>
	<g>
		<path class="st5" d="M682.89,629.64c0-10.45,8.47-18.92,18.92-18.92h70.5l7.75,18.72l-3.56-7.21h-73.92c0,0-7.42,0-7.77,13.43
			c-0.33,12.71-1.78,38.08-6.73,55.74h-5.19V629.64z"/>
		
			<linearGradient id="SVGID_00000052795771994178887500000005177556476255716522_" gradientUnits="userSpaceOnUse" x1="942.0001" y1="583.248" x2="914.4633" y2="658.64" gradientTransform="matrix(-1 0 0 1 1648.0417 0)">
			<stop  offset="0" style="stop-color:#FFFFFF"/>
			<stop  offset="1" style="stop-color:#72C0FF"/>
		</linearGradient>
		<path style="fill:url(#SVGID_00000052795771994178887500000005177556476255716522_);" d="M702.59,622.23h73.92l3.56,7.21l2.65,6.4
			c0,0-4.15,3.36-12.63,3.36c-8.48,0-15.11-4.68-15.11-4.68s-38.47,0-47.13,0c-8.66,0-5.17,15.55-7.2,26.24
			c-2.03,10.69-8.5,30.65-8.5,30.65h-4.06c4.95-17.66,6.4-43.03,6.73-55.74C695.17,622.23,702.59,622.23,702.59,622.23z"/>
	</g>
	<g>
		<path class="st16" d="M830.28,592.02c-16.8,17.94-40.67,30.56-53.78,35.95l-6.43-26.4l72.34-45.41l9.39,1.47l-1.39,2.66
			C850.41,560.28,847.9,573.2,830.28,592.02z"/>
		
			<linearGradient id="SVGID_00000052824059942740055570000000142272981495014019_" gradientUnits="userSpaceOnUse" x1="850.4501" y1="567.8087" x2="813.0831" y2="626.9069" gradientTransform="matrix(-1 0 0 1 1648.0417 0)">
			<stop  offset="0" style="stop-color:#0C3D77"/>
			<stop  offset="1" style="stop-color:#092E59"/>
		</linearGradient>
		<path style="fill:url(#SVGID_00000052824059942740055570000000142272981495014019_);" d="M830.06,606.24
			c-21.02,21.91-50.26,35.25-50.26,35.25l-3.29-13.52c13.1-5.39,36.98-18.01,53.78-35.95c17.62-18.82,20.13-31.73,20.13-31.73
			l1.39-2.66l4.14,0.65C855.94,558.27,851.08,584.33,830.06,606.24z"/>
	</g>
	<path class="st5" d="M844.42,512.35l-6.67,20.89c-0.89,2.79,0.58,5.79,3.34,6.78l6.19,2.23c1.15,0.41,1.72,1.7,1.25,2.82
		l-1.59,3.87l11.46,5.55l8.01-19.17c0,0-2.04-12.46-4.67-15.67C859.12,516.44,844.42,512.35,844.42,512.35z"/>
	<path class="st5" d="M753.08,576.95l-8.62-14.45c0,0-4.85-3.13-5.88-3.13c-1.03,0-4.36,0.67-4.81,0.94
		c-0.46,0.27-0.09,1.11,1.43,0.97c1.52-0.13,2.57-0.35,2.97-0.28c0.4,0.07,3.47,1.82,3.47,1.82s-2.86-0.54-3.36-0.34
		c-0.5,0.2-2.71,2.7-2.46,3.11c0.25,0.42,0.78,0.62,1.39,0.09c0.62-0.52,1.59-1.82,1.83-1.76s2.35,0.4,2.35,0.4
		s-2.11-0.18-2.32-0.01c-0.21,0.17-2,2.68-1.91,3.09c0.09,0.41,1.14,0.19,1.85-0.43c0.71-0.63,0.68-1.18,1.09-1.27
		c0.41-0.09,1.94,0.49,1.94,0.49s-2.06,1.03-2.4,1.33c-0.33,0.3-0.35,1.91-0.29,2.79c0.07,0.89,1-0.13,1.17-0.8
		c0.17-0.67,0.15-0.86,0.15-0.86l1.81-0.67c0,0,1.37,2.47,2.73,5.01c1.36,2.53,3.25,4.85,3.25,4.85L753.08,576.95z"/>
	<polygon class="st6" points="740.65,574.74 708.1,553.31 708.1,517.28 711.16,517.28 711.06,551.84 741.84,572.11 	"/>
	<path class="st6" d="M866.03,540.82c0,0-10.15-1.97-11.17-6.64c-1.02-4.67,2.48-10.88,1.68-13.21c-0.8-2.34-8.03-4.38-11.9-6.93
		c-3.87-2.55-1.9-10.51,0-13.07c0.95,2.48,26.79,8.1,29.13,12.85C876.1,518.55,871.58,528.26,866.03,540.82z"/>
	<path class="st5" d="M840.79,523.7c0,0-1.74-0.69-2.32,0.62c-0.58,1.31,0.3,2.08,1.37,2.35
		C840.92,526.95,840.79,523.7,840.79,523.7z"/>
	<path class="st9" d="M843.26,531.01c0-1.33,1.08-2.41,2.41-2.41s2.41,1.08,2.41,2.41s-1.08,2.41-2.41,2.41
		S843.26,532.34,843.26,531.01z"/>
	<g>
		<path class="st3" d="M837.49,579.56c-5.48,4.9-40.33,29.55-42.85,29.95c-2.07,0.33-32.09-21.56-42.69-29.35l2.58-2.81l37.99,19.61
			c0,0,29.15-23.32,32.16-25.79c2.76-2.27,11.09-6.45,17.06-2.06C841.79,569.43,842.8,574.81,837.49,579.56z"/>
		<path class="st12" d="M834.21,591.13c-8.3,6.54-36.75,25.44-39.05,25.26c-2.3-0.18-44.7-34.63-44.7-34.63l1.48-1.61
			c10.6,7.79,40.62,29.68,42.69,29.35c2.52-0.4,37.37-25.04,42.85-29.95c5.31-4.75,4.31-10.13,4.24-10.46
			c0.53,0.39,1.05,0.82,1.54,1.36C849.23,577,842.52,584.6,834.21,591.13z"/>
		
			<linearGradient id="SVGID_00000153692298013743985200000011631632366459750022_" gradientUnits="userSpaceOnUse" x1="856.6528" y1="566.1526" x2="814.4285" y2="638.0049" gradientTransform="matrix(-1 0 0 1 1648.0417 0)">
			<stop  offset="0" style="stop-color:#174C99"/>
			<stop  offset="1" style="stop-color:#262D99"/>
		</linearGradient>
		<path style="fill:url(#SVGID_00000153692298013743985200000011631632366459750022_);" d="M834.39,591.66
			c-8.3,6.54-36.94,25.11-39.24,24.93c-2.3-0.18-44.68-34.83-44.68-34.83l1.48-1.61c12.48,8.19,40.75,28.48,42.82,28.16
			c2.52-0.4,36.39-24.63,41.87-29.54c5.31-4.75,4.83-9.57,4.76-9.9c1.01,0.22,1.57,0.81,2.08,1.32
			C849.92,576.54,842.69,585.13,834.39,591.66z"/>
	</g>
	<polygon class="st3" points="846.95,548.95 842.42,556.15 855.24,562.78 858.4,554.49 	"/>
	
		<linearGradient id="SVGID_00000164513777597384157900000016156036003088108976_" gradientUnits="userSpaceOnUse" x1="803.5642" y1="550.8411" x2="788.3923" y2="562.3029" gradientTransform="matrix(-1 0 0 1 1648.0417 0)">
		<stop  offset="0" style="stop-color:#174C99"/>
		<stop  offset="1" style="stop-color:#262D99"/>
	</linearGradient>
	<polygon style="fill:url(#SVGID_00000164513777597384157900000016156036003088108976_);" points="853.56,552.15 850.65,559.16 
		842.73,555.65 842.42,556.15 855.24,562.78 858.4,554.49 	"/>
	<polygon class="st5" points="748.47,577.85 751.06,581.13 754.08,577.85 752.45,576.43 	"/>
	<polygon class="st5" points="725.81,538.54 720.58,536.84 721.1,540.87 725.01,543.2 	"/>
	<path class="st6" d="M654,627.5v5.42h-24.91c0,0-3.36-1.59,1.5-3.27c4.86-1.68,14.22-4.33,14.49-4.33c0.25,0,2.01,3.64,7.89,1.48
		C653.47,626.62,654,626.96,654,627.5z"/>
	<path class="st6" d="M691.11,699.75l3.45,4.18l-19.21,15.86c0,0-3.6,0.91-0.92-3.48c2.68-4.39,8.21-12.39,8.42-12.56
		c0.19-0.16,3.86,1.53,7.02-3.88C690.14,699.41,690.77,699.33,691.11,699.75z"/>
	<polygon class="st6" points="854.88,562.59 846.98,558.51 854.47,564.01 	"/>
	<polygon class="st6" points="772.84,599.83 793.15,615.45 771.6,600.6 	"/>
	<polygon class="st6" points="733.96,610.72 769.19,610.72 730.96,607.64 	"/>
	<polygon class="st6" points="778.89,637.77 773.91,617.32 776.81,638.4 	"/>
	<polygon class="st6" points="660.04,619.68 653.73,614.21 658.97,620.76 	"/>
	<polygon class="st6" points="691.21,691.4 683.24,691.4 690.95,693.04 	"/>
	<g>
		<path class="st6" d="M796.9,602.88c0.06,0,0.11-0.02,0.16-0.06c0.12-0.09,0.14-0.26,0.05-0.37l-4.38-5.65
			c-0.02-0.03-0.05-0.06-0.09-0.07l-8.3-4.28c-0.13-0.06-0.29-0.02-0.36,0.11c-0.07,0.13-0.02,0.29,0.11,0.36l8.24,4.25l4.35,5.61
			C796.74,602.85,796.82,602.88,796.9,602.88z"/>
	</g>
	<g>
		<path class="st6" d="M792.52,597.23c0.06,0,0.12-0.02,0.17-0.06l32.16-25.79c0.11-0.09,0.13-0.26,0.04-0.37
			c-0.09-0.11-0.26-0.13-0.37-0.04l-32.16,25.79c-0.11,0.09-0.13,0.26-0.04,0.37C792.36,597.2,792.44,597.23,792.52,597.23z"/>
	</g>
	<g>
		<path class="st6" d="M816.07,572.95c0.05,0,0.1-0.01,0.14-0.04l22.59-14.18c0.12-0.08,0.16-0.24,0.08-0.36
			c-0.08-0.13-0.25-0.16-0.37-0.08l-22.49,14.12l-22.53-5.17c-0.14-0.03-0.28,0.06-0.32,0.2c-0.03,0.14,0.06,0.29,0.2,0.32
			l22.63,5.19C816.03,572.95,816.05,572.95,816.07,572.95z"/>
	</g>
</g>
<g>
	<path class="st5" d="M1245.41,605.05l-4.01-5.65l-5.15,5.65l8.09,10.52C1244.33,615.58,1248.63,610.42,1245.41,605.05z"/>
	<path class="st5" d="M1212.84,626.81l0.72-7.23h-8.88l-0.5,7.23C1204.17,626.81,1211.48,629.1,1212.84,626.81z"/>
	
		<linearGradient id="SVGID_00000118362837299353942500000005109845986057493889_" gradientUnits="userSpaceOnUse" x1="228.332" y1="430.8611" x2="106.9311" y2="607.6176" gradientTransform="matrix(-1 0 0 1 1360.3424 0)">
		<stop  offset="0" style="stop-color:#174C99"/>
		<stop  offset="1" style="stop-color:#262D99"/>
	</linearGradient>
	<path style="fill:url(#SVGID_00000118362837299353942500000005109845986057493889_);" d="M1173.75,454.42c0,0-9.45,83.13-7.16,88
		c2.29,4.87,68.49,65.57,68.49,65.57l8.81-8.59c0,0-24.62-39.99-33.21-49.53c-8.59-9.54-18.32-12.98-20.42-16.61
		c-2.1-3.63,11.26-56.12,11.26-56.12l-11.26-22.71H1173.75z"/>
	
		<linearGradient id="SVGID_00000044884404938625015050000003927976387669727929_" gradientUnits="userSpaceOnUse" x1="224.7286" y1="363.1891" x2="162.8831" y2="407.8553" gradientTransform="matrix(-1 0 0 1 1360.3424 0)">
		<stop  offset="0" style="stop-color:#FDD615"/>
		<stop  offset="1" style="stop-color:#FD9D00"/>
	</linearGradient>
	<path style="fill:url(#SVGID_00000044884404938625015050000003927976387669727929_);" d="M1178.91,353.73c0,0-8.3-0.14-21.33,12.45
		c-13.03,12.6-22.72,37.18-22.72,37.18s36.6-13.99,43.04-14.99C1180.19,371.77,1178.91,353.73,1178.91,353.73z"/>
	<path class="st5" d="M1194.23,301.85c0,0-5.24,2.13-5.24,8.93v21.15c0,2.68,2.17,4.85,4.85,4.85h4.01c3.13,0,5.66,2.53,5.66,5.66
		v4.43h14.78v-25.03l-8.15-17.17C1210.14,304.66,1206.17,299.23,1194.23,301.85z"/>
	<circle class="st9" cx="1196.2" cy="321.35" r="2.65"/>
	<path class="st6" d="M1214,626.7v5.85h-26.91c0,0-3.63-1.72,1.62-3.53c5.25-1.81,15.37-4.68,15.65-4.68c0.27,0,2.17,3.93,8.52,1.6
		C1213.42,625.75,1214,626.12,1214,626.7z"/>
	<path class="st6" d="M1245.58,604.31l5.85,0.16l-0.72,26.9c0,0-1.81,3.58-3.49-1.72c-1.67-5.3-4.26-15.49-4.26-15.77
		c0.01-0.27,3.99-2.06,1.83-8.47C1244.62,604.86,1245.01,604.29,1245.58,604.31z"/>
	<path class="st16" d="M1194.23,301.85h8.25c0,0,2.91,0.19,3.78,3.01c0.87,2.81-1.84,7.66-3.78,9.02c-1.94,1.36-2.13,5.53,1.75,7.66
		c3.88,2.13,11.06,1.46,13.39,8.83c0.49,1.46,2.62,0.87,2.62-3.2c0-4.07,0-15.62,0-15.62s0.2-9.6-6.11-10.67
		C1207.23,299.71,1197.34,298.94,1194.23,301.85z"/>
	<path class="st16" d="M1193.55,328.7h-5.66c0,0-0.28-4.2,1.5-4.2C1191.16,324.5,1193.55,325.18,1193.55,328.7z"/>
	<path class="st22" d="M1178.91,353.73c0,0,17.47-1.29,36.51,3.87c19.04,5.15,36.65,13.6,36.65,13.6s-12.36,27.87-17.32,42.95
		c-4.96,15.08-6.68,40.28-6.68,40.28h-54.31C1173.75,454.42,1168.46,387.38,1178.91,353.73z"/>
	<path class="st22" d="M1252.06,371.2c0,0,9.31,5.73,20.47,20.9c9.38,12.75,18.76,32.56,24.07,50.28c1.47,4.91-2.28,9.84-7.41,9.84
		h-53.31v-6.01l34.53-9.56c0,0-14.74-26.5-30.5-36.53C1224.15,390.1,1252.06,371.2,1252.06,371.2z"/>
	<polygon class="st22" points="1203.51,346.86 1201.67,355.74 1221.41,359.34 1218.29,346.86 	"/>
	<path class="st22" d="M1168.46,353.59c0,0-9.31,16.18-13.03,22.91c-3.72,6.73-7.44,20.47-15.03,24.19
		c-7.59,3.72-14.89,7.16-16.89,7.16s-4.07-7.42-3.01-11.88c2.29-9.59,43.66-45.24,43.66-45.24L1168.46,353.59z"/>
	<g>
		<path class="st3" d="M1214.92,454.42c1,3.98,2.76,12.86,1.49,22.33c-1.72,12.79-2.67,53.26-2.1,66.24
			c0.57,12.98-0.19,34.36-1.91,51.92c-1.1,11.2-2.03,21.59-2.57,27.68h-6.21l-9.16-140.49l-4.2-27.68
			C1190.26,454.42,1203.73,454.42,1214.92,454.42z"/>
		<path class="st3" d="M1214.32,542.99c-0.57-12.98,0.38-53.45,2.1-66.24c1.27-9.47-0.49-18.36-1.49-22.33c5.6,0,10.64,0,13.13,0
			c5.82,14.13-1.91,27.01-2.34,29.44c-0.43,2.43-1.96,28.97-3.39,40.99c-1.43,12.03,1.24,24.72,0.95,36.46
			c-0.29,11.74-9.45,61.27-9.45,61.27h-4c0.54-6.08,1.48-16.48,2.57-27.68C1214.12,577.35,1214.89,555.97,1214.32,542.99z"/>
		
			<linearGradient id="SVGID_00000029007372923944418320000000876702860409941686_" gradientUnits="userSpaceOnUse" x1="181.2624" y1="539.8862" x2="107.9632" y2="537.0229" gradientTransform="matrix(-1 0 0 1 1360.3424 0)">
			<stop  offset="0" style="stop-color:#174C99"/>
			<stop  offset="1" style="stop-color:#262D99"/>
		</linearGradient>
		<path style="fill:url(#SVGID_00000029007372923944418320000000876702860409941686_);" d="M1214.32,542.99
			c-0.57-12.98,0.38-53.45,2.1-66.24c1.27-9.47-0.49-18.36-1.49-22.33c5.6,0,10.64,0,13.13,0c5.82,14.13-1.91,27.01-2.34,29.44
			c-0.43,2.43-1.96,28.97-3.39,40.99c-1.43,12.03,1.24,24.72,0.95,36.46c-0.29,11.74-9.45,61.27-9.45,61.27h-4
			c0.54-6.08,1.48-16.48,2.57-27.68C1214.12,577.35,1214.89,555.97,1214.32,542.99z"/>
	</g>
	<path class="st5" d="M1164.16,350.73c0,0,10.74-12.88,11.07-13.12c0.33-0.24,12.88-3.72,13.27-3.44c0.38,0.29,4.92,3.34,4.72,4.44
		c-0.19,1.1-3.2,3.67-3.82,3.63c-0.62-0.05-0.97-0.72-0.41-1.72c0.56-1,1.51-2.15,1.41-2.34c-0.1-0.19-2.34-1.67-2.34-1.67
		s-7.3,2.58-7.02,2.53c0.29-0.05,3.29-0.19,3.58,0c0.29,0.19,3.24,3.44,2.1,4.53c-1.15,1.1-6.59,4.53-7.55,5.01
		c-0.95,0.48-1.47-0.1-0.95-1.24c0.52-1.15,2.47-2.91,2.47-2.91l-0.31-0.72c0,0-5.7,4.34-6.94,5.15c-1.24,0.81-3.05,1.24-3.05,1.24
		l-2.69,2.99L1164.16,350.73z"/>
	
		<linearGradient id="SVGID_00000183207345112084487620000008934049707036291256_" gradientUnits="userSpaceOnUse" x1="175.295" y1="378.1633" x2="89.7795" y2="448.0264" gradientTransform="matrix(-1 0 0 1 1360.3424 0)">
		<stop  offset="0" style="stop-color:#FDD615"/>
		<stop  offset="1" style="stop-color:#FD9D00"/>
	</linearGradient>
	<path style="fill:url(#SVGID_00000183207345112084487620000008934049707036291256_);" d="M1270.42,436.65l9.37-0.94
		c0,0-8.97-18.89-22.72-32.35c-13.74-13.46-15.46-13.84-15.46-13.84l3.05-14.51c0,0-10.74,11.02-20.09,34.12
		c-9.35,23.1-9.65,45.29-9.65,45.29h13.13c0,0,3.29-37.21,11.86-54.3C1247.4,406.08,1262,422.13,1270.42,436.65z"/>
	<path class="st5" d="M1235.88,446.22c0,0-8.41,0.67-8.4,3.34c0.02,3.73,1.62,19.55,2.38,20.66c0.77,1.1,6.02,5.59,6.54,5.59
		c0.53,0,0.86-1.05-0.19-2.34c-1.05-1.29-4.03-4.06-4.03-4.06s5.37,2.77,6.65,3.05c1.29,0.29,1.96-1.15,0.24-2.1
		c-1.72-0.95-5.87-2.29-5.87-2.29s6.17,0.14,6.9,0.05c0.73-0.1,0.68-1.57-1.42-1.72c-2.1-0.14-4.69-0.53-4.69-0.53s-0.08-2.43,0-5.3
		c0.1-3.57-0.7-8.26-0.7-8.35c0-0.1,2.58,0,2.58,0V446.22z"/>
	
		<linearGradient id="SVGID_00000023987255592938447040000010634935063551638922_" gradientUnits="userSpaceOnUse" x1="63.3921" y1="443.3343" x2="124.4576" y2="443.3343" gradientTransform="matrix(-1 0 0 1 1360.3424 0)">
		<stop  offset="0" style="stop-color:#FDD615"/>
		<stop  offset="1" style="stop-color:#FD9D00"/>
	</linearGradient>
	<path style="fill:url(#SVGID_00000023987255592938447040000010634935063551638922_);" d="M1294,434.44c0,0,1.3,8.48-5.43,9.49
		c-6.73,1-52.68,5.15-52.68,5.15v3.15h53.31c0,0,3.8,0.18,6.15-3.04c2.35-3.22,1.43-6.11,1.43-6.11L1294,434.44z"/>
	<g>
		<path class="st6" d="M1221.41,359.62c0.13,0,0.25-0.09,0.28-0.22c0.04-0.15-0.06-0.31-0.21-0.34l-10.55-2.56l-2.01-8.84
			c-0.03-0.13-0.14-0.21-0.26-0.22c-0.15,0-0.24,0.07-0.29,0.19l-2.73,7.6l-3.39-0.58c-0.16-0.02-0.3,0.08-0.33,0.23
			c-0.03,0.16,0.08,0.3,0.23,0.33l3.63,0.62c0.14,0.02,0.27-0.05,0.32-0.19l2.48-6.91l1.83,8.06c0.02,0.11,0.11,0.19,0.21,0.21
			l10.72,2.6C1221.36,359.62,1221.39,359.62,1221.41,359.62z"/>
	</g>
	<g>
		<path class="st6" d="M1241.18,452.14c0.16,0,0.29-0.13,0.29-0.29v-6.72c0-0.16-0.13-0.29-0.29-0.29s-0.29,0.13-0.29,0.29v6.72
			C1240.89,452.01,1241.02,452.14,1241.18,452.14z"/>
	</g>
	<g>
		<path class="st6" d="M1135.48,403.36c0.03,0,0.06,0,0.09-0.02c9.85-3.35,12.06-9.73,12.15-10l17.67-33.85
			c0.06-0.12,0.03-0.27-0.07-0.35l-5.32-4.36c-0.12-0.1-0.3-0.08-0.4,0.04c-0.1,0.12-0.08,0.3,0.04,0.4l5.14,4.22l-17.58,33.69
			c-0.04,0.11-2.25,6.42-11.81,9.68c-0.15,0.05-0.23,0.21-0.18,0.36C1135.25,403.29,1135.36,403.36,1135.48,403.36z"/>
	</g>
	<polygon class="st6" points="1239.91,400.13 1243.49,380.62 1242.97,402.76 	"/>
	<g>
		<path class="st6" d="M1162.31,393.55c0.03,0,0.06,0,0.09-0.02c0.09-0.03,8.68-2.95,10.92-3.65c0.12-0.04,0.2-0.15,0.2-0.27
			c0.15-11.69,3.75-28.52,3.79-28.69c0.03-0.15-0.06-0.31-0.22-0.34c-0.15-0.03-0.31,0.07-0.34,0.22c-0.04,0.17-3.61,16.86-3.8,28.6
			c-2.51,0.8-10.65,3.57-10.73,3.59c-0.15,0.05-0.23,0.21-0.18,0.36C1162.08,393.47,1162.19,393.55,1162.31,393.55z"/>
	</g>
	<g>
		<path class="st6" d="M1173.98,379.57c0.01,0,0.02,0,0.03,0c0.16-0.02,0.27-0.16,0.25-0.32l-1.57-14c-0.02-0.16-0.14-0.3-0.32-0.25
			c-0.16,0.02-0.27,0.16-0.25,0.32l1.57,14.01C1173.71,379.47,1173.84,379.57,1173.98,379.57z"/>
	</g>
	<g>
		<path class="st6" d="M1270.42,436.94c0.01,0,0.02,0,0.03,0l9.37-0.93c0.16-0.02,0.27-0.15,0.26-0.31
			c-0.02-0.16-0.15-0.3-0.31-0.26l-9.19,0.92c-0.76-1.21-5.88-9.38-9.28-13.66c-0.1-0.12-0.28-0.14-0.4-0.04
			c-0.12,0.1-0.14,0.28-0.05,0.4c3.64,4.58,9.28,13.67,9.33,13.75C1270.23,436.89,1270.32,436.94,1270.42,436.94z"/>
	</g>
	<polygon class="st6" points="1235.88,446.22 1235.88,452.23 1234.6,452.23 	"/>
	<polygon class="st6" points="1164.16,350.73 1167.72,353.1 1168.51,352.23 	"/>
	<polygon class="st6" points="1195.71,501.2 1194.46,482.1 1180.05,477.62 1192.55,484.68 1192.55,515.8 	"/>
	<polygon class="st6" points="1222.88,566.59 1218.99,593.14 1224.08,597.84 1224.08,568.38 	"/>
	<polygon class="st6" points="1198.2,539.45 1200.59,575.98 1196.72,572.34 1197.18,538.77 	"/>
	<g>
		<path class="st6" d="M1187.07,543.71c0.12,0,0.23-0.08,0.27-0.2l3.2-10.16c0.03-0.11,0-0.22-0.08-0.3c-0.08-0.07-0.2-0.1-0.3-0.06
			l-10.93,4.44c-0.15,0.06-0.22,0.23-0.16,0.37c0.06,0.15,0.23,0.21,0.37,0.16l10.37-4.21l-3.02,9.59
			c-0.05,0.15,0.04,0.31,0.19,0.36C1187.01,543.7,1187.04,543.71,1187.07,543.71z"/>
	</g>
	<g>
		<path class="st6" d="M1150.31,394.87c0.13,0,0.24-0.09,0.28-0.21l3.69-13.86c0.04-0.15-0.05-0.31-0.2-0.35
			c-0.15-0.04-0.31,0.05-0.35,0.2l-3.69,13.86c-0.04,0.15,0.05,0.31,0.2,0.35C1150.26,394.87,1150.29,394.87,1150.31,394.87z"/>
	</g>
	<g>
		<path class="st5" d="M1190.07,451.26L1190.07,451.26c-0.44,0-0.82-0.37-0.85-0.8l0,0c-0.02-0.48,0.34-0.89,0.82-0.91l0,0
			c0.48-0.02,0.87,0.34,0.89,0.82l0,0c0.02,0.48-0.34,0.87-0.83,0.89C1190.12,451.26,1190.1,451.26,1190.07,451.26z M1189.96,446.67
			L1189.96,446.67c-0.46,0-0.85-0.37-0.85-0.85l0,0c-0.02-0.48,0.37-0.87,0.85-0.87l0,0c0.46,0,0.85,0.36,0.87,0.85l0,0
			C1190.83,446.29,1190.44,446.67,1189.96,446.67L1189.96,446.67z M1189.96,442.09L1189.96,442.09L1189.96,442.09L1189.96,442.09
			c-0.48,0-0.87-0.39-0.85-0.87l0,0c0-0.46,0.39-0.85,0.85-0.85l0,0c0.48,0,0.87,0.39,0.87,0.87
			C1190.81,441.73,1190.44,442.09,1189.96,442.09z M1190.05,437.51L1190.05,437.51h-0.02l0,0c-0.46,0-0.85-0.41-0.82-0.87l0,0
			c0.02-0.48,0.41-0.85,0.89-0.85l0,0c0.46,0.02,0.85,0.41,0.82,0.89C1190.9,437.17,1190.53,437.51,1190.05,437.51z M1190.23,432.95
			L1190.23,432.95l-0.02-0.02l0,0c-0.48-0.02-0.85-0.41-0.82-0.89l0,0c0.02-0.46,0.43-0.82,0.89-0.82l0,0
			c0.48,0.02,0.85,0.43,0.82,0.92l0,0C1191.08,432.59,1190.69,432.95,1190.23,432.95z M1190.51,428.37L1190.51,428.37
			c-0.02,0-0.05,0-0.07,0l0,0c-0.46-0.05-0.82-0.44-0.8-0.92l0,0c0.05-0.48,0.44-0.82,0.92-0.8l0,0c0.48,0.02,0.83,0.43,0.8,0.91
			C1191.33,428.03,1190.94,428.37,1190.51,428.37z M1190.83,423.79L1190.83,423.79c-0.02,0-0.05,0-0.07,0l0,0
			c-0.46-0.05-0.83-0.44-0.78-0.92l0,0l0,0l0,0c0.02-0.48,0.44-0.82,0.92-0.8l0,0c0.48,0.04,0.82,0.46,0.78,0.94
			C1191.65,423.45,1191.29,423.79,1190.83,423.79z M1191.22,419.23L1191.22,419.23c-0.02,0-0.05,0-0.07,0l0,0
			c-0.48-0.04-0.82-0.46-0.78-0.94l0,0c0.05-0.48,0.46-0.82,0.94-0.78l0,0c0.46,0.05,0.83,0.48,0.78,0.94l0,0
			C1192.04,418.89,1191.68,419.23,1191.22,419.23z M1191.68,414.67L1191.68,414.67c-0.02,0-0.05,0-0.09,0l0,0
			c-0.46-0.04-0.8-0.48-0.76-0.94l0,0l0,0l0,0c0.05-0.48,0.48-0.82,0.94-0.78l0,0c0.48,0.05,0.82,0.48,0.76,0.96l0,0
			C1192.5,414.35,1192.11,414.67,1191.68,414.67z M1192.2,410.12L1192.2,410.12c-0.05,0-0.07,0-0.11,0l0,0
			c-0.46-0.05-0.8-0.48-0.76-0.96l0,0c0.07-0.46,0.48-0.8,0.96-0.73l0,0c0.48,0.04,0.8,0.48,0.76,0.94
			C1193.01,409.79,1192.62,410.12,1192.2,410.12z M1192.78,405.58L1192.78,405.58c-0.05,0-0.07,0-0.11,0l0,0
			c-0.48-0.07-0.8-0.5-0.73-0.98l0,0c0.07-0.46,0.5-0.8,0.99-0.71l0,0c0.46,0.05,0.78,0.48,0.71,0.96
			C1193.58,405.28,1193.21,405.58,1192.78,405.58z M1193.51,401.07L1193.51,401.07c-0.05,0-0.09-0.02-0.16-0.02l0,0
			c-0.46-0.09-0.76-0.53-0.69-0.99l0,0c0.09-0.48,0.53-0.8,0.98-0.71l0,0c0.48,0.09,0.8,0.53,0.71,1.01l0,0
			C1194.29,400.77,1193.92,401.07,1193.51,401.07z M1194.38,396.55L1194.38,396.55c-0.07,0-0.12,0-0.18-0.02l0,0
			c-0.46-0.09-0.76-0.55-0.66-1.01l0,0c0.09-0.46,0.55-0.76,1.01-0.66l0,0c0.48,0.09,0.78,0.55,0.69,1.01
			C1195.14,396.28,1194.77,396.55,1194.38,396.55z M1195.39,392.09L1195.39,392.09c-0.07,0-0.14-0.02-0.21-0.02l0,0
			c-0.48-0.11-0.76-0.57-0.64-1.03l0,0c0.11-0.48,0.57-0.76,1.03-0.64l0,0c0.46,0.11,0.76,0.57,0.64,1.03
			C1196.12,391.81,1195.78,392.09,1195.39,392.09z M1196.51,387.64L1196.51,387.64c-0.07,0-0.16-0.02-0.23-0.02l0,0
			c-0.46-0.14-0.73-0.59-0.6-1.05l0,0c0.11-0.46,0.6-0.73,1.05-0.62l0,0c0.46,0.14,0.71,0.6,0.6,1.05
			C1197.22,387.39,1196.88,387.64,1196.51,387.64z M1197.77,383.25L1197.77,383.25c-0.09,0-0.18-0.02-0.25-0.04l0,0
			c-0.46-0.14-0.71-0.62-0.57-1.08l0,0c0.14-0.46,0.62-0.71,1.08-0.57l0,0c0.44,0.14,0.71,0.62,0.57,1.08
			C1198.48,382.99,1198.14,383.25,1197.77,383.25z M1199.14,378.87L1199.14,378.87c-0.09,0-0.18-0.02-0.27-0.04l0,0
			c-0.44-0.16-0.69-0.64-0.55-1.1l0,0c0.16-0.43,0.64-0.69,1.1-0.53l0,0c0.46,0.14,0.69,0.62,0.55,1.08
			C1199.85,378.64,1199.51,378.87,1199.14,378.87z M1200.66,374.54L1200.66,374.54c-0.09,0-0.21-0.02-0.3-0.05l0,0
			c-0.46-0.18-0.69-0.66-0.5-1.12l0,0c0,0.02,0,0.02,0,0.02l0,0c0.16-0.46,0.64-0.69,1.1-0.53l0,0c0.44,0.16,0.66,0.66,0.5,1.1
			C1201.34,374.31,1201,374.54,1200.66,374.54z M1202.28,370.26L1202.28,370.26c-0.11,0-0.21-0.02-0.32-0.07l0,0
			c-0.44-0.18-0.64-0.66-0.48-1.12l0,0c0.18-0.43,0.69-0.64,1.12-0.48l0,0c0.44,0.18,0.66,0.69,0.48,1.12
			C1202.95,370.05,1202.63,370.26,1202.28,370.26z M1204.05,366.02L1204.05,366.02c-0.11,0-0.23-0.02-0.34-0.07l0,0
			c-0.44-0.18-0.64-0.71-0.44-1.12l0,0c-0.02,0-0.02,0-0.02,0l0,0c0.21-0.43,0.71-0.64,1.15-0.46l0,0c0.44,0.18,0.64,0.69,0.44,1.15
			l0,0C1204.69,365.84,1204.39,366.02,1204.05,366.02z M1205.95,361.85L1205.95,361.85c-0.14,0-0.25-0.02-0.37-0.09l0,0
			c-0.43-0.21-0.62-0.71-0.41-1.15l0,0c0.21-0.44,0.71-0.59,1.15-0.41l0,0c0.43,0.21,0.59,0.73,0.41,1.15
			C1206.57,361.67,1206.27,361.85,1205.95,361.85z M1208.01,357.75L1208.01,357.75c-0.14,0-0.28-0.02-0.41-0.11l0,0
			c-0.41-0.23-0.55-0.76-0.32-1.17l0,0l0,0l0,0c0.23-0.41,0.76-0.55,1.17-0.32l0,0c0.41,0.23,0.55,0.76,0.32,1.17l0,0
			C1208.6,357.59,1208.33,357.75,1208.01,357.75z"/>
	</g>
</g>
<g>
	<path class="st5" d="M558.25,384.29c0,0,16.89,14.48,28.62,20.01c3.34,1.57,7.14-0.94,6.98-4.62c-0.74-17.02-3.5-48.36-3.5-48.36
		h-4.34c0,0-1.63,14.76-2.39,20.4c-0.76,5.64-1.84,13.01-1.84,13.01l-15.51-14.42L558.25,384.29z"/>
	<path class="st22" d="M543.72,347.42c0,0,2.71-0.65,9.44,5.31c6.72,5.97,17.9,16.16,17.9,16.16l-12.15,18.42l-16.74-7.58
		C542.16,379.74,540.47,352.84,543.72,347.42z"/>
	<path class="st22" d="M487.97,354.37c0,0,42.3-6.96,55.75-6.96c0,11.06-1.52,93.27-1.52,93.27h-45.77L487.97,354.37z"/>
	
		<linearGradient id="SVGID_00000174566245998794671030000011100687790165242511_" gradientUnits="userSpaceOnUse" x1="556.2365" y1="375.6686" x2="462.9773" y2="425.8853">
		<stop  offset="0" style="stop-color:#FDD615"/>
		<stop  offset="1" style="stop-color:#FD9D00"/>
	</linearGradient>
	<path style="fill:url(#SVGID_00000174566245998794671030000011100687790165242511_);" d="M494.6,395.79h2.94v-26.71l5.78,40.26
		l14.4-17.49c0,0,1.22,3.33-0.41,8.05c-1.63,4.72-10.9,29.45-10.9,29.45v11.33h-9.98l-0.61-6.2L494.6,395.79z"/>
	<polygon class="st5" points="537.76,624.68 535.48,615.03 544.21,615.3 545.24,626.15 	"/>
	<polygon class="st5" points="482.98,625.28 482.98,614.22 491.44,614.22 489.49,626.15 	"/>
	<defs>
		<filter id="Adobe_OpacityMaskFilter" filterUnits="userSpaceOnUse" x="515.85" y="266.18" width="123.28" height="68.81">
			<feFlood  style="flood-color:white;flood-opacity:1" result="back"/>
			<feBlend  in="SourceGraphic" in2="back" mode="normal"/>
		</filter>
	</defs>
	
		<mask maskUnits="userSpaceOnUse" x="515.85" y="266.18" width="123.28" height="68.81" id="SVGID_00000066499666158102574520000002298726831663882668_">
		<g class="st27">
			<defs>
				
					<filter id="Adobe_OpacityMaskFilter_00000183222261431785521550000015963339607655666609_" filterUnits="userSpaceOnUse" x="515.85" y="266.18" width="123.28" height="68.81">
					<feFlood  style="flood-color:white;flood-opacity:1" result="back"/>
					<feBlend  in="SourceGraphic" in2="back" mode="normal"/>
				</filter>
			</defs>
			
				<mask maskUnits="userSpaceOnUse" x="515.85" y="266.18" width="123.28" height="68.81" id="SVGID_00000066499666158102574520000002298726831663882668_">
				<g style="filter:url(#Adobe_OpacityMaskFilter_00000183222261431785521550000015963339607655666609_);">
				</g>
			</mask>
			
				<linearGradient id="SVGID_00000100340443918627429430000006242906537548616371_" gradientUnits="userSpaceOnUse" x1="515.8469" y1="300.5824" x2="639.1303" y2="300.5824">
				<stop  offset="0" style="stop-color:#000000"/>
				<stop  offset="0.1144" style="stop-color:#040404"/>
				<stop  offset="0.2387" style="stop-color:#111111"/>
				<stop  offset="0.3677" style="stop-color:#272727"/>
				<stop  offset="0.4998" style="stop-color:#464646"/>
				<stop  offset="0.6345" style="stop-color:#6D6D6D"/>
				<stop  offset="0.7712" style="stop-color:#9D9D9D"/>
				<stop  offset="0.9069" style="stop-color:#D4D4D4"/>
				<stop  offset="1" style="stop-color:#FFFFFF"/>
			</linearGradient>
			
				<polygon style="mask:url(#SVGID_00000066499666158102574520000002298726831663882668_);fill:url(#SVGID_00000100340443918627429430000006242906537548616371_);" points="
				639.13,296.89 515.85,266.18 515.85,334.63 623.93,334.99 			"/>
		</g>
	</mask>
	
		<linearGradient id="SVGID_00000155836375898107560110000001449489653478591131_" gradientUnits="userSpaceOnUse" x1="515.8469" y1="300.5824" x2="639.1303" y2="300.5824">
		<stop  offset="0" style="stop-color:#FFFFFF"/>
		<stop  offset="1" style="stop-color:#FFFFFF"/>
	</linearGradient>
	<polygon style="opacity:0.57;fill:url(#SVGID_00000155836375898107560110000001449489653478591131_);" points="639.13,296.89 
		515.85,266.18 515.85,334.63 623.93,334.99 	"/>
	<polygon class="st6" points="578.12,338.49 625.96,338.49 641.96,296.89 639.13,296.89 623.93,334.99 578.67,334.99 	"/>
	<path class="st5" d="M533.09,300.29v28.96c0,1.89-1.53,3.42-3.42,3.42h-3.63c-2.28,0-4.12,1.84-4.12,4.12v6.4h-13.56v-46.64
		L533.09,300.29z"/>
	<path class="st5" d="M585.95,351.97h19.03c0,0,5.84-2.9,6.44-3.89c0.6-1,1.87-4.62,1.87-5.22c0-0.6-1.02-0.72-1.77,0.82
		c-0.75,1.55-1.15,2.7-1.45,3.05c-0.3,0.35-3.78,2.31-3.78,2.31s2.18-2.46,2.28-3.06c0.1-0.6-1.05-4.19-1.6-4.19
		c-0.55,0-1.05,0.4-0.9,1.3c0.15,0.9,0.85,2.6,0.65,2.8c-0.2,0.2-1.75,2.05-1.75,2.05s1.4-1.95,1.35-2.25
		c-0.05-0.3-1.45-3.5-1.9-3.65c-0.45-0.15-0.85,1-0.65,2.05c0.2,1.05,0.75,1.35,0.6,1.8c-0.15,0.45-1.6,1.6-1.6,1.6s0.2-2.6,0.1-3.1
		c-0.1-0.5-1.65-1.45-2.55-1.9c-0.9-0.45-0.45,1.05,0.1,1.6c0.55,0.55,0.75,0.65,0.75,0.65l-0.4,2.15c0,0-3.2-0.1-6.44-0.25
		c-0.98-0.05-2.13-0.03-3.26,0.01C588.22,346.74,585.95,349.1,585.95,351.97L585.95,351.97z"/>
	<path class="st6" d="M482.7,626.15v5.37c0,0.57,0.46,1.03,1.03,1.03h25.21c0,0-0.18-3.37-4.99-4.2
		c-4.81-0.83-11.68-4.47-12.33-4.93c-0.64-0.46-0.72-2.82-1.12-3.31c-0.4-0.49-1.65-0.8-1.65,1.01c0,1.81-0.52,3.71-2.82,3.71
		c-2.3,0-2.97-0.49-3.15-1.01C482.7,623.31,480.4,623.89,482.7,626.15z"/>
	<path class="st6" d="M537.68,626.15v5.37c0,0.57,0.46,1.03,1.03,1.03h25.21c0,0-0.18-3.37-4.99-4.2
		c-4.81-0.83-11.68-4.47-12.32-4.93c-0.64-0.46-0.72-2.82-1.12-3.31c-0.4-0.49-1.65-0.8-1.65,1.01c0,1.81-0.52,3.71-2.82,3.71
		c-2.3,0-2.97-0.49-3.15-1.01C537.68,623.31,535.39,623.89,537.68,626.15z"/>
	<path class="st9" d="M528.86,319.87c0-1.66-1.35-3.01-3.01-3.01s-3.01,1.35-3.01,3.01c0,1.66,1.35,3.01,3.01,3.01
		S528.86,321.53,528.86,319.87z"/>
	<path class="st3" d="M533.09,300.29c0,0,5.1-14.8-8.46-17.19c-13.56-2.39-17.35,2.6-22.56,1.63c-5.21-0.98-10.09-2.6-11.93,3.69
		c-1.84,6.29,7.7,11.6,6.62,15.4c-1.08,3.8-3.58,10.09-0.98,15.51c2.6,5.42,8.46,7.27,15.18,5.96c6.72-1.3,9.65-9.44,8.35-15.94
		c-1.3-6.51,0.98-9.54,5.53-9.33C529.4,300.24,532.01,301.21,533.09,300.29z"/>
	<path class="st5" d="M533.09,315.1c0,0,2.77-0.04,2.77,2.4s-2.77,2.37-2.77,2.37V315.1z"/>
	<polygon class="st22" points="508.36,343.19 507.87,351.31 522.84,349.28 521.92,343.19 	"/>
	
		<linearGradient id="SVGID_00000086693404829949202170000012449610270220293248_" gradientUnits="userSpaceOnUse" x1="571.7457" y1="516.2322" x2="493.3897" y2="545.657">
		<stop  offset="0" style="stop-color:#FB7247"/>
		<stop  offset="1" style="stop-color:#D13E35"/>
	</linearGradient>
	<path style="fill:url(#SVGID_00000086693404829949202170000012449610270220293248_);" d="M542.2,440.69l3.04,176.29h-10.28
		c0,0-7.51-29.87-9.03-44.19c-1.52-14.32-0.11-23.53-0.54-31.34c-0.43-7.81-9.54-60.84-9.54-60.84l15.29-39.91H542.2z"/>
	<g>
		<path class="st32" d="M506.41,440.69c0,0-3.47,11.06-2.82,19.31c0.65,8.24,1.57,16.16-0.08,33.46
			c-1.65,17.3-4.04,43.11-5.78,48.97c-1.74,5.86-6.94,21.31-8.89,34.65c-1.72,11.77-2.69,34.68-2.89,39.91h6.47l38.72-149.07v-27.22
			H506.41z"/>
		<path class="st32" d="M497.74,542.42c1.74-5.86,4.12-31.67,5.78-48.97c1.65-17.3,0.73-25.22,0.08-33.46
			c-0.65-8.24,2.82-19.31,2.82-19.31h-9.98c0,0-3.85,9.98-3.85,17.95s2.93,15.78,3.25,17.23c0.33,1.45-0.16,9.12-1.63,22.63
			c-1.46,13.5-2.11,29.93-2.11,37.33s-5.69,15.86-8.13,29.85c-2.44,13.99-2.28,51.29-2.28,51.29h4.27
			c0.2-5.23,1.16-28.13,2.89-39.91C490.79,563.73,496,548.28,497.74,542.42z"/>
		
			<linearGradient id="SVGID_00000115504157749114009160000011910237638797318301_" gradientUnits="userSpaceOnUse" x1="526.053" y1="526.885" x2="473.6691" y2="529.8133">
			<stop  offset="0" style="stop-color:#FB7247"/>
			<stop  offset="1" style="stop-color:#D13E35"/>
		</linearGradient>
		<path style="fill:url(#SVGID_00000115504157749114009160000011910237638797318301_);" d="M497.74,542.42
			c1.74-5.86,4.12-31.67,5.78-48.97c1.65-17.3,0.73-25.22,0.08-33.46c-0.65-8.24,2.82-19.31,2.82-19.31h-9.98
			c0,0-3.85,9.98-3.85,17.95s2.93,15.78,3.25,17.23c0.33,1.45-0.16,9.12-1.63,22.63c-1.46,13.5-2.11,29.93-2.11,37.33
			s-5.69,15.86-8.13,29.85c-2.44,13.99-2.28,51.29-2.28,51.29h4.27c0.2-5.23,1.16-28.13,2.89-39.91
			C490.79,563.73,496,548.28,497.74,542.42z"/>
	</g>
	<g>
		<path class="st5" d="M480.29,392.54c0,0-0.54,46.91,8.57,46.91c9.11,0,5.53-46.91,5.53-46.91H480.29z"/>
		<path class="st5" d="M488.86,439.44c0,0,4.39,1.63,13.5-15.13c9.11-16.76,14.49-31.24,14.49-31.24l-4.15-1.21
			c0,0-11.96,17.04-18.8,23.29S482.35,430.17,488.86,439.44z"/>
		<path class="st5" d="M512.7,392.26v-20.53c0,0,8.17,2.17,8.55,3.82c0.38,1.65,0.77,7.92-1.34,7.7c-0.71-6.45-1.19-5.21-1.19-5.21
			l-0.54,10.3c0,0,0.8,4.77-3.29,5.77C513.79,391.12,512.7,392.26,512.7,392.26z"/>
		<path class="st5" d="M512.7,371.74c0,0,1.94-6.85,2.75-7.27c0.81-0.42,3.85,0,3.85,0s2.11,0.97,0.75,1.82
			c-1.36,0.85-3.74,0.43-3.74,0.43l-1.61,7.16L512.7,371.74z"/>
	</g>
	<path class="st22" d="M487.97,354.37c0,0-12.69,2.16-13.34,16.04c-0.65,13.88,1.08,25.38,1.08,25.38h20.86
		C496.58,395.79,500.77,356.56,487.97,354.37z"/>
	<path class="st3" d="M521.13,349.56c0,0,8.3,10.29,10.41,25.52c2.11,15.23,1.95,23.69,1.95,23.69l-2.96,9.76l-3.67-9.27
		c0,0,0-28.52-1.91-37.91c-1.24-6.07-4.72-11.67-4.72-11.67L521.13,349.56z"/>
	<path class="st3" d="M521.13,349.56l-1.14-5.54c0,0-0.77,5.17,0.24,5.66C521.26,350.17,521.13,349.56,521.13,349.56z"/>
	<polygon class="st6" points="543.27,380.24 543.57,360.7 546.02,381.48 	"/>
	<polygon class="st6" points="568.66,372.52 559.96,385.72 563.21,388.36 	"/>
	<polygon class="st6" points="494.6,395.79 480.29,395.79 480.29,399.26 494.6,396.69 	"/>
	<path class="st6" d="M495.83,434.49c0,0,8.79-12.53,11.47-19.71c-5.56,13.98-10.86,25.91-10.86,25.91L495.83,434.49z"/>
	<polygon class="st6" points="520.42,509.17 531.14,467.91 521.52,514.62 	"/>
	<polygon class="st6" points="535.94,616.98 544.37,616.98 536.38,618.85 	"/>
	<polygon class="st6" points="482.98,616.98 490.99,616.98 482.98,618.72 	"/>
	<g>
		<path class="st6" d="M486.65,431.39c-0.17,0-0.32-0.13-0.33-0.31c-0.01-0.13-0.15-3.36,1.05-7.19c1.14-3.64,6.63-9.25,7.47-10.1
			l-0.57-17.7c0-0.09,0.03-0.17,0.09-0.24c0.06-0.06,0.14-0.1,0.23-0.1h2.62v-26.68c0-0.18,0.15-0.33,0.33-0.33
			c0.18,0,0.33,0.15,0.33,0.33v27c0,0.18-0.14,0.33-0.33,0.33h-2.61l0.56,17.5c0,0.09-0.03,0.18-0.1,0.24
			c-0.06,0.06-6.25,6.23-7.41,9.93c-1.16,3.72-1.02,6.93-1.02,6.96c0.01,0.18-0.13,0.33-0.31,0.34
			C486.66,431.39,486.66,431.39,486.65,431.39z"/>
	</g>
	<g>
		<path class="st6" d="M542.2,441.01h-45.77c-0.18,0-0.33-0.14-0.33-0.33c0-0.18,0.14-0.33,0.33-0.33h45.77
			c0.18,0,0.33,0.14,0.33,0.33C542.53,440.87,542.38,441.01,542.2,441.01z"/>
	</g>
	<g>
		<path class="st6" d="M520.42,509.5c-0.03,0-0.05,0-0.08-0.01c-0.18-0.05-0.28-0.22-0.23-0.4l10.71-41.22v-27.18
			c0-0.18,0.14-0.33,0.33-0.33c0.18,0,0.33,0.14,0.33,0.33v27.22c0,0.03,0,0.06-0.01,0.08l-10.72,41.26
			C520.7,509.4,520.57,509.5,520.42,509.5z"/>
	</g>
</g>
<g>
	
		<linearGradient id="SVGID_00000158714281428634152890000013771208408721020064_" gradientUnits="userSpaceOnUse" x1="233.1987" y1="347.3284" x2="312.0659" y2="493.437">
		<stop  offset="0" style="stop-color:#FFFFFF"/>
		<stop  offset="1" style="stop-color:#72C0FF"/>
	</linearGradient>
	<path style="fill:url(#SVGID_00000158714281428634152890000013771208408721020064_);" d="M266.1,372.44c0,0,7.09,3.16,7.09,18.24
		c0,15.08,0,56.77,0,56.77s-7.96,0.84-10.47-6.7c-2.51-7.54-11.17-34.14-11.17-34.14L266.1,372.44z"/>
	<path class="st5" d="M273.19,447.44c0,0-6.67,1.33-10.08-5.7c-3.41-7.03,0.7-10.78,1.69-11.91c0.99-1.13,9.71-11.14,9.71-11.14
		L273.19,447.44z"/>
	<path class="st5" d="M213.53,348.92c0,0,52.75,19.96,54.43,25.52c1.68,5.56-19.48,49.13-34.98,67.98c-14.87,0-55.3,0-55.3,0
		l19.9-78.13L213.53,348.92z"/>
	
		<linearGradient id="SVGID_00000167385046746994606500000007741846176423302826_" gradientUnits="userSpaceOnUse" x1="265.9405" y1="407.8177" x2="106.6351" y2="400.2766">
		<stop  offset="0" style="stop-color:#FFFFFF"/>
		<stop  offset="1" style="stop-color:#72C0FF"/>
	</linearGradient>
	<polygon style="fill:url(#SVGID_00000167385046746994606500000007741846176423302826_);" points="218.02,366.77 194.13,442.42 
		177.67,442.42 194.88,374.86 	"/>
	<g>
		<path class="st5" d="M207.21,347.04c-15.86-2.69-34.7-1.19-46.98,1.88c-0.05,0.03-8.94,5.5-8.94,13.69c0,6.64,0,36.26,0,47.34
			h3.35l8.8-38.18c0,0,38.54,3.99,45.46,3.49C215.79,374.76,231.5,351.16,207.21,347.04z"/>
		<path class="st5" d="M151.28,362.61c0-8.18,8.9-13.66,8.94-13.69c-6.53,1.64-11.21,3.72-12.59,5.85
			c-1.82,2.81,0.5,55.18,0.5,55.18h3.15C151.28,398.86,151.28,369.24,151.28,362.61z"/>
		
			<linearGradient id="SVGID_00000000219091080764604390000006333303447648839583_" gradientUnits="userSpaceOnUse" x1="186.7639" y1="380.9756" x2="97.1441" y2="376.7332">
			<stop  offset="0" style="stop-color:#FFFFFF"/>
			<stop  offset="1" style="stop-color:#72C0FF"/>
		</linearGradient>
		<path style="fill:url(#SVGID_00000000219091080764604390000006333303447648839583_);" d="M151.28,362.61
			c0-8.18,8.9-13.66,8.94-13.69c-6.53,1.64-11.21,3.72-12.59,5.85c-1.82,2.81,0.5,55.18,0.5,55.18h3.15
			C151.28,398.86,151.28,369.24,151.28,362.61z"/>
	</g>
	<polygon class="st7" points="297.49,398.43 300.67,392.38 296.54,391.75 292.88,396.7 	"/>
	<path class="st6" d="M306.35,374.09l-7.63,15.83c-0.49,1.01-0.06,2.23,0.95,2.72l0,0c1.01,0.49,2.23,0.07,2.72-0.94l7.69-15.74
		L306.35,374.09z"/>
	<polygon class="st5" points="237.34,615.23 239.62,626.59 248.73,624.09 247.95,622.3 246.85,613.97 	"/>
	<polygon class="st5" points="102.31,474.09 116.4,480.65 108.96,485.57 97.76,480.67 98.49,475.93 	"/>
	<path class="st2" d="M232.97,442.42l14.98,173.13h-11c0,0-13.83-38.02-16.34-51.53c-2.51-13.51-1.89-26.86-2.2-35.03
		c-0.31-8.17-18.54-58.6-18.54-58.6l18.54-27.96H232.97z"/>
	<path class="st7" d="M263.14,347.34c-2.47-0.01-2.46-3.84,0-3.83c0.55,0,1.11,0.03,1.66,0.05v-18.73l-23.5-1.8
		c0,0-1.18,10.81-1.18,17.33c0,6.52-1.82,10.4-1.82,10.4l11.88,5.14l1.71-3.53h9.13c2.09,0,3.78-1.69,3.78-3.78v-1.2
		C264.24,347.38,263.69,347.35,263.14,347.34z"/>
	<path class="st32" d="M255.32,339.7c0-1.42-1.15-2.57-2.57-2.57c-1.42,0-2.57,1.15-2.57,2.57c0,1.42,1.15,2.57,2.57,2.57
		C254.17,342.27,255.32,341.12,255.32,339.7z"/>
	<path class="st6" d="M238.12,626.32l1.54,6.24l28.68-7.07c0,0,3.41-2.78-2.66-3.34c-6.07-0.55-17.6-0.95-17.91-0.87
		c-0.29,0.07-1.28,4.76-8.66,3.95C238.48,625.15,237.97,625.7,238.12,626.32z"/>
	<path class="st6" d="M103.33,472.68l-5-4.03l-18.53,23c0,0-1.03,4.28,4.13,1.04c5.16-3.24,14.58-9.91,14.77-10.16
		c0.19-0.23-1.87-4.56,4.5-8.38C103.74,473.82,103.82,473.07,103.33,472.68z"/>
	<path class="st16" d="M239.58,342.41c0,0,6,0.54,6.42-3.64c0.43-4.18-1.07-11.99,1.93-12.63c3-0.64,13.28-0.11,16.27-0.96
		c3-0.86,3.21-12.96-5.03-15.63c-8.24-2.68-11.78,2.03-15.74,2.14c-3.96,0.11-8.99-2.14-12.42,3.32
		c-3.43,5.46,0.43,10.06,2.25,13.28C235.08,331.49,226.51,342.41,239.58,342.41z"/>
	<path class="st16" d="M264.79,339.47c0,0-7.04-1.21-8.01,2.97c-0.96,4.18-3.37,10.93,0.48,11.73c3.85,0.8,5.94,1.12,6.91-1.04
		c0.96-2.17,0.62-4.2,0.62-4.2s-4.39,0.94-4.79-2.41c-0.67-5.66,4.85-4.41,4.85-4.41L264.79,339.47z"/>
	<polygon class="st5" points="250.18,355.9 248.78,363.37 232.93,356.6 238.29,350.76 	"/>
	<path class="st7" d="M154.64,409.95c0,0,0.79,4.51,0.48,7.26c-0.31,2.75-1.84,4.09-2.83,6.17c-1,2.08-1.3,3.89-1.76,3.89
		c-0.46,0-1.53-0.67-1-2.48c0.54-1.81,2.14-4.76,1.68-4.56c-0.46,0.2-5.55,3.08-7.75,5.14c-2.2,2.06-6.18,6.88-7,6.53
		c-0.82-0.36,0.64-3.31,2.4-5.25c1.76-1.94,4.6-4.56,4.6-4.56s-1.61,0.8-4.6,3.69c-2.99,2.88-3.9,4.76-4.75,4.36s0.23-3.35,2.6-5.57
		c2.37-2.21,4.52-4.01,4.52-4.01s-2.53,1.26-4.29,3.08c-1.76,1.81-2.99,3.35-3.68,3.15c-0.69-0.2,1.38-3.29,2.99-5.1
		c1.61-1.81,8.21-6.01,10.05-7.82c1.84-1.81,2.37-3.91,2.37-3.91H154.64z"/>
	<path class="st5" d="M297.49,398.43c0,0-12.62,32.52-16.08,39.75c-3.46,7.23-6.38,9.27-8.22,9.27c-1.84,0-5.14-11-5.14-11
		l5.14-16.18l19.69-23.57L297.49,398.43z"/>
	<g>
		<path class="st2" d="M194.13,442.42c-5.29,12.55-26.72,62.63-31.81,63.31c-5.81,0.79-15.55-9.11-30.95-16.65
			c-9.97-4.89-18.38-8.51-23.08-10.46l-4.03,6.53l49.49,33.26c9.34,6.28,22.01,3.82,28.32-5.51l30.69-45.35l5.66-25.14H194.13z"/>
		<path class="st2" d="M162.33,505.73c5.08-0.69,26.51-50.77,31.81-63.31h-16.46c0,0-4.98,3.3-7.02,11
			c-1.64,6.2,1.73,14.3,1.57,14.93c-0.16,0.63-11.15,28.44-12.73,28.44s-5.66-3.61-13.2-7.7c-7.54-4.08-36.61-12.73-36.61-12.73
			l-1.4,2.27c4.7,1.95,13.1,5.57,23.08,10.46C146.77,496.62,156.51,506.52,162.33,505.73z"/>
		<path class="st37" d="M162.33,505.73c5.08-0.69,26.51-50.77,31.81-63.31h-16.46c0,0-4.98,3.3-7.02,11
			c-1.64,6.2,1.73,14.3,1.57,14.93c-0.16,0.63-11.15,28.44-12.73,28.44s-5.66-3.61-13.2-7.7c-7.54-4.08-36.61-12.73-36.61-12.73
			l-1.4,2.27c4.7,1.95,13.1,5.57,23.08,10.46C146.77,496.62,156.51,506.52,162.33,505.73z"/>
	</g>
	<polygon class="st6" points="203.74,481.27 212.76,467.55 205.24,485.57 	"/>
	<polygon class="st6" points="194.88,374.86 208.88,375.25 193.88,378.76 	"/>
	<polygon class="st6" points="154.64,409.95 148.7,409.95 147.92,411.75 	"/>
	<polygon class="st6" points="252.98,410.99 261.62,393.87 254.01,414.16 	"/>
	<g>
		<path class="st6" d="M263.82,431.37c-0.1,0-0.2-0.03-0.28-0.11c-0.18-0.15-0.19-0.42-0.04-0.59l9.37-10.68
			c0.15-0.18,0.42-0.2,0.59-0.04c0.18,0.15,0.19,0.42,0.04,0.59l-9.37,10.68C264.05,431.32,263.94,431.37,263.82,431.37z"/>
	</g>
	<g>
		<path class="st6" d="M263.82,427.28c-0.17,0-0.33-0.11-0.39-0.28c-0.08-0.22,0.03-0.46,0.25-0.54l5.29-1.95
			c0.2-0.07,0.46,0.03,0.54,0.25c0.08,0.22-0.03,0.46-0.25,0.54l-5.29,1.95C263.92,427.27,263.87,427.28,263.82,427.28z"/>
	</g>
	<g>
		<path class="st6" d="M163.42,372.18c-0.06,0-0.11-0.01-0.17-0.04l-8.23-3.64c-0.21-0.09-0.31-0.34-0.21-0.55
			c0.09-0.21,0.33-0.31,0.55-0.21l7.01,3.1l-3.71-6.14c-0.12-0.2-0.06-0.46,0.14-0.58c0.19-0.11,0.46-0.06,0.58,0.14l4.4,7.27
			c0.09,0.16,0.08,0.36-0.05,0.49C163.66,372.14,163.54,372.18,163.42,372.18z"/>
	</g>
	<g>
		<path class="st6" d="M248.78,363.79c-0.06,0-0.11-0.01-0.16-0.03l-1.95-0.84c-0.18-0.08-0.28-0.26-0.25-0.45l0.83-5.32l-3.9,4.06
			c-0.12,0.12-0.31,0.16-0.47,0.09l-10.12-4.33c-0.21-0.09-0.31-0.34-0.22-0.55c0.09-0.21,0.34-0.31,0.55-0.22l9.86,4.21l4.62-4.81
			c0.12-0.12,0.32-0.17,0.49-0.09c0.16,0.08,0.26,0.26,0.23,0.44l-0.99,6.31l1.65,0.7c0.21,0.09,0.31,0.34,0.22,0.55
			C249.1,363.7,248.95,363.79,248.78,363.79z"/>
	</g>
	<g>
		<path class="st6" d="M203.74,481.69c-0.08,0-0.16-0.02-0.23-0.07c-0.19-0.13-0.25-0.39-0.12-0.58l8.97-13.65l5.64-25.06
			c0.05-0.23,0.29-0.36,0.5-0.32c0.23,0.05,0.37,0.28,0.32,0.5l-5.66,25.14c-0.01,0.05-0.03,0.09-0.06,0.14l-9.01,13.72
			C204.01,481.62,203.88,481.69,203.74,481.69z"/>
	</g>
	<g>
		<path class="st6" d="M158.29,503.27c-0.23,0-0.42-0.19-0.42-0.42c0-0.76,1.09-5.62,1.22-6.17c0.03-0.14,0.14-0.26,0.28-0.31
			c0.14-0.04,0.29-0.01,0.41,0.08l5.08,4.4c0.17,0.15,0.19,0.42,0.04,0.59c-0.16,0.17-0.42,0.19-0.59,0.04l-4.55-3.94
			c-0.46,2.05-1.04,4.85-1.04,5.3C158.71,503.08,158.53,503.27,158.29,503.27z"/>
	</g>
	<g>
		<g>
			<g>
				
					<linearGradient id="SVGID_00000072270216645040650290000006396677798724736697_" gradientUnits="userSpaceOnUse" x1="344.3593" y1="695.5615" x2="399.9778" y2="695.5615" gradientTransform="matrix(0.8941 0.4478 -0.4478 0.8941 293.4807 -413.2675)">
					<stop  offset="0" style="stop-color:#FB7247"/>
					<stop  offset="1" style="stop-color:#D13E35"/>
				</linearGradient>
				<polygon style="fill:url(#SVGID_00000072270216645040650290000006396677798724736697_);" points="317.34,373.31 300.34,364.79 
					297.72,370.03 314.72,378.54 329.12,408.72 339.63,387.74 350.13,366.76 				"/>
				
					<linearGradient id="SVGID_00000097466372208453692620000014703621768814470542_" gradientUnits="userSpaceOnUse" x1="344.3598" y1="695.564" x2="399.9769" y2="695.564" gradientTransform="matrix(0.8941 0.4478 -0.4478 0.8941 293.4807 -413.2675)">
					<stop  offset="0" style="stop-color:#FB7247"/>
					<stop  offset="1" style="stop-color:#D13E35"/>
				</linearGradient>
				<path style="fill:url(#SVGID_00000097466372208453692620000014703621768814470542_);" d="M293.83,361.53
					c-1.45-0.72-3.21-0.14-3.93,1.31c-0.72,1.45-0.14,3.21,1.31,3.93l6.51,3.26l2.62-5.24L293.83,361.53z"/>
				
					<linearGradient id="SVGID_00000137104350144605804980000002884059034778852512_" gradientUnits="userSpaceOnUse" x1="339.4894" y1="695.564" x2="354.572" y2="695.564" gradientTransform="matrix(0.8941 0.4478 -0.4478 0.8941 293.4807 -413.2675)">
					<stop  offset="0" style="stop-color:#FB7247"/>
					<stop  offset="1" style="stop-color:#D13E35"/>
				</linearGradient>
				<path style="fill:url(#SVGID_00000137104350144605804980000002884059034778852512_);" d="M293.83,361.53
					c-1.45-0.72-3.21-0.14-3.93,1.31c-0.72,1.45-0.14,3.21,1.31,3.93l6.51,3.26l2.62-5.24L293.83,361.53z"/>
			</g>
			<path class="st5" d="M343.08,389.47c-5.8,11.59-12,20.24-13.83,19.32c-1.84-0.92,1.38-11.06,7.18-22.65
				c5.8-11.59,11.99-20.24,13.83-19.32S348.88,377.88,343.08,389.47z"/>
			
				<rect x="295.68" y="364.53" transform="matrix(0.8941 0.4478 -0.4478 0.8941 194.8224 -94.6513)" class="st6" width="3.81" height="0.33"/>
			
				<rect x="295.16" y="365.57" transform="matrix(0.8942 0.4477 -0.4477 0.8942 195.1936 -94.2992)" class="st6" width="3.81" height="0.33"/>
			
				<rect x="294.63" y="366.61" transform="matrix(0.8941 0.4478 -0.4478 0.8941 195.6405 -93.9639)" class="st6" width="3.81" height="0.33"/>
			
				<rect x="299.13" y="363.19" transform="matrix(0.8941 0.4479 -0.4479 0.8941 194.6477 -95.5842)" class="st6" width="0.55" height="1.07"/>
		</g>
		<polygon class="st5" points="317.34,373.31 314.72,378.54 312.57,377.47 315.4,372.34 		"/>
	</g>
	<path class="st7" d="M295.61,393.01c0,0-1.06-3.15,0.93-6.25c1.99-3.1,2.48-3.31,2.86-3.73c0.39-0.42,3.42-1.68,3.95-1.15
		c0.52,0.52,1.05,3.98,0,4.08c-1.05,0.1-1.36-1.68-1.36-1.68l-1.65,2.26l-0.7,7.32L295.61,393.01z"/>
	<path class="st7" d="M303.56,384.44c0,0,4.01-0.39,4.79,0c0.79,0.39,1.22,2.2-0.9,2.32c-2.12,0.12-4.05-0.28-4.56-0.63
		C302.39,385.78,301.95,384.57,303.56,384.44z"/>
	<path class="st7" d="M302.83,386.73c0,0,4.01-0.39,4.79,0c0.79,0.39,1.22,2.2-0.9,2.32c-2.12,0.12-4.05-0.27-4.56-0.63
		C301.65,388.06,301.22,386.85,302.83,386.73z"/>
	<path class="st7" d="M302.35,388.76c0,0,3.63-0.36,4.35,0c0.71,0.36,1.1,1.99-0.82,2.1c-1.92,0.11-3.67-0.25-4.13-0.57
		C301.28,389.98,300.89,388.87,302.35,388.76z"/>
	<path class="st7" d="M301.59,390.6c0,0,3.23-0.32,3.87,0c0.63,0.32,0.98,1.77-0.73,1.87c-1.71,0.1-3.26-0.22-3.68-0.51
		C300.63,391.68,300.28,390.7,301.59,390.6z"/>
	
		<linearGradient id="SVGID_00000075161897458501337840000013710029134661234602_" gradientUnits="userSpaceOnUse" x1="254.6046" y1="370.515" x2="150.5691" y2="409.583">
		<stop  offset="0" style="stop-color:#FB7247"/>
		<stop  offset="1" style="stop-color:#D13E35"/>
	</linearGradient>
	<path style="fill:url(#SVGID_00000075161897458501337840000013710029134661234602_);" d="M246.83,362.54l-2.34,3.19
		c0,0-5.4,23.27-21.63,32.69c-16.23,9.43-45.19,8.48-45.19,8.48l-10.47-5.34l10.47-4.87c0,0,26.17-0.45,41.27-5.39
		c15.1-4.95,23.83-25.68,23.83-25.68l0.28-4.71l4.73-4.43L246.83,362.54z"/>
	<path class="st7" d="M264.79,339.47c0,0,2.37,0.04,2.37-1.95c0-1.99-2.78-1.62-2.78-1.62S263.26,338.01,264.79,339.47z"/>
</g>
<g>
	<g>
		<path class="st5" d="M1502.44,511.96c-0.2,0-0.37-0.14-0.41-0.34c-0.02-0.09-1.79-9.65-3.83-16.44
			c-2.03-6.79-5.07-13.96-5.1-14.04c-0.09-0.21,0.01-0.46,0.22-0.55c0.21-0.08,0.46,0.01,0.55,0.22c0.03,0.07,3.08,7.29,5.14,14.12
			c2.05,6.84,3.83,16.44,3.85,16.54c0.04,0.23-0.11,0.45-0.34,0.49C1502.49,511.96,1502.47,511.96,1502.44,511.96z"/>
	</g>
	<g>
		<path class="st5" d="M1505.64,513c0,0-0.01,0-0.01,0c-0.23-0.01-0.41-0.2-0.41-0.43c0-0.08,0.27-7.72,2.33-15.36
			c2.05-7.62,6.67-18.17,6.72-18.27c0.09-0.21,0.35-0.32,0.55-0.22c0.21,0.09,0.31,0.34,0.22,0.55c-0.05,0.11-4.64,10.6-6.67,18.15
			c-2.03,7.54-2.3,15.09-2.3,15.17C1506.05,512.81,1505.86,513,1505.64,513z"/>
	</g>
	<g>
		<path class="st5" d="M1500.47,513c-0.16,0-0.31-0.09-0.38-0.25c-0.02-0.04-1.6-3.55-5.45-8.07c-3.8-4.47-7.46-5.77-7.5-5.78
			c-0.22-0.08-0.33-0.31-0.26-0.53c0.08-0.22,0.33-0.33,0.53-0.26c0.16,0.05,3.9,1.37,7.86,6.03c3.94,4.62,5.51,8.13,5.58,8.27
			c0.1,0.21,0,0.46-0.21,0.55C1500.58,512.98,1500.53,513,1500.47,513z"/>
	</g>
	<path class="st5" d="M1476.32,444.23c0,0,14.69,12.26,18.31,16.39c3.62,4.13,3.62,4.95,3.69,5.83c0.07,0.89-3.1,7.01-3.1,7.01
		s1.7-1.85,2.73-3.32c1.03-1.48,0.96-3.18,1.92-2.58c0.96,0.59,3.03,3.54,3.4,6.94c0.37,3.4-4.06,9.67-8.79,10.85
		c-4.73,1.18-11.59,0.22-14.18-3.54c-2.58-3.77-3.03-9.53-2.88-10.49c0.15-0.96,2.73,0.15,5.46,0.59c2.73,0.44,3.99,0.44,3.99,0.44
		s-6.57-3.32-8.57-4.21c-1.99-0.89-3.18-7.16-3.1-12.26C1475.29,450.8,1474.04,442.97,1476.32,444.23z"/>
	<path class="st5" d="M1533.35,442.67c0,0,0.1,14.96-0.49,16.74s-6.3,3.84-6.3,3.84s6.4-0.89,6.4,0c0,0.89-2.07,12.01-7.48,16.74
		c-5.41,4.73-15.26,3.54-17.13-2.66c-1.87-6.2,0.84-13,1.8-13.19c0.96-0.2,3.62,7.58,3.62,7.58s-1.97-8.56-1.97-10.83
		C1511.79,458.62,1532.76,438.44,1533.35,442.67z"/>
	<path class="st5" d="M1465.87,487.2c0,0,13.2,1.51,15.25,2.83c2.05,1.33,3.4,3.86,3.4,3.86s-0.74-2.29-1.59-3.35
		c1.27-0.33,8.44,2.56,9.7,5.7c1.27,3.13-0.72,8.02-7.17,8.26c-6.45,0.24-13.98-7.27-14.59-7.92s3.98-2.03,3.98-2.03
		s-4.04,0.42-5.24,0C1468.4,494.13,1461.81,486.68,1465.87,487.2z"/>
	<polygon class="st6" points="1483.42,549.59 1471.6,634.07 1473.08,634.07 1488.73,549.59 	"/>
	<polygon class="st6" points="1522.8,549.59 1534.61,634.07 1533.13,634.07 1517.48,549.59 	"/>
	<rect x="1480.17" y="549.48" class="st6" width="45.63" height="1.72"/>
	<path class="st5" d="M1528.67,549.59h-51.12c-0.48,0-0.87-0.39-0.87-0.87v-4.75c0-0.48,0.39-0.87,0.87-0.87h51.12
		c0.48,0,0.87,0.39,0.87,0.87v4.75C1529.54,549.2,1529.15,549.59,1528.67,549.59z"/>
	<rect x="1477.66" y="595.76" class="st6" width="50.11" height="0.98"/>
	<polygon class="st22" points="1501.38,509.92 1483.27,509.92 1488.73,543.09 1501.38,543.09 1514.03,543.09 1519.5,509.92 	"/>
	
		<linearGradient id="SVGID_00000048465352050005622970000015503997985688931768_" gradientUnits="userSpaceOnUse" x1="1524.5253" y1="516.882" x2="1464.5692" y2="539.1808">
		<stop  offset="0" style="stop-color:#FDD615"/>
		<stop  offset="1" style="stop-color:#FD9D00"/>
	</linearGradient>
	<path style="fill:url(#SVGID_00000048465352050005622970000015503997985688931768_);" d="M1492.62,509.92
		c0,0,0.39,20.38,2.66,24.86c2.26,4.48,19.37,4.56,19.37,4.56l-0.62,3.76h-25.3l-5.46-33.18H1492.62z"/>
</g>
<g>
	<g>
		<g>
			<path class="st6" d="M714.51,203.88c-3.1,0-5.62,4.65-5.62,10.39c0,5.74,2.52,10.39,5.62,10.39c3.1,0,5.62-4.65,5.62-10.39
				C720.13,208.53,717.61,203.88,714.51,203.88z M714.51,221.53c-1.99,0-3.6-3.25-3.6-7.26c0-4.01,1.61-7.26,3.6-7.26
				c1.99,0,3.6,3.25,3.6,7.26C718.11,218.28,716.5,221.53,714.51,221.53z"/>
			<path class="st6" d="M702.66,203.88c-3.1,0-5.62,3.2-5.62,7.16c0,3.95,2.52,7.16,5.62,7.16c3.1,0,5.62-3.2,5.62-7.16
				C708.28,207.08,705.76,203.88,702.66,203.88z M702.66,215.45c-1.91,0-3.46-1.98-3.46-4.41c0-2.44,1.55-4.41,3.46-4.41
				c1.91,0,3.46,1.98,3.46,4.41C706.12,213.47,704.57,215.45,702.66,215.45z"/>
		</g>
		<path class="st6" d="M707.35,226.43v35.87l1.54-3.62c0,0-0.08-19.01-1.08-32.25C707.35,226.43,707.35,226.43,707.35,226.43z"/>
		<path class="st6" d="M707.35,226.43v35.87l-1.54-3.62c0,0,0.08-19.01,1.08-32.25C707.35,226.43,707.35,226.43,707.35,226.43z"/>
		<path class="st6" d="M703.66,218.08c0,0,1.95-0.04,2.46,1.7c0.51,1.74,0,6.26,0,6.26l1.23,2.74l1.19-2.61c0,0-0.26-1.04,0-2.22
			c0.26-1.17,2.53-1.26,3.16-0.68c0.3-0.61-1.83-4.07-1.83-4.07l-1.91,2.17c0,0-0.64-2.7-0.81-4.12c-0.17-1.41,0.69-3.45,0.69-3.45
			S703.85,216.35,703.66,218.08z"/>
	</g>
	<rect x="700.63" y="229.32" class="st5" width="28.18" height="39.29"/>
	
		<linearGradient id="SVGID_00000024000799566317456520000002861494537979816376_" gradientUnits="userSpaceOnUse" x1="784.8937" y1="238.207" x2="530.2112" y2="273.6998">
		<stop  offset="0" style="stop-color:#FFFFFF"/>
		<stop  offset="1" style="stop-color:#72C0FF"/>
	</linearGradient>
	
		<rect x="703.34" y="229.32" style="fill:url(#SVGID_00000024000799566317456520000002861494537979816376_);" width="8.81" height="39.29"/>
	<polygon class="st32" points="725.76,206.15 723.8,213.8 723.8,229.32 725.76,229.32 727.73,229.32 727.73,213.8 	"/>
	<polygon class="st5" points="726.64,209.58 725.76,209.58 724.88,209.58 723.8,213.8 725.76,213.8 727.73,213.8 	"/>
	<polygon class="st7" points="719.53,206.15 717.57,213.8 717.57,229.32 719.53,229.32 721.49,229.32 721.49,213.8 	"/>
	<polygon class="st5" points="720.41,209.58 719.53,209.58 718.65,209.58 717.57,213.8 719.53,213.8 721.49,213.8 	"/>
</g>
<g>
	<rect x="317.59" y="201.67" class="st32" width="18.84" height="66.51"/>
	<circle class="st5" cx="327.01" cy="258.3" r="5.52"/>
	<path class="st6" d="M331.11,258.3c0-2.27-1.84-4.1-4.1-4.1c-2.27,0-4.1,1.84-4.1,4.1c0,2.27,1.84,4.1,4.1,4.1
		C329.28,262.41,331.11,260.57,331.11,258.3z"/>
	
		<linearGradient id="SVGID_00000150071101248534713120000004422677829198715015_" gradientUnits="userSpaceOnUse" x1="327.0087" y1="189.5402" x2="327.0087" y2="254.1535">
		<stop  offset="0" style="stop-color:#FB7247"/>
		<stop  offset="1" style="stop-color:#D13E35"/>
	</linearGradient>
	
		<rect x="322.53" y="205.21" style="fill:url(#SVGID_00000150071101248534713120000004422677829198715015_);" width="8.95" height="43.13"/>
	<rect x="338.64" y="201.67" class="st7" width="18.84" height="66.51"/>
	<circle class="st5" cx="348.06" cy="258.3" r="5.52"/>
	<path class="st6" d="M352.17,258.3c0-2.27-1.84-4.1-4.1-4.1c-2.27,0-4.1,1.84-4.1,4.1c0,2.27,1.84,4.1,4.1,4.1
		C350.33,262.41,352.17,260.57,352.17,258.3z"/>
	
		<linearGradient id="SVGID_00000092418134321692397060000003025249720946134417_" gradientUnits="userSpaceOnUse" x1="348.0614" y1="189.5402" x2="348.0614" y2="254.1535">
		<stop  offset="0" style="stop-color:#049EFF"/>
		<stop  offset="0.493" style="stop-color:#0484FF"/>
		<stop  offset="1" style="stop-color:#0465FF"/>
	</linearGradient>
	
		<rect x="343.59" y="205.21" style="fill:url(#SVGID_00000092418134321692397060000003025249720946134417_);" width="8.95" height="43.13"/>
	<rect x="359.8" y="201.67" class="st22" width="18.84" height="66.51"/>
	<path class="st5" d="M374.74,258.3c0-3.05-2.47-5.52-5.52-5.52c-3.05,0-5.52,2.47-5.52,5.52c0,3.05,2.47,5.52,5.52,5.52
		C372.27,263.83,374.74,261.35,374.74,258.3z"/>
	<path class="st6" d="M373.32,258.3c0-2.27-1.84-4.1-4.1-4.1c-2.27,0-4.1,1.84-4.1,4.1c0,2.27,1.84,4.1,4.1,4.1
		C371.49,262.41,373.32,260.57,373.32,258.3z"/>
	
		<linearGradient id="SVGID_00000003801726117348672490000007796853261836796093_" gradientUnits="userSpaceOnUse" x1="369.219" y1="189.5402" x2="369.219" y2="254.1535">
		<stop  offset="0" style="stop-color:#FDD615"/>
		<stop  offset="1" style="stop-color:#FD9D00"/>
	</linearGradient>
	
		<rect x="364.74" y="205.21" style="fill:url(#SVGID_00000003801726117348672490000007796853261836796093_);" width="8.95" height="43.13"/>
</g>
<g>
	
		<linearGradient id="SVGID_00000144315116184763332590000007214340522040423810_" gradientUnits="userSpaceOnUse" x1="732.186" y1="159.1217" x2="770.8607" y2="159.1217">
		<stop  offset="0" style="stop-color:#19B6E0"/>
		<stop  offset="1" style="stop-color:#1E7CC7"/>
	</linearGradient>
	<path style="fill:url(#SVGID_00000144315116184763332590000007214340522040423810_);" d="M759.73,160.07
		c-8.46-13.29-27.54-34.47-27.54-34.47s8.58,27.19,15.75,41.21c7.17,14.03,10.35,12.78,14.83,16.74c4.48,3.96,7.11,9.09,7.11,9.09
		l0.49-0.28l0.49-0.28c0,0-3.08-4.87-4.23-10.74C765.49,175.47,768.19,173.36,759.73,160.07z"/>
	<path class="st48" d="M777.65,158.51c-0.74-15.73-6.79-43.59-6.79-43.59s-6.05,27.86-6.79,43.59c-0.74,15.73,2.64,16.23,4.57,21.89
		c1.92,5.66,1.66,11.42,1.66,11.42h0.57h0.57c0,0-0.26-5.76,1.66-11.42C775.01,174.74,778.4,174.24,777.65,158.51z"/>
	<path class="st48" d="M748.96,169.88c-11.52-7.99-34.47-18.79-34.47-18.79s16.4,19.35,27.11,28.39
		c10.71,9.04,12.89,6.92,17.93,8.62c5.04,1.71,8.96,5,8.96,5l0.31-0.4l0.31-0.4c0,0-4.21-2.93-7.16-7.35
		C758.99,180.53,760.48,177.87,748.96,169.88z"/>
	
		<linearGradient id="SVGID_00000068652124906498024550000004513214128912636565_" gradientUnits="userSpaceOnUse" x1="1207.8242" y1="159.1217" x2="1246.4984" y2="159.1217" gradientTransform="matrix(-1 0 0 1 2017.3591 0)">
		<stop  offset="0" style="stop-color:#19B6E0"/>
		<stop  offset="1" style="stop-color:#1E7CC7"/>
	</linearGradient>
	<path style="fill:url(#SVGID_00000068652124906498024550000004513214128912636565_);" d="M781.99,160.07
		c8.46-13.29,27.54-34.47,27.54-34.47s-8.58,27.19-15.75,41.21c-7.17,14.03-10.35,12.78-14.83,16.74c-4.48,3.96-7.11,9.09-7.11,9.09
		l-0.49-0.28l-0.49-0.28c0,0,3.08-4.87,4.23-10.74C776.23,175.47,773.53,173.36,781.99,160.07z"/>
	<path class="st48" d="M792.76,169.88c11.52-7.99,34.47-18.79,34.47-18.79s-16.4,19.35-27.11,28.39
		c-10.71,9.04-12.89,6.92-17.93,8.62c-5.04,1.71-8.96,5-8.96,5l-0.31-0.4l-0.31-0.4c0,0,4.21-2.93,7.16-7.35
		C782.73,180.53,781.24,177.87,792.76,169.88z"/>
	<rect x="760.95" y="191.82" class="st5" width="19.82" height="32.46"/>
	
		<linearGradient id="SVGID_00000030477193372107155600000017140964318897646486_" gradientUnits="userSpaceOnUse" x1="818.5621" y1="200.6644" x2="643.6478" y2="225.0406">
		<stop  offset="0" style="stop-color:#FFFFFF"/>
		<stop  offset="1" style="stop-color:#72C0FF"/>
	</linearGradient>
	
		<rect x="762.93" y="191.82" style="fill:url(#SVGID_00000030477193372107155600000017140964318897646486_);" width="5.28" height="32.46"/>
	<rect x="756.8" y="203.71" class="st6" width="28.12" height="2.45"/>
	<rect x="742.65" y="266.32" class="st6" width="56.43" height="2.45"/>
	<g>
		<path class="st6" d="M787.1,267.96c-0.16,0-0.32-0.1-0.39-0.26l-25.76-62.61c-0.09-0.22,0.01-0.46,0.23-0.55
			c0.22-0.09,0.46,0.02,0.55,0.23l25.76,62.61c0.09,0.22-0.01,0.46-0.23,0.55C787.21,267.95,787.15,267.96,787.1,267.96z"/>
	</g>
	<g>
		<path class="st6" d="M754.62,267.96c-0.05,0-0.11-0.01-0.16-0.03c-0.21-0.09-0.31-0.33-0.23-0.55l25.76-62.61
			c0.09-0.21,0.33-0.32,0.55-0.23c0.21,0.09,0.31,0.33,0.23,0.55l-25.76,62.61C754.94,267.87,754.78,267.96,754.62,267.96z"/>
	</g>
	<g>
		<path class="st6" d="M780.77,224.7h-19.82c-0.23,0-0.42-0.19-0.42-0.42v-19.34c0-0.23,0.19-0.42,0.42-0.42
			c0.23,0,0.42,0.19,0.42,0.42v18.92h18.98v-17.7c0-0.23,0.19-0.42,0.42-0.42c0.23,0,0.42,0.19,0.42,0.42v18.12
			C781.19,224.51,781,224.7,780.77,224.7z"/>
	</g>
</g>
<g>
	<path class="st5" d="M1245.85,154.11h-86.11c-2.09,0-3.78-1.69-3.78-3.78V94.41c0-2.08,1.69-3.78,3.78-3.78h44.91h41.2
		c2.08,0,3.78,1.69,3.78,3.78v55.93C1249.63,152.42,1247.94,154.11,1245.85,154.11z"/>
	<path class="st51" d="M1235.58,161.87h-86.11c-2.09,0-3.78-1.69-3.78-3.78v-55.93c0-2.08,1.69-3.78,3.78-3.78h44.91h41.2
		c2.08,0,3.78,1.69,3.78,3.78v55.93C1239.35,160.18,1237.66,161.87,1235.58,161.87z"/>
	<polygon class="st5" points="1089.54,147.12 1092.8,150.38 1084.17,159.01 1088.25,163.09 1096.88,154.46 1100.14,157.72 
		1108.82,138.43 	"/>
	<path class="st5" d="M1225.3,169.63h-86.11c-2.09,0-3.78-1.69-3.78-3.78v-55.93c0-2.08,1.69-3.78,3.78-3.78h44.91h41.2
		c2.08,0,3.78,1.69,3.78,3.78v55.93C1229.07,167.94,1227.38,169.63,1225.3,169.63z"/>
	<path class="st7" d="M1142.04,111.07c0-0.96-0.77-1.73-1.73-1.73c-0.96,0-1.73,0.77-1.73,1.73c0,0.96,0.77,1.73,1.73,1.73
		C1141.26,112.8,1142.04,112.03,1142.04,111.07z"/>
	<path class="st7" d="M1147.78,111.07c0-0.96-0.77-1.73-1.73-1.73c-0.96,0-1.73,0.77-1.73,1.73c0,0.96,0.77,1.73,1.73,1.73
		C1147,112.8,1147.78,112.03,1147.78,111.07z"/>
	<path class="st7" d="M1153.52,111.07c0-0.96-0.77-1.73-1.73-1.73c-0.96,0-1.73,0.77-1.73,1.73c0,0.96,0.77,1.73,1.73,1.73
		C1152.74,112.8,1153.52,112.03,1153.52,111.07z"/>
	<path class="st32" d="M1221.39,113.46h3.83c0.25,0,0.45-0.2,0.45-0.44v-3.83c0-0.25-0.2-0.45-0.45-0.45h-1.91h-1.91
		c-0.25,0-0.44,0.2-0.44,0.45v3.83C1220.95,113.27,1221.15,113.46,1221.39,113.46z"/>
	<path class="st52" d="M1168.92,154.85c-2.65-1.45-4.79-1.62-5.56-2.14c-0.77-0.51-0.26-2.74-0.26-2.74s4.36-2.22,4.7-4.62
		c0.34-2.39,0.4-3.25,0.4-3.25s0.28,1.2,1.99,1.03c1.71-0.17,2.3-4.02,1.28-5.04c-1.02-1.03-2.39,0.51-2.39,0.51
		s0.55-7.27-0.88-11.11c-1.43-3.85-8.18-4.15-8.18-4.15s-6.75,0.3-8.18,4.15c-1.43,3.85-0.88,11.11-0.88,11.11s-1.37-1.54-2.39-0.51
		c-1.02,1.03-0.43,4.87,1.28,5.04s1.99-1.03,1.99-1.03s0.06,0.85,0.4,3.25c0.34,2.39,4.7,4.62,4.7,4.62s0.51,2.22-0.26,2.74
		c-0.77,0.51-2.91,0.68-5.56,2.14c-2.65,1.45-2.56,3.25-2.56,3.25h11.45h11.45C1171.48,158.1,1171.57,156.31,1168.92,154.85z"/>
	<g>
		<path class="st52" d="M1175.22,165.02h-30.4c-2.52,0-4.56-2.05-4.56-4.56v-38.48c0-2.52,2.05-4.56,4.56-4.56h30.4
			c2.52,0,4.56,2.05,4.56,4.56v38.48C1179.79,162.98,1177.74,165.02,1175.22,165.02z M1144.83,119.09c-1.59,0-2.88,1.29-2.88,2.88
			v38.48c0,1.59,1.29,2.88,2.88,2.88h30.4c1.59,0,2.88-1.29,2.88-2.88v-38.48c0-1.59-1.29-2.88-2.88-2.88H1144.83z"/>
	</g>
	<path class="st52" d="M1191.83,165.02h-6.06c-0.84,0-1.51-0.7-1.51-1.57v-44.46c0-0.87,0.68-1.57,1.51-1.57h6.06
		c0.84,0,1.51,0.7,1.51,1.57v22.23v22.23C1193.35,164.32,1192.67,165.02,1191.83,165.02z"/>
	<rect x="1196.88" y="117.42" class="st52" width="26.43" height="3.25"/>
	<rect x="1196.88" y="123.92" class="st52" width="24.71" height="3.25"/>
	<rect x="1196.88" y="130.42" class="st52" width="26.43" height="3.25"/>
	<rect x="1196.88" y="136.92" class="st52" width="19.79" height="3.25"/>
	<rect x="1196.88" y="143.42" class="st52" width="26.43" height="3.25"/>
	<rect x="1196.88" y="149.92" class="st52" width="26.43" height="3.25"/>
	<rect x="1196.88" y="156.48" class="st52" width="21.15" height="3.25"/>
</g>
<g>
	<path class="st5" d="M1649.45,140.01h-0.59v-0.59h-120.78v0.59h-0.59v120.78h0.59v0.59h120.78v-0.59h0.59V140.01z M1637.31,151.56
		v97.67h-97.67v-97.67H1637.31z"/>
	<path class="st5" d="M1630.14,241.85v-83.44h-83.44v83.44H1630.14z M1588.42,164.13h0.05h5.83h12.76l-3.5,8.14h-15.09v-0.07
		l-0.05,0.07h-15.09l-3.5-8.14H1588.42z"/>
</g>
<g>
	<path class="st5" d="M1057.72,398.07l-1.62-10.18l8.01,1.02v14.48C1064.1,403.39,1058.61,400.84,1057.72,398.07z"/>
	<path class="st6" d="M1056.52,397.98l-3.33,4.03l18.52,15.29c0,0,3.47,0.88,0.89-3.35c-2.58-4.23-7.92-11.95-8.11-12.11
		c-0.19-0.15-3.73,1.48-6.77-3.74C1057.46,397.66,1056.85,397.59,1056.52,397.98z"/>
	<path class="st5" d="M1080.99,339.06l-1.62-10.18l8.01,1.02v14.48C1087.38,344.38,1081.88,341.83,1080.99,339.06z"/>
	<path class="st6" d="M1079.79,338.97l-3.33,4.03l18.52,15.29c0,0,3.47,0.88,0.89-3.35c-2.58-4.23-7.92-11.95-8.11-12.11
		c-0.19-0.15-3.73,1.48-6.77-3.74C1080.73,338.65,1080.12,338.58,1079.79,338.97z"/>
	<polygon class="st53" points="1036.28,232.51 1006.05,238.28 1003.32,221.5 1034.29,226.97 	"/>
	<path class="st54" d="M1034.29,226.97h21.11c0,0,6.48,3.21,7.15,4.32c0.66,1.11,2.08,5.13,2.08,5.79c0,0.66-1.14,0.8-1.97-0.91
		c-0.83-1.72-1.27-2.99-1.61-3.38c-0.33-0.39-4.19-2.57-4.19-2.57s2.42,2.73,2.53,3.4c0.11,0.66-1.16,4.65-1.77,4.65
		c-0.61,0-1.16-0.44-1-1.44c0.17-1,0.94-2.88,0.72-3.1c-0.22-0.22-1.94-2.27-1.94-2.27s1.55,2.16,1.5,2.49
		c-0.06,0.33-1.61,3.88-2.11,4.04c-0.5,0.17-0.94-1.11-0.72-2.27c0.22-1.16,0.83-1.5,0.66-1.99s-1.77-1.77-1.77-1.77
		s0.22,2.88,0.11,3.44c-0.11,0.55-1.83,1.61-2.83,2.11c-1,0.5-0.5-1.16,0.11-1.77c0.61-0.61,0.83-0.72,0.83-0.72l-0.44-2.38
		c0,0-3.55,0.11-7.15,0.28c-3.6,0.17-7.31-0.39-7.31-0.39L1034.29,226.97z"/>
	
		<linearGradient id="SVGID_00000063590889417623226990000009433976657494640043_" gradientUnits="userSpaceOnUse" x1="1140.4535" y1="216.1223" x2="1021.6598" y2="313.1964">
		<stop  offset="0" style="stop-color:#0C3D77"/>
		<stop  offset="1" style="stop-color:#092E59"/>
	</linearGradient>
	<path style="fill:url(#SVGID_00000063590889417623226990000009433976657494640043_);" d="M1013.2,246.56h59.9
		c9.15,0,16.57,7.42,16.57,16.57v71.75h-10.9c0,0-7.05-31.25-7.72-42.55c-0.67-11.3,1.66-18.95,0-19.95
		c-1.66-1-54.73,1.99-54.73,1.99l-12.44-14.63C1003.87,259.75,999.91,246.56,1013.2,246.56z"/>
	<g>
		<path class="st16" d="M1065.81,324.35c0-7.16-2.85-14.03-7.91-19.1l-46.1-43.62v-12.47c0,0-20.13,18.9-16.58,23.55
			c3.55,4.65,59.84,44.03,60.06,49.39c0.22,5.36-1.77,21.76,0,36.38c1.29,10.64,3.39,26.62,4.45,34.57h6.08V324.35z"/>
		<path class="st16" d="M1055.28,322.1c-0.22-5.36-56.52-44.73-60.06-49.39c-3.55-4.65,16.58-23.55,16.58-23.55
			s-34.53,11.14-34.53,21.33s6.21,15.51,15.5,21.5c9.29,5.98,52.99,32.8,54.09,35.02c1.11,2.22-1.16,14.24-0.06,27.98
			c1.11,13.74,9.14,38.06,9.14,38.06h3.78c-1.06-7.95-3.16-23.94-4.45-34.57C1053.5,343.86,1055.5,327.46,1055.28,322.1z"/>
		
			<linearGradient id="SVGID_00000064319410637661770990000016751268650809402797_" gradientUnits="userSpaceOnUse" x1="1075.7478" y1="273.2388" x2="973.7978" y2="375.1888">
			<stop  offset="0" style="stop-color:#0C3D77"/>
			<stop  offset="1" style="stop-color:#092E59"/>
		</linearGradient>
		<path style="fill:url(#SVGID_00000064319410637661770990000016751268650809402797_);" d="M1055.28,322.1
			c-0.22-5.36-56.52-44.73-60.06-49.39c-3.55-4.65,16.58-23.55,16.58-23.55s-34.53,11.14-34.53,21.33s6.21,15.51,15.5,21.5
			c9.29,5.98,52.99,32.8,54.09,35.02c1.11,2.22-1.16,14.24-0.06,27.98c1.11,13.74,9.14,38.06,9.14,38.06h3.78
			c-1.06-7.95-3.16-23.94-4.45-34.57C1053.5,343.86,1055.5,327.46,1055.28,322.1z"/>
	</g>
	<path class="st48" d="M998.8,149.16c0,0,8.82,24.49,10.82,45.99c1.99,21.5,5.76,51.42,5.76,51.42l-42.77,31.03
		c0,0-2.66-55.73,0-84.49c2.66-28.76,10.62-43.94,10.62-43.94H998.8z"/>
	
		<linearGradient id="SVGID_00000047770472508049876140000001218641312325500549_" gradientUnits="userSpaceOnUse" x1="1033.1256" y1="206.6137" x2="935.3857" y2="218.5819">
		<stop  offset="0" style="stop-color:#19B6E0"/>
		<stop  offset="1" style="stop-color:#1E7CC7"/>
	</linearGradient>
	<path style="fill:url(#SVGID_00000047770472508049876140000001218641312325500549_);" d="M989.9,149.16c0,0-7.13,21.61-6.67,46.65
		s1.68,72.85,1.68,72.85l-12.31,8.93c0,0-4.58-53.86-1.18-83.33c3.4-29.48,11.8-45.1,11.8-45.1H989.9z"/>
	<polygon class="st5" points="1029.13,121.86 1021.62,138.62 1000.91,144.03 998.8,149.16 983.23,149.16 989.92,129.55 
		1011.36,111.05 	"/>
	<polygon class="st6" points="1033.19,241.35 1082.07,241.35 1098.42,198.84 1095.53,198.84 1080,237.76 1033.76,237.76 	"/>
	<path class="st5" d="M1028.55,211.55h21.11c0,0,6.48,3.21,7.15,4.32c0.66,1.11,2.08,5.12,2.08,5.79c0,0.66-1.14,0.8-1.97-0.91
		c-0.83-1.72-1.27-2.99-1.61-3.38c-0.33-0.39-4.19-2.57-4.19-2.57s2.42,2.73,2.53,3.4c0.11,0.66-1.16,4.65-1.77,4.65
		c-0.61,0-1.16-0.44-1-1.44c0.17-1,0.94-2.88,0.72-3.1c-0.22-0.22-1.94-2.27-1.94-2.27s1.55,2.16,1.5,2.49
		c-0.06,0.33-1.61,3.88-2.11,4.04c-0.5,0.17-0.94-1.11-0.72-2.27c0.22-1.16,0.83-1.5,0.67-1.99c-0.17-0.5-1.77-1.77-1.77-1.77
		s0.22,2.88,0.11,3.44c-0.11,0.55-1.83,1.61-2.83,2.11c-1,0.5-0.5-1.16,0.11-1.77c0.61-0.61,0.83-0.72,0.83-0.72l-0.44-2.38
		c0,0-3.55,0.11-7.15,0.28c-3.6,0.17-7.31-0.39-7.31-0.39L1028.55,211.55z"/>
	<g>
		<path class="st58" d="M982.34,185.96c0,12.63,0,51.36,0,51.36s0.58,5.48,8.15,1.33c5.96-3.28,30.5-18.35,39.27-23.75l-1.21-3.36
			l-30.03,11.41v-39.12c0,0,0.44-14.18-8.98-14.18c-0.25,0-0.49,0.02-0.73,0.02C988.71,169.74,982.34,173.43,982.34,185.96z"/>
		<path class="st7" d="M976.14,187.28c0,13.08,0,54.52,0,54.52s-1.22,12.3,8.98,7.31c10.19-4.99,45.43-32.03,45.43-32.03l-0.79-2.18
			c-8.77,5.4-33.31,20.47-39.27,23.75c-7.56,4.15-8.15-1.33-8.15-1.33s0-38.73,0-51.36c0-12.53,6.37-16.22,6.47-16.28
			C979.93,169.92,976.14,174.55,976.14,187.28z"/>
		
			<linearGradient id="SVGID_00000024681138760948796180000013238910668239232686_" gradientUnits="userSpaceOnUse" x1="1021.1862" y1="193.8008" x2="947.827" y2="225.7154">
			<stop  offset="0" style="stop-color:#0496C7"/>
			<stop  offset="1" style="stop-color:#1E7CC7"/>
		</linearGradient>
		<path style="fill:url(#SVGID_00000024681138760948796180000013238910668239232686_);" d="M976.14,187.28c0,13.08,0,54.52,0,54.52
			s-1.22,12.3,8.98,7.31c10.19-4.99,45.43-32.03,45.43-32.03l-0.79-2.18c-8.77,5.4-33.31,20.47-39.27,23.75
			c-7.56,4.15-8.15-1.33-8.15-1.33s0-38.73,0-51.36c0-12.53,6.37-16.22,6.47-16.28C979.93,169.92,976.14,174.55,976.14,187.28z"/>
	</g>
	<g>
		<path class="st6" d="M987,228.35c-0.16,0-0.32-0.09-0.39-0.25c-0.09-0.21,0.01-0.46,0.22-0.55l11.27-4.86v-48.7
			c0-0.23,0.19-0.42,0.42-0.42c0.23,0,0.42,0.19,0.42,0.42v48.97c0,0.17-0.1,0.32-0.25,0.39l-11.52,4.97
			C987.11,228.34,987.05,228.35,987,228.35z"/>
	</g>
	<g>
		<path class="st6" d="M998.52,191.74c-0.04,0-0.07,0-0.11-0.01c-0.23-0.06-0.36-0.29-0.3-0.51l3.02-11.18
			c0.06-0.22,0.29-0.35,0.51-0.3c0.23,0.06,0.36,0.29,0.3,0.51l-3.02,11.18C998.88,191.61,998.71,191.74,998.52,191.74z"/>
	</g>
	<path class="st9" d="M1017.49,133.52c0-1.87-1.52-3.39-3.39-3.39c-1.87,0-3.39,1.52-3.39,3.39c0,1.87,1.52,3.39,3.39,3.39
		C1015.97,136.9,1017.49,135.39,1017.49,133.52z"/>
	<path class="st6" d="M1029.13,121.86l-13.74-6.9c-2.58-1.3-5.72-0.25-7.01,2.34l-3.64,7.33c-0.87,1.75-0.24,3.86,1.44,4.86
		l15.44,9.14l-4.39,8.9c-1.43,2.91-4.94,4.12-7.86,2.72c-3.87-1.86-8.61-4.22-9.55-5.12c-1.65-1.56,0.37-10.81,0-12.18
		c-0.37-1.37-1.56-1.65-1.56-1.65s-2.29,5.31-5.68,5.41c-3.39,0.09-6.14-1.92-6.14-1.92l12.42-26.91c2.58-5.58,9.26-7.92,14.75-5.16
		l12.06,6.05c4.36,2.19,6.17,7.47,4.06,11.87L1029.13,121.86z"/>
	<path class="st5" d="M1023.9,133.52c0,0,2.45,1.62,1.96,3.33c-0.49,1.71-2.51,1.8-3.88,0.96
		C1020.61,136.97,1023.9,133.52,1023.9,133.52z"/>
	<polygon class="st6" points="1013.37,229.97 987,248.1 1013.71,232.84 	"/>
</g>
<g>
	<path class="st6" d="M314.95,530.11c0,0-2.9-9.52-9.84-17.02c-6.93-7.5-19.95-16.3-19.95-16.3s2.3,9.01,8.31,17.04
		c6.01,8.04,21.49,17.45,21.49,17.45L314.95,530.11z"/>
	<path class="st6" d="M314.95,552.94c0,0-2.9-9.52-9.84-17.02c-6.93-7.5-19.95-16.3-19.95-16.3s2.3,9.01,8.31,17.04
		c6.01,8.04,21.49,17.45,21.49,17.45L314.95,552.94z"/>
	<path class="st6" d="M314.96,535.69c0,0,2.9-9.52,9.84-17.02c6.93-7.5,19.95-16.3,19.95-16.3s-2.3,9.01-8.31,17.04
		c-6.01,8.04-21.49,17.45-21.49,17.45L314.96,535.69z"/>
	<path class="st6" d="M314.96,567.04c0,0,2.9-9.52,9.84-17.02c6.93-7.5,19.95-16.3,19.95-16.3s-2.3,9.01-8.31,17.04
		c-6.01,8.04-21.49,17.45-21.49,17.45L314.96,567.04z"/>
	<polygon class="st9" points="314.51,568.2 314.51,634.26 298.56,634.26 287.13,568.2 	"/>
	<polygon class="st9" points="314.51,568.2 314.51,634.26 330.46,634.26 341.9,568.2 	"/>
	
		<linearGradient id="SVGID_00000008113483363907303590000013537605371320980910_" gradientUnits="userSpaceOnUse" x1="313.0867" y1="552.6163" x2="308.2193" y2="609.2323">
		<stop  offset="0" style="stop-color:#F7BA5F"/>
		<stop  offset="0.1878" style="stop-color:#F7B25F"/>
		<stop  offset="0.5905" style="stop-color:#F7A65F"/>
		<stop  offset="1" style="stop-color:#F7A25F"/>
	</linearGradient>
	<path style="fill:url(#SVGID_00000008113483363907303590000013537605371320980910_);" d="M300.82,568.2c0,0,2.26,51.21,4.51,56.43
		c2.26,5.22,25.58,7.05,25.58,7.05l-0.45,2.58h-31.9l-11.44-66.06H300.82z"/>
	<polygon class="st61" points="312.04,634.26 311.75,634.26 311.01,568.2 311.57,568.2 	"/>
	<polygon class="st61" points="307.31,634.26 307.02,634.26 303.36,568.2 303.91,568.2 	"/>
	<polygon class="st61" points="303.79,634.26 303.51,634.26 296.45,568.2 297,568.2 	"/>
	<polygon class="st61" points="300.28,634.26 299.99,634.26 289.53,568.2 290.09,568.2 	"/>
	<polygon class="st61" points="317.96,634.26 318.24,634.26 318.8,568.2 318.24,568.2 	"/>
	<polygon class="st61" points="321.71,634.26 322,634.26 325.67,568.2 325.11,568.2 	"/>
	<polygon class="st61" points="325.23,634.26 325.52,634.26 332.58,568.2 332.02,568.2 	"/>
	<polygon class="st61" points="328.75,634.26 329.03,634.26 339.49,568.2 338.93,568.2 	"/>
	<rect x="314.5" y="509.88" class="st3" width="0.9" height="58.32"/>
	<path class="st3" d="M314.55,520.01c0,0-6.01-7.93-15.11-12.58c-9.1-4.65-24.35-8.41-24.35-8.41s5.27,7.66,13.68,13.13
		c8.41,5.47,26.19,8.96,26.19,8.96L314.55,520.01z"/>
	<path class="st3" d="M314.55,541.91c0,0-6.01-7.93-15.11-12.58c-9.1-4.65-24.35-8.41-24.35-8.41s5.27,7.66,13.68,13.13
		c8.41,5.47,26.19,8.96,26.19,8.96L314.55,541.91z"/>
	<path class="st3" d="M314.55,563.81c0,0-6.01-7.93-15.11-12.58c-9.1-4.65-24.35-8.41-24.35-8.41s5.27,7.66,13.68,13.13
		c8.41,5.47,26.19,8.96,26.19,8.96L314.55,563.81z"/>
	<path class="st3" d="M315.37,520.01c0,0,6.01-7.93,15.11-12.58c9.1-4.65,24.35-8.41,24.35-8.41s-5.27,7.66-13.68,13.13
		c-8.41,5.47-26.19,8.96-26.19,8.96L315.37,520.01z"/>
	<path class="st3" d="M314.58,510.19c0,0-3.43-9.35-2.43-19.51c1-10.17,6.07-25.03,6.07-25.03s3.6,8.57,3.66,18.6
		c0.06,10.03-6.61,26.88-6.61,26.88L314.58,510.19z"/>
	<path class="st3" d="M315.37,541.91c0,0,6.01-7.93,15.11-12.58c9.1-4.65,24.35-8.41,24.35-8.41s-5.27,7.66-13.68,13.13
		c-8.41,5.47-26.19,8.96-26.19,8.96L315.37,541.91z"/>
	<path class="st3" d="M315.37,558.5c0,0,6.01-7.93,15.11-12.58c9.1-4.65,24.35-8.41,24.35-8.41s-5.27,7.66-13.68,13.13
		c-8.41,5.47-26.19,8.96-26.19,8.96L315.37,558.5z"/>
</g>
<g>
	<polygon class="st7" points="957.39,572.4 957.39,633.48 952.68,633.48 946.5,572.4 	"/>
	<polygon class="st3" points="957.39,634.26 948.56,634.26 945.93,631.64 949.15,631.64 950.16,632.66 957.39,632.66 	"/>
	<polygon class="st7" points="957.39,572.4 957.39,633.48 962.1,633.48 968.28,572.4 	"/>
	<polygon class="st3" points="957.39,634.26 966.22,634.26 968.84,631.64 965.63,631.64 964.61,632.66 957.39,632.66 	"/>
	
		<linearGradient id="SVGID_00000006668407379938866000000001648009422781590449_" gradientUnits="userSpaceOnUse" x1="965.39" y1="601.2504" x2="931.44" y2="605.1752">
		<stop  offset="0" style="stop-color:#049EFF"/>
		<stop  offset="0.493" style="stop-color:#0484FF"/>
		<stop  offset="1" style="stop-color:#0465FF"/>
	</linearGradient>
	<polygon style="fill:url(#SVGID_00000006668407379938866000000001648009422781590449_);" points="952.97,572.4 955.82,627.1 
		962.74,627.1 962.18,632.66 952.6,632.66 946.5,572.4 	"/>
	<path class="st5" d="M957.39,412.82v132.06c0,0-30.22,1.18-39.05-16.88c-8.83-18.05,5.35-59.38,11.63-76.01
		C936.24,435.37,945.42,412.82,957.39,412.82z"/>
	<path class="st9" d="M957.39,412.82V572.4h-1.18C956.21,572.4,955.72,418.13,957.39,412.82z"/>
	<g>
		<path class="st9" d="M956.89,436.5c-0.08,0-0.15-0.03-0.21-0.09l-13.06-13.06c-0.11-0.12-0.11-0.3,0-0.42
			c0.12-0.12,0.3-0.12,0.42,0L957.1,436c0.12,0.11,0.12,0.3,0,0.42C957.04,436.47,956.96,436.5,956.89,436.5z"/>
	</g>
	<g>
		<path class="st9" d="M956.89,454.23c-0.08,0-0.15-0.03-0.21-0.09l-19.33-19.33c-0.11-0.11-0.11-0.3,0-0.42
			c0.12-0.12,0.3-0.12,0.42,0l19.33,19.33c0.12,0.12,0.12,0.3,0,0.42C957.04,454.2,956.96,454.23,956.89,454.23z"/>
	</g>
	<g>
		<path class="st9" d="M956.89,471.96c-0.08,0-0.15-0.03-0.21-0.09l-24.48-24.48c-0.12-0.12-0.12-0.3,0-0.42
			c0.11-0.11,0.3-0.11,0.42,0l24.48,24.48c0.12,0.11,0.12,0.3,0,0.42C957.04,471.93,956.96,471.96,956.89,471.96z"/>
	</g>
	<g>
		<path class="st9" d="M956.89,489.69c-0.08,0-0.15-0.03-0.21-0.09l-29.3-29.3c-0.12-0.12-0.12-0.3,0-0.42
			c0.11-0.12,0.3-0.12,0.42,0l29.3,29.3c0.12,0.12,0.12,0.3,0,0.42C957.04,489.66,956.96,489.69,956.89,489.69z"/>
	</g>
	<g>
		<path class="st9" d="M956.89,507.41c-0.08,0-0.15-0.03-0.21-0.09l-33.64-33.64c-0.12-0.12-0.12-0.3,0-0.42
			c0.12-0.11,0.3-0.11,0.42,0l33.64,33.64c0.12,0.12,0.12,0.3,0,0.42C957.04,507.38,956.96,507.41,956.89,507.41z"/>
	</g>
	<g>
		<path class="st9" d="M956.89,525.14c-0.08,0-0.15-0.03-0.21-0.09l-37.39-37.39c-0.11-0.12-0.11-0.3,0-0.42
			c0.12-0.12,0.3-0.12,0.42,0l37.39,37.39c0.12,0.11,0.12,0.3,0,0.42C957.04,525.11,956.96,525.14,956.89,525.14z"/>
	</g>
	<g>
		<path class="st9" d="M956.89,542.87c-0.08,0-0.15-0.03-0.21-0.09l-40.33-40.33c-0.11-0.12-0.11-0.3,0-0.42
			c0.12-0.12,0.3-0.12,0.42,0l40.33,40.33c0.12,0.11,0.12,0.3,0,0.42C957.04,542.84,956.96,542.87,956.89,542.87z"/>
	</g>
	<g>
		<path class="st9" d="M956.89,560.6c-0.08,0-0.15-0.03-0.21-0.09l-11.79-11.79c-0.12-0.11-0.12-0.3,0-0.42
			c0.12-0.11,0.3-0.11,0.42,0l11.79,11.79c0.12,0.11,0.12,0.3,0,0.42C957.04,560.57,956.96,560.6,956.89,560.6z"/>
	</g>
	<g>
		<path class="st9" d="M957.89,560.6c-0.08,0-0.15-0.03-0.21-0.09c-0.11-0.11-0.11-0.3,0-0.42l11.79-11.79
			c0.12-0.11,0.3-0.11,0.42,0c0.11,0.11,0.11,0.3,0,0.42l-11.79,11.79C958.04,560.57,957.97,560.6,957.89,560.6z"/>
	</g>
	<g>
		<path class="st9" d="M938.7,542.41c-0.08,0-0.15-0.03-0.21-0.09l-22.44-22.44c-0.12-0.12-0.12-0.3,0-0.42
			c0.12-0.11,0.3-0.11,0.42,0l22.44,22.44c0.12,0.11,0.12,0.3,0,0.42C938.85,542.38,938.77,542.41,938.7,542.41z"/>
	</g>
	<path class="st5" d="M957.39,412.82v132.06c0,0,30.22,1.18,39.05-16.88c8.83-18.05-5.35-59.38-11.63-76.01
		C978.53,435.37,969.36,412.82,957.39,412.82z"/>
	<g>
		<path class="st9" d="M957.89,436.5c-0.08,0-0.15-0.03-0.21-0.09c-0.11-0.11-0.11-0.3,0-0.42l13.06-13.06
			c0.12-0.12,0.3-0.12,0.42,0c0.11,0.12,0.11,0.3,0,0.42l-13.06,13.06C958.04,436.47,957.97,436.5,957.89,436.5z"/>
	</g>
	<g>
		<path class="st9" d="M957.89,454.23c-0.08,0-0.15-0.03-0.21-0.09c-0.11-0.11-0.11-0.3,0-0.42l19.33-19.33
			c0.12-0.12,0.3-0.12,0.42,0c0.12,0.12,0.12,0.3,0,0.42l-19.33,19.33C958.04,454.2,957.97,454.23,957.89,454.23z"/>
	</g>
	<g>
		<path class="st9" d="M957.89,471.96c-0.08,0-0.15-0.03-0.21-0.09c-0.11-0.11-0.11-0.3,0-0.42l24.48-24.48
			c0.12-0.11,0.3-0.11,0.42,0c0.12,0.12,0.12,0.3,0,0.42l-24.48,24.48C958.04,471.93,957.97,471.96,957.89,471.96z"/>
	</g>
	<g>
		<path class="st9" d="M957.89,489.69c-0.08,0-0.15-0.03-0.21-0.09c-0.11-0.12-0.11-0.3,0-0.42l29.3-29.3c0.12-0.12,0.3-0.12,0.42,0
			c0.12,0.12,0.12,0.3,0,0.42l-29.3,29.3C958.04,489.66,957.97,489.69,957.89,489.69z"/>
	</g>
	<g>
		<path class="st9" d="M957.89,507.41c-0.08,0-0.15-0.03-0.21-0.09c-0.11-0.11-0.11-0.3,0-0.42l33.64-33.64
			c0.12-0.11,0.3-0.11,0.42,0c0.12,0.12,0.12,0.3,0,0.42l-33.64,33.64C958.04,507.38,957.97,507.41,957.89,507.41z"/>
	</g>
	<g>
		<path class="st9" d="M957.89,525.14c-0.08,0-0.15-0.03-0.21-0.09c-0.11-0.12-0.11-0.3,0-0.42l37.39-37.39
			c0.11-0.12,0.3-0.12,0.42,0c0.11,0.11,0.11,0.3,0,0.42l-37.39,37.39C958.04,525.11,957.97,525.14,957.89,525.14z"/>
	</g>
	<g>
		<path class="st9" d="M957.89,542.87c-0.08,0-0.15-0.03-0.21-0.09c-0.11-0.11-0.11-0.3,0-0.42l40.33-40.33
			c0.11-0.12,0.3-0.12,0.42,0c0.12,0.11,0.12,0.3,0,0.42l-40.33,40.33C958.04,542.84,957.97,542.87,957.89,542.87z"/>
	</g>
	<g>
		<path class="st9" d="M976.08,542.41c-0.08,0-0.15-0.03-0.21-0.09c-0.12-0.11-0.12-0.3,0-0.42l22.44-22.44
			c0.12-0.11,0.3-0.11,0.42,0c0.12,0.12,0.12,0.3,0,0.42l-22.44,22.44C976.23,542.38,976.16,542.41,976.08,542.41z"/>
	</g>
	<path class="st9" d="M957.39,412.82V572.4h1.18C958.57,572.4,959.06,418.13,957.39,412.82z"/>
</g>
</svg>
