<?xml version="1.0" encoding="utf-8"?>
<!-- Generator: Adobe Illustrator 27.0.0, SVG Export Plug-In . SVG Version: 6.00 Build 0)  -->
<svg version="1.1" id="Elements" xmlns="http://www.w3.org/2000/svg" xmlns:xlink="http://www.w3.org/1999/xlink" x="0px" y="0px"
	 viewBox="0 0 593.98 324.53" style="enable-background:new 0 0 593.98 324.53;" xml:space="preserve">
<style type="text/css">
	.st0{fill:#0F48F6;}
	.st1{fill:#0041E2;}
	.st2{fill:#DDFF07;}
	.st3{fill:#174C99;}
	.st4{fill:url(#SVGID_1_);}
	.st5{fill:#FFFFFF;}
	.st6{fill:#09181F;}
	.st7{fill:#049EFF;}
	.st8{fill:#A8E1FC;}
	.st9{fill:#F7BA5F;}
	.st10{fill:url(#SVGID_00000137095084825968014650000000590735828926411957_);}
	.st11{fill:url(#SVGID_00000169559252945667907920000016707751214697137087_);}
	.st12{fill:#F6BB5D;}
	.st13{fill:url(#SVGID_00000105424082433342962640000007482471390632389251_);}
	.st14{fill:url(#SVGID_00000010297082329008718660000016686173424589553315_);}
	.st15{fill:url(#SVGID_00000183211220569932513750000016730123249495218344_);}
	.st16{fill:#0C3D77;}
	.st17{fill:url(#SVGID_00000057856793479414642460000000097236478237671305_);}
	.st18{fill:url(#SVGID_00000069386358776807611210000017472620245523134113_);}
	.st19{fill:url(#SVGID_00000074422799411305024090000006482127530471738543_);}
	.st20{fill:url(#SVGID_00000173140684444658414490000005862733025045318557_);}
	.st21{fill:url(#SVGID_00000074407707291364777780000017443627410850315677_);}
	.st22{fill:#FDD615;}
	.st23{fill:url(#SVGID_00000044165464512620915400000011665185112934903689_);}
	.st24{fill:url(#SVGID_00000183941055823344335500000005916679106725491901_);}
	.st25{fill:url(#SVGID_00000176008857223309017400000015399669322976133551_);}
	.st26{fill:url(#SVGID_00000123426405651280696720000004638844215612337294_);}
	.st27{filter:url(#Adobe_OpacityMaskFilter);}
	.st28{filter:url(#Adobe_OpacityMaskFilter_00000152975637204402278580000013636696937827333013_);}
	
		.st29{mask:url(#SVGID_00000008851808951115903620000018162412527244718503_);fill:url(#SVGID_00000134247866240121147870000015598715511090632080_);}
	.st30{opacity:0.57;fill:url(#SVGID_00000183238007877346278480000010047283213512169894_);}
	.st31{fill:url(#SVGID_00000054245203522530566740000012854643761572770442_);}
	.st32{fill:#FB7247;}
	.st33{fill:url(#SVGID_00000176723041905624203900000005071960503238141062_);}
	.st34{fill:url(#SVGID_00000094592028489101991780000006592893368937910170_);}
	.st35{fill:url(#SVGID_00000145775315717763907780000009712471795613073851_);}
	.st36{fill:url(#SVGID_00000090254715445308344000000003222892211092530080_);}
	.st37{fill:#CDE200;}
	.st38{fill:url(#SVGID_00000075869773181584579190000013841099174084980872_);}
	.st39{fill:url(#SVGID_00000071529334944946520940000012603702494135712414_);}
	.st40{fill:url(#SVGID_00000004535881045761759580000001662584787146737045_);}
	.st41{fill:url(#SVGID_00000168103130282926676710000006739600436740332970_);}
	.st42{fill:url(#SVGID_00000103263196169811085720000010921462303184832686_);}
	.st43{fill:url(#SVGID_00000163058700773027383560000015060538459737190077_);}
	.st44{fill:url(#SVGID_00000030475985704819314070000009847523363365448868_);}
	.st45{fill:url(#SVGID_00000042706596706350834620000017975126139803037114_);}
	.st46{fill:url(#SVGID_00000034084744080555963510000009960526181770726061_);}
	.st47{fill:url(#SVGID_00000100383892358565876610000005398667341509125047_);}
	.st48{fill:#19B6E0;}
	.st49{fill:url(#SVGID_00000103238665490925998060000004850853769484427705_);}
	.st50{fill:url(#SVGID_00000065788901398268446540000017709199774425589892_);}
	.st51{fill:#8ED6EF;}
	.st52{fill:#A9E1FA;}
	.st53{fill:#1D6A77;}
	.st54{fill:#DAE4E8;}
	.st55{fill:url(#SVGID_00000120519312922382466400000015770657471395887236_);}
	.st56{fill:url(#SVGID_00000055674089658907585160000008200496604026703022_);}
	.st57{fill:url(#SVGID_00000127726350830565999430000016823435495231360157_);}
	.st58{fill:#0496C7;}
	.st59{fill:url(#SVGID_00000014621209379154204440000012604704525971738041_);}
	.st60{fill:url(#SVGID_00000031200004917899572560000002897017582772886415_);}
	.st61{fill:#E28E29;}
	.st62{fill:url(#SVGID_00000017482061494221677260000002244604940727477694_);}
</style>
<rect x="0" class="st0" width="593.98" height="324.53"/>
<rect x="0" y="250.22" class="st1" width="593.98" height="74.31"/>
<g>
	<path class="st2" d="M143.74,251h-29.06v-83.8H88.41v-23.76h81.52v23.76h-26.19V251z"/>
	<path class="st2" d="M249.17,251h-63.86V143.43h63.86v23.32h-34.8v16.92h32.23V207h-32.23v20.31h34.8V251z"/>
	<path class="st2" d="M334.01,251l-5.3-20.16h-34.95L288.32,251h-31.93l35.09-108.01h38.77L365.79,251H334.01z M322.68,207
		l-4.64-17.66c-1.08-3.92-2.39-9-3.94-15.23c-1.54-6.23-2.56-10.69-3.05-13.39c-0.44,2.5-1.31,6.62-2.61,12.36
		c-1.3,5.74-4.18,17.05-8.64,33.92H322.68z"/>
	<path class="st2" d="M424.29,251l-22-77.48h-0.66c1.03,13.2,1.54,23.45,1.54,30.75V251h-25.75V143.43h38.7l22.44,76.37h0.59
		l22-76.37h38.77V251h-26.71v-47.16c0-2.45,0.04-5.17,0.11-8.17c0.07-2.99,0.4-10.32,0.99-22h-0.66L451.95,251H424.29z"/>
</g>
<g>
	<g>
		<path class="st3" d="M507.46,222.34c-1.5,5.74-2.01,15.07-2.17,21.61l11.48-6.57v-28.44l-2.66-0.88v1.14
			C514.11,209.19,509.96,212.79,507.46,222.34z"/>
		<path class="st3" d="M503.55,224.29c-3.79,11.29-3.51,22.67-3.51,22.67l5.25-3.01c0.16-6.54,0.66-15.87,2.17-21.61
			c2.5-9.55,6.65-13.14,6.65-13.14v-1.14l-1.08-0.36C513.03,207.69,507.5,212.53,503.55,224.29z"/>
		<linearGradient id="SVGID_1_" gradientUnits="userSpaceOnUse" x1="519.925" y1="227.8875" x2="491.777" y2="226.7023">
			<stop  offset="0" style="stop-color:#174C99"/>
			<stop  offset="1" style="stop-color:#262D99"/>
		</linearGradient>
		<path class="st4" d="M503.55,224.29c-3.79,11.29-3.51,22.67-3.51,22.67l5.25-3.01c0.16-6.54,0.66-15.87,2.17-21.61
			c2.5-9.55,6.65-13.14,6.65-13.14v-1.14l-1.08-0.36C513.03,207.69,507.5,212.53,503.55,224.29z"/>
	</g>
	<polygon class="st5" points="553.82,247.79 555.79,248.99 557.39,247.85 555.02,245.62 	"/>
	<path class="st5" d="M527.31,202.78l-3.97,4.91c-0.65,0.81-1.81,0.99-2.68,0.44l-1.94-1.23c-0.18-0.12-0.42-0.07-0.55,0.11
		l-1.4,1.93l-3.25-2.56c0,0,2.52-3.87,3.77-5.46c1.24-1.59,5.39-2.45,5.39-2.45L527.31,202.78z"/>
	<path class="st6" d="M522.71,200.19c0,0,2.66,3.44,5.03,3.14c2.37-0.29,4.22-2.49,4.08-4.7c-0.66,0.92-3.58-0.41-4.98-2.33
		c-1.4-1.92-3.94-2.42-5.84-0.9c-1.9,1.52-5.55,6.96-5.55,6.96s1.62,2.38,3.63,1.35C521.09,202.68,522.71,200.19,522.71,200.19z"/>
	<path class="st5" d="M525.17,205.42c0,0,0.57,0.53,0.26,0.89c-0.31,0.36-0.89-0.11-0.89-0.11S524.58,205.63,525.17,205.42z"/>
	<path class="st5" d="M523.25,226.9h6.27c0,0,1.93,0.95,2.12,1.28c0.2,0.33,0.62,1.52,0.62,1.72s-0.34,0.24-0.58-0.27
		c-0.25-0.51-0.38-0.89-0.48-1c-0.1-0.12-1.25-0.76-1.25-0.76s0.72,0.81,0.75,1.01c0.03,0.2-0.35,1.38-0.53,1.38
		c-0.18,0-0.35-0.13-0.3-0.43c0.05-0.3,0.28-0.86,0.21-0.92s-0.58-0.67-0.58-0.67s0.46,0.64,0.44,0.74c-0.02,0.1-0.48,1.15-0.63,1.2
		c-0.15,0.05-0.28-0.33-0.21-0.67c0.07-0.35,0.25-0.44,0.2-0.59c-0.05-0.15-0.53-0.53-0.53-0.53s0.07,0.86,0.03,1.02
		c-0.03,0.16-0.54,0.48-0.84,0.63c-0.3,0.15-0.15-0.35,0.03-0.53c0.18-0.18,0.25-0.21,0.25-0.21l-0.13-0.71c0,0-1.05,0.03-2.12,0.08
		c-1.07,0.05-2.17-0.12-2.17-0.12L523.25,226.9z"/>
	<polygon class="st7" points="516.77,208.93 515.31,211.46 511.45,209.26 513.52,206.37 	"/>
	<path class="st6" d="M555.02,248.99v1.63c0,0.17,0.14,0.31,0.31,0.31h7.65c0,0-0.06-1.02-1.52-1.27c-1.46-0.25-3.55-1.36-3.74-1.5
		c-0.2-0.14-0.22-0.85-0.34-1c-0.12-0.15-0.5-0.24-0.5,0.31c0,0.55-0.16,1.12-0.86,1.12c-0.7,0-0.9-0.15-0.96-0.31
		C555.02,248.12,554.32,248.3,555.02,248.99z"/>
	<polygon class="st6" points="522.95,231.25 537.47,231.25 542.33,218.62 541.47,218.62 536.86,230.18 523.12,230.18 	"/>
	<g>
		<path class="st5" d="M548.48,215.71h-12.29c-0.71,0-1.29-0.58-1.29-1.29v-7.7c0-0.71,0.58-1.29,1.29-1.29h12.29
			c0.71,0,1.29,0.58,1.29,1.29v7.7C549.77,215.13,549.19,215.71,548.48,215.71z"/>
		<path class="st8" d="M549.15,206.48c0-0.23-0.19-0.41-0.41-0.41c-0.23,0-0.41,0.19-0.41,0.41c0,0.23,0.19,0.41,0.41,0.41
			C548.96,206.9,549.15,206.71,549.15,206.48z"/>
		<circle class="st8" cx="535.97" cy="206.48" r="0.41"/>
		<circle class="st9" cx="537.2" cy="206.48" r="0.41"/>
		<path class="st8" d="M538.46,212.58h-2.17c-0.33,0-0.59-0.27-0.59-0.59v-3.01c0-0.33,0.27-0.59,0.59-0.59h2.17
			c0.33,0,0.59,0.27,0.59,0.59v3.01C539.05,212.32,538.79,212.58,538.46,212.58z"/>
		<rect x="540.81" y="208.39" class="st8" width="7.93" height="0.91"/>
		<rect x="540.81" y="210.03" class="st8" width="7.93" height="0.91"/>
		<rect x="540.81" y="211.67" class="st8" width="7.93" height="0.91"/>
		<rect x="535.7" y="213.31" class="st8" width="13.04" height="0.91"/>
	</g>
	<path class="st5" d="M544.76,199.06h-3.95h-3.95c-0.72,0-1.3-0.58-1.3-1.3v-4.19c0-0.72,0.58-1.3,1.3-1.3h7.9
		c0.72,0,1.3,0.58,1.3,1.3v4.19C546.06,198.48,545.47,199.06,544.76,199.06z"/>
	<polygon class="st5" points="537.8,198.66 535.79,201.09 540.37,198.53 	"/>
	<g>
		<path class="st2" d="M513.46,244.48c3.29-0.86,16.34-8.7,18.34-8.57c1.81,0.12,19.79,9.32,23.23,11.09
			c0.62-0.82,1.09-1.58,1.09-1.58s-21-14.18-23.64-14.18c-2.63,0-15.72,6.12-15.72,6.12l-8.83,5.06
			C508.67,243.22,510.81,245.17,513.46,244.48z"/>
		<path class="st2" d="M509.7,251c6.19,0,21.2-10.86,22.72-11.13s7.44,3.75,21.46,8.49c0.39-0.39,0.79-0.88,1.15-1.36
			c-3.45-1.77-21.42-10.97-23.23-11.09c-2-0.13-15.05,7.71-18.34,8.57c-2.65,0.69-4.78-1.27-5.52-2.05l-6.55,3.75
			C501.39,246.18,503.52,251,509.7,251z"/>
		<path class="st2" d="M509.7,251c6.19,0,21.2-10.86,22.72-11.13s7.44,3.75,21.46,8.49c0.39-0.39,0.79-0.88,1.15-1.36
			c-3.45-1.77-21.42-10.97-23.23-11.09c-2-0.13-15.05,7.71-18.34,8.57c-2.65,0.69-4.78-1.27-5.52-2.05l-6.55,3.75
			C501.39,246.18,503.52,251,509.7,251z"/>
	</g>
	<g>
		<path class="st7" d="M509.52,219.3c0,3.75,0,15.26,0,15.26s0.17,1.63,2.42,0.4c1.77-0.97,9.06-5.45,11.67-7.05l-0.36-1l-8.92,3.39
			v-11.62c0,0,0.13-4.21-2.67-4.21c-0.08,0-0.14,0-0.22,0.01C511.42,214.48,509.52,215.58,509.52,219.3z"/>
		<path class="st7" d="M507.68,219.69c0,3.88,0,16.2,0,16.2s-0.36,3.65,2.67,2.17c3.03-1.48,13.5-9.51,13.5-9.51l-0.23-0.65
			c-2.61,1.6-9.9,6.08-11.67,7.05c-2.25,1.23-2.42-0.4-2.42-0.4s0-11.51,0-15.26c0-3.72,1.89-4.82,1.92-4.84
			C508.81,214.53,507.68,215.91,507.68,219.69z"/>
		
			<linearGradient id="SVGID_00000038371861521970149400000011018936000973185672_" gradientUnits="userSpaceOnUse" x1="516.1039" y1="225.6461" x2="498.7707" y2="227.967">
			<stop  offset="0" style="stop-color:#049EFF"/>
			<stop  offset="0.493" style="stop-color:#0484FF"/>
			<stop  offset="1" style="stop-color:#0465FF"/>
		</linearGradient>
		<path style="fill:url(#SVGID_00000038371861521970149400000011018936000973185672_);" d="M507.68,219.69c0,3.88,0,16.2,0,16.2
			s-0.36,3.65,2.67,2.17c3.03-1.48,13.5-9.51,13.5-9.51l-0.23-0.65c-2.61,1.6-9.9,6.08-11.67,7.05c-2.25,1.23-2.42-0.4-2.42-0.4
			s0-11.51,0-15.26c0-3.72,1.89-4.82,1.92-4.84C508.81,214.53,507.68,215.91,507.68,219.69z"/>
	</g>
	
		<linearGradient id="SVGID_00000045582900198644113870000011168844228136803201_" gradientUnits="userSpaceOnUse" x1="521.0963" y1="209.9223" x2="508.6191" y2="208.0458">
		<stop  offset="0" style="stop-color:#049EFF"/>
		<stop  offset="0.493" style="stop-color:#0484FF"/>
		<stop  offset="1" style="stop-color:#0465FF"/>
	</linearGradient>
	<polygon style="fill:url(#SVGID_00000045582900198644113870000011168844228136803201_);" points="514.92,207.47 513.3,210.02 
		515.4,211.3 515.31,211.46 511.45,209.26 513.52,206.37 	"/>
	<polygon class="st6" points="511.52,209.3 515.31,211.46 511.15,209.75 	"/>
	<polygon class="st6" points="516.77,233.81 510.7,237.88 516.77,234.97 	"/>
	<g>
		<path class="st6" d="M510.91,231.87c-0.04,0-0.07-0.02-0.09-0.06c-0.02-0.05,0-0.11,0.05-0.13l3.36-1.45v-14.48
			c0-0.05,0.04-0.1,0.1-0.1c0.05,0,0.1,0.04,0.1,0.1v14.55c0,0.04-0.02,0.07-0.06,0.09l-3.42,1.48
			C510.93,231.86,510.92,231.87,510.91,231.87z"/>
	</g>
	<g>
		<path class="st6" d="M514.33,220.99c-0.01,0-0.02,0-0.03,0c-0.05-0.01-0.08-0.07-0.07-0.12l0.9-3.32
			c0.01-0.05,0.07-0.08,0.12-0.07c0.05,0.01,0.08,0.07,0.07,0.12l-0.9,3.32C514.41,220.96,514.37,220.99,514.33,220.99z"/>
	</g>
	<polygon class="st6" points="501.39,246.18 510.91,240.73 501.95,247.12 	"/>
	<polygon class="st6" points="554.21,248.03 555.62,246.19 554.53,248.22 	"/>
	<circle class="st9" cx="521.97" cy="205.42" r="0.81"/>
</g>
<g>
	<path class="st5" d="M215.17,270.54l0.5-3.15l-2.47,0.32v4.48C213.2,272.19,214.89,271.4,215.17,270.54z"/>
	<polygon class="st5" points="204.75,244.57 201.63,248.66 202.01,249.31 203.03,249.47 203.84,249.1 206.86,246.07 	"/>
	<path class="st5" d="M224.84,222.2c0,0-2.84-2.66-2.98-2.78c-0.14-0.12-1.84-0.24-1.94,0.02c-0.1,0.26,1.56,0.36,1.64,0.39
		c0.08,0.04,0.63,0.79,0.63,0.79s-0.54-0.57-0.74-0.61s-1.55-0.02-1.53,0.12c0.02,0.14,0.38,0.3,0.7,0.3s0.81,0.07,0.81,0.07
		l0.53,0.36l-0.73-0.08l0.04,0.49c0,0,0.7,0.46,0.93,0.69c0.22,0.24,1.13,1.07,2.29,1.2C225.08,222.54,224.84,222.2,224.84,222.2z"
		/>
	<g>
		<path class="st3" d="M250.45,229.4c-5.89-0.6-18.53-3.64-24.73-5.94l0.2-1.16c0,0,7.37,2.32,14.53,3.28
			c5.39,0.72,13.83,1.74,17.67,2.21C257.65,228.29,255.69,229.93,250.45,229.4z"/>
		<path class="st12" d="M253.76,232.83c0,0-4.9-0.79-12.77-3.13c-7.88-2.34-15.36-5.77-15.36-5.77l0.08-0.47
			c6.2,2.3,18.84,5.34,24.73,5.94c5.24,0.53,7.2-1.11,7.67-1.62c1.26,0.15,2.03,0.24,2.03,0.24L253.76,232.83z"/>
		
			<linearGradient id="SVGID_00000119086074011984089610000008460821141823158407_" gradientUnits="userSpaceOnUse" x1="80.0973" y1="221.6969" x2="74.5412" y2="246.8579" gradientTransform="matrix(-1 0 0 1 322.0418 0)">
			<stop  offset="0" style="stop-color:#174C99"/>
			<stop  offset="1" style="stop-color:#262D99"/>
		</linearGradient>
		<path style="fill:url(#SVGID_00000119086074011984089610000008460821141823158407_);" d="M253.76,232.83c0,0-4.9-0.79-12.77-3.13
			c-7.88-2.34-15.36-5.77-15.36-5.77l0.09-0.55c6.2,2.3,18.88,5.04,24.77,5.64c5.24,0.53,7.08-0.74,7.55-1.24
			c1.26,0.15,2.1,0.25,2.1,0.25L253.76,232.83z"/>
	</g>
	<g>
		<path class="st5" d="M205.76,246.2l-1.7-1.47l13.55-14.44c1.21-1.29,3.1-1.62,4.65-0.88c-0.12,0.64-0.56,1.63-1.83,3.06
			C218.08,235.11,211.77,241.74,205.76,246.2z"/>
		
			<linearGradient id="SVGID_00000146469287938960512150000006509263105777087368_" gradientUnits="userSpaceOnUse" x1="122.9252" y1="232.0692" x2="71.5378" y2="252.3925" gradientTransform="matrix(-1 0 0 1 322.0418 0)">
			<stop  offset="0" style="stop-color:#FFFFFF"/>
			<stop  offset="1" style="stop-color:#72C0FF"/>
		</linearGradient>
		<path style="fill:url(#SVGID_00000146469287938960512150000006509263105777087368_);" d="M239.07,241.26l0.66,2.73l-10.44,1.02
			c0,0-7.9-8.29-9.12-8.57c-1.22-0.28-2.45,2.57-5.41,5.09c-2.96,2.53-8.33,5.25-8.33,5.25l-0.67-0.58
			c6.01-4.46,12.32-11.1,14.68-13.74c1.27-1.43,1.71-2.42,1.83-3.06c0.21,0.1,0.42,0.22,0.61,0.36L239.07,241.26z"/>
	</g>
	<g>
		<path class="st5" d="M213.09,249.62c0-3.11,2.52-5.64,5.64-5.64h21.01l2.31,5.58l-1.06-2.15h-22.03c0,0-2.21,0-2.32,4
			c-0.1,3.79-0.53,11.35-2.01,16.61h-1.55V249.62z"/>
		
			<linearGradient id="SVGID_00000018231150176605686480000010739142809981930173_" gradientUnits="userSpaceOnUse" x1="102.0515" y1="235.7992" x2="93.8453" y2="258.2667" gradientTransform="matrix(-1 0 0 1 322.0418 0)">
			<stop  offset="0" style="stop-color:#FFFFFF"/>
			<stop  offset="1" style="stop-color:#72C0FF"/>
		</linearGradient>
		<path style="fill:url(#SVGID_00000018231150176605686480000010739142809981930173_);" d="M218.96,247.42h22.03l1.06,2.15
			l0.79,1.91c0,0-1.24,1-3.76,1c-2.53,0-4.5-1.4-4.5-1.4s-11.46,0-14.04,0c-2.58,0-1.54,4.63-2.15,7.82
			c-0.61,3.19-2.53,9.13-2.53,9.13h-1.21c1.48-5.26,1.91-12.82,2.01-16.61C216.75,247.42,218.96,247.42,218.96,247.42z"/>
	</g>
	<g>
		<path class="st16" d="M257.01,238.41c-5.01,5.34-12.12,9.11-16.03,10.71l-1.91-7.87l21.56-13.53l2.8,0.44l-0.42,0.79
			C263.01,228.96,262.27,232.81,257.01,238.41z"/>
		
			<linearGradient id="SVGID_00000122712581756362001340000013693460350338117817_" gradientUnits="userSpaceOnUse" x1="74.7688" y1="231.1982" x2="63.6331" y2="248.81" gradientTransform="matrix(-1 0 0 1 322.0418 0)">
			<stop  offset="0" style="stop-color:#0C3D77"/>
			<stop  offset="1" style="stop-color:#092E59"/>
		</linearGradient>
		<path style="fill:url(#SVGID_00000122712581756362001340000013693460350338117817_);" d="M256.95,242.65
			c-6.27,6.53-14.98,10.5-14.98,10.5l-0.98-4.03c3.9-1.61,11.02-5.37,16.03-10.71c5.25-5.61,6-9.46,6-9.46l0.42-0.79l1.23,0.19
			C264.66,228.36,263.21,236.12,256.95,242.65z"/>
	</g>
	<path class="st5" d="M261.23,214.67l-1.99,6.22c-0.27,0.83,0.17,1.73,1,2.02l1.85,0.67c0.34,0.12,0.51,0.51,0.37,0.84l-0.47,1.15
		l3.41,1.65l2.39-5.71c0,0-0.61-3.71-1.39-4.67C265.61,215.89,261.23,214.67,261.23,214.67z"/>
	<path class="st5" d="M234.01,233.92l-2.57-4.31c0,0-1.44-0.93-1.75-0.93c-0.31,0-1.3,0.2-1.43,0.28c-0.14,0.08-0.03,0.33,0.43,0.29
		c0.45-0.04,0.77-0.1,0.89-0.08c0.12,0.02,1.03,0.54,1.03,0.54s-0.85-0.16-1-0.1c-0.15,0.06-0.81,0.8-0.73,0.93
		c0.07,0.12,0.23,0.18,0.42,0.03c0.18-0.16,0.47-0.54,0.55-0.52c0.07,0.02,0.7,0.12,0.7,0.12s-0.63-0.05-0.69,0
		c-0.06,0.05-0.6,0.8-0.57,0.92c0.03,0.12,0.34,0.06,0.55-0.13c0.21-0.19,0.2-0.35,0.33-0.38c0.12-0.03,0.58,0.15,0.58,0.15
		s-0.61,0.31-0.71,0.4c-0.1,0.09-0.11,0.57-0.09,0.83c0.02,0.26,0.3-0.04,0.35-0.24c0.05-0.2,0.05-0.26,0.05-0.26l0.54-0.2
		c0,0,0.41,0.74,0.81,1.49c0.4,0.75,0.97,1.44,0.97,1.44L234.01,233.92z"/>
	<polygon class="st6" points="230.3,233.26 220.6,226.88 220.6,216.14 221.51,216.14 221.48,226.44 230.66,232.48 	"/>
	<path class="st6" d="M267.67,223.16c0,0-3.02-0.59-3.33-1.98c-0.3-1.39,0.74-3.24,0.5-3.94c-0.24-0.7-2.39-1.31-3.55-2.07
		c-1.15-0.76-0.57-3.13,0-3.89c0.28,0.74,7.98,2.41,8.68,3.83C270.67,216.52,269.32,219.41,267.67,223.16z"/>
	<path class="st5" d="M260.15,218.05c0,0-0.52-0.21-0.69,0.19c-0.17,0.39,0.09,0.62,0.41,0.7
		C260.18,219.02,260.15,218.05,260.15,218.05z"/>
	<path class="st9" d="M260.88,220.23c0-0.4,0.32-0.72,0.72-0.72c0.4,0,0.72,0.32,0.72,0.72c0,0.4-0.32,0.72-0.72,0.72
		C261.21,220.95,260.88,220.63,260.88,220.23z"/>
	<g>
		<path class="st3" d="M259.16,234.7c-1.63,1.46-12.02,8.81-12.77,8.92c-0.62,0.1-9.56-6.43-12.72-8.75l0.77-0.84l11.32,5.84
			c0,0,8.69-6.95,9.58-7.69c0.82-0.68,3.31-1.92,5.08-0.62C260.45,231.68,260.74,233.28,259.16,234.7z"/>
		<path class="st12" d="M258.19,238.15c-2.47,1.95-10.95,7.58-11.64,7.53c-0.68-0.05-13.32-10.32-13.32-10.32l0.44-0.48
			c3.16,2.32,12.1,8.84,12.72,8.75c0.75-0.12,11.14-7.46,12.77-8.92c1.58-1.42,1.28-3.02,1.26-3.12c0.16,0.12,0.31,0.25,0.46,0.4
			C262.66,233.94,260.66,236.2,258.19,238.15z"/>
		
			<linearGradient id="SVGID_00000035507938664324409600000001575475932772257168_" gradientUnits="userSpaceOnUse" x1="76.6173" y1="230.7046" x2="64.034" y2="252.1173" gradientTransform="matrix(-1 0 0 1 322.0418 0)">
			<stop  offset="0" style="stop-color:#174C99"/>
			<stop  offset="1" style="stop-color:#262D99"/>
		</linearGradient>
		<path style="fill:url(#SVGID_00000035507938664324409600000001575475932772257168_);" d="M258.24,238.31
			c-2.47,1.95-11.01,7.48-11.69,7.43c-0.68-0.05-13.32-10.38-13.32-10.38l0.44-0.48c3.72,2.44,12.14,8.49,12.76,8.39
			c0.75-0.12,10.84-7.34,12.48-8.8c1.58-1.42,1.44-2.85,1.42-2.95c0.3,0.07,0.47,0.24,0.62,0.39
			C262.87,233.8,260.71,236.36,258.24,238.31z"/>
	</g>
	<polygon class="st3" points="261.98,225.58 260.63,227.72 264.45,229.7 265.4,227.23 	"/>
	
		<linearGradient id="SVGID_00000005972318796066039870000001986523841163859124_" gradientUnits="userSpaceOnUse" x1="60.7964" y1="226.1417" x2="56.275" y2="229.5574" gradientTransform="matrix(-1 0 0 1 322.0418 0)">
		<stop  offset="0" style="stop-color:#174C99"/>
		<stop  offset="1" style="stop-color:#262D99"/>
	</linearGradient>
	<polygon style="fill:url(#SVGID_00000005972318796066039870000001986523841163859124_);" points="263.95,226.53 263.09,228.62 
		260.72,227.58 260.63,227.72 264.45,229.7 265.4,227.23 	"/>
	<polygon class="st5" points="232.63,234.19 233.4,235.17 234.31,234.19 233.82,233.77 	"/>
	<polygon class="st5" points="225.88,222.48 224.32,221.97 224.48,223.17 225.64,223.86 	"/>
	<path class="st6" d="M204.48,248.99v1.62h-7.42c0,0-1-0.47,0.45-0.97c1.45-0.5,4.24-1.29,4.32-1.29c0.07,0,0.6,1.08,2.35,0.44
		C204.32,248.72,204.48,248.83,204.48,248.99z"/>
	<path class="st6" d="M215.54,270.52l1.03,1.25l-5.72,4.73c0,0-1.07,0.27-0.28-1.04c0.8-1.31,2.45-3.69,2.51-3.74
		c0.06-0.05,1.15,0.46,2.09-1.16C215.25,270.42,215.44,270.39,215.54,270.52z"/>
	<polygon class="st6" points="264.35,229.64 261.99,228.43 264.22,230.07 	"/>
	<polygon class="st6" points="239.9,240.74 245.95,245.39 239.53,240.97 	"/>
	<polygon class="st6" points="228.31,243.99 238.81,243.99 227.42,243.07 	"/>
	<polygon class="st6" points="241.7,252.05 240.22,245.95 241.08,252.23 	"/>
	<polygon class="st6" points="206.28,246.66 204.4,245.03 205.96,246.98 	"/>
	<polygon class="st6" points="215.57,268.03 213.2,268.03 215.49,268.52 	"/>
	<g>
		<path class="st6" d="M247.07,241.65c0.02,0,0.03-0.01,0.05-0.02c0.03-0.03,0.04-0.08,0.01-0.11l-1.31-1.68
			c-0.01-0.01-0.02-0.02-0.03-0.02l-2.47-1.28c-0.04-0.02-0.09,0-0.11,0.03c-0.02,0.04-0.01,0.09,0.03,0.11l2.46,1.27l1.3,1.67
			C247.02,241.64,247.04,241.65,247.07,241.65z"/>
	</g>
	<g>
		<path class="st6" d="M245.76,239.97c0.02,0,0.03-0.01,0.05-0.02l9.58-7.69c0.03-0.03,0.04-0.08,0.01-0.11
			c-0.03-0.03-0.08-0.04-0.11-0.01l-9.58,7.69c-0.03,0.03-0.04,0.08-0.01,0.11C245.71,239.96,245.74,239.97,245.76,239.97z"/>
	</g>
	<g>
		<path class="st6" d="M252.78,232.73c0.01,0,0.03,0,0.04-0.01l6.73-4.22c0.04-0.02,0.05-0.07,0.02-0.11
			c-0.02-0.04-0.07-0.05-0.11-0.02l-6.7,4.21l-6.71-1.54c-0.04-0.01-0.08,0.02-0.09,0.06c-0.01,0.04,0.02,0.09,0.06,0.1l6.74,1.55
			C252.77,232.73,252.77,232.73,252.78,232.73z"/>
	</g>
</g>
<g>
	<path class="st5" d="M380.73,242.3l-1.19-1.69L378,242.3l2.41,3.14C380.41,245.43,381.69,243.9,380.73,242.3z"/>
	<path class="st5" d="M371.02,248.78l0.21-2.15h-2.65l-0.15,2.15C368.44,248.78,370.61,249.46,371.02,248.78z"/>
	
		<linearGradient id="SVGID_00000098219583274507120530000007656307631328060813_" gradientUnits="userSpaceOnUse" x1="-312.5905" y1="190.3865" x2="-348.769" y2="243.0616" gradientTransform="matrix(-1 0 0 1 34.3424 0)">
		<stop  offset="0" style="stop-color:#174C99"/>
		<stop  offset="1" style="stop-color:#262D99"/>
	</linearGradient>
	<path style="fill:url(#SVGID_00000098219583274507120530000007656307631328060813_);" d="M359.37,197.41c0,0-2.82,24.77-2.13,26.22
		c0.68,1.45,20.41,19.54,20.41,19.54l2.63-2.56c0,0-7.34-11.92-9.9-14.76c-2.56-2.84-5.46-3.87-6.09-4.95
		c-0.63-1.08,3.36-16.72,3.36-16.72l-3.36-6.77H359.37z"/>
	
		<linearGradient id="SVGID_00000123416130962908811330000018410818927022975401_" gradientUnits="userSpaceOnUse" x1="-313.6643" y1="170.2196" x2="-332.0948" y2="183.5306" gradientTransform="matrix(-1 0 0 1 34.3424 0)">
		<stop  offset="0" style="stop-color:#FDD615"/>
		<stop  offset="1" style="stop-color:#FD9D00"/>
	</linearGradient>
	<path style="fill:url(#SVGID_00000123416130962908811330000018410818927022975401_);" d="M360.91,167.4c0,0-2.47-0.04-6.36,3.71
		c-3.88,3.75-6.77,11.08-6.77,11.08s10.91-4.17,12.83-4.47C361.29,172.78,360.91,167.4,360.91,167.4z"/>
	<path class="st5" d="M365.48,151.94c0,0-1.56,0.64-1.56,2.66v6.3c0,0.8,0.65,1.45,1.45,1.45h1.2c0.93,0,1.69,0.76,1.69,1.69v1.32
		h4.4v-7.46l-2.43-5.12C370.22,152.78,369.03,151.16,365.48,151.94z"/>
	<circle class="st9" cx="366.06" cy="157.75" r="0.79"/>
	<path class="st6" d="M371.37,248.75v1.74h-8.02c0,0-1.08-0.51,0.48-1.05c1.56-0.54,4.58-1.39,4.66-1.39c0.08,0,0.65,1.17,2.54,0.48
		C371.19,248.47,371.37,248.58,371.37,248.75z"/>
	<path class="st6" d="M380.78,242.08l1.74,0.05l-0.21,8.02c0,0-0.54,1.07-1.04-0.51c-0.5-1.58-1.27-4.61-1.27-4.7
		c0-0.08,1.19-0.61,0.55-2.53C380.49,242.24,380.61,242.07,380.78,242.08z"/>
	<path class="st16" d="M365.48,151.94h2.46c0,0,0.87,0.06,1.13,0.9c0.26,0.84-0.55,2.28-1.13,2.69c-0.58,0.4-0.64,1.65,0.52,2.28
		c1.16,0.64,3.3,0.43,3.99,2.63c0.14,0.43,0.78,0.26,0.78-0.95c0-1.21,0-4.65,0-4.65s0.06-2.86-1.82-3.18
		C369.35,151.3,366.4,151.07,365.48,151.94z"/>
	<path class="st16" d="M365.27,159.94h-1.69c0,0-0.08-1.25,0.45-1.25C364.56,158.69,365.27,158.89,365.27,159.94z"/>
	<path class="st22" d="M360.91,167.4c0,0,5.2-0.38,10.88,1.15c5.67,1.54,10.92,4.05,10.92,4.05s-3.68,8.31-5.16,12.8
		c-1.48,4.49-1.99,12-1.99,12h-16.18C359.37,197.41,357.79,177.43,360.91,167.4z"/>
	<path class="st22" d="M382.71,172.61c0,0,2.77,1.71,6.1,6.23c2.79,3.8,5.59,9.7,7.17,14.98c0.44,1.46-0.68,2.93-2.21,2.93h-15.89
		v-1.79l10.29-2.85c0,0-4.39-7.9-9.09-10.89C374.39,178.24,382.71,172.61,382.71,172.61z"/>
	<polygon class="st22" points="368.24,165.35 367.69,168 373.57,169.07 372.65,165.35 	"/>
	<path class="st22" d="M357.79,167.36c0,0-2.77,4.82-3.88,6.83c-1.11,2.01-2.22,6.1-4.48,7.21c-2.26,1.11-4.44,2.13-5.03,2.13
		c-0.6,0-1.21-2.21-0.9-3.54c0.68-2.86,13.01-13.48,13.01-13.48L357.79,167.36z"/>
	<g>
		<path class="st3" d="M371.64,197.41c0.3,1.19,0.82,3.83,0.44,6.66c-0.51,3.81-0.8,15.87-0.63,19.74
			c0.17,3.87-0.06,10.24-0.57,15.47c-0.33,3.34-0.61,6.44-0.77,8.25h-1.85l-2.73-41.87l-1.25-8.25
			C364.29,197.41,368.3,197.41,371.64,197.41z"/>
		<path class="st3" d="M371.46,223.8c-0.17-3.87,0.11-15.93,0.63-19.74c0.38-2.82-0.15-5.47-0.44-6.66c1.67,0,3.17,0,3.91,0
			c1.74,4.21-0.57,8.05-0.7,8.77c-0.13,0.73-0.58,8.63-1.01,12.22c-0.43,3.58,0.37,7.37,0.28,10.86c-0.09,3.5-2.82,18.26-2.82,18.26
			h-1.19c0.16-1.81,0.44-4.91,0.77-8.25C371.4,234.04,371.63,227.67,371.46,223.8z"/>
		
			<linearGradient id="SVGID_00000105424700572882679260000001935681249656160666_" gradientUnits="userSpaceOnUse" x1="-326.6176" y1="222.877" x2="-348.4615" y2="222.0237" gradientTransform="matrix(-1 0 0 1 34.3424 0)">
			<stop  offset="0" style="stop-color:#174C99"/>
			<stop  offset="1" style="stop-color:#262D99"/>
		</linearGradient>
		<path style="fill:url(#SVGID_00000105424700572882679260000001935681249656160666_);" d="M371.46,223.8
			c-0.17-3.87,0.11-15.93,0.63-19.74c0.38-2.82-0.15-5.47-0.44-6.66c1.67,0,3.17,0,3.91,0c1.74,4.21-0.57,8.05-0.7,8.77
			c-0.13,0.73-0.58,8.63-1.01,12.22c-0.43,3.58,0.37,7.37,0.28,10.86c-0.09,3.5-2.82,18.26-2.82,18.26h-1.19
			c0.16-1.81,0.44-4.91,0.77-8.25C371.4,234.04,371.63,227.67,371.46,223.8z"/>
	</g>
	<path class="st5" d="M356.51,166.51c0,0,3.2-3.84,3.3-3.91c0.1-0.07,3.84-1.11,3.95-1.02c0.11,0.09,1.46,1,1.41,1.32
		c-0.06,0.33-0.95,1.1-1.14,1.08c-0.18-0.01-0.29-0.21-0.12-0.51s0.45-0.64,0.42-0.7c-0.03-0.06-0.7-0.5-0.7-0.5
		s-2.18,0.77-2.09,0.75c0.09-0.01,0.98-0.06,1.07,0c0.09,0.06,0.97,1.02,0.63,1.35c-0.34,0.33-1.96,1.35-2.25,1.49
		s-0.44-0.03-0.28-0.37c0.16-0.34,0.74-0.87,0.74-0.87l-0.09-0.21c0,0-1.7,1.29-2.07,1.54c-0.37,0.24-0.91,0.37-0.91,0.37l-0.8,0.89
		L356.51,166.51z"/>
	
		<linearGradient id="SVGID_00000143579803842502551560000017957863754348386473_" gradientUnits="userSpaceOnUse" x1="-328.396" y1="174.6821" x2="-353.8804" y2="195.5019" gradientTransform="matrix(-1 0 0 1 34.3424 0)">
		<stop  offset="0" style="stop-color:#FDD615"/>
		<stop  offset="1" style="stop-color:#FD9D00"/>
	</linearGradient>
	<path style="fill:url(#SVGID_00000143579803842502551560000017957863754348386473_);" d="M388.18,192.11l2.79-0.28
		c0,0-2.67-5.63-6.77-9.64c-4.1-4.01-4.61-4.13-4.61-4.13l0.91-4.32c0,0-3.2,3.29-5.99,10.17c-2.79,6.88-2.88,13.5-2.88,13.5h3.91
		c0,0,0.98-11.09,3.53-16.18C381.32,183,385.67,187.78,388.18,192.11z"/>
	<path class="st5" d="M377.89,194.96c0,0-2.51,0.2-2.5,1c0.01,1.11,0.48,5.83,0.71,6.16c0.23,0.33,1.79,1.67,1.95,1.67
		c0.16,0,0.26-0.31-0.06-0.7c-0.31-0.38-1.2-1.21-1.2-1.21s1.6,0.82,1.98,0.91c0.38,0.09,0.58-0.34,0.07-0.63
		c-0.51-0.28-1.75-0.68-1.75-0.68s1.84,0.04,2.06,0.01c0.22-0.03,0.2-0.47-0.42-0.51c-0.63-0.04-1.4-0.16-1.4-0.16
		s-0.02-0.73,0-1.58c0.03-1.06-0.21-2.46-0.21-2.49s0.77,0,0.77,0V194.96z"/>
	
		<linearGradient id="SVGID_00000039837077494745375110000003866171692251658394_" gradientUnits="userSpaceOnUse" x1="-361.744" y1="194.1037" x2="-343.546" y2="194.1037" gradientTransform="matrix(-1 0 0 1 34.3424 0)">
		<stop  offset="0" style="stop-color:#FDD615"/>
		<stop  offset="1" style="stop-color:#FD9D00"/>
	</linearGradient>
	<path style="fill:url(#SVGID_00000039837077494745375110000003866171692251658394_);" d="M395.21,191.45c0,0,0.39,2.53-1.62,2.83
		c-2.01,0.3-15.7,1.54-15.7,1.54v0.94h15.89c0,0,1.13,0.05,1.83-0.91c0.7-0.96,0.43-1.82,0.43-1.82L395.21,191.45z"/>
	<g>
		<path class="st6" d="M373.57,169.16c0.04,0,0.07-0.03,0.08-0.07c0.01-0.05-0.02-0.09-0.06-0.1l-3.14-0.76l-0.6-2.64
			c-0.01-0.04-0.04-0.06-0.08-0.07c-0.04,0-0.07,0.02-0.09,0.06l-0.81,2.27l-1.01-0.17c-0.05-0.01-0.09,0.02-0.1,0.07
			c-0.01,0.05,0.02,0.09,0.07,0.1l1.08,0.19c0.04,0.01,0.08-0.02,0.09-0.06l0.74-2.06l0.55,2.4c0.01,0.03,0.03,0.06,0.06,0.06
			l3.19,0.77C373.56,169.16,373.57,169.16,373.57,169.16z"/>
	</g>
	<g>
		<path class="st6" d="M379.47,196.73c0.05,0,0.09-0.04,0.09-0.09v-2c0-0.05-0.04-0.09-0.09-0.09c-0.05,0-0.09,0.04-0.09,0.09v2
			C379.38,196.69,379.42,196.73,379.47,196.73z"/>
	</g>
	<g>
		<path class="st6" d="M347.97,182.19c0.01,0,0.02,0,0.03,0c2.94-1,3.59-2.9,3.62-2.98l5.27-10.09c0.02-0.04,0.01-0.08-0.02-0.11
			l-1.58-1.3c-0.04-0.03-0.09-0.02-0.12,0.01c-0.03,0.04-0.02,0.09,0.01,0.12l1.53,1.26l-5.24,10.04c-0.01,0.03-0.67,1.91-3.52,2.88
			c-0.04,0.02-0.07,0.06-0.05,0.11C347.9,182.17,347.93,182.19,347.97,182.19z"/>
	</g>
	<polygon class="st6" points="379.09,181.23 380.15,175.41 380,182.01 	"/>
	<g>
		<path class="st6" d="M355.96,179.27c0.01,0,0.02,0,0.03,0c0.03-0.01,2.59-0.88,3.25-1.09c0.04-0.01,0.06-0.04,0.06-0.08
			c0.04-3.48,1.12-8.5,1.13-8.55c0.01-0.05-0.02-0.09-0.07-0.1c-0.04-0.01-0.09,0.02-0.1,0.07c-0.01,0.05-1.08,5.03-1.13,8.52
			c-0.75,0.24-3.17,1.06-3.2,1.07c-0.04,0.02-0.07,0.06-0.05,0.11C355.89,179.24,355.93,179.27,355.96,179.27z"/>
	</g>
	<g>
		<path class="st6" d="M359.44,175.1C359.44,175.1,359.45,175.1,359.44,175.1c0.06-0.01,0.09-0.05,0.08-0.09l-0.47-4.17
			c0-0.05-0.04-0.09-0.09-0.08c-0.05,0.01-0.08,0.05-0.08,0.09l0.47,4.17C359.36,175.07,359.4,175.1,359.44,175.1z"/>
	</g>
	<g>
		<path class="st6" d="M388.18,192.2C388.18,192.2,388.19,192.2,388.18,192.2l2.8-0.28c0.05,0,0.08-0.05,0.08-0.09
			c0-0.05-0.05-0.09-0.09-0.08l-2.74,0.27c-0.23-0.36-1.75-2.8-2.76-4.07c-0.03-0.04-0.08-0.04-0.12-0.01
			c-0.04,0.03-0.04,0.08-0.01,0.12c1.08,1.36,2.76,4.07,2.78,4.1C388.12,192.18,388.15,192.2,388.18,192.2z"/>
	</g>
	<polygon class="st6" points="377.89,194.96 377.89,196.75 377.5,196.75 	"/>
	<polygon class="st6" points="356.51,166.51 357.57,167.21 357.81,166.95 	"/>
	<polygon class="st6" points="365.92,211.35 365.54,205.66 361.25,204.32 364.98,206.42 364.98,215.7 	"/>
	<polygon class="st6" points="374.01,230.84 372.85,238.75 374.37,240.15 374.37,231.37 	"/>
	<polygon class="st6" points="366.66,222.75 367.37,233.63 366.22,232.55 366.35,222.55 	"/>
	<g>
		<path class="st6" d="M363.34,224.02c0.04,0,0.07-0.02,0.08-0.06l0.95-3.03c0.01-0.03,0-0.07-0.02-0.09
			c-0.02-0.02-0.06-0.03-0.09-0.02l-3.26,1.32c-0.04,0.02-0.06,0.07-0.05,0.11c0.02,0.04,0.07,0.06,0.11,0.05l3.09-1.25l-0.9,2.86
			c-0.01,0.04,0.01,0.09,0.06,0.11C363.32,224.01,363.33,224.02,363.34,224.02z"/>
	</g>
	<g>
		<path class="st6" d="M352.39,179.66c0.04,0,0.07-0.03,0.08-0.06l1.1-4.13c0.01-0.05-0.01-0.09-0.06-0.1
			c-0.05-0.01-0.09,0.02-0.1,0.06l-1.1,4.13c-0.01,0.05,0.02,0.09,0.06,0.1C352.37,179.66,352.38,179.66,352.39,179.66z"/>
	</g>
	<g>
		<path class="st5" d="M364.24,196.46L364.24,196.46c-0.13,0-0.25-0.11-0.25-0.24l0,0c-0.01-0.14,0.1-0.27,0.25-0.27l0,0
			c0.14-0.01,0.26,0.1,0.27,0.25l0,0c0.01,0.14-0.1,0.26-0.25,0.27C364.25,196.46,364.24,196.46,364.24,196.46z M364.2,195.1
			L364.2,195.1c-0.14,0-0.25-0.11-0.25-0.25l0,0c-0.01-0.14,0.11-0.26,0.25-0.26l0,0c0.14,0,0.25,0.11,0.26,0.25l0,0
			C364.46,194.98,364.35,195.1,364.2,195.1L364.2,195.1z M364.2,193.73L364.2,193.73L364.2,193.73L364.2,193.73
			c-0.14,0-0.26-0.12-0.25-0.26l0,0c0-0.14,0.12-0.25,0.25-0.25l0,0c0.14,0,0.26,0.12,0.26,0.26
			C364.45,193.62,364.35,193.73,364.2,193.73z M364.23,192.37L364.23,192.37L364.23,192.37L364.23,192.37
			c-0.14,0-0.26-0.12-0.25-0.26l0,0c0.01-0.14,0.12-0.25,0.27-0.25l0,0c0.14,0.01,0.25,0.12,0.25,0.27
			C364.48,192.27,364.37,192.37,364.23,192.37z M364.28,191.01L364.28,191.01L364.28,191.01L364.28,191.01
			c-0.15-0.01-0.26-0.13-0.25-0.27l0,0c0.01-0.14,0.13-0.25,0.27-0.25l0,0c0.14,0.01,0.25,0.13,0.25,0.27l0,0
			C364.54,190.9,364.42,191.01,364.28,191.01z M364.37,189.64L364.37,189.64c-0.01,0-0.01,0-0.02,0l0,0
			c-0.14-0.01-0.25-0.13-0.24-0.27l0,0c0.01-0.14,0.13-0.25,0.27-0.24l0,0c0.14,0.01,0.25,0.13,0.24,0.27
			C364.61,189.54,364.5,189.64,364.37,189.64z M364.46,188.28L364.46,188.28c-0.01,0-0.01,0-0.02,0l0,0
			c-0.14-0.01-0.25-0.13-0.23-0.27l0,0l0,0l0,0c0.01-0.14,0.13-0.25,0.27-0.24l0,0c0.14,0.01,0.25,0.14,0.23,0.28
			C364.71,188.18,364.6,188.28,364.46,188.28z M364.58,186.92L364.58,186.92c-0.01,0-0.01,0-0.02,0l0,0
			c-0.14-0.01-0.25-0.14-0.23-0.28l0,0c0.01-0.14,0.14-0.25,0.28-0.23l0,0c0.14,0.01,0.25,0.14,0.23,0.28l0,0
			C364.82,186.82,364.71,186.92,364.58,186.92z M364.71,185.56L364.71,185.56c-0.01,0-0.01,0-0.03,0l0,0
			c-0.14-0.01-0.24-0.14-0.23-0.28l0,0l0,0l0,0c0.01-0.14,0.14-0.25,0.28-0.23l0,0c0.14,0.01,0.25,0.14,0.23,0.29l0,0
			C364.96,185.47,364.84,185.56,364.71,185.56z M364.87,184.2L364.87,184.2c-0.01,0-0.02,0-0.03,0l0,0
			c-0.14-0.01-0.24-0.14-0.23-0.29l0,0c0.02-0.14,0.14-0.24,0.29-0.22l0,0c0.14,0.01,0.24,0.14,0.23,0.28
			C365.11,184.11,364.99,184.2,364.87,184.2z M365.04,182.85L365.04,182.85c-0.01,0-0.02,0-0.03,0l0,0
			c-0.14-0.02-0.24-0.15-0.22-0.29l0,0c0.02-0.14,0.15-0.24,0.29-0.21l0,0c0.14,0.01,0.23,0.14,0.21,0.29
			C365.28,182.76,365.17,182.85,365.04,182.85z M365.26,181.51L365.26,181.51c-0.01,0-0.03-0.01-0.05-0.01l0,0
			c-0.14-0.03-0.23-0.16-0.2-0.29l0,0c0.03-0.14,0.16-0.24,0.29-0.21l0,0c0.14,0.03,0.24,0.16,0.21,0.3l0,0
			C365.49,181.42,365.38,181.51,365.26,181.51z M365.52,180.16L365.52,180.16c-0.02,0-0.03,0-0.05-0.01l0,0
			c-0.14-0.03-0.23-0.16-0.2-0.3l0,0c0.03-0.14,0.16-0.23,0.3-0.2l0,0c0.14,0.03,0.23,0.16,0.2,0.3
			C365.74,180.08,365.64,180.16,365.52,180.16z M365.82,178.83L365.82,178.83c-0.02,0-0.04-0.01-0.06-0.01l0,0
			c-0.14-0.03-0.23-0.17-0.19-0.31l0,0c0.03-0.14,0.17-0.23,0.31-0.19l0,0c0.14,0.03,0.23,0.17,0.19,0.31
			C366.04,178.75,365.94,178.83,365.82,178.83z M366.15,177.51L366.15,177.51c-0.02,0-0.05-0.01-0.07-0.01l0,0
			c-0.14-0.04-0.22-0.18-0.18-0.31l0,0c0.03-0.14,0.18-0.22,0.31-0.18l0,0c0.14,0.04,0.21,0.18,0.18,0.31
			C366.37,177.43,366.26,177.51,366.15,177.51z M366.53,176.2L366.53,176.2c-0.03,0-0.05-0.01-0.08-0.01l0,0
			c-0.14-0.04-0.21-0.18-0.17-0.32l0,0c0.04-0.14,0.18-0.21,0.32-0.17l0,0c0.13,0.04,0.21,0.18,0.17,0.32
			C366.74,176.12,366.64,176.2,366.53,176.2z M366.94,174.89L366.94,174.89c-0.03,0-0.05-0.01-0.08-0.01l0,0
			c-0.13-0.05-0.21-0.19-0.16-0.33l0,0c0.05-0.13,0.19-0.2,0.33-0.16l0,0c0.14,0.04,0.2,0.18,0.16,0.32
			C367.15,174.83,367.05,174.89,366.94,174.89z M367.39,173.6L367.39,173.6c-0.03,0-0.06-0.01-0.09-0.01l0,0
			c-0.14-0.05-0.21-0.2-0.15-0.33l0,0c0,0.01,0,0.01,0,0.01l0,0c0.05-0.14,0.19-0.2,0.33-0.16l0,0c0.13,0.05,0.2,0.2,0.15,0.33
			C367.59,173.53,367.49,173.6,367.39,173.6z M367.87,172.33L367.87,172.33c-0.03,0-0.06-0.01-0.1-0.02l0,0
			c-0.13-0.05-0.19-0.2-0.14-0.33l0,0c0.05-0.13,0.2-0.19,0.33-0.14l0,0c0.13,0.05,0.2,0.21,0.14,0.33
			C368.07,172.27,367.98,172.33,367.87,172.33z M368.4,171.06L368.4,171.06c-0.03,0-0.07-0.01-0.1-0.02l0,0
			c-0.13-0.05-0.19-0.21-0.13-0.33l0,0c-0.01,0-0.01,0-0.01,0l0,0c0.06-0.13,0.21-0.19,0.34-0.14l0,0c0.13,0.05,0.19,0.2,0.13,0.34
			l0,0C368.59,171.01,368.5,171.06,368.4,171.06z M368.97,169.82L368.97,169.82c-0.04,0-0.07-0.01-0.11-0.03l0,0
			c-0.13-0.06-0.18-0.21-0.12-0.34l0,0c0.06-0.13,0.21-0.18,0.34-0.12l0,0c0.13,0.06,0.18,0.22,0.12,0.34
			C369.15,169.77,369.06,169.82,368.97,169.82z M369.58,168.6L369.58,168.6c-0.04,0-0.08-0.01-0.12-0.03l0,0
			c-0.12-0.07-0.16-0.23-0.1-0.35l0,0l0,0l0,0c0.07-0.12,0.23-0.16,0.35-0.1l0,0c0.12,0.07,0.16,0.23,0.1,0.35l0,0
			C369.76,168.55,369.68,168.6,369.58,168.6z"/>
	</g>
</g>
<g>
	<path class="st5" d="M171.78,176.51c0,0,5.03,4.31,8.53,5.96c0.99,0.47,2.13-0.28,2.08-1.38c-0.22-5.07-1.04-14.41-1.04-14.41
		h-1.29c0,0-0.48,4.4-0.71,6.08c-0.23,1.68-0.55,3.88-0.55,3.88l-4.62-4.3L171.78,176.51z"/>
	<path class="st22" d="M167.44,165.52c0,0,0.81-0.19,2.81,1.58c2,1.78,5.33,4.82,5.33,4.82l-3.62,5.49l-4.99-2.26
		C166.98,175.15,166.48,167.14,167.44,165.52z"/>
	<path class="st22" d="M150.83,167.59c0,0,12.61-2.07,16.61-2.07c0,3.3-0.45,27.8-0.45,27.8h-13.64L150.83,167.59z"/>
	
		<linearGradient id="SVGID_00000145750386021132566510000017630887682059238040_" gradientUnits="userSpaceOnUse" x1="171.1748" y1="173.9386" x2="143.3827" y2="188.9037">
		<stop  offset="0" style="stop-color:#FDD615"/>
		<stop  offset="1" style="stop-color:#FD9D00"/>
	</linearGradient>
	<path style="fill:url(#SVGID_00000145750386021132566510000017630887682059238040_);" d="M152.81,179.93h0.88v-7.96l1.72,12
		l4.29-5.21c0,0,0.36,0.99-0.12,2.4c-0.48,1.41-3.25,8.78-3.25,8.78v3.38h-2.97l-0.18-1.85L152.81,179.93z"/>
	<polygon class="st5" points="165.67,248.15 164.99,245.27 167.59,245.35 167.9,248.58 	"/>
	<polygon class="st5" points="149.35,248.33 149.35,245.03 151.87,245.03 151.28,248.58 	"/>
	<defs>
		<filter id="Adobe_OpacityMaskFilter" filterUnits="userSpaceOnUse" x="159.14" y="141.31" width="36.74" height="20.51">
			<feFlood  style="flood-color:white;flood-opacity:1" result="back"/>
			<feBlend  in="SourceGraphic" in2="back" mode="normal"/>
		</filter>
	</defs>
	
		<mask maskUnits="userSpaceOnUse" x="159.14" y="141.31" width="36.74" height="20.51" id="SVGID_00000095316779461514980740000004310448994551975598_">
		<g class="st27">
			<defs>
				
					<filter id="Adobe_OpacityMaskFilter_00000166645265046245427990000010969565287479001528_" filterUnits="userSpaceOnUse" x="159.14" y="141.31" width="36.74" height="20.51">
					<feFlood  style="flood-color:white;flood-opacity:1" result="back"/>
					<feBlend  in="SourceGraphic" in2="back" mode="normal"/>
				</filter>
			</defs>
			
				<mask maskUnits="userSpaceOnUse" x="159.14" y="141.31" width="36.74" height="20.51" id="SVGID_00000095316779461514980740000004310448994551975598_">
				<g style="filter:url(#Adobe_OpacityMaskFilter_00000166645265046245427990000010969565287479001528_);">
				</g>
			</mask>
			
				<linearGradient id="SVGID_00000148634082997267472000000007371438557487524513_" gradientUnits="userSpaceOnUse" x1="159.1383" y1="151.5622" x2="195.8779" y2="151.5622">
				<stop  offset="0" style="stop-color:#000000"/>
				<stop  offset="0.1144" style="stop-color:#040404"/>
				<stop  offset="0.2387" style="stop-color:#111111"/>
				<stop  offset="0.3677" style="stop-color:#272727"/>
				<stop  offset="0.4998" style="stop-color:#464646"/>
				<stop  offset="0.6345" style="stop-color:#6D6D6D"/>
				<stop  offset="0.7712" style="stop-color:#9D9D9D"/>
				<stop  offset="0.9069" style="stop-color:#D4D4D4"/>
				<stop  offset="1" style="stop-color:#FFFFFF"/>
			</linearGradient>
			
				<polygon style="mask:url(#SVGID_00000095316779461514980740000004310448994551975598_);fill:url(#SVGID_00000148634082997267472000000007371438557487524513_);" points="
				195.88,150.46 159.14,141.31 159.14,161.71 191.35,161.81 			"/>
		</g>
	</mask>
	
		<linearGradient id="SVGID_00000032649396896007089890000003484139337944266933_" gradientUnits="userSpaceOnUse" x1="159.1383" y1="151.5622" x2="195.8779" y2="151.5622">
		<stop  offset="0" style="stop-color:#FFFFFF"/>
		<stop  offset="1" style="stop-color:#FFFFFF"/>
	</linearGradient>
	<polygon style="opacity:0.57;fill:url(#SVGID_00000032649396896007089890000003484139337944266933_);" points="195.88,150.46 
		159.14,141.31 159.14,161.71 191.35,161.81 	"/>
	<polygon class="st6" points="177.7,162.86 191.95,162.86 196.72,150.46 195.88,150.46 191.35,161.81 177.86,161.81 	"/>
	<path class="st5" d="M164.28,151.48v8.63c0,0.56-0.46,1.02-1.02,1.02h-1.08c-0.68,0-1.23,0.55-1.23,1.23v1.91h-4.04v-13.9
		L164.28,151.48z"/>
	<path class="st5" d="M180.03,166.87h5.67c0,0,1.74-0.86,1.92-1.16c0.18-0.3,0.56-1.38,0.56-1.56c0-0.18-0.31-0.22-0.53,0.25
		c-0.22,0.46-0.34,0.8-0.43,0.91c-0.09,0.1-1.13,0.69-1.13,0.69s0.65-0.73,0.68-0.91c0.03-0.18-0.31-1.25-0.48-1.25
		s-0.31,0.12-0.27,0.39c0.04,0.27,0.25,0.77,0.19,0.83c-0.06,0.06-0.52,0.61-0.52,0.61s0.42-0.58,0.4-0.67
		c-0.01-0.09-0.43-1.04-0.57-1.09c-0.13-0.04-0.25,0.3-0.19,0.61c0.06,0.31,0.22,0.4,0.18,0.54c-0.04,0.13-0.48,0.48-0.48,0.48
		s0.06-0.77,0.03-0.92c-0.03-0.15-0.49-0.43-0.76-0.57c-0.27-0.13-0.13,0.31,0.03,0.48c0.16,0.16,0.22,0.19,0.22,0.19l-0.12,0.64
		c0,0-0.95-0.03-1.92-0.07c-0.29-0.01-0.63-0.01-0.97,0C180.71,165.32,180.03,166.02,180.03,166.87L180.03,166.87z"/>
	<path class="st6" d="M149.26,248.59v1.6c0,0.17,0.14,0.31,0.31,0.31h7.51c0,0-0.05-1-1.49-1.25c-1.43-0.25-3.48-1.33-3.67-1.47
		c-0.19-0.14-0.21-0.84-0.33-0.99c-0.12-0.15-0.49-0.24-0.49,0.3c0,0.54-0.16,1.1-0.84,1.1c-0.68,0-0.89-0.15-0.94-0.3
		C149.26,247.74,148.57,247.91,149.26,248.59z"/>
	<path class="st6" d="M165.65,248.59v1.6c0,0.17,0.14,0.31,0.31,0.31h7.51c0,0-0.05-1-1.49-1.25c-1.43-0.25-3.48-1.33-3.67-1.47
		c-0.19-0.14-0.21-0.84-0.33-0.99c-0.12-0.15-0.49-0.24-0.49,0.3c0,0.54-0.16,1.1-0.84,1.1c-0.68,0-0.89-0.15-0.94-0.3
		C165.65,247.74,164.96,247.91,165.65,248.59z"/>
	<path class="st9" d="M163.01,157.31c0-0.49-0.4-0.9-0.9-0.9c-0.49,0-0.9,0.4-0.9,0.9s0.4,0.9,0.9,0.9
		C162.61,158.21,163.01,157.81,163.01,157.31z"/>
	<path class="st3" d="M164.28,151.48c0,0,1.52-4.41-2.52-5.12c-4.04-0.71-5.17,0.78-6.72,0.48c-1.55-0.29-3.01-0.78-3.56,1.1
		c-0.55,1.87,2.29,3.46,1.97,4.59c-0.32,1.13-1.07,3.01-0.29,4.62c0.78,1.62,2.52,2.17,4.52,1.78c2-0.39,2.88-2.81,2.49-4.75
		c-0.39-1.94,0.29-2.84,1.65-2.78C163.18,151.46,163.95,151.75,164.28,151.48z"/>
	<path class="st5" d="M164.28,155.89c0,0,0.82-0.01,0.82,0.72s-0.82,0.71-0.82,0.71V155.89z"/>
	<polygon class="st22" points="156.91,164.26 156.76,166.68 161.22,166.07 160.95,164.26 	"/>
	
		<linearGradient id="SVGID_00000142162803059788468740000015950642549547703682_" gradientUnits="userSpaceOnUse" x1="175.7967" y1="215.8279" x2="152.4458" y2="224.5968">
		<stop  offset="0" style="stop-color:#FB7247"/>
		<stop  offset="1" style="stop-color:#D13E35"/>
	</linearGradient>
	<path style="fill:url(#SVGID_00000142162803059788468740000015950642549547703682_);" d="M166.99,193.32l0.9,52.54h-3.06
		c0,0-2.24-8.9-2.69-13.17c-0.45-4.27-0.03-7.01-0.16-9.34s-2.84-18.13-2.84-18.13l4.56-11.89H166.99z"/>
	<g>
		<path class="st32" d="M156.33,193.32c0,0-1.03,3.3-0.84,5.75c0.19,2.46,0.47,4.82-0.02,9.97c-0.49,5.16-1.2,12.85-1.72,14.59
			c-0.52,1.75-2.07,6.35-2.65,10.33c-0.51,3.51-0.8,10.33-0.86,11.89h1.93l11.54-44.42v-8.11H156.33z"/>
		<path class="st32" d="M153.74,223.63c0.52-1.75,1.23-9.44,1.72-14.59c0.49-5.16,0.22-7.51,0.02-9.97
			c-0.19-2.46,0.84-5.75,0.84-5.75h-2.97c0,0-1.15,2.97-1.15,5.35c0,2.38,0.87,4.7,0.97,5.14c0.1,0.43-0.05,2.72-0.48,6.74
			c-0.44,4.02-0.63,8.92-0.63,11.13c0,2.21-1.7,4.73-2.42,8.9c-0.73,4.17-0.68,15.29-0.68,15.29h1.27
			c0.06-1.56,0.35-8.38,0.86-11.89C151.67,229.98,153.22,225.38,153.74,223.63z"/>
		
			<linearGradient id="SVGID_00000051383927698844720000000017369924785950981047_" gradientUnits="userSpaceOnUse" x1="162.1798" y1="219.0025" x2="146.5689" y2="219.8752">
			<stop  offset="0" style="stop-color:#FB7247"/>
			<stop  offset="1" style="stop-color:#D13E35"/>
		</linearGradient>
		<path style="fill:url(#SVGID_00000051383927698844720000000017369924785950981047_);" d="M153.74,223.63
			c0.52-1.75,1.23-9.44,1.72-14.59c0.49-5.16,0.22-7.51,0.02-9.97c-0.19-2.46,0.84-5.75,0.84-5.75h-2.97c0,0-1.15,2.97-1.15,5.35
			c0,2.38,0.87,4.7,0.97,5.14c0.1,0.43-0.05,2.72-0.48,6.74c-0.44,4.02-0.63,8.92-0.63,11.13c0,2.21-1.7,4.73-2.42,8.9
			c-0.73,4.17-0.68,15.29-0.68,15.29h1.27c0.06-1.56,0.35-8.38,0.86-11.89C151.67,229.98,153.22,225.38,153.74,223.63z"/>
	</g>
	<g>
		<path class="st5" d="M148.54,178.96c0,0-0.16,13.98,2.55,13.98c2.71,0,1.65-13.98,1.65-13.98H148.54z"/>
		<path class="st5" d="M151.1,192.94c0,0,1.31,0.48,4.02-4.51c2.71-4.99,4.32-9.31,4.32-9.31l-1.24-0.36c0,0-3.57,5.08-5.6,6.94
			S149.16,190.18,151.1,192.94z"/>
		<path class="st5" d="M158.2,178.88v-6.12c0,0,2.43,0.65,2.55,1.14c0.11,0.49,0.23,2.36-0.4,2.3c-0.21-1.92-0.36-1.55-0.36-1.55
			l-0.16,3.07c0,0,0.24,1.42-0.98,1.72C158.53,178.54,158.2,178.88,158.2,178.88z"/>
		<path class="st5" d="M158.2,172.77c0,0,0.58-2.04,0.82-2.17c0.24-0.13,1.15,0,1.15,0s0.63,0.29,0.22,0.54
			c-0.41,0.25-1.12,0.13-1.12,0.13l-0.48,2.13L158.2,172.77z"/>
	</g>
	<path class="st22" d="M150.83,167.59c0,0-3.78,0.64-3.98,4.78c-0.19,4.14,0.32,7.56,0.32,7.56h6.22
		C153.4,179.93,154.65,168.24,150.83,167.59z"/>
	<path class="st3" d="M160.71,166.16c0,0,2.47,3.07,3.1,7.6c0.63,4.54,0.58,7.06,0.58,7.06l-0.88,2.91l-1.09-2.76
		c0,0,0-8.5-0.57-11.3c-0.37-1.81-1.41-3.48-1.41-3.48L160.71,166.16z"/>
	<path class="st3" d="M160.71,166.16l-0.34-1.65c0,0-0.23,1.54,0.07,1.69C160.75,166.34,160.71,166.16,160.71,166.16z"/>
	<polygon class="st6" points="167.31,175.3 167.4,169.48 168.13,175.67 	"/>
	<polygon class="st6" points="174.88,173 172.28,176.93 173.25,177.72 	"/>
	<polygon class="st6" points="152.81,179.93 148.54,179.93 148.54,180.97 152.81,180.2 	"/>
	<path class="st6" d="M153.17,191.47c0,0,2.62-3.73,3.42-5.87c-1.66,4.17-3.24,7.72-3.24,7.72L153.17,191.47z"/>
	<polygon class="st6" points="160.5,213.72 163.7,201.43 160.83,215.35 	"/>
	<polygon class="st6" points="165.13,245.85 167.64,245.85 165.26,246.41 	"/>
	<polygon class="st6" points="149.35,245.85 151.73,245.85 149.35,246.37 	"/>
	<g>
		<path class="st6" d="M150.44,190.54c-0.05,0-0.09-0.04-0.1-0.09c0-0.04-0.05-1,0.31-2.14c0.34-1.08,1.97-2.76,2.23-3.01
			l-0.17-5.27c0-0.03,0.01-0.05,0.03-0.07c0.02-0.02,0.04-0.03,0.07-0.03h0.78v-7.95c0-0.05,0.04-0.1,0.1-0.1
			c0.05,0,0.1,0.04,0.1,0.1v8.05c0,0.05-0.04,0.1-0.1,0.1h-0.78l0.17,5.22c0,0.03-0.01,0.05-0.03,0.07
			c-0.02,0.02-1.86,1.86-2.21,2.96c-0.35,1.11-0.3,2.07-0.3,2.08C150.54,190.5,150.5,190.54,150.44,190.54
			C150.44,190.54,150.44,190.54,150.44,190.54z"/>
	</g>
	<g>
		<path class="st6" d="M166.99,193.41h-13.64c-0.05,0-0.1-0.04-0.1-0.1c0-0.05,0.04-0.1,0.1-0.1h13.64c0.05,0,0.1,0.04,0.1,0.1
			C167.09,193.37,167.05,193.41,166.99,193.41z"/>
	</g>
	<g>
		<path class="st6" d="M160.5,213.82c-0.01,0-0.02,0-0.02,0c-0.05-0.01-0.08-0.07-0.07-0.12l3.19-12.28v-8.1
			c0-0.05,0.04-0.1,0.1-0.1c0.05,0,0.1,0.04,0.1,0.1v8.11c0,0.01,0,0.02,0,0.02l-3.19,12.3
			C160.58,213.79,160.54,213.82,160.5,213.82z"/>
	</g>
</g>
<g>
	
		<linearGradient id="SVGID_00000091718439800245587570000003182624091207611561_" gradientUnits="userSpaceOnUse" x1="74.9065" y1="165.493" x2="98.4097" y2="209.0347">
		<stop  offset="0" style="stop-color:#FFFFFF"/>
		<stop  offset="1" style="stop-color:#72C0FF"/>
	</linearGradient>
	<path style="fill:url(#SVGID_00000091718439800245587570000003182624091207611561_);" d="M84.71,172.98c0,0,2.11,0.94,2.11,5.44
		s0,16.92,0,16.92s-2.37,0.25-3.12-2s-3.33-10.18-3.33-10.18L84.71,172.98z"/>
	<path class="st5" d="M86.82,195.33c0,0-1.99,0.4-3.01-1.7c-1.02-2.09,0.21-3.21,0.5-3.55c0.29-0.34,2.89-3.32,2.89-3.32
		L86.82,195.33z"/>
	<path class="st5" d="M69.04,165.97c0,0,15.72,5.95,16.22,7.61c0.5,1.66-5.81,14.64-10.42,20.26c-4.43,0-16.48,0-16.48,0l5.93-23.28
		L69.04,165.97z"/>
	
		<linearGradient id="SVGID_00000134211642435210623300000013638095858477129095_" gradientUnits="userSpaceOnUse" x1="84.6639" y1="183.5194" x2="37.1894" y2="181.2721">
		<stop  offset="0" style="stop-color:#FFFFFF"/>
		<stop  offset="1" style="stop-color:#72C0FF"/>
	</linearGradient>
	<polygon style="fill:url(#SVGID_00000134211642435210623300000013638095858477129095_);" points="70.38,171.29 63.26,193.83 
		58.36,193.83 63.49,173.7 	"/>
	<g>
		<path class="st5" d="M67.16,165.41c-4.73-0.8-10.34-0.36-14,0.56c-0.01,0.01-2.66,1.64-2.67,4.08c0,1.98,0,10.8,0,14.11h1
			l2.62-11.38c0,0,11.49,1.19,13.55,1.04C69.72,173.67,74.4,166.63,67.16,165.41z"/>
		<path class="st5" d="M50.49,170.05c0-2.44,2.65-4.07,2.67-4.08c-1.95,0.49-3.34,1.11-3.75,1.74c-0.54,0.84,0.15,16.44,0.15,16.44
			h0.94C50.49,180.85,50.49,172.02,50.49,170.05z"/>
		
			<linearGradient id="SVGID_00000116926549354991757620000002335208429540016285_" gradientUnits="userSpaceOnUse" x1="61.0685" y1="175.5202" x2="34.361" y2="174.2559">
			<stop  offset="0" style="stop-color:#FFFFFF"/>
			<stop  offset="1" style="stop-color:#72C0FF"/>
		</linearGradient>
		<path style="fill:url(#SVGID_00000116926549354991757620000002335208429540016285_);" d="M50.49,170.05
			c0-2.44,2.65-4.07,2.67-4.08c-1.95,0.49-3.34,1.11-3.75,1.74c-0.54,0.84,0.15,16.44,0.15,16.44h0.94
			C50.49,180.85,50.49,172.02,50.49,170.05z"/>
	</g>
	<polygon class="st7" points="94.07,180.72 95.01,178.92 93.78,178.73 92.69,180.21 	"/>
	<path class="st6" d="M96.71,173.47l-2.27,4.72c-0.15,0.3-0.02,0.66,0.28,0.81l0,0c0.3,0.15,0.66,0.02,0.81-0.28l2.29-4.69
		L96.71,173.47z"/>
	<polygon class="st5" points="76.14,245.33 76.82,248.72 79.54,247.97 79.3,247.44 78.97,244.96 	"/>
	<polygon class="st5" points="35.9,203.27 40.1,205.22 37.88,206.69 34.54,205.23 34.76,203.82 	"/>
	<path class="st2" d="M74.84,193.83l4.46,51.59h-3.28c0,0-4.12-11.33-4.87-15.36c-0.75-4.03-0.56-8.01-0.66-10.44
		c-0.09-2.43-5.52-17.46-5.52-17.46l5.52-8.33H74.84z"/>
	<path class="st7" d="M83.83,165.5c-0.73,0-0.73-1.14,0-1.14c0.17,0,0.33,0.01,0.49,0.01v-5.58l-7-0.54c0,0-0.35,3.22-0.35,5.17
		c0,1.94-0.54,3.1-0.54,3.1l3.54,1.53l0.51-1.05h2.72c0.62,0,1.13-0.5,1.13-1.13v-0.36C84.16,165.51,83.99,165.5,83.83,165.5z"/>
	<path class="st32" d="M81.5,163.22c0-0.42-0.34-0.77-0.77-0.77c-0.42,0-0.77,0.34-0.77,0.77c0,0.42,0.34,0.77,0.77,0.77
		C81.16,163.98,81.5,163.64,81.5,163.22z"/>
	<path class="st6" d="M76.37,248.63l0.46,1.86l8.55-2.11c0,0,1.02-0.83-0.79-0.99c-1.81-0.16-5.25-0.28-5.34-0.26
		c-0.09,0.02-0.38,1.42-2.58,1.18C76.48,248.29,76.33,248.45,76.37,248.63z"/>
	<path class="st6" d="M36.2,202.85l-1.49-1.2l-5.52,6.85c0,0-0.31,1.28,1.23,0.31c1.54-0.96,4.34-2.95,4.4-3.03
		c0.06-0.07-0.56-1.36,1.34-2.5C36.33,203.19,36.35,202.97,36.2,202.85z"/>
	<path class="st16" d="M76.81,164.03c0,0,1.79,0.16,1.91-1.08c0.13-1.24-0.32-3.57,0.57-3.77c0.89-0.19,3.96-0.03,4.85-0.29
		c0.89-0.26,0.96-3.86-1.5-4.66c-2.46-0.8-3.51,0.61-4.69,0.64c-1.18,0.03-2.68-0.64-3.7,0.99c-1.02,1.63,0.13,3,0.67,3.96
		C75.47,160.77,72.91,164.03,76.81,164.03z"/>
	<path class="st16" d="M84.32,163.15c0,0-2.1-0.36-2.39,0.88c-0.29,1.25-1.01,3.26,0.14,3.5c1.15,0.24,1.77,0.34,2.06-0.31
		c0.29-0.65,0.18-1.25,0.18-1.25s-1.31,0.28-1.43-0.72c-0.2-1.69,1.45-1.31,1.45-1.31L84.32,163.15z"/>
	<polygon class="st5" points="79.97,168.05 79.55,170.27 74.83,168.25 76.42,166.52 	"/>
	<path class="st7" d="M51.5,184.15c0,0,0.24,1.35,0.14,2.16c-0.09,0.82-0.55,1.22-0.84,1.84c-0.3,0.62-0.39,1.16-0.52,1.16
		c-0.14,0-0.46-0.2-0.3-0.74c0.16-0.54,0.64-1.42,0.5-1.36c-0.14,0.06-1.65,0.92-2.31,1.53c-0.66,0.61-1.84,2.05-2.09,1.95
		c-0.24-0.11,0.19-0.99,0.72-1.57c0.52-0.58,1.37-1.36,1.37-1.36s-0.48,0.24-1.37,1.1c-0.89,0.86-1.16,1.42-1.41,1.3
		c-0.25-0.12,0.07-1,0.78-1.66c0.71-0.66,1.35-1.2,1.35-1.2s-0.75,0.38-1.28,0.92c-0.52,0.54-0.89,1-1.1,0.94
		c-0.21-0.06,0.41-0.98,0.89-1.52c0.48-0.54,2.45-1.79,3-2.33c0.55-0.54,0.71-1.17,0.71-1.17H51.5z"/>
	<path class="st5" d="M94.07,180.72c0,0-3.76,9.69-4.79,11.85c-1.03,2.15-1.9,2.76-2.45,2.76c-0.55,0-1.53-3.28-1.53-3.28l1.53-4.82
		l5.87-7.02L94.07,180.72z"/>
	<g>
		<path class="st2" d="M63.26,193.83c-1.58,3.74-7.96,18.66-9.48,18.87c-1.73,0.23-4.64-2.72-9.22-4.96
			c-2.97-1.46-5.48-2.54-6.88-3.12l-1.2,1.95l14.75,9.91c2.78,1.87,6.56,1.14,8.44-1.64l9.15-13.51l1.69-7.49H63.26z"/>
		<path class="st2" d="M53.79,212.7c1.52-0.2,7.9-15.13,9.48-18.87h-4.91c0,0-1.48,0.98-2.09,3.28c-0.49,1.85,0.52,4.26,0.47,4.45
			c-0.05,0.19-3.32,8.47-3.79,8.47c-0.47,0-1.69-1.08-3.93-2.29s-10.91-3.79-10.91-3.79l-0.42,0.68c1.4,0.58,3.91,1.66,6.88,3.12
			C49.15,209.98,52.05,212.93,53.79,212.7z"/>
		<path class="st37" d="M53.79,212.7c1.52-0.2,7.9-15.13,9.48-18.87h-4.91c0,0-1.48,0.98-2.09,3.28c-0.49,1.85,0.52,4.26,0.47,4.45
			c-0.05,0.19-3.32,8.47-3.79,8.47c-0.47,0-1.69-1.08-3.93-2.29s-10.91-3.79-10.91-3.79l-0.42,0.68c1.4,0.58,3.91,1.66,6.88,3.12
			C49.15,209.98,52.05,212.93,53.79,212.7z"/>
	</g>
	<polygon class="st6" points="66.13,205.41 68.81,201.32 66.57,206.69 	"/>
	<polygon class="st6" points="63.49,173.7 67.66,173.81 63.19,174.86 	"/>
	<polygon class="st6" points="51.5,184.15 49.72,184.15 49.49,184.69 	"/>
	<polygon class="st6" points="80.8,184.47 83.38,179.36 81.11,185.41 	"/>
	<g>
		<path class="st6" d="M84.03,190.54c-0.03,0-0.06-0.01-0.08-0.03c-0.05-0.04-0.06-0.12-0.01-0.18l2.79-3.18
			c0.04-0.05,0.12-0.06,0.18-0.01c0.05,0.04,0.06,0.12,0.01,0.18l-2.79,3.18C84.1,190.52,84.07,190.54,84.03,190.54z"/>
	</g>
	<g>
		<path class="st6" d="M84.03,189.32c-0.05,0-0.1-0.03-0.12-0.08c-0.02-0.06,0.01-0.14,0.07-0.16l1.58-0.58
			c0.06-0.02,0.14,0.01,0.16,0.07c0.02,0.06-0.01,0.14-0.07,0.16l-1.58,0.58C84.06,189.32,84.05,189.32,84.03,189.32z"/>
	</g>
	<g>
		<path class="st6" d="M54.11,172.9c-0.02,0-0.03,0-0.05-0.01l-2.45-1.08c-0.06-0.03-0.09-0.1-0.06-0.16
			c0.03-0.06,0.1-0.09,0.17-0.06l2.09,0.92l-1.11-1.83c-0.04-0.06-0.02-0.14,0.04-0.17c0.06-0.03,0.14-0.02,0.17,0.04l1.31,2.17
			c0.03,0.05,0.02,0.11-0.01,0.15C54.18,172.89,54.15,172.9,54.11,172.9z"/>
	</g>
	<g>
		<path class="st6" d="M79.55,170.4c-0.02,0-0.03,0-0.05-0.01l-0.58-0.25c-0.05-0.02-0.08-0.08-0.07-0.13l0.25-1.58l-1.16,1.21
			c-0.04,0.04-0.09,0.05-0.14,0.03l-3.02-1.29c-0.06-0.03-0.09-0.1-0.07-0.16c0.03-0.06,0.1-0.09,0.16-0.07l2.94,1.26l1.38-1.43
			c0.04-0.04,0.1-0.05,0.15-0.03c0.05,0.02,0.08,0.08,0.07,0.13l-0.29,1.88l0.49,0.21c0.06,0.03,0.09,0.1,0.07,0.16
			C79.65,170.37,79.6,170.4,79.55,170.4z"/>
	</g>
	<g>
		<path class="st6" d="M66.13,205.53c-0.02,0-0.05-0.01-0.07-0.02c-0.06-0.04-0.07-0.12-0.04-0.17l2.67-4.07l1.68-7.47
			c0.02-0.07,0.09-0.11,0.15-0.09c0.07,0.02,0.11,0.08,0.09,0.15l-1.69,7.49c0,0.01-0.01,0.03-0.02,0.04l-2.69,4.09
			C66.21,205.51,66.17,205.53,66.13,205.53z"/>
	</g>
	<g>
		<path class="st6" d="M52.58,211.96c-0.07,0-0.12-0.06-0.12-0.12c0-0.23,0.33-1.67,0.36-1.84c0.01-0.04,0.04-0.08,0.08-0.09
			c0.04-0.01,0.09,0,0.12,0.02l1.51,1.31c0.05,0.05,0.06,0.12,0.01,0.18c-0.05,0.05-0.12,0.06-0.18,0.01l-1.36-1.17
			c-0.14,0.61-0.31,1.45-0.31,1.58C52.71,211.91,52.65,211.96,52.58,211.96z"/>
	</g>
	<g>
		<g>
			<g>
				
					<linearGradient id="SVGID_00000126307604952184775950000003133444992530721184_" gradientUnits="userSpaceOnUse" x1="91.8052" y1="295.8826" x2="108.3801" y2="295.8826" gradientTransform="matrix(0.8941 0.4478 -0.4478 0.8941 142.2172 -135.544)">
					<stop  offset="0" style="stop-color:#FB7247"/>
					<stop  offset="1" style="stop-color:#D13E35"/>
				</linearGradient>
				<polygon style="fill:url(#SVGID_00000126307604952184775950000003133444992530721184_);" points="99.98,173.23 94.92,170.7 
					94.13,172.26 99.2,174.8 103.49,183.79 106.62,177.54 109.75,171.28 				"/>
				
					<linearGradient id="SVGID_00000031203656051111625930000015252794099192004275_" gradientUnits="userSpaceOnUse" x1="91.8054" y1="295.8834" x2="108.3798" y2="295.8834" gradientTransform="matrix(0.8941 0.4478 -0.4478 0.8941 142.2172 -135.544)">
					<stop  offset="0" style="stop-color:#FB7247"/>
					<stop  offset="1" style="stop-color:#D13E35"/>
				</linearGradient>
				<path style="fill:url(#SVGID_00000031203656051111625930000015252794099192004275_);" d="M92.98,169.73
					c-0.43-0.22-0.96-0.04-1.17,0.39c-0.22,0.43-0.04,0.96,0.39,1.17l1.94,0.97l0.78-1.56L92.98,169.73z"/>
				
					<linearGradient id="SVGID_00000080915884503731141170000011215275653942224259_" gradientUnits="userSpaceOnUse" x1="90.354" y1="295.8834" x2="94.8487" y2="295.8834" gradientTransform="matrix(0.8941 0.4478 -0.4478 0.8941 142.2172 -135.544)">
					<stop  offset="0" style="stop-color:#FB7247"/>
					<stop  offset="1" style="stop-color:#D13E35"/>
				</linearGradient>
				<path style="fill:url(#SVGID_00000080915884503731141170000011215275653942224259_);" d="M92.98,169.73
					c-0.43-0.22-0.96-0.04-1.17,0.39c-0.22,0.43-0.04,0.96,0.39,1.17l1.94,0.97l0.78-1.56L92.98,169.73z"/>
			</g>
			<path class="st5" d="M107.65,178.05c-1.73,3.45-3.57,6.03-4.12,5.76c-0.55-0.27,0.41-3.3,2.14-6.75
				c1.73-3.45,3.57-6.03,4.12-5.76C110.34,171.58,109.38,174.6,107.65,178.05z"/>
			
				<rect x="93.53" y="170.62" transform="matrix(0.8941 0.4478 -0.4478 0.8941 86.3902 -24.0674)" class="st6" width="1.14" height="0.1"/>
			
				<rect x="93.37" y="170.93" transform="matrix(0.8942 0.4477 -0.4477 0.8942 86.4959 -23.9644)" class="st6" width="1.14" height="0.1"/>
			
				<rect x="93.21" y="171.24" transform="matrix(0.8941 0.4478 -0.4478 0.8941 86.6336 -23.8627)" class="st6" width="1.14" height="0.1"/>
			
				<rect x="94.55" y="170.22" transform="matrix(0.8941 0.4479 -0.4479 0.8941 86.3462 -24.3422)" class="st6" width="0.16" height="0.32"/>
		</g>
		<polygon class="st5" points="99.98,173.23 99.2,174.8 98.56,174.48 99.4,172.95 		"/>
	</g>
	<path class="st7" d="M93.51,179.11c0,0-0.32-0.94,0.28-1.86c0.59-0.92,0.74-0.99,0.85-1.11c0.12-0.12,1.02-0.5,1.18-0.34
		c0.16,0.16,0.31,1.19,0,1.22c-0.31,0.03-0.41-0.5-0.41-0.5l-0.49,0.67l-0.21,2.18L93.51,179.11z"/>
	<path class="st7" d="M95.88,176.55c0,0,1.19-0.12,1.43,0c0.23,0.12,0.36,0.65-0.27,0.69c-0.63,0.04-1.21-0.08-1.36-0.19
		C95.52,176.95,95.39,176.59,95.88,176.55z"/>
	<path class="st7" d="M95.66,177.23c0,0,1.19-0.12,1.43,0c0.23,0.12,0.36,0.65-0.27,0.69c-0.63,0.04-1.21-0.08-1.36-0.19
		C95.31,177.63,95.18,177.27,95.66,177.23z"/>
	<path class="st7" d="M95.51,177.84c0,0,1.08-0.11,1.3,0c0.21,0.11,0.33,0.59-0.24,0.63c-0.57,0.03-1.09-0.07-1.23-0.17
		S95.08,177.87,95.51,177.84z"/>
	<path class="st7" d="M95.29,178.39c0,0,0.96-0.09,1.15,0c0.19,0.09,0.29,0.53-0.22,0.56c-0.51,0.03-0.97-0.07-1.1-0.15
		C95,178.71,94.9,178.42,95.29,178.39z"/>
	
		<linearGradient id="SVGID_00000052093183982994465260000003820531018358394506_" gradientUnits="userSpaceOnUse" x1="81.2857" y1="172.4028" x2="50.2822" y2="184.0455">
		<stop  offset="0" style="stop-color:#FB7247"/>
		<stop  offset="1" style="stop-color:#D13E35"/>
	</linearGradient>
	<path style="fill:url(#SVGID_00000052093183982994465260000003820531018358394506_);" d="M78.97,170.03l-0.7,0.95
		c0,0-1.61,6.93-6.45,9.74c-4.84,2.81-13.47,2.53-13.47,2.53l-3.12-1.59l3.12-1.45c0,0,7.8-0.13,12.3-1.61
		c4.5-1.47,7.1-7.65,7.1-7.65l0.08-1.4l1.41-1.32L78.97,170.03z"/>
	<path class="st7" d="M84.32,163.15c0,0,0.71,0.01,0.71-0.58c0-0.59-0.83-0.48-0.83-0.48S83.86,162.72,84.32,163.15z"/>
</g>
<g>
	<g>
		<path class="st5" d="M457.32,214.55c-0.06,0-0.11-0.04-0.12-0.1c0-0.03-0.53-2.88-1.14-4.9c-0.61-2.02-1.51-4.16-1.52-4.18
			c-0.03-0.06,0-0.14,0.07-0.16c0.06-0.03,0.14,0,0.16,0.07c0.01,0.02,0.92,2.17,1.53,4.21c0.61,2.04,1.14,4.9,1.15,4.93
			c0.01,0.07-0.03,0.13-0.1,0.15C457.34,214.55,457.33,214.55,457.32,214.55z"/>
	</g>
	<g>
		<path class="st5" d="M458.28,214.86C458.28,214.86,458.27,214.86,458.28,214.86c-0.07,0-0.13-0.06-0.12-0.13
			c0-0.02,0.08-2.3,0.69-4.58c0.61-2.27,1.99-5.41,2-5.45c0.03-0.06,0.1-0.09,0.16-0.06c0.06,0.03,0.09,0.1,0.06,0.16
			c-0.01,0.03-1.38,3.16-1.99,5.41c-0.61,2.25-0.68,4.5-0.69,4.52C458.4,214.81,458.34,214.86,458.28,214.86z"/>
	</g>
	<g>
		<path class="st5" d="M456.74,214.86c-0.05,0-0.09-0.03-0.11-0.07c0-0.01-0.48-1.06-1.62-2.41c-1.13-1.33-2.22-1.72-2.23-1.72
			c-0.06-0.02-0.1-0.09-0.08-0.16c0.02-0.07,0.1-0.1,0.16-0.08c0.05,0.02,1.16,0.41,2.34,1.8c1.17,1.38,1.64,2.42,1.66,2.47
			c0.03,0.06,0,0.14-0.06,0.16C456.77,214.86,456.75,214.86,456.74,214.86z"/>
	</g>
	<path class="st5" d="M449.54,194.37c0,0,4.38,3.65,5.46,4.88c1.08,1.23,1.08,1.47,1.1,1.74c0.02,0.26-0.92,2.09-0.92,2.09
		s0.51-0.55,0.81-0.99c0.31-0.44,0.29-0.95,0.57-0.77c0.29,0.18,0.9,1.06,1.01,2.07c0.11,1.01-1.21,2.88-2.62,3.23
		c-1.41,0.35-3.45,0.07-4.22-1.06c-0.77-1.12-0.9-2.84-0.86-3.12c0.04-0.29,0.81,0.04,1.63,0.18c0.81,0.13,1.19,0.13,1.19,0.13
		s-1.96-0.99-2.55-1.25c-0.59-0.26-0.95-2.13-0.92-3.65C449.23,196.33,448.86,194,449.54,194.37z"/>
	<path class="st5" d="M466.54,193.91c0,0,0.03,4.46-0.15,4.99c-0.18,0.53-1.88,1.14-1.88,1.14s1.91-0.26,1.91,0
		c0,0.26-0.62,3.58-2.23,4.99c-1.61,1.41-4.55,1.06-5.1-0.79c-0.56-1.85,0.25-3.87,0.54-3.93c0.29-0.06,1.08,2.26,1.08,2.26
		s-0.59-2.55-0.59-3.23C460.11,198.66,466.36,192.65,466.54,193.91z"/>
	<path class="st5" d="M446.42,207.18c0,0,3.93,0.45,4.54,0.84c0.61,0.4,1.01,1.15,1.01,1.15s-0.22-0.68-0.47-1
		c0.38-0.1,2.51,0.76,2.89,1.7c0.38,0.93-0.22,2.39-2.14,2.46c-1.92,0.07-4.17-2.17-4.35-2.36s1.19-0.6,1.19-0.6s-1.2,0.13-1.56,0
		C447.18,209.24,445.22,207.02,446.42,207.18z"/>
	<polygon class="st6" points="451.65,225.77 448.13,250.94 448.57,250.94 453.24,225.77 	"/>
	<polygon class="st6" points="463.39,225.77 466.91,250.94 466.47,250.94 461.81,225.77 	"/>
	<rect x="450.69" y="225.74" class="st6" width="13.6" height="0.51"/>
	<path class="st5" d="M464.53,225.77h-14.01c-0.48,0-0.87-0.39-0.87-0.87v-0.19c0-0.48,0.39-0.87,0.87-0.87h14.01
		c0.48,0,0.87,0.39,0.87,0.87v0.19C465.4,225.38,465.01,225.77,464.53,225.77z"/>
	<rect x="449.94" y="239.53" class="st6" width="14.93" height="0.29"/>
	<polygon class="st22" points="457.01,213.95 451.61,213.95 453.24,223.83 457.01,223.83 460.78,223.83 462.41,213.95 	"/>
	
		<linearGradient id="SVGID_00000053529432025130055370000000728609712794303133_" gradientUnits="userSpaceOnUse" x1="463.9059" y1="216.0215" x2="446.0385" y2="222.6668">
		<stop  offset="0" style="stop-color:#FDD615"/>
		<stop  offset="1" style="stop-color:#FD9D00"/>
	</linearGradient>
	<path style="fill:url(#SVGID_00000053529432025130055370000000728609712794303133_);" d="M454.4,213.95c0,0,0.12,6.07,0.79,7.41
		c0.67,1.33,5.77,1.36,5.77,1.36l-0.18,1.12h-7.54l-1.63-9.89H454.4z"/>
</g>
<g>
	<g>
		<g>
			<path class="st6" d="M220.13,122.74c-0.92,0-1.67,1.39-1.67,3.1c0,1.71,0.75,3.1,1.67,3.1c0.92,0,1.67-1.39,1.67-3.1
				C221.8,124.13,221.05,122.74,220.13,122.74z M220.13,128c-0.59,0-1.07-0.97-1.07-2.16c0-1.19,0.48-2.16,1.07-2.16
				c0.59,0,1.07,0.97,1.07,2.16C221.2,127.03,220.72,128,220.13,128z"/>
			<path class="st6" d="M216.6,122.74c-0.92,0-1.67,0.96-1.67,2.13c0,1.18,0.75,2.13,1.67,2.13c0.92,0,1.67-0.96,1.67-2.13
				C218.27,123.7,217.52,122.74,216.6,122.74z M216.6,126.19c-0.57,0-1.03-0.59-1.03-1.32c0-0.73,0.46-1.32,1.03-1.32
				c0.57,0,1.03,0.59,1.03,1.32C217.63,125.6,217.17,126.19,216.6,126.19z"/>
		</g>
		<path class="st6" d="M218,129.46v10.69l0.46-1.08c0,0-0.02-5.67-0.32-9.61C218,129.46,218,129.46,218,129.46z"/>
		<path class="st6" d="M218,129.46v10.69l-0.46-1.08c0,0,0.02-5.67,0.32-9.61C218,129.46,218,129.46,218,129.46z"/>
		<path class="st6" d="M216.9,126.98c0,0,0.58-0.01,0.73,0.51c0.15,0.52,0,1.87,0,1.87l0.37,0.82l0.35-0.78c0,0-0.08-0.31,0-0.66
			c0.08-0.35,0.75-0.38,0.94-0.2c0.09-0.18-0.54-1.21-0.54-1.21l-0.57,0.65c0,0-0.19-0.81-0.24-1.23s0.21-1.03,0.21-1.03
			S216.95,126.46,216.9,126.98z"/>
	</g>
	<rect x="215.99" y="130.32" class="st5" width="8.4" height="11.71"/>
	
		<linearGradient id="SVGID_00000013187293377714202610000010897982699994929328_" gradientUnits="userSpaceOnUse" x1="241.1048" y1="132.9738" x2="165.207" y2="143.551">
		<stop  offset="0" style="stop-color:#FFFFFF"/>
		<stop  offset="1" style="stop-color:#72C0FF"/>
	</linearGradient>
	
		<rect x="216.8" y="130.32" style="fill:url(#SVGID_00000013187293377714202610000010897982699994929328_);" width="2.62" height="11.71"/>
	<polygon class="st32" points="223.48,123.42 222.9,125.7 222.9,130.32 223.48,130.32 224.07,130.32 224.07,125.7 	"/>
	<polygon class="st5" points="223.75,124.44 223.48,124.44 223.22,124.44 222.9,125.7 223.48,125.7 224.07,125.7 	"/>
	<polygon class="st7" points="221.63,123.42 221.04,125.7 221.04,130.32 221.63,130.32 222.21,130.32 222.21,125.7 	"/>
	<polygon class="st5" points="221.89,124.44 221.63,124.44 221.36,124.44 221.04,125.7 221.63,125.7 222.21,125.7 	"/>
</g>
<g>
	<rect x="97.67" y="122.09" class="st32" width="5.61" height="19.82"/>
	<circle class="st5" cx="100.48" cy="138.96" r="1.65"/>
	<path class="st6" d="M101.7,138.96c0-0.68-0.55-1.22-1.22-1.22c-0.68,0-1.22,0.55-1.22,1.22c0,0.68,0.55,1.22,1.22,1.22
		C101.15,140.19,101.7,139.64,101.7,138.96z"/>
	
		<linearGradient id="SVGID_00000083074668947216388100000005975385970571145621_" gradientUnits="userSpaceOnUse" x1="100.4787" y1="118.4706" x2="100.4787" y2="137.726">
		<stop  offset="0" style="stop-color:#FB7247"/>
		<stop  offset="1" style="stop-color:#D13E35"/>
	</linearGradient>
	
		<rect x="99.15" y="123.14" style="fill:url(#SVGID_00000083074668947216388100000005975385970571145621_);" width="2.67" height="12.85"/>
	<rect x="103.95" y="122.09" class="st7" width="5.61" height="19.82"/>
	<circle class="st5" cx="106.75" cy="138.96" r="1.65"/>
	<path class="st6" d="M107.98,138.96c0-0.68-0.55-1.22-1.22-1.22c-0.68,0-1.22,0.55-1.22,1.22c0,0.68,0.55,1.22,1.22,1.22
		C107.43,140.19,107.98,139.64,107.98,138.96z"/>
	
		<linearGradient id="SVGID_00000046318464253992131510000018232182236448390033_" gradientUnits="userSpaceOnUse" x1="106.7526" y1="118.4706" x2="106.7526" y2="137.726">
		<stop  offset="0" style="stop-color:#049EFF"/>
		<stop  offset="0.493" style="stop-color:#0484FF"/>
		<stop  offset="1" style="stop-color:#0465FF"/>
	</linearGradient>
	
		<rect x="105.42" y="123.14" style="fill:url(#SVGID_00000046318464253992131510000018232182236448390033_);" width="2.67" height="12.85"/>
	<rect x="110.25" y="122.09" class="st22" width="5.61" height="19.82"/>
	<path class="st5" d="M114.7,138.96c0-0.91-0.74-1.65-1.65-1.65c-0.91,0-1.65,0.74-1.65,1.65c0,0.91,0.74,1.65,1.65,1.65
		C113.97,140.61,114.7,139.87,114.7,138.96z"/>
	<path class="st6" d="M114.28,138.96c0-0.68-0.55-1.22-1.22-1.22c-0.68,0-1.22,0.55-1.22,1.22c0,0.68,0.55,1.22,1.22,1.22
		C113.73,140.19,114.28,139.64,114.28,138.96z"/>
	
		<linearGradient id="SVGID_00000000215507266302521450000011376077148200888736_" gradientUnits="userSpaceOnUse" x1="113.0578" y1="118.4706" x2="113.0578" y2="137.726">
		<stop  offset="0" style="stop-color:#FDD615"/>
		<stop  offset="1" style="stop-color:#FD9D00"/>
	</linearGradient>
	
		<rect x="111.72" y="123.14" style="fill:url(#SVGID_00000000215507266302521450000011376077148200888736_);" width="2.67" height="12.85"/>
</g>
<g>
	
		<linearGradient id="SVGID_00000121977957220840524650000015054893398739152016_" gradientUnits="userSpaceOnUse" x1="225.3974" y1="109.4056" x2="236.9228" y2="109.4056">
		<stop  offset="0" style="stop-color:#19B6E0"/>
		<stop  offset="1" style="stop-color:#1E7CC7"/>
	</linearGradient>
	<path style="fill:url(#SVGID_00000121977957220840524650000015054893398739152016_);" d="M233.61,109.69
		c-2.52-3.96-8.21-10.27-8.21-10.27s2.56,8.1,4.69,12.28c2.14,4.18,3.08,3.81,4.42,4.99c1.34,1.18,2.12,2.71,2.12,2.71l0.15-0.08
		l0.15-0.08c0,0-0.92-1.45-1.26-3.2C235.32,114.28,236.13,113.65,233.61,109.69z"/>
	<path class="st48" d="M238.95,109.22c-0.22-4.69-2.02-12.99-2.02-12.99s-1.8,8.3-2.02,12.99c-0.22,4.69,0.79,4.84,1.36,6.52
		c0.57,1.69,0.5,3.4,0.5,3.4h0.17h0.17c0,0-0.08-1.72,0.5-3.4C238.16,114.06,239.17,113.91,238.95,109.22z"/>
	<path class="st48" d="M230.4,112.61c-3.43-2.38-10.27-5.6-10.27-5.6s4.89,5.77,8.08,8.46c3.19,2.69,3.84,2.06,5.34,2.57
		c1.5,0.51,2.67,1.49,2.67,1.49l0.09-0.12l0.09-0.12c0,0-1.25-0.87-2.14-2.19C233.39,115.79,233.83,114.99,230.4,112.61z"/>
	
		<linearGradient id="SVGID_00000038376313032616167960000007872070256015741373_" gradientUnits="userSpaceOnUse" x1="442.911" y1="109.4056" x2="454.4363" y2="109.4056" gradientTransform="matrix(-1 0 0 1 691.3591 0)">
		<stop  offset="0" style="stop-color:#19B6E0"/>
		<stop  offset="1" style="stop-color:#1E7CC7"/>
	</linearGradient>
	<path style="fill:url(#SVGID_00000038376313032616167960000007872070256015741373_);" d="M240.24,109.69
		c2.52-3.96,8.21-10.27,8.21-10.27s-2.56,8.1-4.69,12.28c-2.14,4.18-3.08,3.81-4.42,4.99c-1.34,1.18-2.12,2.71-2.12,2.71l-0.15-0.08
		l-0.15-0.08c0,0,0.92-1.45,1.26-3.2C238.52,114.28,237.72,113.65,240.24,109.69z"/>
	<path class="st48" d="M243.45,112.61c3.43-2.38,10.27-5.6,10.27-5.6s-4.89,5.77-8.08,8.46c-3.19,2.69-3.84,2.06-5.34,2.57
		c-1.5,0.51-2.67,1.49-2.67,1.49l-0.09-0.12l-0.09-0.12c0,0,1.25-0.87,2.14-2.19C240.46,115.79,240.02,114.99,243.45,112.61z"/>
	<rect x="233.97" y="119.15" class="st5" width="5.91" height="9.67"/>
	
		<linearGradient id="SVGID_00000006682427778652564530000013028918843215687084_" gradientUnits="userSpaceOnUse" x1="251.1383" y1="121.7858" x2="199.0122" y2="129.0501">
		<stop  offset="0" style="stop-color:#FFFFFF"/>
		<stop  offset="1" style="stop-color:#72C0FF"/>
	</linearGradient>
	
		<rect x="234.56" y="119.15" style="fill:url(#SVGID_00000006682427778652564530000013028918843215687084_);" width="1.57" height="9.67"/>
	<rect x="232.73" y="122.69" class="st6" width="8.38" height="0.73"/>
	<rect x="228.51" y="141.35" class="st6" width="16.82" height="0.73"/>
	<g>
		<path class="st6" d="M241.76,141.84c-0.05,0-0.1-0.03-0.12-0.08l-7.68-18.66c-0.03-0.06,0-0.14,0.07-0.16
			c0.06-0.03,0.14,0,0.16,0.07l7.68,18.66c0.03,0.06,0,0.14-0.07,0.16C241.79,141.84,241.78,141.84,241.76,141.84z"/>
	</g>
	<g>
		<path class="st6" d="M232.08,141.84c-0.02,0-0.03,0-0.05-0.01c-0.06-0.03-0.09-0.1-0.07-0.16l7.68-18.66
			c0.03-0.06,0.1-0.09,0.16-0.07c0.06,0.03,0.09,0.1,0.07,0.16l-7.68,18.66C232.18,141.81,232.13,141.84,232.08,141.84z"/>
	</g>
	<g>
		<path class="st6" d="M239.88,128.95h-5.91c-0.07,0-0.12-0.06-0.12-0.12v-5.76c0-0.07,0.06-0.12,0.12-0.12
			c0.07,0,0.12,0.06,0.12,0.12v5.64h5.66v-5.27c0-0.07,0.06-0.12,0.12-0.12c0.07,0,0.12,0.06,0.12,0.12v5.4
			C240,128.89,239.95,128.95,239.88,128.95z"/>
	</g>
</g>
<g>
	<path class="st5" d="M378.47,107.91h-25.66c-0.62,0-1.12-0.5-1.12-1.12V90.12c0-0.62,0.5-1.12,1.12-1.12h13.38h12.28
		c0.62,0,1.12,0.5,1.12,1.12v16.67C379.6,107.41,379.1,107.91,378.47,107.91z"/>
	<path class="st51" d="M375.41,110.22h-25.66c-0.62,0-1.12-0.5-1.12-1.12V92.43c0-0.62,0.5-1.12,1.12-1.12h13.38h12.28
		c0.62,0,1.12,0.5,1.12,1.12v16.67C376.54,109.72,376.03,110.22,375.41,110.22z"/>
	<polygon class="st5" points="331.89,105.83 332.86,106.8 330.29,109.37 331.51,110.59 334.08,108.02 335.05,108.99 337.64,103.24 	
		"/>
	<path class="st5" d="M372.35,112.54h-25.66c-0.62,0-1.12-0.5-1.12-1.12V94.75c0-0.62,0.5-1.12,1.12-1.12h13.38h12.28
		c0.62,0,1.12,0.5,1.12,1.12v16.67C373.47,112.03,372.97,112.54,372.35,112.54z"/>
	<path class="st7" d="M347.54,95.09c0-0.28-0.23-0.52-0.52-0.52c-0.28,0-0.52,0.23-0.52,0.52c0,0.28,0.23,0.52,0.52,0.52
		C347.31,95.6,347.54,95.37,347.54,95.09z"/>
	<path class="st7" d="M349.25,95.09c0-0.28-0.23-0.52-0.52-0.52c-0.28,0-0.52,0.23-0.52,0.52c0,0.28,0.23,0.52,0.52,0.52
		C349.02,95.6,349.25,95.37,349.25,95.09z"/>
	<path class="st7" d="M350.96,95.09c0-0.28-0.23-0.52-0.52-0.52c-0.28,0-0.52,0.23-0.52,0.52c0,0.28,0.23,0.52,0.52,0.52
		C350.73,95.6,350.96,95.37,350.96,95.09z"/>
	<path class="st32" d="M371.19,95.8h1.14c0.07,0,0.13-0.06,0.13-0.13v-1.14c0-0.07-0.06-0.13-0.13-0.13h-0.57h-0.57
		c-0.07,0-0.13,0.06-0.13,0.13v1.14C371.05,95.74,371.11,95.8,371.19,95.8z"/>
	<path class="st52" d="M355.55,108.13c-0.79-0.43-1.43-0.48-1.66-0.64c-0.23-0.15-0.08-0.82-0.08-0.82s1.3-0.66,1.4-1.38
		c0.1-0.71,0.12-0.97,0.12-0.97s0.08,0.36,0.59,0.31c0.51-0.05,0.68-1.2,0.38-1.5c-0.3-0.31-0.71,0.15-0.71,0.15
		s0.16-2.17-0.26-3.31c-0.43-1.15-2.44-1.24-2.44-1.24s-2.01,0.09-2.44,1.24c-0.43,1.15-0.26,3.31-0.26,3.31s-0.41-0.46-0.71-0.15
		c-0.3,0.31-0.13,1.45,0.38,1.5c0.51,0.05,0.59-0.31,0.59-0.31s0.02,0.25,0.12,0.97c0.1,0.71,1.4,1.38,1.4,1.38s0.15,0.66-0.08,0.82
		c-0.23,0.15-0.87,0.2-1.66,0.64c-0.79,0.43-0.76,0.97-0.76,0.97h3.41h3.41C356.31,109.1,356.34,108.57,355.55,108.13z"/>
	<g>
		<path class="st52" d="M357.43,111.16h-9.06c-0.75,0-1.36-0.61-1.36-1.36V98.34c0-0.75,0.61-1.36,1.36-1.36h9.06
			c0.75,0,1.36,0.61,1.36,1.36v11.47C358.79,110.55,358.18,111.16,357.43,111.16z M348.37,97.48c-0.47,0-0.86,0.39-0.86,0.86v11.47
			c0,0.47,0.39,0.86,0.86,0.86h9.06c0.47,0,0.86-0.39,0.86-0.86V98.34c0-0.47-0.39-0.86-0.86-0.86H348.37z"/>
	</g>
	<path class="st52" d="M362.38,111.16h-1.8c-0.25,0-0.45-0.21-0.45-0.47V97.45c0-0.26,0.2-0.47,0.45-0.47h1.8
		c0.25,0,0.45,0.21,0.45,0.47v6.63v6.63C362.83,110.95,362.63,111.16,362.38,111.16z"/>
	<rect x="363.88" y="96.98" class="st52" width="7.88" height="0.97"/>
	<rect x="363.88" y="98.91" class="st52" width="7.37" height="0.97"/>
	<rect x="363.88" y="100.85" class="st52" width="7.88" height="0.97"/>
	<rect x="363.88" y="102.79" class="st52" width="5.9" height="0.97"/>
	<rect x="363.88" y="104.73" class="st52" width="7.88" height="0.97"/>
	<rect x="363.88" y="106.66" class="st52" width="7.88" height="0.97"/>
	<rect x="363.88" y="108.62" class="st52" width="6.3" height="0.97"/>
</g>
<g>
	<path class="st5" d="M498.75,103.71h-0.18v-0.18h-35.99v0.18h-0.18v35.99h0.18v0.18h35.99v-0.18h0.18V103.71z M495.13,107.15v29.11
		h-29.11v-29.11H495.13z"/>
	<path class="st5" d="M492.99,134.06V109.2h-24.87v24.86H492.99z M480.56,110.9h0.02h1.74h3.8l-1.04,2.43h-4.5v-0.02l-0.02,0.02
		h-4.5l-1.04-2.43H480.56z"/>
</g>
<g>
	<path class="st5" d="M324.79,180.61l-0.48-3.03l2.39,0.3v4.32C326.7,182.2,325.06,181.44,324.79,180.61z"/>
	<path class="st6" d="M324.44,180.59l-0.99,1.2l5.52,4.56c0,0,1.03,0.26,0.27-1c-0.77-1.26-2.36-3.56-2.42-3.61
		c-0.06-0.05-1.11,0.44-2.02-1.11C324.71,180.49,324.53,180.47,324.44,180.59z"/>
	<path class="st5" d="M331.73,163.03l-0.48-3.03l2.39,0.3v4.32C333.63,164.62,331.99,163.85,331.73,163.03z"/>
	<path class="st6" d="M331.37,163l-0.99,1.2l5.52,4.56c0,0,1.03,0.26,0.27-1c-0.77-1.26-2.36-3.56-2.42-3.61
		c-0.06-0.05-1.11,0.44-2.02-1.11C331.65,162.91,331.47,162.89,331.37,163z"/>
	<polygon class="st53" points="318.4,131.28 309.4,132.99 308.58,128 317.81,129.63 	"/>
	<path class="st54" d="M317.81,129.63h6.29c0,0,1.93,0.96,2.13,1.29c0.2,0.33,0.62,1.53,0.62,1.73c0,0.2-0.34,0.24-0.59-0.27
		c-0.25-0.51-0.38-0.89-0.48-1.01c-0.1-0.12-1.25-0.76-1.25-0.76s0.72,0.81,0.75,1.01c0.03,0.2-0.35,1.39-0.53,1.39
		c-0.18,0-0.35-0.13-0.3-0.43c0.05-0.3,0.28-0.86,0.21-0.92c-0.07-0.07-0.58-0.68-0.58-0.68s0.46,0.64,0.45,0.74
		c-0.02,0.1-0.48,1.16-0.63,1.21c-0.15,0.05-0.28-0.33-0.21-0.68c0.07-0.35,0.25-0.45,0.2-0.59c-0.05-0.15-0.53-0.53-0.53-0.53
		s0.07,0.86,0.03,1.02c-0.03,0.17-0.54,0.48-0.84,0.63c-0.3,0.15-0.15-0.35,0.03-0.53c0.18-0.18,0.25-0.21,0.25-0.21l-0.13-0.71
		c0,0-1.06,0.03-2.13,0.08c-1.07,0.05-2.18-0.12-2.18-0.12L317.81,129.63z"/>
	
		<linearGradient id="SVGID_00000174580077511569619250000003293556491823679417_" gradientUnits="userSpaceOnUse" x1="349.449" y1="126.3924" x2="314.0474" y2="155.3214">
		<stop  offset="0" style="stop-color:#0C3D77"/>
		<stop  offset="1" style="stop-color:#092E59"/>
	</linearGradient>
	<path style="fill:url(#SVGID_00000174580077511569619250000003293556491823679417_);" d="M311.53,135.46h17.85
		c2.73,0,4.94,2.21,4.94,4.94v21.38h-3.25c0,0-2.1-9.31-2.3-12.68c-0.2-3.37,0.5-5.65,0-5.94c-0.5-0.3-16.31,0.59-16.31,0.59
		l-3.71-4.36C308.75,139.39,307.56,135.46,311.53,135.46z"/>
	<g>
		<path class="st16" d="M327.2,158.65c0-2.13-0.85-4.18-2.36-5.69l-13.74-13v-3.72c0,0-6,5.63-4.94,7.02
			c1.06,1.39,17.83,13.12,17.9,14.72c0.07,1.6-0.53,6.48,0,10.84c0.38,3.17,1.01,7.93,1.33,10.3h1.81V158.65z"/>
		<path class="st16" d="M324.07,157.98c-0.07-1.6-16.84-13.33-17.9-14.72c-1.06-1.39,4.94-7.02,4.94-7.02s-10.29,3.32-10.29,6.36
			c0,3.04,1.85,4.62,4.62,6.41c2.77,1.78,15.79,9.78,16.12,10.44c0.33,0.66-0.35,4.24-0.02,8.34c0.33,4.1,2.72,11.34,2.72,11.34
			h1.13c-0.31-2.37-0.94-7.13-1.33-10.3C323.54,164.46,324.13,159.57,324.07,157.98z"/>
		
			<linearGradient id="SVGID_00000022553314131455111880000015012471178166756265_" gradientUnits="userSpaceOnUse" x1="330.1661" y1="143.4136" x2="299.7841" y2="173.7956">
			<stop  offset="0" style="stop-color:#0C3D77"/>
			<stop  offset="1" style="stop-color:#092E59"/>
		</linearGradient>
		<path style="fill:url(#SVGID_00000022553314131455111880000015012471178166756265_);" d="M324.07,157.98
			c-0.07-1.6-16.84-13.33-17.9-14.72c-1.06-1.39,4.94-7.02,4.94-7.02s-10.29,3.32-10.29,6.36c0,3.04,1.85,4.62,4.62,6.41
			c2.77,1.78,15.79,9.78,16.12,10.44c0.33,0.66-0.35,4.24-0.02,8.34c0.33,4.1,2.72,11.34,2.72,11.34h1.13
			c-0.31-2.37-0.94-7.13-1.33-10.3C323.54,164.46,324.13,159.57,324.07,157.98z"/>
	</g>
	<path class="st48" d="M307.24,106.44c0,0,2.63,7.3,3.22,13.7c0.59,6.41,1.72,15.32,1.72,15.32l-12.75,9.25c0,0-0.79-16.61,0-25.18
		c0.79-8.57,3.17-13.09,3.17-13.09H307.24z"/>
	
		<linearGradient id="SVGID_00000183930529942353800310000002167912610877861034_" gradientUnits="userSpaceOnUse" x1="317.4643" y1="123.5587" x2="288.3369" y2="127.1254">
		<stop  offset="0" style="stop-color:#19B6E0"/>
		<stop  offset="1" style="stop-color:#1E7CC7"/>
	</linearGradient>
	<path style="fill:url(#SVGID_00000183930529942353800310000002167912610877861034_);" d="M304.58,106.44c0,0-2.12,6.44-1.99,13.9
		c0.14,7.46,0.5,21.71,0.5,21.71l-3.67,2.66c0,0-1.36-16.05-0.35-24.83c1.01-8.78,3.52-13.44,3.52-13.44H304.58z"/>
	<polygon class="st5" points="316.27,98.3 314.03,103.3 307.86,104.91 307.24,106.44 302.59,106.44 304.59,100.59 310.98,95.08 	"/>
	<polygon class="st6" points="317.48,133.91 332.05,133.91 336.92,121.24 336.06,121.24 331.43,132.84 317.65,132.84 	"/>
	<path class="st5" d="M316.1,125.03h6.29c0,0,1.93,0.96,2.13,1.29c0.2,0.33,0.62,1.53,0.62,1.73c0,0.2-0.34,0.24-0.59-0.27
		c-0.25-0.51-0.38-0.89-0.48-1.01c-0.1-0.12-1.25-0.76-1.25-0.76s0.72,0.81,0.75,1.01c0.03,0.2-0.35,1.39-0.53,1.39
		c-0.18,0-0.35-0.13-0.3-0.43c0.05-0.3,0.28-0.86,0.21-0.92c-0.07-0.07-0.58-0.68-0.58-0.68s0.46,0.64,0.45,0.74
		c-0.02,0.1-0.48,1.16-0.63,1.21c-0.15,0.05-0.28-0.33-0.21-0.68c0.07-0.35,0.25-0.45,0.2-0.59c-0.05-0.15-0.53-0.53-0.53-0.53
		s0.07,0.86,0.03,1.02c-0.03,0.17-0.54,0.48-0.84,0.63c-0.3,0.15-0.15-0.35,0.03-0.53c0.18-0.18,0.25-0.21,0.25-0.21l-0.13-0.71
		c0,0-1.06,0.03-2.13,0.08c-1.07,0.05-2.18-0.12-2.18-0.12L316.1,125.03z"/>
	<g>
		<path class="st58" d="M302.33,117.4c0,3.76,0,15.31,0,15.31s0.17,1.63,2.43,0.4c1.78-0.98,9.09-5.47,11.7-7.08l-0.36-1l-8.95,3.4
			v-11.66c0,0,0.13-4.23-2.67-4.23c-0.08,0-0.14,0-0.22,0.01C304.23,112.57,302.33,113.67,302.33,117.4z"/>
		<path class="st7" d="M300.48,117.8c0,3.9,0,16.25,0,16.25s-0.36,3.67,2.67,2.18c3.04-1.49,13.54-9.54,13.54-9.54l-0.23-0.65
			c-2.61,1.61-9.93,6.1-11.7,7.08c-2.25,1.24-2.43-0.4-2.43-0.4s0-11.54,0-15.31c0-3.73,1.9-4.83,1.93-4.85
			C301.61,112.62,300.48,114,300.48,117.8z"/>
		
			<linearGradient id="SVGID_00000066506596252910328690000002114995107761251238_" gradientUnits="userSpaceOnUse" x1="313.9062" y1="119.7404" x2="292.0445" y2="129.2512">
			<stop  offset="0" style="stop-color:#0496C7"/>
			<stop  offset="1" style="stop-color:#1E7CC7"/>
		</linearGradient>
		<path style="fill:url(#SVGID_00000066506596252910328690000002114995107761251238_);" d="M300.48,117.8c0,3.9,0,16.25,0,16.25
			s-0.36,3.67,2.67,2.18c3.04-1.49,13.54-9.54,13.54-9.54l-0.23-0.65c-2.61,1.61-9.93,6.1-11.7,7.08c-2.25,1.24-2.43-0.4-2.43-0.4
			s0-11.54,0-15.31c0-3.73,1.9-4.83,1.93-4.85C301.61,112.62,300.48,114,300.48,117.8z"/>
	</g>
	<g>
		<path class="st6" d="M303.72,130.04c-0.05,0-0.09-0.03-0.12-0.08c-0.03-0.06,0-0.14,0.07-0.17l3.36-1.45v-14.51
			c0-0.07,0.06-0.12,0.12-0.12c0.07,0,0.12,0.06,0.12,0.12v14.59c0,0.05-0.03,0.09-0.08,0.12l-3.43,1.48
			C303.75,130.03,303.73,130.04,303.72,130.04z"/>
	</g>
	<g>
		<path class="st6" d="M307.15,119.12c-0.01,0-0.02,0-0.03,0c-0.07-0.02-0.11-0.09-0.09-0.15l0.9-3.33
			c0.02-0.07,0.09-0.11,0.15-0.09c0.07,0.02,0.11,0.09,0.09,0.15l-0.9,3.33C307.26,119.09,307.21,119.12,307.15,119.12z"/>
	</g>
	<path class="st9" d="M312.8,101.78c0-0.56-0.45-1.01-1.01-1.01c-0.56,0-1.01,0.45-1.01,1.01c0,0.56,0.45,1.01,1.01,1.01
		C312.35,102.78,312.8,102.33,312.8,101.78z"/>
	<path class="st6" d="M316.27,98.3l-4.09-2.06c-0.77-0.39-1.71-0.07-2.09,0.7l-1.09,2.19c-0.26,0.52-0.07,1.15,0.43,1.45l4.6,2.72
		l-1.31,2.65c-0.43,0.87-1.47,1.23-2.34,0.81c-1.15-0.55-2.56-1.26-2.85-1.52c-0.49-0.46,0.11-3.22,0-3.63s-0.46-0.49-0.46-0.49
		s-0.68,1.58-1.69,1.61c-1.01,0.03-1.83-0.57-1.83-0.57l3.7-8.02c0.77-1.66,2.76-2.36,4.4-1.54l3.59,1.8
		c1.3,0.65,1.84,2.23,1.21,3.54L316.27,98.3z"/>
	<path class="st5" d="M314.72,101.78c0,0,0.73,0.48,0.58,0.99c-0.15,0.51-0.75,0.54-1.16,0.29
		C313.73,102.81,314.72,101.78,314.72,101.78z"/>
	<polygon class="st6" points="311.58,130.52 303.72,135.92 311.68,131.37 	"/>
</g>
<g>
	<path class="st6" d="M99.27,219.96c0,0-0.87-2.84-2.93-5.07c-2.07-2.24-5.94-4.86-5.94-4.86s0.69,2.68,2.48,5.08
		c1.79,2.4,6.4,5.2,6.4,5.2L99.27,219.96z"/>
	<path class="st6" d="M99.27,226.77c0,0-0.87-2.84-2.93-5.07c-2.07-2.24-5.94-4.86-5.94-4.86s0.69,2.68,2.48,5.08
		c1.79,2.4,6.4,5.2,6.4,5.2L99.27,226.77z"/>
	<path class="st6" d="M99.27,221.63c0,0,0.87-2.84,2.93-5.07c2.07-2.24,5.94-4.86,5.94-4.86s-0.69,2.68-2.48,5.08
		c-1.79,2.4-6.4,5.2-6.4,5.2L99.27,221.63z"/>
	<path class="st6" d="M99.27,230.97c0,0,0.87-2.84,2.93-5.07c2.07-2.24,5.94-4.86,5.94-4.86s-0.69,2.68-2.48,5.08
		c-1.79,2.4-6.4,5.2-6.4,5.2L99.27,230.97z"/>
	<polygon class="st9" points="99.14,231.32 99.14,251 94.39,251 90.98,231.32 	"/>
	<polygon class="st9" points="99.14,231.32 99.14,251 103.89,251 107.3,231.32 	"/>
	
		<linearGradient id="SVGID_00000098221864988755359220000000036327774387541161_" gradientUnits="userSpaceOnUse" x1="98.7139" y1="226.6707" x2="97.2634" y2="243.5428">
		<stop  offset="0" style="stop-color:#F7BA5F"/>
		<stop  offset="0.1878" style="stop-color:#F7B25F"/>
		<stop  offset="0.5905" style="stop-color:#F7A65F"/>
		<stop  offset="1" style="stop-color:#F7A25F"/>
	</linearGradient>
	<path style="fill:url(#SVGID_00000098221864988755359220000000036327774387541161_);" d="M95.06,231.32c0,0,0.67,15.26,1.34,16.82
		c0.67,1.55,7.62,2.1,7.62,2.1l-0.13,0.77h-9.51l-3.41-19.69H95.06z"/>
	<polygon class="st61" points="98.4,251 98.32,251 98.09,231.32 98.26,231.32 	"/>
	<polygon class="st61" points="96.99,251 96.91,251 95.81,231.32 95.98,231.32 	"/>
	<polygon class="st61" points="95.94,251 95.86,251 93.75,231.32 93.92,231.32 	"/>
	<polygon class="st61" points="94.9,251 94.81,251 91.7,231.32 91.86,231.32 	"/>
	<polygon class="st61" points="100.17,251 100.25,251 100.42,231.32 100.25,231.32 	"/>
	<polygon class="st61" points="101.29,251 101.37,251 102.46,231.32 102.3,231.32 	"/>
	<polygon class="st61" points="102.33,251 102.42,251 104.52,231.32 104.36,231.32 	"/>
	<polygon class="st61" points="103.38,251 103.47,251 106.58,231.32 106.42,231.32 	"/>
	<rect x="99.14" y="213.93" class="st3" width="0.27" height="17.38"/>
	<path class="st3" d="M99.15,216.95c0,0-1.79-2.36-4.5-3.75c-2.71-1.39-7.26-2.51-7.26-2.51s1.57,2.28,4.08,3.91
		c2.51,1.63,7.8,2.67,7.8,2.67L99.15,216.95z"/>
	<path class="st3" d="M99.15,223.48c0,0-1.79-2.36-4.5-3.75c-2.71-1.39-7.26-2.51-7.26-2.51s1.57,2.28,4.08,3.91
		c2.51,1.63,7.8,2.67,7.8,2.67L99.15,223.48z"/>
	<path class="st3" d="M99.15,230.01c0,0-1.79-2.36-4.5-3.75c-2.71-1.39-7.26-2.51-7.26-2.51s1.57,2.28,4.08,3.91
		c2.51,1.63,7.8,2.67,7.8,2.67L99.15,230.01z"/>
	<path class="st3" d="M99.39,216.95c0,0,1.79-2.36,4.5-3.75c2.71-1.39,7.26-2.51,7.26-2.51s-1.57,2.28-4.08,3.91
		c-2.51,1.63-7.8,2.67-7.8,2.67L99.39,216.95z"/>
	<path class="st3" d="M99.16,214.03c0,0-1.02-2.79-0.72-5.81c0.3-3.03,1.81-7.46,1.81-7.46s1.07,2.55,1.09,5.54
		c0.02,2.99-1.97,8.01-1.97,8.01L99.16,214.03z"/>
	<path class="st3" d="M99.39,223.48c0,0,1.79-2.36,4.5-3.75c2.71-1.39,7.26-2.51,7.26-2.51s-1.57,2.28-4.08,3.91
		c-2.51,1.63-7.8,2.67-7.8,2.67L99.39,223.48z"/>
	<path class="st3" d="M99.39,228.42c0,0,1.79-2.36,4.5-3.75s7.26-2.51,7.26-2.51s-1.57,2.28-4.08,3.91c-2.51,1.63-7.8,2.67-7.8,2.67
		L99.39,228.42z"/>
</g>
<g>
	<polygon class="st7" points="294.89,232.57 294.89,250.77 293.49,250.77 291.65,232.57 	"/>
	<polygon class="st3" points="294.89,251 292.26,251 291.48,250.22 292.44,250.22 292.74,250.52 294.89,250.52 	"/>
	<polygon class="st7" points="294.89,232.57 294.89,250.77 296.3,250.77 298.14,232.57 	"/>
	<polygon class="st3" points="294.89,251 297.53,251 298.31,250.22 297.35,250.22 297.05,250.52 294.89,250.52 	"/>
	
		<linearGradient id="SVGID_00000034054330981865659100000009729232760174957502_" gradientUnits="userSpaceOnUse" x1="297.2784" y1="241.1641" x2="287.161" y2="242.3337">
		<stop  offset="0" style="stop-color:#049EFF"/>
		<stop  offset="0.493" style="stop-color:#0484FF"/>
		<stop  offset="1" style="stop-color:#0465FF"/>
	</linearGradient>
	<polygon style="fill:url(#SVGID_00000034054330981865659100000009729232760174957502_);" points="293.58,232.57 294.43,248.87 
		296.49,248.87 296.32,250.52 293.47,250.52 291.65,232.57 	"/>
	<path class="st5" d="M294.89,185.01v39.35c0,0-9.01,0.35-11.64-5.03c-2.63-5.38,1.59-17.7,3.47-22.65
		C288.59,191.73,291.33,185.01,294.89,185.01z"/>
	<path class="st9" d="M294.89,185.01v47.56h-0.35C294.54,232.57,294.4,186.59,294.89,185.01z"/>
	<g>
		<path class="st9" d="M294.74,192.07c-0.02,0-0.04-0.01-0.06-0.03l-3.89-3.89c-0.03-0.03-0.03-0.09,0-0.12
			c0.03-0.03,0.09-0.03,0.12,0l3.89,3.89c0.03,0.03,0.03,0.09,0,0.12C294.79,192.06,294.77,192.07,294.74,192.07z"/>
	</g>
	<g>
		<path class="st9" d="M294.74,197.35c-0.02,0-0.04-0.01-0.06-0.03l-5.76-5.76c-0.03-0.03-0.03-0.09,0-0.12
			c0.03-0.03,0.09-0.03,0.12,0l5.76,5.76c0.03,0.03,0.03,0.09,0,0.12C294.79,197.34,294.77,197.35,294.74,197.35z"/>
	</g>
	<g>
		<path class="st9" d="M294.74,202.63c-0.02,0-0.04-0.01-0.06-0.03l-7.3-7.3c-0.03-0.03-0.03-0.09,0-0.12
			c0.03-0.03,0.09-0.03,0.12,0l7.3,7.3c0.03,0.03,0.03,0.09,0,0.12C294.79,202.62,294.77,202.63,294.74,202.63z"/>
	</g>
	<g>
		<path class="st9" d="M294.74,207.92c-0.02,0-0.04-0.01-0.06-0.03l-8.73-8.73c-0.03-0.03-0.03-0.09,0-0.12
			c0.03-0.03,0.09-0.03,0.12,0l8.73,8.73c0.03,0.03,0.03,0.09,0,0.12C294.79,207.91,294.77,207.92,294.74,207.92z"/>
	</g>
	<g>
		<path class="st9" d="M294.74,213.2c-0.02,0-0.04-0.01-0.06-0.03l-10.02-10.02c-0.03-0.03-0.03-0.09,0-0.12
			c0.03-0.03,0.09-0.03,0.12,0l10.02,10.02c0.03,0.03,0.03,0.09,0,0.12C294.79,213.19,294.77,213.2,294.74,213.2z"/>
	</g>
	<g>
		<path class="st9" d="M294.74,218.48c-0.02,0-0.04-0.01-0.06-0.03l-11.14-11.14c-0.03-0.03-0.03-0.09,0-0.12
			c0.03-0.03,0.09-0.03,0.12,0l11.14,11.14c0.03,0.03,0.03,0.09,0,0.12C294.79,218.47,294.77,218.48,294.74,218.48z"/>
	</g>
	<g>
		<path class="st9" d="M294.74,223.77c-0.02,0-0.04-0.01-0.06-0.03l-12.02-12.02c-0.03-0.03-0.03-0.09,0-0.12
			c0.03-0.03,0.09-0.03,0.12,0l12.02,12.02c0.03,0.03,0.03,0.09,0,0.12C294.79,223.76,294.77,223.77,294.74,223.77z"/>
	</g>
	<g>
		<path class="st9" d="M294.74,229.05c-0.02,0-0.04-0.01-0.06-0.03l-3.51-3.51c-0.03-0.03-0.03-0.09,0-0.12
			c0.03-0.03,0.09-0.03,0.12,0l3.51,3.51c0.03,0.03,0.03,0.09,0,0.12C294.79,229.04,294.77,229.05,294.74,229.05z"/>
	</g>
	<g>
		<path class="st9" d="M295.04,229.05c-0.02,0-0.04-0.01-0.06-0.03c-0.03-0.03-0.03-0.09,0-0.12l3.51-3.51
			c0.03-0.03,0.09-0.03,0.12,0c0.03,0.03,0.03,0.09,0,0.12l-3.51,3.51C295.09,229.04,295.07,229.05,295.04,229.05z"/>
	</g>
	<g>
		<path class="st9" d="M289.32,223.63c-0.02,0-0.04-0.01-0.06-0.03l-6.69-6.69c-0.03-0.03-0.03-0.09,0-0.12
			c0.03-0.03,0.09-0.03,0.12,0l6.69,6.69c0.03,0.03,0.03,0.09,0,0.12C289.37,223.62,289.35,223.63,289.32,223.63z"/>
	</g>
	<path class="st5" d="M294.89,185.01v39.35c0,0,9.01,0.35,11.64-5.03c2.63-5.38-1.59-17.7-3.47-22.65
		C301.2,191.73,298.46,185.01,294.89,185.01z"/>
	<g>
		<path class="st9" d="M295.04,192.07c-0.02,0-0.04-0.01-0.06-0.03c-0.03-0.03-0.03-0.09,0-0.12l3.89-3.89
			c0.03-0.03,0.09-0.03,0.12,0c0.03,0.03,0.03,0.09,0,0.12l-3.89,3.89C295.09,192.06,295.07,192.07,295.04,192.07z"/>
	</g>
	<g>
		<path class="st9" d="M295.04,197.35c-0.02,0-0.04-0.01-0.06-0.03c-0.03-0.03-0.03-0.09,0-0.12l5.76-5.76
			c0.03-0.03,0.09-0.03,0.12,0s0.03,0.09,0,0.12l-5.76,5.76C295.09,197.34,295.07,197.35,295.04,197.35z"/>
	</g>
	<g>
		<path class="st9" d="M295.04,202.63c-0.02,0-0.04-0.01-0.06-0.03c-0.03-0.03-0.03-0.09,0-0.12l7.3-7.3c0.03-0.03,0.09-0.03,0.12,0
			c0.03,0.03,0.03,0.09,0,0.12l-7.3,7.3C295.09,202.62,295.07,202.63,295.04,202.63z"/>
	</g>
	<g>
		<path class="st9" d="M295.04,207.92c-0.02,0-0.04-0.01-0.06-0.03c-0.03-0.03-0.03-0.09,0-0.12l8.73-8.73
			c0.03-0.03,0.09-0.03,0.12,0c0.03,0.03,0.03,0.09,0,0.12l-8.73,8.73C295.09,207.91,295.07,207.92,295.04,207.92z"/>
	</g>
	<g>
		<path class="st9" d="M295.04,213.2c-0.02,0-0.04-0.01-0.06-0.03c-0.03-0.03-0.03-0.09,0-0.12l10.02-10.02
			c0.03-0.03,0.09-0.03,0.12,0c0.03,0.03,0.03,0.09,0,0.12l-10.02,10.02C295.09,213.19,295.07,213.2,295.04,213.2z"/>
	</g>
	<g>
		<path class="st9" d="M295.04,218.48c-0.02,0-0.04-0.01-0.06-0.03c-0.03-0.03-0.03-0.09,0-0.12l11.14-11.14
			c0.03-0.03,0.09-0.03,0.12,0c0.03,0.03,0.03,0.09,0,0.12l-11.14,11.14C295.09,218.47,295.07,218.48,295.04,218.48z"/>
	</g>
	<g>
		<path class="st9" d="M295.04,223.77c-0.02,0-0.04-0.01-0.06-0.03c-0.03-0.03-0.03-0.09,0-0.12L307,211.6
			c0.03-0.03,0.09-0.03,0.12,0c0.03,0.03,0.03,0.09,0,0.12l-12.02,12.02C295.09,223.76,295.07,223.77,295.04,223.77z"/>
	</g>
	<g>
		<path class="st9" d="M300.46,223.63c-0.02,0-0.04-0.01-0.06-0.03c-0.03-0.03-0.03-0.09,0-0.12l6.69-6.69
			c0.03-0.03,0.09-0.03,0.12,0c0.03,0.03,0.03,0.09,0,0.12l-6.69,6.69C300.51,223.62,300.49,223.63,300.46,223.63z"/>
	</g>
	<path class="st9" d="M294.89,185.01v47.56h0.35C295.24,232.57,295.39,186.59,294.89,185.01z"/>
</g>
</svg>
