<svg xmlns="http://www.w3.org/2000/svg" width="110.029" height="110.044" viewBox="0 0 110.029 110.044">
  <g id="Group_20" data-name="Group 20" transform="translate(-41.488 -41.217)">
    <text id="_." data-name="." transform="translate(138.766 120.861) rotate(121.756)" fill="#ddff07" font-size="6" font-family="SegoeUI, Segoe UI"><tspan x="0" y="0">.</tspan></text>
    <text id="_.-2" data-name="." transform="matrix(-0.576, 0.818, -0.818, -0.576, 137.234, 123.324)" fill="#ddff07" font-size="6" font-family="SegoeUI, Segoe UI"><tspan x="0" y="0">.</tspan></text>
    <text id="_.-3" data-name="." transform="translate(135.555 125.694) rotate(128.568)" fill="#ddff07" font-size="6" font-family="SegoeUI, Segoe UI"><tspan x="0" y="0">.</tspan></text>
    <text id="_" data-name=" " transform="translate(130.769 125.28) rotate(131.872)" fill="#ddff07" font-size="9" font-family="SegoeUI, Segoe UI"><tspan x="0" y="0"> </tspan></text>
    <text id="S" transform="translate(129.773 128.055) rotate(137.97)" fill="#ddff07" font-size="8" font-family="SegoeUI, Segoe UI"><tspan x="0" y="0">S</tspan></text>
    <text id="C" transform="translate(124.324 132.96) rotate(147.327)" fill="#ddff07" font-size="8" font-family="SegoeUI, Segoe UI"><tspan x="0" y="0">C</tspan></text>
    <text id="R" transform="matrix(-0.922, 0.387, -0.387, -0.922, 117.406, 136.21)" fill="#ddff07" font-size="9" font-family="SegoeUI, Segoe UI"><tspan x="0" y="0">R</tspan></text>
    <text id="O" transform="translate(110.229 139.256) rotate(167.664)" fill="#ddff07" font-size="9" font-family="SegoeUI, Segoe UI"><tspan x="0" y="0">O</tspan></text>
    <text id="L" transform="translate(101.773 141) rotate(177.202)" fill="#ddff07" font-size="9" font-family="SegoeUI, Segoe UI"><tspan x="0" y="0">L</tspan></text>
    <text id="L-2" data-name="L" transform="translate(95.369 141.305) rotate(-174.683)" fill="#ddff07" font-size="9" font-family="SegoeUI, Segoe UI"><tspan x="0" y="0">L</tspan></text>
    <text id="_2" data-name=" " transform="translate(89.34 140.667) rotate(-169.344)" fill="#ddff07" font-size="9" font-family="SegoeUI, Segoe UI"><tspan x="0" y="0"> </tspan></text>
    <text id="_.-4" data-name="." transform="translate(85.864 144.079) rotate(-166.024)" fill="#ddff07" font-size="6" font-family="SegoeUI, Segoe UI"><tspan x="0" y="0">.</tspan></text>
    <text id="_.-5" data-name="." transform="translate(83.05 143.371) rotate(-162.622)" fill="#ddff07" font-size="6" font-family="SegoeUI, Segoe UI"><tspan x="0" y="0">.</tspan></text>
    <text id="_.-6" data-name="." transform="translate(80.288 142.501) rotate(-159.219)" fill="#ddff07" font-size="6" font-family="SegoeUI, Segoe UI"><tspan x="0" y="0">.</tspan></text>
    <text id="_3" data-name=" " transform="matrix(-0.913, -0.409, 0.409, -0.913, 79.209, 137.811)" fill="#ddff07" font-size="9" font-family="SegoeUI, Segoe UI"><tspan x="0" y="0"> </tspan></text>
    <text id="S-2" data-name="S" transform="translate(76.266 137.713) rotate(-149.629)" fill="#ddff07" font-size="8" font-family="SegoeUI, Segoe UI"><tspan x="0" y="0">S</tspan></text>
    <text id="C-2" data-name="C" transform="translate(69.925 133.986) rotate(-140.211)" fill="#ddff07" font-size="8" font-family="SegoeUI, Segoe UI"><tspan x="0" y="0">C</tspan></text>
    <text id="R-2" data-name="R" transform="matrix(-0.65, -0.76, 0.76, -0.65, 64.758, 128.384)" fill="#ddff07" font-size="9" font-family="SegoeUI, Segoe UI"><tspan x="0" y="0">R</tspan></text>
    <text id="O-2" data-name="O" transform="matrix(-0.501, -0.865, 0.865, -0.501, 59.656, 122.467)" fill="#ddff07" font-size="9" font-family="SegoeUI, Segoe UI"><tspan x="0" y="0">O</tspan></text>
    <text id="L-3" data-name="L" transform="translate(55.422 114.953) rotate(-110.45)" fill="#ddff07" font-size="9" font-family="SegoeUI, Segoe UI"><tspan x="0" y="0">L</tspan></text>
    <text id="L-4" data-name="L" transform="translate(53.19 108.941) rotate(-102.27)" fill="#ddff07" font-size="9" font-family="SegoeUI, Segoe UI"><tspan x="0" y="0">L</tspan></text>
    <text id="_4" data-name=" " transform="matrix(-0.121, -0.993, 0.993, -0.121, 51.975, 102.997)" fill="#ddff07" font-size="9" font-family="SegoeUI, Segoe UI"><tspan x="0" y="0"> </tspan></text>
    <text id="_.-7" data-name="." transform="translate(47.674 100.726) rotate(-93.629)" fill="#ddff07" font-size="6" font-family="SegoeUI, Segoe UI"><tspan x="0" y="0">.</tspan></text>
    <text id="_.-8" data-name="." transform="translate(47.497 97.834) rotate(-90.255)" fill="#ddff07" font-size="6" font-family="SegoeUI, Segoe UI"><tspan x="0" y="0">.</tspan></text>
    <text id="_.-9" data-name="." transform="translate(47.491 94.918) rotate(-86.861)" fill="#ddff07" font-size="6" font-family="SegoeUI, Segoe UI"><tspan x="0" y="0">.</tspan></text>
    <text id="_5" data-name=" " transform="translate(51.631 92.492) rotate(-83.569)" fill="#ddff07" font-size="9" font-family="SegoeUI, Segoe UI"><tspan x="0" y="0"> </tspan></text>
    <text id="S-3" data-name="S" transform="translate(50.832 89.645) rotate(-77.383)" fill="#ddff07" font-size="8" font-family="SegoeUI, Segoe UI"><tspan x="0" y="0">S</tspan></text>
    <text id="C-3" data-name="C" transform="translate(52.445 82.472) rotate(-67.971)" fill="#ddff07" font-size="8" font-family="SegoeUI, Segoe UI"><tspan x="0" y="0">C</tspan></text>
    <text id="R-3" data-name="R" transform="translate(56.2 75.85) rotate(-58.11)" fill="#ddff07" font-size="9" font-family="SegoeUI, Segoe UI"><tspan x="0" y="0">R</tspan></text>
    <text id="O-3" data-name="O" transform="matrix(0.673, -0.739, 0.739, 0.673, 60.309, 69.196)" fill="#ddff07" font-size="9" font-family="SegoeUI, Segoe UI"><tspan x="0" y="0">O</tspan></text>
    <text id="L-5" data-name="L" transform="matrix(0.786, -0.619, 0.619, 0.786, 66.187, 62.888)" fill="#ddff07" font-size="9" font-family="SegoeUI, Segoe UI"><tspan x="0" y="0">L</tspan></text>
    <text id="L-6" data-name="L" transform="matrix(0.866, -0.5, 0.5, 0.866, 71.241, 58.917)" fill="#ddff07" font-size="9" font-family="SegoeUI, Segoe UI"><tspan x="0" y="0">L</tspan></text>
    <text id="_6" data-name=" " transform="matrix(0.909, -0.417, 0.417, 0.909, 76.507, 55.963)" fill="#ddff07" font-size="9" font-family="SegoeUI, Segoe UI"><tspan x="0" y="0"> </tspan></text>
    <text id="_.-10" data-name="." transform="translate(77.388 51.162) rotate(-21.284)" fill="#ddff07" font-size="6" font-family="SegoeUI, Segoe UI"><tspan x="0" y="0">.</tspan></text>
    <text id="_.-11" data-name="." transform="translate(80.09 50.117) rotate(-17.878)" fill="#ddff07" font-size="6" font-family="SegoeUI, Segoe UI"><tspan x="0" y="0">.</tspan></text>
    <text id="_.-12" data-name="." transform="matrix(0.968, -0.25, 0.25, 0.968, 82.857, 49.231)" fill="#ddff07" font-size="6" font-family="SegoeUI, Segoe UI"><tspan x="0" y="0">.</tspan></text>
    <text id="_7" data-name=" " transform="matrix(0.981, -0.193, 0.193, 0.981, 86.432, 52.441)" fill="#ddff07" font-size="9" font-family="SegoeUI, Segoe UI"><tspan x="0" y="0"> </tspan></text>
    <text id="S-4" data-name="S" transform="translate(88.901 50.82) rotate(-4.976)" fill="#ddff07" font-size="8" font-family="SegoeUI, Segoe UI"><tspan x="0" y="0">S</tspan></text>
    <text id="C-4" data-name="C" transform="translate(96.205 50.191) rotate(4.334)" fill="#ddff07" font-size="8" font-family="SegoeUI, Segoe UI"><tspan x="0" y="0">C</tspan></text>
    <text id="R-4" data-name="R" transform="translate(103.68 51.758) rotate(14.127)" fill="#ddff07" font-size="9" font-family="SegoeUI, Segoe UI"><tspan x="0" y="0">R</tspan></text>
    <text id="O-4" data-name="O" transform="translate(111.249 53.631) rotate(24.581)" fill="#ddff07" font-size="9" font-family="SegoeUI, Segoe UI"><tspan x="0" y="0">O</tspan></text>
    <text id="L-7" data-name="L" transform="translate(119.071 57.324) rotate(34.243)" fill="#ddff07" font-size="9" font-family="SegoeUI, Segoe UI"><tspan x="0" y="0">L</tspan></text>
    <text id="L-8" data-name="L" transform="translate(124.356 60.932) rotate(42.37)" fill="#ddff07" font-size="9" font-family="SegoeUI, Segoe UI"><tspan x="0" y="0">L</tspan></text>
    <text id="_8" data-name=" " transform="matrix(0.674, 0.739, -0.739, 0.674, 128.791, 65.079)" fill="#ddff07" font-size="9" font-family="SegoeUI, Segoe UI"><tspan x="0" y="0"> </tspan></text>
    <text id="_.-13" data-name="." transform="translate(133.609 64.434) rotate(50.935)" fill="#ddff07" font-size="6" font-family="SegoeUI, Segoe UI"><tspan x="0" y="0">.</tspan></text>
    <text id="_.-14" data-name="." transform="matrix(0.583, 0.813, -0.813, 0.583, 135.438, 66.697)" fill="#ddff07" font-size="6" font-family="SegoeUI, Segoe UI"><tspan x="0" y="0">.</tspan></text>
    <text id="_.-15" data-name="." transform="translate(137.124 69.06) rotate(57.752)" fill="#ddff07" font-size="6" font-family="SegoeUI, Segoe UI"><tspan x="0" y="0">.</tspan></text>
    <text id="S-5" data-name="S" transform="translate(136.193 72.997) rotate(64.049)" fill="#ddff07" font-size="8" font-family="SegoeUI, Segoe UI"><tspan x="0" y="0">S</tspan></text>
    <text id="C-5" data-name="C" transform="translate(139.404 79.614) rotate(73.491)" fill="#ddff07" font-size="8" font-family="SegoeUI, Segoe UI"><tspan x="0" y="0">C</tspan></text>
    <text id="R-5" data-name="R" transform="translate(140.593 87.135) rotate(83.27)" fill="#ddff07" font-size="9" font-family="SegoeUI, Segoe UI"><tspan x="0" y="0">R</tspan></text>
    <text id="O-5" data-name="O" transform="matrix(-0.064, 0.998, -0.998, -0.064, 141.537, 94.897)" fill="#ddff07" font-size="9" font-family="SegoeUI, Segoe UI"><tspan x="0" y="0">O</tspan></text>
    <text id="L-9" data-name="L" transform="translate(140.885 103.511) rotate(103.199)" fill="#ddff07" font-size="9" font-family="SegoeUI, Segoe UI"><tspan x="0" y="0">L</tspan></text>
    <text id="L-10" data-name="L" transform="translate(139.417 109.743) rotate(111.372)" fill="#ddff07" font-size="9" font-family="SegoeUI, Segoe UI"><tspan x="0" y="0">L</tspan></text>
    <text id="_9" data-name=" " transform="translate(137.136 115.362) rotate(116.769)" fill="#ddff07" font-size="9" font-family="SegoeUI, Segoe UI"><tspan x="0" y="0"> </tspan></text>
  </g>
</svg>
