<svg xmlns="http://www.w3.org/2000/svg" width="189.701" height="51.596" viewBox="0 0 189.701 51.596">
  <g id="Group_120" data-name="Group 120" transform="translate(-207.546 -43.404)">
    <path id="Path_8" data-name="Path 8" d="M10.539,208.357l8.043,5.822h41.4l-8.066-5.839Z" transform="translate(197.007 -121.356)" fill="#ddff07"/>
    <g id="Group_42" data-name="Group 42" transform="translate(207.546 43.404)">
      <g id="Group_44" data-name="Group 44">
        <path id="Path_9" data-name="Path 9" d="M51.749,208.124h-41.4a2.179,2.179,0,0,1-1.277-.413l-8.043-5.822A2.177,2.177,0,0,1,2.3,197.947l41.378-.017h0a2.179,2.179,0,0,1,1.277.413l8.066,5.839a2.177,2.177,0,0,1-1.277,3.941m-40.7-4.355H45.027l-2.049-1.484L9.023,202.3Z" transform="translate(-0.101 -156.528)" fill="#ddff07"/>
        <rect id="Rectangle_37" data-name="Rectangle 37" width="4.355" height="6.732" transform="translate(50.235 32.452) rotate(-89.863)" fill="#ddff07"/>
        <path id="Path_10" data-name="Path 10" d="M30.778,116.819H2.183A2.177,2.177,0,0,1,0,114.642v-22.6a2.178,2.178,0,0,1,2.178-2.178H31.039a2.178,2.178,0,0,1,2.177,2.178v22.6a2.177,2.177,0,0,1-2.172,2.177ZM4.36,112.464h24.5V94.217H4.36Z" transform="translate(-0.004 -71.064)" fill="#ddff07"/>
        <path id="Path_11" data-name="Path 11" d="M208.173,51.6a2.177,2.177,0,0,1-1.277-.414l-8.07-5.841a2.178,2.178,0,0,1-.9-1.764V2.183a2.177,2.177,0,0,1,3.459-1.76l13.394,9.752a2.177,2.177,0,0,1,.9,1.76V30.3a2.177,2.177,0,0,1-3.454,1.764l-1.87-1.353V49.422a2.178,2.178,0,0,1-2.177,2.178M202.28,42.47,206,45.158V26.445a2.178,2.178,0,0,1,3.454-1.764l1.87,1.353V13.043L202.28,6.462Z" transform="translate(-156.524 -0.004)" fill="#ddff07"/>
        <path id="Path_12" data-name="Path 12" d="M21.414,23.151H2.179A2.178,2.178,0,0,1,0,20.974V2.178A2.178,2.178,0,0,1,2.177,0L21.432,0a2.178,2.178,0,0,1,2.178,2.18l-.018,18.8a2.177,2.177,0,0,1-2.178,2.175M4.356,18.8H19.238l.014-14.442H4.355Z" transform="translate(0 0.001)" fill="#ddff07"/>
        <path id="Path_13" data-name="Path 13" d="M116.306,45.76H103.762a2.177,2.177,0,0,1-2.178-2.178V23.158H94.141a2.177,2.177,0,0,1-2.177-2.18l.018-18.8A2.177,2.177,0,0,1,94.16.006h22.146a2.178,2.178,0,0,1,2.177,2.178v41.4a2.177,2.177,0,0,1-2.177,2.177M105.939,41.4h8.189V4.361H96.335L96.321,18.8h7.441a2.177,2.177,0,0,1,2.177,2.178Z" transform="translate(-72.727 -0.005)" fill="#ddff07"/>
        <rect id="Rectangle_38" data-name="Rectangle 38" width="4.35" height="23.454" transform="translate(75.727 28.11)" fill="#ddff07"/>
        <rect id="Rectangle_39" data-name="Rectangle 39" width="22.831" height="4.35" transform="translate(67.947 28.109)" fill="#ddff07"/>
        <path id="Path_14" data-name="Path 14" d="M663.442,134.384v9.029a5.712,5.712,0,0,0-2.565-1.992,6.427,6.427,0,0,0-2.388-.5,9.922,9.922,0,0,0-3.318.5A7.984,7.984,0,0,0,652.3,143.1c-5.1,4.808-2.161,14.735,6.082,14.735,3.432,0,5.039-1.693,5.056-3.17v3.17H667.8V134.384Zm-1.779,18.8c-4.908,3.834-10.882-3.27-6.6-7.414,5.153-4.515,11.555,3.1,6.6,7.414" transform="translate(-513.863 -106.274)" fill="#ddff07"/>
        <path id="Path_15" data-name="Path 15" d="M565.617,165.653v2.605c1.7-1.653,3.073-2.605,4.994-2.605a6.521,6.521,0,0,1,5.01,2.16,8.443,8.443,0,0,1,1.99,5.946v8.807h-4.349v-8.773c0-1.294-.741-4.412-3.722-4.424-3.34-.006-3.916,3.455-3.916,4.754v8.442h-4.361V165.653Z" transform="translate(-443.86 -131.002)" fill="#ddff07"/>
        <path id="Path_16" data-name="Path 16" d="M477.463,175.863c.127,1.05,1.5,3.009,4.645,2.977a5.451,5.451,0,0,0,4.169-1.541l2.466,2.58a7.449,7.449,0,0,1-3,1.994,10.46,10.46,0,0,1-3.7.687,8.38,8.38,0,0,1-6.272-2.4,8.236,8.236,0,0,1-2.291-5.875,8.751,8.751,0,0,1,2.259-6.233,7.853,7.853,0,0,1,6.018-2.412,7.5,7.5,0,0,1,6.161,2.629,9.1,9.1,0,0,1,1.782,5.862c0,.55,0,1.122,0,1.728Zm8.467-3.384a3.373,3.373,0,0,0-1.263-2.4,4.455,4.455,0,0,0-2.781-.821,4.709,4.709,0,0,0-2.78.821,4.047,4.047,0,0,0-1.58,2.4Z" transform="translate(-374.441 -130.995)" fill="#ddff07"/>
        <path id="Path_17" data-name="Path 17" d="M340.974,11.89c2.034-.916,3.768-1.875,3.764-4.926C344.732.156,338.382.173,335.944.173H324.826V23.618h11.121c5.852,0,8.761-2.3,8.781-6.9a4.785,4.785,0,0,0-3.754-4.825m-1.344,6.637a2.479,2.479,0,0,1-1.761.731h-8.62a.068.068,0,0,1-.067-.071V14.341a.068.068,0,0,1,.067-.071h8.62a2.493,2.493,0,0,1,1.761,4.256m.731-11.3a2.692,2.692,0,0,1-2.69,2.69h-8.488V4.53h8.488a2.691,2.691,0,0,1,2.69,2.69Z" transform="translate(-256.88 -0.137)" fill="#ddff07"/>
        <path id="Path_18" data-name="Path 18" d="M676.331,31.39v2.49a5.713,5.713,0,0,0-2.565-1.992,6.428,6.428,0,0,0-2.388-.5,9.921,9.921,0,0,0-3.318.5,7.984,7.984,0,0,0-2.867,1.682c-5.1,4.808-2.161,14.735,6.082,14.735,3.432,0,5.039-1.693,5.057-3.17V48.3h4.355V31.39Zm-1.779,12.262c-4.908,3.834-10.882-3.27-6.6-7.414,5.153-4.515,11.555,3.1,6.6,7.414" transform="translate(-524.056 -24.824)" fill="#ddff07"/>
        <path id="Path_19" data-name="Path 19" d="M767.123,31.4v2.605c1.7-1.653,3.073-2.605,4.994-2.605a6.521,6.521,0,0,1,5.01,2.16,8.442,8.442,0,0,1,1.99,5.946v8.807h-4.349V39.541c0-1.294-.741-4.412-3.722-4.424-3.34-.006-3.916,3.455-3.916,4.754v8.442h-4.361V31.4Z" transform="translate(-603.216 -24.833)" fill="#ddff07"/>
        <path id="Path_20" data-name="Path 20" d="M854.706,31.143a9.39,9.39,0,0,1-3.38.707,5.643,5.643,0,0,1-4.338-1.459,6.18,6.18,0,0,1-1.727-4.572v-5.7H840.9V14.943h4.357V10.59h4.361v4.353h5.087v5.176h-5.1v5.7a1.939,1.939,0,0,0,.587,1.546,1.717,1.717,0,0,0,1.4.6,4.384,4.384,0,0,0,1.978-.5Z" transform="translate(-665.008 -8.375)" fill="#ddff07"/>
        <rect id="Rectangle_40" data-name="Rectangle 40" width="4.356" height="16.914" transform="translate(105.969 6.566)" fill="#ddff07"/>
        <rect id="Rectangle_41" data-name="Rectangle 41" width="4.35" height="23.442" transform="translate(114.678 0.038)" fill="#ddff07"/>
        <rect id="Rectangle_42" data-name="Rectangle 42" width="4.34" height="23.442" transform="translate(123.386 0.038)" fill="#ddff07"/>
        <rect id="Rectangle_43" data-name="Rectangle 43" width="4.355" height="16.914" transform="translate(132.079 6.566)" fill="#ddff07"/>
        <path id="Path_21" data-name="Path 21" d="M635.795,2.353A2.174,2.174,0,1,1,633.62.179a2.174,2.174,0,0,1,2.174,2.174" transform="translate(-499.363 -0.142)" fill="#ddff07"/>
        <path id="Path_22" data-name="Path 22" d="M510.984,2.353A2.174,2.174,0,1,1,508.809.179a2.174,2.174,0,0,1,2.174,2.174" transform="translate(-400.659 -0.142)" fill="#ddff07"/>
        <path id="Path_23" data-name="Path 23" d="M438.387,31.39v2.339a4.949,4.949,0,0,1,4.39-2.344,5.873,5.873,0,0,1,4.255,1.574l-1.842,3.611a4.5,4.5,0,0,0-2.949-1.131,4.327,4.327,0,0,0-2.949,1.023c-.781.68-.9,1.735-.9,3.164V48.3h-4.354V31.39Z" transform="translate(-343.244 -24.82)" fill="#ddff07"/>
        <path id="Path_24" data-name="Path 24" d="M417.5,165.65v2.339a4.949,4.949,0,0,1,4.39-2.344,5.873,5.873,0,0,1,4.255,1.574l-1.842,3.611a4.5,4.5,0,0,0-2.949-1.131,4.327,4.327,0,0,0-2.949,1.023c-.781.68-.9,1.735-.9,3.164v8.673h-4.354V165.65Z" transform="translate(-326.728 -130.996)" fill="#ddff07"/>
        <path id="Path_25" data-name="Path 25" d="M767.669,168.368h-3.143l-.515,1.144h-1.228l2.7-6.069h1.236l2.7,6.069h-1.236Zm-1.571-3.651-1.116,2.584h2.233Z" transform="translate(-603.228 -129.255)" fill="#ddff07"/>
        <path id="Path_26" data-name="Path 26" d="M799.021,163.481v6.061h-.979l-.069-.589a1.5,1.5,0,0,1-1.365.685,2.145,2.145,0,0,1-1.567-.6,2.539,2.539,0,0,1-.017-3.291,2.14,2.14,0,0,1,1.558-.581,1.989,1.989,0,0,1,.794.187,1.2,1.2,0,0,1,.6.5v-2.367Zm-3.2,3.013a1.36,1.36,0,0,0,0,1.812,1.154,1.154,0,0,0,.854.351,1.253,1.253,0,0,0,0-2.506,1.166,1.166,0,0,0-.858.342" transform="translate(-628.253 -129.285)" fill="#ddff07"/>
        <path id="Path_27" data-name="Path 27" d="M823.266,171.98l-1.8,4.3H820.33l-1.812-4.3h1.142l.584,1.413.652,1.8.644-1.786.584-1.431Z" transform="translate(-647.304 -136.006)" fill="#ddff07"/>
        <path id="Path_28" data-name="Path 28" d="M767.669,210.384h-3.143l-.515,1.144h-1.228l2.7-6.069h1.236l2.7,6.069h-1.236Zm-1.571-3.651-1.116,2.584h2.233Z" transform="translate(-603.228 -162.482)" fill="#ddff07"/>
        <path id="Path_29" data-name="Path 29" d="M798.266,211.84l.773.589-.532.625a1.959,1.959,0,0,1,.489,1.275,1.653,1.653,0,0,1-1.047,1.6A1.4,1.4,0,0,1,799,217.32a1.523,1.523,0,0,1-.348,1,2.011,2.011,0,0,1-.859.612,3.127,3.127,0,0,1-1.1.191,2.541,2.541,0,0,1-1.709-.524,1.714,1.714,0,0,1-.575-1.444h1.039a.731.731,0,0,0,.343.681,1.594,1.594,0,0,0,.9.264,1.729,1.729,0,0,0,.85-.2.633.633,0,0,0,.369-.577.721.721,0,0,0-.309-.615,1.5,1.5,0,0,0-.893-.226,2.4,2.4,0,0,1-1.688-.577,2.026,2.026,0,0,1-.631-1.574,1.969,1.969,0,0,1,.683-1.6,2.462,2.462,0,0,1,1.636-.572,1.918,1.918,0,0,1,1.09.268Zm-2.473,1.609a1.093,1.093,0,0,0-.361.88,1.081,1.081,0,0,0,.369.858,1.328,1.328,0,0,0,.9.32,1.28,1.28,0,0,0,.889-.32,1.1,1.1,0,0,0,.356-.858,1.113,1.113,0,0,0-.356-.863,1.271,1.271,0,0,0-.889-.325,1.353,1.353,0,0,0-.911.308" transform="translate(-628.219 -167.528)" fill="#ddff07"/>
        <path id="Path_30" data-name="Path 30" d="M819.681,216.061a.943.943,0,0,0,.387.659,1.419,1.419,0,0,0,.876.252,2.007,2.007,0,0,0,.635-.108,1.178,1.178,0,0,0,.5-.291l.67.668a2.032,2.032,0,0,1-.816.516,2.974,2.974,0,0,1-1,.178,2.31,2.31,0,0,1-1.7-.62,2.241,2.241,0,0,1-.623-1.661,2.125,2.125,0,0,1,2.25-2.237,2.084,2.084,0,0,1,1.675.681,2.551,2.551,0,0,1,.464,1.964Zm2.3-.875a.862.862,0,0,0-.343-.62,1.254,1.254,0,0,0-.756-.212,1.33,1.33,0,0,0-.756.212,1.049,1.049,0,0,0-.429.62Z" transform="translate(-647.368 -168.775)" fill="#ddff07"/>
        <path id="Path_31" data-name="Path 31" d="M845.752,218.049v-2.237a1.248,1.248,0,0,0-.266-.824.926.926,0,0,0-.756-.321.989.989,0,0,0-.777.347,1.243,1.243,0,0,0-.3.85v2.185h-1.039v-4.283h.936l.069.581a1.969,1.969,0,0,1,1.391-.642,1.664,1.664,0,0,1,1.283.56,2.194,2.194,0,0,1,.511,1.539v2.245Z" transform="translate(-666.356 -169.003)" fill="#ddff07"/>
        <path id="Path_32" data-name="Path 32" d="M869.433,217.307a2.229,2.229,0,0,1-1.632.677,2.294,2.294,0,0,1-1.609-.585,2.52,2.52,0,0,1,0-3.356,2.294,2.294,0,0,1,1.609-.585,2.09,2.09,0,0,1,1.529.633l-.661.7a1.239,1.239,0,0,0-.85-.338,1.164,1.164,0,0,0-.876.356,1.255,1.255,0,0,0-.343.911,1.212,1.212,0,0,0,.343.918,1.19,1.19,0,0,0,.858.33,1.249,1.249,0,0,0,.928-.355Z" transform="translate(-684.5 -168.807)" fill="#ddff07"/>
        <path id="Path_33" data-name="Path 33" d="M888.821,214.038l-2.662,6.234h-1.15l.867-2.029-1.692-4.206h1.22l.644,1.847.4,1.205.438-1.179.773-1.873Z" transform="translate(-699.235 -169.266)" fill="#ddff07"/>
      </g>
    </g>
  </g>
</svg>
