<?xml version="1.0" encoding="UTF-8"?>
<svg id="Layer_17" data-name="Layer 17" xmlns="http://www.w3.org/2000/svg" viewBox="0 0 1080 1080">
  <defs>
    <style>
      .cls-1 {
        fill: #f12c2e;
      }

      .cls-2 {
        fill: #fff;
      }

      .cls-3 {
        fill: #0f48f6;
      }

      .cls-4 {
        fill: #0e0e0e;
      }

      .cls-5 {
        fill: #0d184c;
      }
    </style>
  </defs>
  <polygon class="cls-2" points="737.65 646.68 143.18 658.04 141.59 337.22 732.87 344.72 737.65 646.68"/>
  <g>
    <path class="cls-5" d="m213.25,658.04c2.35-.07,4.66-.14,7.01-.18.71-2.38,1.46-4.77,2.31-7.15-2.38.04-4.73.11-7.08.18-.78,2.38-1.53,4.73-2.24,7.15Z"/>
    <path class="cls-2" d="m881.97,724.05c-8.93,27.57-26.29,51.94-49.06,69.83-5.62,4.38-11.53,8.36-17.72,11.85-6.05,3.42-12.81,7.33-19.46,9.39-6.15,1.92-13.98-5.05-8.86-10.85,2.88-3.24,8.4-2.99,10.35.18.5-.18.96-.39,1.42-.57,1.42-.64,2.85-1.28,4.23-1.96,3.06-1.46,6.01-3.1,8.93-4.8,5.94-3.49,11.6-7.4,16.97-11.7,10.42-8.4,19.6-18.32,27.25-29.28,30.59-43.83,31.16-103.59,2.56-148.59-14.41-22.66-35.04-42.44-57.95-56.38-11.49-7.01-23.9-12.7-36.93-16.11-6.44-1.71-13.05-2.92-19.71-3.17-1.03-.04-2.03-.07-3.06-.07-1.85,0-3.74.11-5.59.25-.07-2.35-.11-4.73-.14-7.12,1.82-.32,3.7-.57,5.55-.75,11.74-1.03,24.33,1.03,34.68,4.23,17.08,5.27,32.73,14.23,46.92,25.01,25.83,19.64,47.56,45.46,58.41,76.31,10.53,29.99,10.99,64.1,1.17,94.3Z"/>
    <path class="cls-2" d="m645.64,822.51c-23.23-66.27-47.47-132.18-70.99-198.34-3.27-9.21-6.55-18.42-9.83-27.64-1.59-4.47-3.18-8.93-4.76-13.4-1.17-3.29-4.68-9.6-1.63-12.62,2.5-2.48-1.62-5.93-4.13-3.55-4.44,4.2-2.21,10.5-.49,15.45,3.01,8.68,6.02,17.35,9.03,26.03,6.12,17.63,12.22,35.27,18.3,52.91,11.98,34.73,23.86,69.48,35.7,104.26,6.02,17.66,12.19,35.26,18.38,52.86-29.09-4.78-58.11-9.89-87.19-14.72-31.2-5.18-62.5-9.77-93.75-14.65-15.24-2.38-30.48-4.77-45.72-7.16,12.93-23.58,25.71-47.25,38.48-70.91,14.13-26.18,28.56-52.24,41.88-78.84,5.85-11.7,12.27-25.07,5.33-37.71-1.32-2.4-5.43-.39-4.35,2.15,3.55,8.31.14,16.97-3.83,24.5-3.97,7.53-8.64,14.73-12.87,22.12-8.79,15.37-17.5,30.78-26.13,46.23-17.54,31.41-35.14,62.79-52.42,94.35-1.71,3.13.53,7.47,4.01,8.01,62.81,9.67,125.53,20.19,188.52,28.65,17.89,2.4,35.75,4.88,53.6,7.53,3.09.46,5.95-2.39,4.85-5.53Z"/>
    <path class="cls-3" d="m743.55,646.18c-.36-13.27-.85-26.54-1.1-39.77-.5-24.87-1-49.73-1.49-74.6-.07-2.53-.11-5.05-.18-7.61-.39-19.49-.78-38.99-1.17-58.48-.75-36.85-1.28-73.81-2.49-110.7-.04-1.32-.11-2.6-.14-3.88-.14-3.91-.28-7.86-.43-11.78-.04-1.57-.11-3.09-.18-4.66-1.42-.11-2.88-.21-4.3-.28-43.36-2.63-86.83-4.13-130.27-5.73-36.39-1.35-72.78-2.49-109.17-3.31-2.2-.11-4.38-.14-6.58-.18-48.7-1.14-97.44-1.85-146.14-2.13-9.57-.07-19.1-.11-28.64-.11-3.24-.04-6.44-.04-9.68-.04-53.72-.07-107.43.36-161.15,1.24-1.6,0-3.2.04-4.8.07-.03,1.6-.03,3.2-.03,4.84-.04,5.51-.04,11.03.03,16.58,0,1.32,0,2.67.04,4.02.18,14.37.6,28.78.89,43.12.92,45.89,1.81,91.82,2.7,137.74.43,22.77.89,45.57,1.28,68.34.36,18.32.5,36.25-.89,54.32-.21,2.38-.43,4.8-.71,7.19,2.03-.07,4.09-.14,6.12-.21,3.06-.11,6.08-.21,9.14-.32,19.67-.68,39.38-1.28,59.05-1.81,2.35-.07,4.66-.14,7.01-.18,84.27-2.31,168.55-3.52,252.86-3.7,52.97-.11,105.9.53,158.87.75,12.77.07,25.61.07,38.42-.11,1.92-.04,3.84-.04,5.76-.11,20.45-.32,40.91-1.17,61.29-2.92,2.06-.14,4.13-.32,6.19-.5-.04-1.71-.07-3.38-.11-5.09Zm-66.66,2.92c-1.96.04-3.88.07-5.83.07-20.53.21-41.05,0-61.61-.28-105.62-1.49-211.24-1.74-316.85.25-23.34.43-46.67.96-70.01,1.57-2.38.04-4.73.11-7.08.18-23.16.6-46.28,1.32-69.4,2.1,2.38-20.35.53-42.05.11-62.18-.96-45.57-1.85-91.14-2.77-136.71-.46-23.12-.89-46.28-1.39-69.4-.25-11.63-.39-23.27-.71-34.93,119.95,1.32,239.87,2.45,359.82,3.49,77.02.64,154.03,1.25,231.08,1.74.21,16.72.57,33.4.85,50.12.6,39.95,1.35,79.9,2.13,119.85.04,2.38.07,4.77.14,7.12.07,4.55.18,9.14.25,13.7.43,23.76.89,47.49,1.39,71.25.18,9.89.25,19.78.39,29.67-20.13,1.46-40.3,2.17-60.51,2.42Z"/>
    <path class="cls-2" d="m481.16,310.66c2.6,28,24.76,49.84,46.89,64.96,10.42,7.12,24.44,11.7,35.22,2.56,10.35-8.79,5.34-20.67-2.1-29.21.53-.75.96-1.53,1.28-2.38,6.33.5,12.66.39,18.93-.28,21.84-.89,40.62-13.2,54.82-29.17,7.97-8.96,14.87-18.92,21.02-29.21,4.87-8.22,12.63-18.75,6.83-28.42-1.28-2.17-4.59-2.7-6.08-.68-3.98-9.64-14.09-16.22-23.16-21.13-25.93-14.09-57.1-35.18-87.97-25.29-12.81,4.09-23.62,13.95-28.49,26.54-4.38,11.38-2.14,25.93,9.39,31.45-.43,1.67-1.42,3.27-2.28,4.91-2.17,4.13-4.34,8.25-6.51,12.38-1.17,2.24-2.35,4.45-3.49,6.65-1.92,2.99-3.81,6.01-5.73,9-1.39,2.21-2.77,4.45-4.2,6.65-.78,1.24-1.67,1.85-2.67,2.06-3.02-.89-6.33-2.6-7.93-3.17-1-.39-2.06,0-2.77.75-2.31-.78-4.63-1.64-6.94-2.53-2.38-.92-4.27,1.39-4.06,3.56Z"/>
    <path class="cls-3" d="m180.17,611.9c.75.53,1.49,1.03,2.24,1.46,1.92,1.14,3.81,2.06,5.83,2.88.82.32,1.57.21,2.21-.18,4.94,1.28,10.14,2.03,14.94,2.88,6.83,1.17,13.73,1.96,20.67,2.67.71.07,1.42.14,2.13.21-.71,1.46-1.42,2.88-2.13,4.34-3.17,6.55-6.26,13.13-8.82,19.89-.6,1.6-1.17,3.2-1.74,4.84,2.35-.07,4.7-.14,7.08-.18,23.34-.61,46.67-1.14,70.01-1.57,105.62-1.99,211.23-1.74,316.85-.25,20.56.28,41.09.5,61.61.28-.21,1.71-.39,3.41-.6,5.12,1.89.46,3.81.46,5.73.39.25-1.89.46-3.73.71-5.59,3.34-26.11,6.69-52.22,10-78.33,5.44-43.19,9.89-89.93-15.08-128.24-12.17-18.64-29.92-31.45-47.35-44.79-17.96-13.73-35.72-27.78-53.93-41.16-1.92-1.42-3.84-2.81-5.76-4.2-.18-.14-.36-.21-.53-.28.36,2.21.36,4.27.07,6.19-1.42,9.21-9.5,14.76-19.17,16.72-6.33,1.28-11.67.39-16.9-3.45-4.66-3.38-8.79-7.61-12.81-11.7-8.22-8.4-15.72-18.21-20.56-28.99-.85-1.78-1.57-3.63-2.24-5.48-1.92-5.37-3.17-10.99-3.49-16.72-.14-1.85-.14-3.7-.04-5.58-1.96-.39-3.91-.75-5.87-1.07-15.05-2.49-30.34-3.81-45.46-4.7-22.3-1.32-44.68-1.35-66.98,0-17.29,1.07-36.21,1.57-51.44,10.81-6.55,3.98-12.38,9.11-17.75,14.8-1.6,1.67-3.13,3.42-4.62,5.19-4.84,5.55-9.25,11.45-13.48,17.15-11.49,15.47-22.02,31.62-32.83,47.56-11.24,16.58-22.45,33.15-33.62,49.77-11.14,16.61-22.27,33.26-33.37,49.91-10.28,15.44-20.17,30.77-23.94,49.23-4.84,23.55-.78,55.67,20.45,70.15Z"/>
    <path class="cls-3" d="m547.16,629.19c1.49,12.88,2.03,25.65,2.31,38.63.29,11.21.75,22.52,3.2,33.54,2.13,9.64,5.73,18.96,11.45,27.07,6.12,8.68,14.83,15.26,24.12,20.24,19.17,10.32,40.95,16.08,62.68,17.22,11.21.57,22.52-.07,33.58-1.92,11.85-2.03,23.41-6.62,35.5-7.01,2.77-.07,3.17-4.27.28-4.38-1.28-.04-2.56,0-3.84.04-.28-8.43-5.37-15.23-10.64-21.59-6.87-8.25-13.73-16.54-20.49-24.94-12.45-15.4-24.62-31.06-36.53-46.92-11.42-15.23-24.47-30.49-32.19-48.02-7.01-15.94-11.74-32.3-23.41-45.71-9.64-11.06-25.72-25.01-41.48-22.41-1.74.28-2.46,1.92-2.35,3.49,1.07,14.37-1.71,28.67-3.13,42.9-1.35,13.41-.64,26.39.93,39.77Z"/>
    <path class="cls-4" d="m717.61,685.5c2.84-7.02,7.66-15.02,16.28-14.83,7.69.17,11.12,8.27,10.47,14.96-.46,4.73-2.25,9.25-3.11,13.92-.48,2.66-4.27,2.53-4.25-.27.04-6.86,5.64-15.77.2-21.84-2.03-2.27-5.63-1.77-8.1-.07-3.35,2.29-4.89,6.28-6.56,9.8-.6,1.27-1.85,2.13-3.3,1.64-1.27-.43-2.17-1.99-1.64-3.3Z"/>
    <path class="cls-2" d="m546.51,541.46c8.4-1.6,16.19-5.55,24.47-7.58,6.44-1.6,13.06-2.74,19.71-3.24-2.49-2.67-4.94-5.34-7.43-8-3.81.46-7.58,1.14-11.28,2.03-9.5,2.24-20.49,5.23-27.75,12.06-1.96,1.81-.46,5.27,2.28,4.73Z"/>
    <path class="cls-1" d="m851.21,812.72c-10.57,6.55-20.78,13.73-30.74,21.17-22.59,16.93-43.76,35.82-63.07,56.45-.36.39-.71.75-1.07,1.14-.25-.36-.5-.71-.82-1.07-28.99-36.64-58.59-72.78-88.69-108.39-46.46-54.85-94.27-108.5-140.69-163.42-16.79-19.85-33.37-39.81-49.62-60.05-22.06-27.53-43.54-55.53-64-84.27.92-.46,1.81-1.07,2.77-1.64,5.48-3.38,10.85-6.87,16.19-10.46,19.99-13.52,38.88-28.6,56.53-45.07,2.49,2.92,4.84,5.62,6.76,7.83,11.31,12.98,22.13,26.43,33.55,39.31,17.75,19.99,36.78,38.78,54.96,58.41-3.81.46-7.58,1.14-11.28,2.03-9.5,2.24-20.49,5.23-27.75,12.06-1.96,1.81-.46,5.26,2.28,4.73,8.4-1.6,16.19-5.55,24.48-7.58,6.44-1.6,13.05-2.74,19.71-3.24,8.79,9.5,17.57,19,26.32,28.5,1.25,1.35,2.49,2.67,3.73,4.02,7.79,8.43,15.54,16.86,23.34,25.29,30.59,33.12,61.22,66.27,91.82,99.43,1.21,1.32,2.45,2.63,3.66,3.95,3.38,3.66,6.79,7.36,10.17,11.03-.07.14-.07.36-.07.53,8.86,9.21,15.55,20.7,26.93,27.07.85.46.96,1.42.64,2.21,1.21,1.28,2.38,2.56,3.56,3.84,23.44,25.47,46.96,50.8,70.4,76.2Z"/>
    <path class="cls-5" d="m861.7,897.99c-.25.21-.46.39-.71.57.25-.21.46-.39.71-.57Z"/>
    <path class="cls-2" d="m746.04,696.85c.96,1.99,2.95,3.31,4.62,4.66,2.95,2.31,3.66,4.59,3.31,8.25-.68,7.01-1.56,14.02-2.17,21.02-.39,4.23-.82,9.32,2.67,12.45,5.87,5.3,10.79-1.62,15.45-7.17.25,4.59,1.8,11.04,1.09,15.62-.43,2.8,2.89,5.24,3.96,5.56,4.77,1.39,9.09-1.81,13.22-4.19.75,4.73,1.89,10.24,6.37,12.17,2.49,1.07,5.34.53,7.15-1.1.68,2.67,1.81,4.77,3.49,6.37,1.46,2.28,3.34,4.13,5.66,4.55.5.11,1,.11,1.46.07.32.07.68.11,1.03.11,2.7-.07,4.41-2.99,3.59-5.23.53-6.08-2.03-11.81-7.04-15.51-.89-.64-1.96-.29-2.56.43-.57-.46-.11-1.39,0-2.88.07-1.32,0-2.63-.14-3.91-.36-2.92-1.28-5.83-2.67-8.43-2.63-4.87-6.72-8.54-11.7-10.74-.5-5.91-1.67-11.95-5.48-16.68-1.67-2.1-3.84-3.84-6.3-4.98-2.49-1.14-4.52-.96-7.11-1.28-2.99-.36-2.81-4.73-3.91-7.08-.92-1.92-2.21-3.66-3.81-5.09-3.66-3.34-8.64-4.73-13.55-3.95-3.45.57-8.68,2.56-6.62,6.97Z"/>
    <path class="cls-2" d="m419.76,599.06c10.32-.82,20.6-1.67,30.91-2.56,5.37-.46,10.74-1.17,16.11-1,4.55.14,12.81-1.77,17.33-1.45,9.04.64,14.55,1.98,23.05-1.04,7.83-2.81,14.3-7.58,20.88-12.49.68-.5,1-1.1,1.1-1.78,7.15-3.17,14.23-6.51,21.31-9.71,10.64-4.84,21.42-9.46,32.66-12.88,10.46-3.17,26.93-9.14,33.87,2.81,1.39,2.38,5.26.57,3.88-1.89-.21-.39-.46-.75-.71-1.14,3.95-6.4,3.49-15.51.71-22.16-1.49-3.56-5.23-4.73-6.65-8.36-1.53-3.77-2.31-7.54-4.48-11.03-2.24-3.52-5.09-6.01-8.18-8.72-3.74-3.27-5.48-7.97-8.82-11.56-2.56-2.78-5.62-4.95-9.07-6.48-2.78-1.24-3.1-1.78-3.88-4.48-.57-1.85-1.53-3.41-2.67-4.98-.46-.64-1.07-.89-1.71-.89-.43-2.35-1.32-4.41-4.23-5.76-5.51-2.63-11.84-2.7-17.82-2.46-6.58.25-13.02.82-19.07,3.63-2.95,1.35-5.69,2.77-8.93,3.34-1.71.28-3.41.39-5.12.68-.71.14-3.52,1.17-3.98.93-.5-.25-1-.36-1.49-.39.28-2.92.82-5.66-.07-8.4.11-1.99-.29-3.88-1.64-5.34-2.28-2.53-5.09-2.6-7.68-1.64-.96-.11-1.92-.14-2.84-.07-5.59.5-9.85,4.3-13.55,8.18-4.87,5.19-9.6,10.53-14.44,15.76-.71.82-.96,1.71-.93,2.52-.53.29-1.03.61-1.57.89-4.3,2.49-8.43,5.16-12.38,8.22-8.72,6.69-16.9,14.62-28.07,16.68-1.6.28-2.49,1.6-2.74,3.13-1.14,6.62-1.21,13.45-1.96,20.13-.71,6.23-1.57,12.45-2.42,18.64-1.92,13.3-4.3,26.5-7.86,39.45-.6,2.17,1.03,3.77,3.17,3.63Z"/>
    <path class="cls-2" d="m870.35,933.71c.11,2.03-1.32,4.69-3.7,4.09-13.45-3.56-26.79-7.61-39.98-12.31,2.28-2.03,4.23-3.66,6.26-5.26,4.66-3.91,9.39-7.68,14.19-11.35,3.38-2.56,6.83-5.09,10.25-7.58,1.14-.82,2.35-1.78,3.59-2.74.29-.21.5-.39.75-.57,1.78-1.28,3.66-2.42,5.62-2.95,1.32,12.84,2.28,25.76,3.02,38.67Z"/>
    <path class="cls-4" d="m546.51,541.46c8.4-1.6,16.19-5.55,24.47-7.58,6.44-1.6,13.06-2.74,19.71-3.24,1.6-.11,3.2-.21,4.8-.25,6.87-.21,16.86-.71,21.24,5.76,4.48,6.72,3.02,15.58.36,22.7,1.17,1.64,2.42,2.95,3.66,4.3.89-.07,1.74-.46,2.38-1.32,5.76-7.76,6.26-18.46,2.28-27.21-4.06-8.93-12.84-12.31-22.13-12.77-6.65-.36-13.37-.11-20.03.78-3.81.46-7.58,1.14-11.28,2.03-9.5,2.24-20.49,5.23-27.75,12.06-1.96,1.81-.46,5.27,2.28,4.73Z"/>
    <path class="cls-4" d="m541.56,517.27c1.73-.01,3.19-2.13,4.35-3.18,1.14-1.04,2.38-2.01,3.73-2.78,3.2-1.84,7-2.55,10.55-3.44,8.79-2.2,17.77-4.71,26.84-5.38,7.4-.55,15.24.55,21.25,5.26,6.16,4.83,8,12.05,8.97,19.48.4,3.03-3.64,3.68-4.56.89-2.16-6.59-4.44-13.46-11.1-16.7-7.16-3.49-15.34-2.33-22.84-.83-7.44,1.49-14.91,3.2-22.23,5.22-3.27.9-5.56,2.19-8.1,4.38-2.19,1.89-4.3,3.09-7.24,3.03-3.86-.09-3.41-5.91.38-5.94Z"/>
    <path class="cls-4" d="m524.54,497.89c14.96-8.09,32.87-15.42,50.16-15.13,13.83.23,29.51,9.02,28.75,24.67-.11,2.24-3.61,2.53-3.96.26-2.24-14.43-17.81-19.55-30.59-18.13-14.45,1.6-28.85,7.3-41.55,14.17-3.67,1.98-6.48-3.85-2.81-5.83Z"/>
    <path class="cls-4" d="m490.52,493.04c8.03-6.37,16.88-11.87,25.88-16.75,9.13-4.95,18.96-10.02,29.13-12.44,16.13-3.83,37.4,4,36.43,23.43-.11,2.27-3.76,2.61-4.04.26-.91-7.55-6.24-13.88-13.28-16.63-8.49-3.32-17.63-1.45-25.81,1.79-15.94,6.31-30.42,15.06-44.39,24.89-3.1,2.18-6.99-2.11-3.91-4.56Z"/>
    <path class="cls-4" d="m430.98,509.89c4.05-3.76,10.41-5.87,15.25-8.53,5.45-3,10.8-6.18,15.86-9.81,9.27-6.65,15.96-14.88,23.4-23.36,5.61-6.4,13.88-13.49,23.12-11.62,11.78,2.38,8.48,19.48,5.31,27.42-.94,2.35-4.11,1.15-3.64-1.22,1.07-5.41,1.78-11.56.55-17-1.32-5.88-8.71-3.5-12.37-1.32-7.33,4.35-11.98,12.27-17.57,18.46-6.44,7.14-14.1,12.95-22.22,18.05-3.98,2.51-8.08,4.82-12.23,7.04-4.14,2.21-8.7,5.38-13.34,6.26-2.53.48-3.93-2.69-2.12-4.38Z"/>
    <path class="cls-4" d="m487.08,591.18c6.34.03,12.14.1,18.34-1.58,5.87-1.58,11.47-4.1,16.89-6.83,11-5.53,21.48-11.98,32.65-17.19,10.9-5.08,22.22-9.37,33.74-12.82,6.29-1.89,22.53-8.36,26.57.38.72,1.55-1.24,3.62-2.72,2.35-4.23-3.61-10.35-.33-14.97,1.06-5.9,1.77-11.8,3.53-17.61,5.59-11.34,4.02-22.42,8.83-33.12,14.36-10.08,5.21-19.77,11.25-30.3,15.57-9.27,3.8-20.53,7.06-30.55,4.57-3.23-.8-1.95-5.48,1.07-5.46Z"/>
    <path class="cls-4" d="m417.09,599.93c1.61-4.8,10.33-5.28,14.65-5.83,6.16-.78,12.4-.73,18.59-.86,6.39-.13,12.74-.6,19.08-1.4,3.13-.39,6.25-.81,9.36-1.31,2.85-.46,5.69-1.25,8.54-.53,1.47.37,1.61,2.32.63,3.23-2.14,1.98-5.25,2.54-8.01,3.25-2.84.73-5.72,1.38-8.61,1.89-6.07,1.09-12.26,1.67-18.41,1.98-6.19.31-12.39.27-18.56.85-2.81.27-5.59.64-8.34,1.29-2.93.69-5.09,2.05-7.9.45-.99-.56-1.37-1.98-1.02-3.01Z"/>
    <path class="cls-4" d="m500.5,308.25c3.02-6.01,6.23-11.99,9.68-17.79,3.38-5.73,6.87-11.81,11.21-16.9.53-.64,1.21-.93,1.85-.96-.82-.07-1.57-.36-2.17-1.14-.82-1.03-1.6-2.17-2.35-3.31-3.56-5.66-5.83-12.27-5.83-18.75,0-5.34,1.53-10.57,5.12-15.08,1.03-1.28,2.2-2.45,3.45-3.56-.43-.61-.6-1.42-.39-2.38,4.34-19.57,11.49-37.88,28.96-47.88,15.97-9.14,35.5-10.57,53.25-8.11,18.46,2.56,36.43,9.89,50.55,23.09,13.52,12.66,22.13,30.98,23.27,50.05.6,10.46-1.28,21.02-5.8,30.31-5.11,10.56-13.71,20.13-21.3,28.98-3.87,4.51-8.62,8.93-11.9,13.87-3.83,5.78-5.95,11.4-11.2,16.3-6.13,5.72-13.76,9.21-21.45,12.24-10.92,4.34-22.66,6.33-34.4,5.98-6.23-.21-10.82-1.46-14.73-6.55-4.16-5.41-7.76-11.42-11.03-17.4-7.83-14.27-13.34-29.63-16.54-45.57-.71-3.56,4.73-4.62,5.51-1.07,3.41,15.9,9.11,31.23,17.07,45.46,2.17,3.81,4.45,7.54,6.94,11.17,2.42,3.56,4.52,7.15,9.18,7.68,6.72.82,13.87-.07,20.45-1.46,11.25-2.37,22.45-6.63,31.8-13.43,10.61-7.71,15.05-19.66,24.41-28.51,1.1-1.03,2.28-2.06,3.49-3.02.25-.21.53-.43.82-.68,1.17-2.28,2.56-4.62,4.66-7.22,4.73-5.9,9.14-12.1,12.45-18.92.32-1.78.57-3.56.6-5.41-24.51-2.67-47.53-13.66-65.35-30.56-2.35-2.21-4.59-4.52-6.72-6.94-.93-1.03-1.81-2.1-2.7-3.17-.68-.85-2.35-3.98-3.38-4.3-2.45-.78-7.29,4.16-9.11,5.58-2.85,2.28-5.58,4.7-8.22,7.26-2.74,2.7-5.23,5.55-7.76,8.47-.43.46-.85.96-1.32,1.42-1.67,5.37-4.8,10.25-8.82,14.16-1.46,1.39-3.27,2.63-5.37,2.1-1.74-.46-3.06-1.99-3.74-3.63-1.32-3.13-.53-6.65.82-9.64.53-1.17,1.28-2.45,1.92-3.77.64-4.16-1.35-8.36-4.66-11.06-4.27-3.45-9.96-3.2-14.51-.32-5.02,3.17-7.97,8.71-8.29,14.59-.32,6.15,1.96,12.31,5.26,17.5.21.25.46.5.71.75.18.14.32.32.5.46.43.35.75.6,1.1.89.68.46,1.35.93,2.06,1.32,1.03.53,1.39.71,1.74.85.75.32,1.53.57,2.31.78.36.11.75.21,1.14.29.18.07.39.11.61.14,1.6.29,2.92.39,3.77,1.67.46.68.64,1.57.14,2.28-.61.78-1.24,1.35-2.24,1.42-.6.07-1.21.11-1.81.04-1.07-.07-2.1-.25-3.13-.5-1.85-.5-3.66-1.24-5.37-2.17.25.64.25,1.39-.21,2.17-3.24,5.91-7.29,11.38-10.78,17.15-3.52,5.76-6.87,11.6-10,17.57-.64,1.21-2.49,1.39-3.56.68-1.25-.82-1.28-2.28-.68-3.52Z"/>
    <path class="cls-4" d="m616.85,332.22c9.32,7.43,23.85,3.71,32.79-2.59,5.68-4,9.54-10.46,10.05-17.11.58-.32,1.02-.86,1.06-1.63.59-12.65-10.73-23.06-22.79-24.28-11.15-1.13-24.86,5.03-29.29,15.83-4.08,9.95-.09,23.19,8.18,29.79Zm-1.46-31.61c5.97-7.37,16.97-11.11,26.1-8.37,5.01,1.5,8.97,4.79,11.58,9-.16.43-.14.91.15,1.38,6.29,10.14-1.32,21.36-10.85,25.7-8.35,3.8-18.9,5.12-25.28-2.68-5.41-6.61-7.37-18.03-1.7-25.02Z"/>
    <path class="cls-4" d="m574.9,306.03c11.51,2.2,24.74-2.85,30.88-13.08,5.03-8.38,4.15-19.55-2.44-26.63-5.04-9.41-17.95-13.66-27.95-10.89-10.66,2.96-17.97,13.08-19.23,23.82-1.47,12.55,6.11,24.36,18.74,26.77Zm-13.02-30.85c2.51-8.27,9.38-15.13,18.24-15.88,7.16-.61,13.87,2.52,18.34,7.88.98,1.18,1.62,2.09,2.19,3.06.32.55.76.86,1.21,1,4.2,7.01,2.66,16.8-3.04,22.71-6.78,7.02-18.28,9.83-27.36,5.92-9.44-4.07-12.38-15.46-9.58-24.68Z"/>
    <path class="cls-4" d="m547.32,236.6c.83-.71,2.13-.61,2.84.22,6.33,7.38,11.59,15.77,15.87,24.49,1.13,2.31-2.23,3.81-3.53,1.7-4.93-7.99-10.19-15.76-15.4-23.57-.6-.9-.68-2.07.22-2.84Z"/>
    <path class="cls-4" d="m600.96,294.31c.9-.96,2.53-1.11,3.76-1.05,1.02.06,2.07.31,2.99.75,1.07.51,2.11,1.15,2.87,2.09.75.92,1.26,1.96,1.55,3.11.23.93-.42,1.89-1.28,2.17-.85.28-1.97-.08-2.33-.97-.08-.19-.16-.38-.26-.57-1.08-1.21-1.23-1.33-1.39-1.44-.17-.12-.35-.23-.53-.33-.45-.2-.81-.32-1.18-.42-.32-.04-.53-.06-.73-.07-1.21.15-1.78.25-2.32.22-.8-.05-1.5-.61-1.74-1.36-.27-.81.01-1.53.58-2.13Z"/>
    <path class="cls-4" d="m489.13,308.67c4.37.46,8.75.89,13.13,1.28,2.21.18,2.95-3.31.78-3.84-4.59-1.17-9.25-2.17-13.94-3.02-.11,1.89-.11,3.74.04,5.58Z"/>
    <path class="cls-5" d="m180.21,611.93c.21.36.53.68.96.89.43.21.82.39,1.24.53-.75-.43-1.49-.93-2.21-1.42Z"/>
    <path class="cls-4" d="m552.41,357.06c1-2.1,2.29-4.02,3.68-5.88,1.53-2.07,3.05-4.25,4.93-6.01,1.34-1.25,3.87.32,3.09,2.08-1.8,4.05-5.03,7.27-6.97,11.24-.79,1.62-1.33,3.42-1.54,5.21-.23,1.97.03,3.94-.27,5.89-.31,2.04-2.86,2.62-3.91.76-2.16-3.83-.81-9.54.98-13.29Z"/>
    <path class="cls-5" d="m564.19,351.72c.21.46.39.53.57.68,1.92,1.39,3.84,2.78,5.76,4.2-.07-.46-.14-.89-.25-1.35-1.71-1.03-3.42-2.03-5.12-2.99-.32-.18-.64-.35-.96-.53Z"/>
    <path class="cls-4" d="m764.36,694.71c4.27,5.73,5.41,13.98,5.55,20.95.04,2.81-.11,5.62-.6,8.4-.82,5.05-2.63,9.85-5.8,13.98-1.6,2.1-6.12,6.26-8.68,3.09-1.28-1.6-.6-4.98-.53-6.9.07-2.13.21-4.27.43-6.4.46-5.44,2.28-11.45,2.24-17.15-.04-2.81-.5-5.62-1.81-8.18-1.32-2.56-4.62-1.71-5.41.36-.25.6-.21,1.39.18,2.17,2.81,5.62.18,12.84-.61,18.71-.43,3.17-.75,6.37-.89,9.61-.14,2.77-.5,5.87.25,8.57,1.21,4.48,5.87,6.83,10.32,6.15,4.45-.68,7.9-4.16,10.39-7.68,2.35-3.34,3.95-7.01,4.98-10.85,1.53-5.48,1.88-11.35,1.49-17.01-.6-8.64-2.6-18.68-9.53-24.58-3.73-3.2-8.4-4.23-13.2-3.88-5.44.36-11.45,1.42-16.54,3.31-.28.11-.53.28-.68.5,1.21,1.32,2.46,2.63,3.66,3.95,8.5-.68,18.75-5.12,24.79,2.88Z"/>
    <path class="cls-4" d="m769.92,736.07c.19-2.56,4.44-3.04,4.66-.3.31,3.83-1,7.37-1.31,11.15-.23,2.78.26,6.71,3.6,7.27,3.26.55,6.76-2.03,8.75-4.34,2.38-2.75,3.77-6.27,4.36-9.83,1.22-7.38.11-16.19-2.63-23.14-2.58-6.54-7.87-11.88-15.22-12.15-2.39-.09-2.72-3.93-.27-4.24,6.82-.86,13.19,2.81,17.09,8.3,4.6,6.49,6.11,14.74,6.63,22.53.5,7.38-.52,15.26-5.27,21.21-3.9,4.89-11.58,9.58-17.69,5.6-7.57-4.93-3.21-15.09-2.7-22.06Z"/>
    <path class="cls-4" d="m786.38,753.07c.44-2.17,3.93-1.78,4.22.28.34,2.43-.06,4.96.88,7.29.78,1.93,2.74,3.66,4.85,2.58,1.92-.99,3.72-3.23,5-4.92,1.4-1.85,2.52-3.88,3.04-6.16,2.37-10.33-6.14-18.73-12.12-25.89-1.76-2.1,1.25-4.52,3.16-2.71,9.06,8.51,18.59,21.71,11.86,34.46-1.42,2.69-3.46,5.04-5.67,7.12-2.22,2.09-4.81,3.78-7.99,3.13-6.69-1.36-8.4-9.43-7.24-15.17Z"/>
    <path class="cls-4" d="m802.1,762.91c2.69,3.08,5.06,6.39,7.69,9.52.74.88,1.83,2.24,3.13,2.09,1.06-.12,1.86-1.14,2.22-2.07.61-1.55.28-3.38-.08-4.95-.4-1.71-1-3.35-1.75-4.93-1.46-3.08-3.52-5.9-5.9-8.33-1.59-1.62.91-4.5,2.69-3.02,5.23,4.35,9.39,10.95,10.05,17.85.35,3.64-.8,7.3-4.06,9.26-3.3,1.99-6.87.47-9.28-2.12-1.41-1.51-2.6-3.24-3.87-4.88-1.43-1.84-2.8-3.71-4.12-5.63-1.54-2.24,1.4-4.95,3.28-2.81Z"/>
    <path class="cls-4" d="m529.73,242.72c1.01-.49,2.04,0,2.58.9,1.46,2.42,2.61,4.99,3.49,7.67.41,1.26.77,2.53,1.04,3.83.3,1.41.69,2.99.6,4.44-.15,2.33-3.41,2.42-3.96.26-.32-1.26-.34-2.64-.59-3.92-.25-1.25-.57-2.49-.95-3.71-.75-2.4-1.84-4.71-3.11-6.88-.53-.9.01-2.15.9-2.58Z"/>
    <path class="cls-4" d="m525.82,254.69c.11-.34.31-.62.57-.85.15-.16.29-.33.46-.47.17-.14.35-.27.52-.4.35-.27.69-.54,1.04-.81.69-.54,1.38-1.08,2.08-1.62.41-.32.91-.51,1.43-.48.5.03,1.08.3,1.39.69.31.4.53.91.48,1.43-.06.52-.27,1.06-.69,1.39-.7.55-1.4,1.1-2.1,1.65-.81.64-1.6,1.31-2.51,1.81-.39.22-1.04.25-1.45.09-.41-.16-.75-.41-.99-.78-.22-.34-.37-.76-.32-1.17.03-.16.06-.33.1-.49Z"/>
    <path class="cls-4" d="m415.21,581.61c1.09-8.13,2.37-16.24,3.82-24.31,2.88-15.98,6.07-32.21,11.04-47.69.85-2.65,4.57-1.25,4.01,1.34-3.53,16.12-7.52,32.05-10.24,48.34-1.31,7.81-2.43,15.64-3.37,23.5-.47,3.93-.91,7.86-1.27,11.8-.35,3.88-.18,7.92-1.11,11.7-.66,2.66-5.27,2.45-5.47-.36-.57-7.78,1.55-16.57,2.59-24.33Z"/>
    <path class="cls-4" d="m229.04,505.27c34.91-1.07,69.79.32,104.69,1.02,17.29.34,34.6.51,51.89.09,16.25-.39,33.43-2.76,49.36,1.49,2.15.57,1.48,4.18-.76,3.87-16.9-2.37-33.67-1-50.66-.64-17,.37-34.01.19-51.01-.17-34.59-.71-69.19-2.12-103.79-1.24-2.85.07-2.54-4.32.28-4.41Z"/>
    <path class="cls-4" d="m315.09,503.94c9.99-13.95,20.98-27.29,31.46-40.89,10.49-13.61,20.73-27.49,31.68-40.74,1.56-1.89,4.71.1,3.23,2.17-9.97,13.99-20.75,27.43-31.2,41.06-10.45,13.62-20.52,27.66-31.43,40.91-1.81,2.19-5.45-.12-3.73-2.51Z"/>
    <path class="cls-2" d="m228.2,621.82c-.71,1.46-1.42,2.88-2.13,4.34,5.58.07,12.73.14,15.23-.11,7.76-.82,15.58-1.03,23.34-1.67,16.65-1.35,33.23-3.42,49.8-5.62,33.55-4.48,66.95-8.86,100.74-11.03,2.38-.14,2.74-3.81.25-3.81-33.26.11-66.45,5.59-99.32,10-16.83,2.24-33.69,4.41-50.62,5.83-7.83.68-15.65.96-23.44,1.67-2.53.21-10.07.14-15.97.18.71.07,1.42.14,2.13.21Z"/>
    <path class="cls-2" d="m150.55,341.24c1.92-1.79,3.93-3.46,5.76-5.35.43-.45.86-.9,1.28-1.35.69-.76.87-.98,1.06-1.2.88-1.02,1.75-2.05,2.61-3.1.66-.81,1.85-1.23,2.78-.54.87.65,1.17,1.84.54,2.78-1.57,2.35-3.38,4.49-5.29,6.56-1.81,1.95-3.72,3.96-5.87,5.54-.92.68-2.33.74-3.1-.24-.76-.97-.66-2.26.24-3.1Z"/>
    <path class="cls-2" d="m152.17,329.45c.72.23,1.19.8,1.4,1.45,2.16,1.54,4.24,3.19,6.21,4.97,1.09.99,2.15,2.01,3.15,3.09.51.55,1.02,1.11,1.51,1.69.65.75,1.32,1.45,1.53,2.46.27,1.35-1.12,2.66-2.46,2.15-1.2-.46-1.94-1.56-2.8-2.46-.68-.71-1.38-1.4-2.09-2.09-1.57-1.52-2.6-2.46-4.31-3.83-.77-.61-1.55-1.21-2.34-1.79-1.04-.75-2.68-1.5-2.97-2.83-.41-1.85,1.4-3.4,3.17-2.82Z"/>
    <path class="cls-2" d="m174.78,330.4c.18,2.7.36,5.4.54,8.1.09,1.35.16,2.7.27,4.05.1,1.21.49,2.47,1.54,3.19,1.2.83,2.62.7,4.01.69,1.29,0,2.59-.01,3.88-.02,2.7-.01,5.4-.02,8.1-.06,1.1-.02,2.18-.76,2.22-1.95.16-4.93.35-9.86.38-14.8,0-1.77-1.97-2.35-3.03-1.51-1.07-.11-2.15-.15-3.23-.17-1.35-.03-2.71-.05-4.06-.06-2.82-.02-5.65,0-8.47.08-1.44.04-2.24,1.05-2.15,2.44Zm5.12,11.87c-.24-.8-.27-1.33-.3-1.86-.09-1.24-.18-2.47-.27-3.71-.11-1.56-.22-3.11-.34-4.67,2.05-.04,4.1-.09,6.15-.07,1.41,0,2.82.03,4.23.06.83.02,1.67.06,2.5.07-.23,3.37-.43,6.74-.6,10.11-1.71,0-3.42,0-5.13.02-1.18,0-2.36.02-3.54.03-.62,0-1.24.01-1.86.01-.28,0-.56,0-.84,0Z"/>
    <path class="cls-2" d="m206.98,341.86c2.99-.12,6,0,8.99.02,2.99.01,5.98.04,8.98.13,1.01.03,1.8,1,1.74,1.98-.07,1.08-.97,1.71-1.98,1.74-3,.09-5.99.12-9,.13-2.99.01-6,.14-8.99.02-1.09-.04-1.95-1.07-1.88-2.14.07-1.18,1.05-1.84,2.14-1.88Z"/>
    <path class="cls-4" d="m488,417.11c-17.64,16.47-36.53,31.55-56.53,45.07-5.34,3.59-10.71,7.08-16.19,10.46-.96.57-1.85,1.17-2.77,1.64-.21-.32-.43-.6-.64-.93-5.94-8.36-15.79-27.5-15.79-27.5,0,0-4.45-21.02,17.75-40.23,25.79-22.34,54.82-11.24,54.82-11.24,0,0,10.6,12.52,19.35,22.73Z"/>
    <path class="cls-4" d="m867.36,895.04c-1.99.53-3.88,1.67-5.66,2.95-.25.18-.46.36-.71.53-1.28,1-2.49,1.96-3.63,2.77-3.41,2.49-6.87,5.01-10.25,7.58-4.8,3.66-9.53,7.43-14.19,11.35-2.03,1.6-3.98,3.24-5.98,4.98-5.87-1.67-11.38-3.77-16.86-5.98-9.21-3.7-18.39-7.72-27.39-11.99-3.45-1.64-6.9-3.31-10.28-5.05-1.17-.57-2.35-1.14-3.49-1.78-3.13-1.6-6.48-3.1-9.46-5.01-1.21-1.53-2.13-2.63-2.99-3.74.21-.57.57-.92.92-1.32,19.32-20.63,40.48-39.52,63.07-56.45,9.96-7.43,20.17-14.62,30.74-21.17.18.18.35.39.53.57,1,1.1,1.71,1.85,2.38,2.6.21.25.43.46.64.71.07.25.14.53.18.75.61,2.63,1.17,5.19,1.71,7.75,4.87,23.16,8.32,46.5,10.71,69.94Z"/>
    <path class="cls-2" d="m866.02,930.95c-25.76-1.06-51.63,1.22-76.81,6.74-.94-10.36-15.33-16.83-25.16-12.96-7.35,2.89-12.78,8.77-18.12,14.35-5.11,5.33-11.65,11.31-19.24,10.98,1.88-11.52,3.75-23.04,5.65-34.55.56-3.39-3.2-6-6.13-4.06-13.7,9.03-27.41,18.06-41.11,27.1,1.57-3.05,3.12-6.11,4.69-9.16,3.6-6.98,8-13.95,10.84-21.28,2.17-5.59,1.65-11.96-3.78-15.42-4.29-2.72-9.84-2.63-14.65-1.71-13.14,2.5-25.76,7.83-37.14,15.11.77-5.8.93-11.66.38-17.49-.75-7.99-5.02-15.23-13.68-15.93-7.4-.6-15.07,3.3-21.56,6.42-4.58,2.2-8.99,4.7-13.26,7.42-.3-2.37-1.03-4.65-2.38-6.75-8.03-12.5-28.12-6.44-37.57.91-10.2,7.94-16.97,19.84-15.03,32.95.42,2.84,4.35,3.24,5.06.33,2.31-9.41,8.42-18.26,16.72-23.25,3.76-2.26,7.94-3.8,12.31-4.27,1.93-.21,5.1-.75,6.81.44.26.38.34.67.32.98.06.87-.05,1.58-.18,2.42-.54,3.39-2.12,6.67-3.78,9.82-2.22,2.03-4.39,4.11-6.47,6.3-12.17,12.8-21.48,28.2-27.48,44.79-2.38,6.57,5.36,12.37,10.51,6.87,11-11.73,20.63-24.41,28.68-38.34,2.6-4.49,6.34-10.37,9.07-16.57,3.28-2.65,6.68-5.14,10.2-7.4,5.3-3.41,10.87-6.35,16.69-8.76,4.52-1.87,12.29-6.12,13.56,1.13,1.58,8.98-.05,19.15-2.91,28.41-4.41,3.82-8.54,7.93-12.3,12.28-9.25,10.7-16.55,23.11-21.38,36.39-1.66,4.56,3.11,10.05,7.73,6.69,16.73-12.15,30.2-30.69,36.59-51.06,5.03-3.98,10.42-7.55,16.11-10.62,5.92-3.19,12.2-5.76,18.63-7.73,3.34-1.02,13.01-4.79,15.9-1.24,2.06,2.53-2.34,8.74-3.49,11.09-1.81,3.69-3.63,7.38-5.46,11.06-4.17,8.42-8.35,16.84-12.59,25.23-1.83,3.63,2.61,7.3,5.91,5.11,15.43-10.21,30.85-20.43,46.28-30.64-1.6,9.81-3.21,19.62-4.82,29.43-.38,2.32,1.05,3.99,3.15,4.68,13.71,4.5,24.81-6.95,33.46-15.83,4.13-4.24,9.68-9.93,16.08-10.07,4.67-.1,12.31,4.39,9.73,9.85-1.58,3.34,1.64,6.36,4.92,5.57,26.17-6.3,53.04-8.76,79.91-6.92,6.4.44,7.07-8.59.57-8.86Z"/>
    <path class="cls-2" d="m818.15,476.8c-1.86-.81-4.08.18-5.09,1.84-1.09,1.79-1.14,4.16-1.45,6.17-1.49,9.69-2.84,19.37-4.01,29.11-.35,2.92,3.93,3.83,4.53.88,1.22-6.05,2.49-12.09,3.52-18.17.5-2.99,1-5.97,1.5-8.96.25-1.49.49-2.99.75-4.48,2.9-.71,3.19-5.11.26-6.39Z"/>
    <path class="cls-2" d="m851.66,492.1c-1.58.38-2.9,1.55-4.08,2.6-1.25,1.1-2.49,2.22-3.69,3.37-2.35,2.24-4.61,4.59-6.76,7.02-4.3,4.88-8.12,10.06-11.18,15.8-1.11,2.08,2.07,4.24,3.5,2.29,3.69-5.03,7.48-10.04,11.65-14.68,2.07-2.3,4.23-4.51,6.49-6.63,1.1-1.03,2.21-2.04,3.36-3.02,1.27-1.09,2.66-2.18,3.39-3.72.86-1.81-.9-3.46-2.67-3.03Z"/>
    <path class="cls-2" d="m870.23,524.63c-1.71-.22-2.79.56-4.2,1.37-1.07.62-2.16,1.18-3.28,1.67-2.34,1.03-4.78,1.85-7.27,2.44-4.94,1.17-10.15,1.51-15.21,1.3-2.46-.1-2.39,3.51-.26,4.07,5.61,1.48,11.39,1.38,17.05.11,2.66-.6,5.26-1.47,7.75-2.57,1.37-.61,2.71-1.27,4.02-2,1.58-.88,2.85-1.63,3.4-3.45.37-1.25-.73-2.78-1.98-2.95Z"/>
  </g>
</svg>