<?xml version="1.0" encoding="UTF-8"?>
<svg id="Layer_28" data-name="Layer 28" xmlns="http://www.w3.org/2000/svg" viewBox="0 0 1080 1080">
  <defs>
    <style>
      .cls-1 {
        fill: #f12c2e;
      }

      .cls-2 {
        fill: #fff;
      }

      .cls-3 {
        fill: #0f48f6;
      }

      .cls-4 {
        fill: #0e0e0e;
      }

      .cls-5 {
        fill: #0d184c;
      }
    </style>
  </defs>
  <path class="cls-1" d="m578.25,636.21c24.27,28.15,59.03,46.5,94.55,56.44,63.27,17.72,138.9,5.54,182.61-46.92,26.94-32.34,40.5-74.64,41.52-116.41,1.55-62.9-21.4-114.52-74.63-151.33-71.65-49.55-171.74-42.99-230.81,19.83-28.39,30.2-46.48,69.55-50.61,110.81-3.96,39.52,4.91,81.02,27.15,114.19,3.14,4.69,6.56,9.15,10.22,13.39Z"/>
  <path class="cls-3" d="m588.84,515.5c-.58,54.98,35.53,105.2,86.27,125.09,50.44,19.81,110.47,2.7,144.17-39.33,19.79-24.68,28.19-58.38,22.84-89.55-7.42-43.19-23.79-74.34-64.84-96.24-51.29-27.36-112.43-16.46-153.27,21-22.37,20.54-34.8,48.62-35.17,79.03Z"/>
  <path class="cls-2" d="m694.41,580.79c22.47,7.94,54.53,6.67,71.74-12.12,19.06-20.81,18.55-54.88,6.12-78.79-28.59-55.02-120.8-42.21-124.94,22.63-1.9,30.41,18.93,58.34,47.08,68.28Z"/>
  <path class="cls-2" d="m339.88,596.32c0-.66.15-1.32.51-2.12.14-.37.36-.81.58-1.17.37-.81.73-1.53,1.1-2.34,1.39-5.34,2.7-10.67,4.17-15.94.44-1.97,1.68-3.07,3.14-3.73,3.14-10.24,6.87-20.32,11.11-30.19,2.12-7.09,4.24-14.18,6.29-21.2,7.75-26.47,16.08-54.1,31.66-77.2,15.94-23.61,38.09-40.65,65.21-49.49,15.5-5.12,31.29-7.17,47.16-8.33,15.06-7.53,32.1-7.68,47.81-2.19,2.27.81,4.02,2.12,5.27,3.65,9.65,2.78,19.01,7.97,26.69,12.87,11.55,7.31,22.08,16.45,31.14,26.76.58.29,1.09.66,1.61,1.09,8.55,7.68,17.77,17.11,22.15,27.93,4.24,10.38,4.46,23.03-4.09,31.36-2.27,2.19-5.63,1.46-7.75-.51-9.14,3.95-18.57-2.19-25.15-9.43-8.85-9.65-14.04-20.76-18.64-32.9-.14-.44-.37-.8-.51-1.24-14.04-8.34-28.88-14.91-44.38-19.59-.44-.07-.88,0-1.32-.14-.44-.15-.88-.22-1.32-.37-4.97,5.92-11.62,8.7-19.23,10.31-4.09.81-10.82,1.02-15.79,3,39.11,13.3,82.47,34.8,91.24,78.81,2.06,10.41,1.38,20.82-1.41,30.45,1.29,3.41,1.29,6.98,1.05,10.58-.22,3.4-.22,6.74-.88,10.1-.35,1.79-.95,3.4-1.74,5.04-.58,1.19-1.12,2.49-1.87,3.6-.79,1.17-1.91,2.3-2.83,3.3-1.42,1.55-3.05,2.86-5.01,3.71-1.28.56-2.56,1.03-3.93,1.13-.87.07-1.81.21-2.68.17-1.02-.04-1.89-.33-2.74-.7-.41-.13-.84-.26-1.24-.45-4.24,2.12-8.81,3.54-13.57,4.28-10.6,4.24-22.81,5.27-35.68,1.46-3.8-1.1-5.48-4.24-5.7-7.53-4.46-1.54-8.63-2.71-11.77,1.46.07.44.22.8.14,1.32-1.53,17.4-7.75,33.48-17.55,47.08.58,1.97.51,4.09-.88,6.14-5.34,7.97-12.5,14.04-20.98,17.84,2.41,31.95,7.24,63.17,14.77,93.73.95,3.8-.88,6.51-3.44,7.9.37,1.46.66,2.92,1.09,4.39,8.55,30.78,20.18,61.41,20.18,93.8,0,5.92.44,13.09-4.09,17.69-4.17,4.17-10.16,3.73-15.5,3.44-16.3-.88-32.68-3.87-48.54-7.75-16.45-3.95-32.31-9.43-47.74-16.3-12.14-5.34-23.98-11.7-36.85-14.84-.59,7.53-10.24,8.63-12.43,1.68-.51-1.76-.88-3.66-1.24-5.56-1.83-1.97-2.19-4.9-1.17-7.24-.73-6.8-.95-13.75-1.46-20.33-.73-10.67-.95-21.42-1.32-32.09-.66-17.62-1.1-35.24-1.32-52.86-7.31-40.72-4.39-83.42,9.65-122.31Z"/>
  <path class="cls-5" d="m601.97,456.46c2.85,4.17,5.63,8.41,8.85,12.28,11.4,3.51,22.74,6.94,34.07,10.38,1.39-1.17,2.63-2.56,3.51-4.24-.44-1.54-.88-3-1.39-4.46-13.89-4.31-27.78-8.63-41.67-12.94-1.1-.37-2.27-.66-3.36-1.02Z"/>
  <path class="cls-4" d="m318.97,647.57c-.14,10.89-.07,21.78.07,32.61.51,33.85,1.97,67.7,3.36,101.47.29,8.12.58,16.3.88,24.42.15,3.51.22,6.95.37,10.45l.44,14.26,2.48,79.91.88,29.9c4.17,1.02,8.41,2.05,12.65,3-.44-12.87-.81-25.73-1.24-38.68-.8-25.44-1.61-50.81-2.41-76.33,0-.44,0-.88-.07-1.32-.15-4.75-.29-9.58-.44-14.33-.07-2.85-.15-5.63-.22-8.48-1.02-33.26-1.46-66.6-2.7-99.87-.22-7.53-.58-14.99-.95-22.52-.37-8.63-.81-17.25-1.46-25.88.88-31.29,10.53-62.29,21.79-91.75,14.77-38.53,30.56-76.84,46.94-114.71,6.73-15.65,15.21-28.59,29.1-37.43-4.53-1.46-9.07-2.85-13.6-4.24-11.33,9.29-18.94,21.64-25.08,35.39-9.36,21.13-17.69,42.84-26.47,64.19-8.99,21.86-18.28,43.65-26.24,65.95-5.85,16.45-10.9,33.34-14.11,50.52-1.53,8.19-3,15.79-3.95,23.47Z"/>
  <path class="cls-4" d="m274.08,408.58c1.32,5.41,7.24,7.75,11.77,9.87,6.36,3,13.01,5.04,19.81,6.8,26.1,6.87,52.27,13.53,78.15,21.06,1.39,1.53,3.14,2.85,5.26,3.73,4.02,1.68,8.7,1.76,12.87,2.56,6.58,1.32,12.79,3.73,19.08,6.07,12.14,4.46,24.42,8.48,36.85,12.28,21.13,6.51,44.52,17.55,66.6,10.16,11.63-3.95,22.15-7.46,34.58-7.38,12.79.07,24.2,9.29,21.42,23.25-.22,1.02,0,1.9.29,2.78-2.19,3-.29,6.21,2.34,7.46,16.82,8.04,33.19,14.33,51.47,17.98,18.79,3.73,37.5,7.53,56.29,11.26,2.78.58,5.12-.37,6.29-3.07,5.12-12.14,9.14-24.42,11.62-37.36.59-3.22-2.71-4.61-5.26-3.88-5.85-4.75-12.79-4.53-20.03-6.07-7.9-1.75-15.28-5.7-23.25-6.87-6.87-1.02-11.4,1.02-16.6,5.04-7.68,5.92-18.79.66-26.03-3.58-6.29-3.73-11.7-7.39-15.94-13.09.07-1.68-.66-3.29-2.71-4.09-3.58-3.07-7.16-4.9-11.04-4.02-60.53-22.08-122.97-40.06-184.53-58.85-19.16-6.87-38.82-12.94-57.54-20.91-9.14-3.88-17.98-8.04-27.78-10.38-10.75-2.48-21.71-4.31-32.53-6.43-2.49-.44-4.9,2.12-5.04,4.39-.37,8.04-.66,16.23-2.49,24.13-1.24,5.34-5.34,11.62-3.95,17.18Z"/>
  <path class="cls-4" d="m720.56,530.83c.33.13.72.13,1.1.14.48.25.98.44,1.54.47.35-.02.7-.05,1.05-.07.33-.11.67-.22,1-.33,1.55-.97,3.11-1.92,4.66-2.9.55-.35,1.13-.68,1.6-1.14.73-.72,1.23-1.41,1.57-2.39.42-1.23.26-2.48-.21-3.65-.57-1.28-.84-1.88-1.24-2.39-.36-.45-.82-.79-1.33-1.03-.15-1.32-.89-2.52-2.16-3.15-1.08-.53-2.32-.48-3.4-.01-.55.02-1.1.12-1.55.34-.89.43-1.62,1.27-1.94,2.2-1.04,3-2.09,5.99-3.13,8.99-.71,2.05.5,4.17,2.45,4.92Z"/>
  <path class="cls-4" d="m691.66,533.04c3.73-1.45,7.84-1.15,11.79-1.64,3.6-.45,7.17-1.11,10.69-1.98,4.84-1.2,9.44-3,13.95-5.02-3.18-3.35-6.36-6.7-9.53-10.05-4.77-5.03-9.63-9.95-13.99-15.34-1.37-1.69-1.41-4.14.08-5.76,1.33-1.45,4.04-2.2,5.71-.75,10.74,9.34,20.38,20.04,30.36,30.19,2.47,2.51,1.05,6.53-1.68,8.03-7.05,3.89-14.74,6.73-22.57,8.64-3.77.92-7.61,1.6-11.47,2.03-4.12.46-8.89,1.31-12.83-.21-3.29-1.28-4.31-6.66-.51-8.13Z"/>
  <path class="cls-4" d="m503.49,490.6c4.02,1.17,8.12,2.34,12.14,3.51.51.15.95.29,1.46.44,14.99,4.24,29.97,8.63,45.03,12.87,4.24,1.24,8.48,2.49,12.72,3.73,40.06,11.41,80.35,22.44,120.92,31.51,5.63,1.32,8.7-7.02,2.92-8.77-33.78-10.09-68.06-18.64-101.99-27.93-4.97-1.39-9.87-2.71-14.84-4.09-3.8-1.02-7.68-2.12-11.48-3.14-14.18-3.95-28.37-7.97-42.55-11.99-4.31-1.17-8.63-2.41-12.94-3.66-3.95,2.48-7.75,5.04-11.41,7.53Z"/>
  <path class="cls-2" d="m488.44,533.08c3.58,8.41,11.11,14.25,19.08,18.2,4.17,2.05,8.99,2.56,12.72-.73,2.78-2.34,3.88-5.63,5.63-8.7,4.53-8.26,12.87-13.45,20.54-18.57,8.04-5.34,16.08-11.11,23.32-17.55,3.87-3.44,8.04-8.92,8.04-14.18.51-1.61.66-3.22.29-5.05-.95-4.82-5.56-8.12-9.5-10.6-4.39-2.85-9.14-4.53-14.47-4.24-5.41.37-10.46,2.49-15.5,4.39-9.43,3.58-19.3,6.43-27.49,12.5-3.73,2.78-8.19,4.75-11.55,7.9-3.22,2.93-5.7,6.8-7.97,10.46-5.19,8.26-7.02,17.03-3.14,26.17Z"/>
  <path class="cls-4" d="m420.66,677.91c10.67,5.56,26.76-.8,37.14-5.19,12.5-5.41,23.98-13.45,33.19-23.47,19.96-21.64,23.32-48.84,31.51-75.89,4.31-14.11,10.23-27.71,21.42-37.72,9.87-8.77,21.79-14.91,30.93-24.49.8-.73,1.54-1.61,2.27-2.41,1.83-2.12,3.44-4.46,4.75-6.87,4.24-8.04,4.9-17.33-1.76-25.08-16.74-19.45-42.55-7.97-65.21,6.29-3.95,2.48-7.75,5.04-11.41,7.53-8.77,5.99-16.67,11.62-22.73,14.91-8.41,4.6-20.47,9.21-28,.66-6.87-7.9-4.68-19.3,1.9-26.61.73-.88,1.17-1.76,1.39-2.71-3.58-1.02-7.09-2.05-10.67-3.14-7.53,9.43-10.82,21.71-5.63,33.26,5.19,11.62,17.47,17.03,29.76,14.84,13.96-2.56,25.95-12.36,37.43-19.96,3.22-2.12,6.58-4.68,10.16-7.31,3.43-2.63,7.02-5.34,10.75-7.82,12.35-8.34,25.81-14.33,39.19-6.8,8.19,4.53,7.89,12.06,3.36,18.79-.37.44-.73.95-1.1,1.46-2.12,2.7-4.53,5.05-7.17,7.24-6.07,5.26-13.09,9.5-19.37,14.18-18.5,13.89-27.2,32.9-33.41,54.61-6.43,22.44-11.7,46.21-28,63.83-7.6,8.19-16.74,14.84-26.9,19.59-5.63,2.63-11.48,4.53-17.55,5.92-5.19,1.09-11.04.88-15.57,3.87-2.7,1.76-4.31,6.58-.66,8.48Z"/>
  <path class="cls-4" d="m274.08,421.08c21.49,6.95,42.99,13.67,64.56,20.32,35.53,11.04,71.06,21.79,106.74,32.32,3.58,1.1,7.09,2.12,10.67,3.14,15.79,4.68,31.58,9.21,47.45,13.75,3.66-2.49,7.46-5.05,11.41-7.53-78.37-22.3-156.45-45.77-234.1-70.41-2.05,3-4.24,5.78-6.73,8.41Z"/>
  <path class="cls-4" d="m288.11,359.37c1.1,3.36,1.9,6.73,2.34,10.16,19.3,5.92,38.67,11.92,57.97,17.91,22.15,6.8,44.23,13.67,66.38,20.62,4.53,1.39,9.07,2.78,13.6,4.24,25,7.75,49.93,15.5,74.94,23.25,4.61,1.46,9.21,2.85,13.75,4.31,25.81,7.97,51.69,16.01,77.49,23.91-3.07-4.46-6.14-8.7-9.5-12.58-17.69-5.41-35.39-10.89-53.08-16.37-5.63-1.76-11.26-3.51-16.96-5.27-25-7.75-50.08-15.5-75.16-23.25-5.12-1.61-10.31-3.22-15.5-4.83-45.4-14.04-90.8-28.07-136.28-42.11Z"/>
  <path class="cls-4" d="m653.66,481.76c17.26,5.26,34.44,10.38,51.69,15.5,4.9,1.46,7.46-5.99,2.56-7.6-16.81-5.41-33.56-10.67-50.37-15.94.22.73.29,1.46.37,2.19.37,3-1.61,4.82-3.8,5.04-.14.29-.29.51-.44.8Z"/>
  <path class="cls-1" d="m228.17,397.02c.88,4.09,2.27,8.41,5.56,11.04,1.53,1.24,3.29,1.76,4.97,1.76,2.92.88,5.78,1.83,8.63,2.7,4.02,1.32,7.97,2.63,11.99,3.8,2.78-2.27,5.12-5.12,7.09-8.26,2.7-4.17,4.61-8.92,5.7-13.53,2.27-9.43,3.73-19.74,3.07-29.75-.22-3.29-.73-6.65-1.46-9.87-3-.95-6.07-1.83-9.07-2.78-5.34-1.68-10.67-3.29-16.01-4.97-1.68-.51-3.07-.15-4.09.73-.88.15-1.76.44-2.78.88-6.8,3.14-11.63,17.47-13.16,24.05-1.9,7.9-2.19,16.23-.44,24.2Z"/>
  <path class="cls-4" d="m259.31,416.32c1.68.66,3.44,1.17,5.12,1.68,3.22,1.1,6.43,2.12,9.65,3.07,2.48-2.63,4.68-5.41,6.73-8.41,8.26-12.65,11.84-28.15,9.65-43.13-.44-3.44-1.24-6.8-2.34-10.16-3.07-.95-6.21-1.9-9.28-2.85-1.68-.51-3.44-1.1-5.12-1.61.73,3.22,1.24,6.58,1.46,9.87.66,10.01-.8,20.32-3.07,29.75-1.1,4.61-3,9.36-5.7,13.53-1.97,3.14-4.31,6-7.09,8.26Z"/>
  <path class="cls-2" d="m520.9,412.74c4.24,7.97,14.47,10.6,22.66,11.92,10.16,1.68,19.23,3.43,28.51,8.26,4.53,2.34,9.36,4.61,13.45,7.68,3.95,3.07,6.8,7.46,9.8,11.48,6,8.19,11.55,17.25,19.74,23.47.59.44.81.88,1.17,1.17,4.24,4.02,11.04,9.5,17.03,10.09,14.48,1.61,21.71-16.3,12.58-26.39-5.05-18.86-16.01-35.24-30.49-47.74-7.46-6.51-15.79-11.84-24.64-16.23-9.29-4.61-19.3-9.21-29.9-8.92-11.41.29-50.59,5.41-39.92,25.22Z"/>
  <path class="cls-4" d="m424.39,401.48c5.19,1.61,10.38,3.22,15.5,4.83,16.16-7.31,33.92-12.28,50.88-16.67,35.9-9.28,71.79-8.92,103.82,11.41,25.88,16.38,43.06,40.87,52.42,69.38.51,1.46.95,2.92,1.39,4.46-.88,1.68-2.12,3.07-3.51,4.24-3.36,2.85-7.9,4.32-12.43,3.95-7.68-.51-14.47-6.07-19.37-11.55-.8-.88-1.54-1.83-2.27-2.78-3.22-3.88-6-8.11-8.85-12.28-4.46-6.8-8.99-13.45-15.21-18.86-20.25-17.47-48.11-17.77-71.72-8.04,5.7,1.76,11.33,3.51,16.96,5.27,9.8-2.27,19.88-2.34,29.75.66,10.02,3.07,17.18,8.7,23.32,15.72,3.36,3.88,6.43,8.12,9.5,12.58,1.24,1.76,2.41,3.51,3.66,5.26,7.82,11.33,18.79,23.25,33.63,23.69,8.99.29,17.4-3.8,21.79-10.97,2.63-1.03,4.61-2.85,4.24-5.85-.07-.73-.14-1.46-.37-2.19-5.19-37.14-33.27-69.97-65.65-87.07-35.68-18.79-73.84-16.74-111.71-5.78-18.64,5.41-38.9,10.75-55.78,20.62Z"/>
  <path class="cls-4" d="m520.48,582.18c20.04,4.9,43.38,6.98,60.37-7.11,15.02-12.46,15.67-34.73,12.59-52.73-.25-.26-.52-.5-.66-.84-.57-1.09-.75-2.39-1.01-3.59-.2-.91-.38-1.82-.55-2.74-.12-.54-.11-1.06.03-1.58.06-.55.26-1.06.59-1.52.24-.28.49-.55.74-.83.41-.38.87-.63,1.4-.75.32-.16.67-.22,1.03-.2.53-.08,1.06-.02,1.58.17.76.29,1.35.8,1.85,1.41.47.19.87.48,1.19.89.84.84,1.53,1.87,2.1,2.91.57,1.04.96,2.2,1.22,3.34.15.66,0,1.39-.26,2.05,1.52,3.95,1.58,8.83,1.85,12.68.44,6.31.75,12.74-.11,19.03-1.59,11.57-6.76,22.08-15.57,29.83-19.78,17.42-47.91,16.44-71.84,9.86-6.79-1.87-3.25-11.93,3.45-10.29Z"/>
  <path class="cls-4" d="m524.47,550.56c3.51.27,6.56,1.59,10.01,2.15,3.22.53,6.56.64,9.8.2,6.27-.85,12.25-3.28,17.04-7.46,4.68-4.08,8.02-9.4,9.86-15.31,1.96-6.3,1.77-12.93.88-19.4-.58-4.23,5.19-6.4,7.2-2.4,7.44,14.8,1.13,34.84-10.88,45.35-6.3,5.52-14.49,9.05-22.79,10.03-4.06.48-8.17.51-12.2-.14-2.25-.36-4.49-.84-6.65-1.54-2.49-.8-4.22-2.1-6.04-3.94-2.8-2.84,0-7.82,3.76-7.54Z"/>
  <path class="cls-4" d="m467.89,662.26c2.78,60.24,17.4,119.53,30.49,178.39,1.32,5.7,2.56,11.41,3.8,17.11,7.16,33.27,14.04,66.68,18.72,100.38,4.09-1.09,7.97-2.92,11.11-5.63-5.26-34.8-12.57-69.31-20.11-103.6-.66-2.92-1.32-5.85-1.9-8.77-13.01-59.29-25.3-118.37-34.36-178.39-.58-4.39-7.97-3.95-7.75.51Z"/>
  <path class="cls-4" d="m322.4,781.65c.29,8.12.58,16.3.88,24.42.81,1.32,1.53,2.63,2.34,3.95,3.36,5.7,6.73,11.48,10.09,17.26.22.44.51.88.73,1.32,0-.44,0-.88-.07-1.32-.15-4.75-.29-9.58-.44-14.33-.07-2.85-.15-5.63-.22-8.48-3.51-6-7.02-12.06-10.53-18.06-.95-1.61-1.9-3.14-2.78-4.75Z"/>
  <path class="cls-3" d="m319.04,935.04c.15,1.9,2.05,3.95,3.88,4.46,1.53.37,3,.73,4.53,1.1,4.17,1.02,8.41,2.05,12.65,3,25.73,5.85,51.83,10.38,78.08,13.16,30.85,3.22,63.6,5.99,94.6,2.92,2.71-.29,5.48-.73,8.12-1.54,4.09-1.09,7.97-2.92,11.11-5.63,2.27-1.97,4.09-4.39,5.34-7.38,4.9-12.21-1.02-29.32-2.92-41.75-2.34-15.35-3.29-32.1-7.9-46.94-1.76-5.85-5.41-10.82-10.31-13.6-.88-1.68-2.63-2.93-5.04-2.78-.37,0-.81.07-1.17.07-3.88.29-7.75.44-11.62.51-48.54,1.1-96.29-11.04-144.76-12.57-4.75-.15-11.26-1.02-17.25-.8-4.83.22-8.7,1.02-11.55,2.92-7.6,6.14-6.14,20.54-6.8,28.15-1.98,25.59-1.46,51.25,1.02,76.69Z"/>
  <path class="cls-2" d="m668.6,293.38c4.18,6.17,12.52,7.39,18.92,4.17,3.22-1.62,6.84-4.76,8.96-7.66,3.61-4.93,2.34-10.66-.88-15.44-2.26-3.35-5.77-6-9.62-7.24-6.97-2.25-14.81.49-18.23,7.12-3.13,6.06-3.01,13.34.85,19.06Zm4.67-8.53c-1.35-7.32,11.63-15.16,15.43-4.7,2.4,6.63-6.45,13.29-12.2,9.26-1.94-1.36-2.93-2.95-3.23-4.56Z"/>
  <path class="cls-2" d="m557.87,749.9c19.17-4.08,37.09-10.58,53.75-21.05,3.33-2.09,6.63,2,5.81,5.12-5.1,19.48-8.75,39.29-10.91,59.31-.53,4.89-8.1,4.43-7.64-.49,1.62-17.34,4.43-34.54,8.26-51.52-14.73,8.3-31,14.55-47.59,17.26-5.59.91-7.24-7.45-1.68-8.63Z"/>
  <path class="cls-2" d="m239.37,549.41c.25,7.57,5.61,15.39,13.18,17.31,3.72.94,7.76.66,11.15-1.26,3.35-1.9,5.74-4.74,7.39-8.18,2.9-6.07,2.41-14.05-2.35-19.07-.77-.81-1.72-1.26-2.71-1.35-3.99-2.61-9.17-3.52-13.86-2.59-7.22,1.44-13.05,7.52-12.8,15.13Zm8.83.39c.03-.78.1-1.4.09-1.95,1.77-3.11,2.17-3.47,2.62-3.81,2.12-.88,2.71-1.12,3.31-1.23,1.5-.08,2.12-.16,2.69-.11,3.85,1.17,4.33,1.4,4.76,1.7.92.84,1.21,1.28,1.54,1.66.68,1.45,1,1.81,1.33,2.14.02,1.32-.06,1.95-.13,2.57-.14.66-.24.99-.34,1.32-.17.52-.5,1.1-.66,1.65-1.79,2.55-2.15,2.93-2.56,3.26-1.21.79-1.83.96-2.24,1.21-2.53.21-3.71.09-2.99.16-.98-.3-1.59-.67-2.11-.79-2.4-1.83-2.91-2.37-3.37-2.96-.89-1.41-1.2-2.04-1.46-2.69-.37-1.41-.44-1.77-.48-2.13Z"/>
  <path class="cls-2" d="m371.65,322.79c-39.56-18.85-79.81-36.06-119.01-55.71-39.14-19.62-77.83-40.22-115.94-61.78-4.95-2.8-8.66,5.08-3.82,7.93,37.79,22.23,76.19,43.3,115.34,63.04,38.95,19.65,90.67,44.77,131.33,60.65,5.88,2.3-2.04-11.34-7.89-14.13Z"/>
  <path class="cls-2" d="m386.32,329.02c-39.04-36.91-78.08-73.82-117.11-110.74-8.8-8.32-17.37-18.38-27.47-25.11-8.51-5.68-18.01-5.58-27.83-4.15-25.92,3.79-52,7.66-77.72,12.62-5.74,1.11-5.54,10.06.6,9.35,24.33-2.82,48.53-6.99,72.76-10.6,5.79-.86,11.99-2.26,17.85-1.46,6.28.85,10.56,4.81,15.01,8.9,9.32,8.58,18.46,17.38,27.69,26.06,36.48,34.34,72.96,68.67,109.44,103.01,4.87,4.58,11.63-3.3,6.77-7.89Z"/>
  <path class="cls-2" d="m596.61,209.26c-5.91,22.51-10.66,45.28-14.52,68.22-5.52-8.48-11.04-16.97-16.57-25.45-7.28-11.18-15.15-22.17-20.04-34.66-1.92-4.91-9.6-2.39-7.8,2.62,4.64,12.88,12.08,24.38,19.51,35.78l23.7,36.41c2.08,3.2,7.57,2.23,8.17-1.66,4.13-26.76,9.56-53.32,16.07-79.6,1.35-5.45-7.11-7.04-8.52-1.66Z"/>
  <path class="cls-2" d="m601.85,200.69c-10.4,1.81-20.79,3.65-31.18,5.53-10.23,1.85-21.15,3.03-30.97,6.49-4.55,1.61-3.18,8.39,1.61,8.23,10.21-.35,20.56-3.11,30.59-4.95,8.67-1.59,17.35-3.14,26.03-4.67,1.38,2.99,5.85,2.26,7.4-.28.9-1.48,1.38-2.79,1.66-4.5.46-2.82-1.89-6.41-5.14-5.84Z"/>
  <path class="cls-2" d="m603.62,794.15c-.92-2.79-2.78-4.62-4.74-6.73-1.65-1.78-3.3-3.54-5-5.28-3.47-3.56-7.02-7.04-10.63-10.45-7.13-6.75-14.53-13.22-22.15-19.42-4.43-3.61-10.17,3.01-5.8,6.76,7.35,6.33,14.48,12.92,21.34,19.77,3.34,3.34,6.63,6.74,9.85,10.19,1.65,1.78,3.31,3.55,4.94,5.34,1.89,2.08,3.42,4.03,6.02,5.24,3.47,1.6,7.37-1.76,6.16-5.43Z"/>
  <path class="cls-2" d="m869.22,229.29c19.17-4.08,37.09-10.58,53.75-21.05,3.33-2.09,6.63,2,5.81,5.12-5.1,19.48-8.75,39.29-10.91,59.31-.53,4.89-8.1,4.43-7.64-.49,1.62-17.34,4.43-34.54,8.26-51.52-14.73,8.3-31,14.55-47.59,17.26-5.59.91-7.24-7.45-1.68-8.63Z"/>
  <path class="cls-2" d="m914.97,273.54c-.92-2.79-2.78-4.62-4.74-6.73-1.65-1.78-3.3-3.54-5-5.28-3.47-3.56-7.02-7.04-10.63-10.45-7.13-6.75-14.53-13.22-22.15-19.42-4.43-3.61-10.17,3.01-5.8,6.76,7.35,6.33,14.48,12.92,21.34,19.77,3.34,3.34,6.63,6.74,9.85,10.19,1.65,1.78,3.31,3.55,4.94,5.34,1.89,2.08,3.42,4.03,6.02,5.24,3.47,1.6,7.37-1.76,6.16-5.43Z"/>
</svg>