<?xml version="1.0" encoding="UTF-8"?>
<svg id="Layer_1" data-name="Layer 1" xmlns="http://www.w3.org/2000/svg" viewBox="0 0 1080 1080">
  <defs>
    <style>
      .cls-1 {
        fill: #f12c2e;
      }

      .cls-2, .cls-3 {
        fill: #fff;
      }

      .cls-4 {
        fill: #e55555;
      }

      .cls-5 {
        fill: #0f48f6;
      }

      .cls-6 {
        fill: #0e0e0e;
      }

      .cls-6, .cls-7, .cls-3, .cls-8 {
        stroke: #262424;
        stroke-miterlimit: 10;
      }

      .cls-6, .cls-8 {
        stroke-width: 3px;
      }

      .cls-9 {
        fill: #ddff08;
      }

      .cls-7 {
        stroke-width: .75px;
      }

      .cls-7, .cls-8, .cls-10 {
        fill: #170c1e;
      }

      .cls-3 {
        stroke-width: 8px;
      }
    </style>
  </defs>
  <g>
    <g>
      <polygon class="cls-2" points="961.53 792.39 109.7 808.66 107.42 348.95 954.68 359.7 961.53 792.39"/>
      <g>
        <path class="cls-5" d="m970.35,785.63c-.51-19.02-1.22-38.03-1.58-57-.71-35.64-1.43-71.28-2.14-106.91-.1-3.62-.15-7.24-.26-10.91-.56-27.94-1.12-55.88-1.68-83.82-1.07-52.82-1.83-105.79-3.57-158.66-.05-1.89-.15-3.72-.2-5.56-.2-5.61-.41-11.27-.61-16.88-.05-2.24-.15-4.43-.26-6.68-2.04-.15-4.13-.3-6.17-.41-62.15-3.77-124.45-5.91-186.7-8.21-52.16-1.94-104.31-3.57-156.47-4.74-3.16-.15-6.27-.21-9.43-.26-69.8-1.63-139.65-2.65-209.44-3.06-13.71-.1-27.38-.15-41.04-.15-4.64-.05-9.23-.05-13.87-.05-76.99-.1-153.97.51-230.96,1.78-2.29,0-4.59.05-6.88.1-.05,2.29-.05,4.59-.05,6.93-.05,7.9-.05,15.8.05,23.76,0,1.89,0,3.82.05,5.76.26,20.6.87,41.25,1.28,61.79,1.32,65.77,2.6,131.59,3.87,197.41.61,32.63,1.28,65.31,1.84,97.94.51,26.26.71,51.95-1.28,77.85-.3,3.42-.61,6.88-1.02,10.3,2.91-.1,5.86-.2,8.77-.31,4.38-.15,8.72-.31,13.1-.46,28.19-.97,56.44-1.83,84.63-2.6,3.36-.1,6.68-.2,10.04-.25,120.78-3.31,241.56-5.05,362.4-5.3,75.92-.15,151.78.76,227.7,1.07,18.3.1,36.71.1,55.06-.15,2.75-.05,5.51-.05,8.26-.15,29.32-.46,58.63-1.68,87.85-4.18,2.96-.2,5.91-.46,8.87-.71-.05-2.45-.1-4.84-.15-7.29Zm-95.54,4.18c-2.81.05-5.56.1-8.36.1-29.42.31-58.83,0-88.3-.41-151.37-2.14-302.75-2.5-454.12.36-33.45.61-66.89,1.38-100.34,2.24-3.42.05-6.78.15-10.15.26-33.19.87-66.33,1.89-99.47,3.01,3.42-29.16.77-60.26.15-89.12-1.38-65.31-2.65-130.62-3.98-195.93-.66-33.14-1.28-66.33-1.99-99.47-.36-16.67-.56-33.34-1.02-50.07,171.92,1.89,343.79,3.52,515.71,5,110.38.92,220.76,1.79,331.19,2.5.31,23.96.81,47.87,1.22,71.84.87,57.25,1.94,114.51,3.06,171.77.05,3.42.1,6.83.21,10.2.1,6.53.25,13.1.36,19.63.61,34.06,1.27,68.07,1.99,102.12.26,14.17.36,28.35.56,42.52-28.86,2.09-57.77,3.11-86.72,3.47Z"/>
        <path class="cls-2" d="m120.45,348.59c2.75-2.57,5.63-4.96,8.25-7.67.62-.64,1.23-1.29,1.83-1.94.98-1.1,1.25-1.41,1.52-1.72,1.26-1.47,2.51-2.94,3.74-4.44.95-1.15,2.65-1.76,3.98-.78,1.25.93,1.67,2.64.78,3.98-2.25,3.36-4.84,6.43-7.59,9.4-2.59,2.8-5.33,5.67-8.41,7.94-1.32.98-3.34,1.07-4.44-.34-1.09-1.39-.95-3.23.34-4.44Z"/>
        <path class="cls-2" d="m122.77,331.69c1.03.34,1.7,1.14,2,2.08,3.1,2.21,6.07,4.57,8.9,7.12,1.57,1.42,3.08,2.89,4.52,4.43.74.79,1.46,1.6,2.17,2.42.94,1.08,1.9,2.07,2.19,3.52.39,1.94-1.6,3.82-3.52,3.09-1.71-.65-2.79-2.23-4.02-3.52-.97-1.02-1.98-2.01-2.99-2.99-2.25-2.17-3.73-3.53-6.17-5.49-1.1-.88-2.22-1.74-3.35-2.56-1.48-1.08-3.84-2.15-4.26-4.05-.59-2.65,2.01-4.87,4.54-4.04Z"/>
        <path class="cls-2" d="m155.18,333.06c.26,3.87.52,7.74.78,11.62.13,1.94.24,3.87.39,5.81.14,1.74.71,3.53,2.21,4.58,1.72,1.2,3.76,1,5.74.99,1.85,0,3.71-.02,5.56-.02,3.87-.02,7.73-.02,11.6-.09,1.58-.03,3.12-1.09,3.18-2.8.23-7.07.51-14.13.54-21.21.01-2.54-2.83-3.37-4.34-2.16-1.53-.16-3.08-.21-4.62-.24-1.94-.05-3.88-.07-5.82-.09-4.05-.03-8.09.01-12.14.11-2.07.05-3.21,1.5-3.08,3.5Zm7.33,17.02c-.35-1.15-.38-1.91-.44-2.67-.13-1.77-.25-3.54-.38-5.32-.16-2.23-.32-4.46-.48-6.69,2.93-.06,5.87-.13,8.81-.11,2.02.01,4.05.04,6.07.09,1.19.03,2.39.09,3.59.1-.34,4.83-.61,9.66-.86,14.49-2.45,0-4.9.01-7.36.03-1.69.01-3.38.03-5.07.04-.89,0-1.77.02-2.66.02-.4,0-.81.01-1.21.01Z"/>
        <path class="cls-2" d="m201.34,349.48c4.28-.17,8.6.01,12.88.03,4.29.02,8.58.06,12.87.19,1.44.04,2.58,1.43,2.49,2.83-.1,1.55-1.39,2.45-2.83,2.49-4.3.13-8.59.17-12.89.19-4.28.02-8.6.2-12.88.03-1.56-.06-2.8-1.54-2.7-3.07.11-1.69,1.5-2.64,3.07-2.7Z"/>
      </g>
    </g>
    <g>
      <rect x="525.07" y="482.02" width="239.64" height="76.56" transform="translate(-124.34 828.34) rotate(-60.72)"/>
      <path class="cls-3" d="m432.91,582.64c-.54-9.85-5.81-14.94-11.38-17.57,9.06-9.63,16.26-23.6,8.47-35.3-13.32-20.01-42.58-5.56-42.58-5.56l-98.58,69.36,16.48,36.6-34.55-7.36-87.93,49.29,26.28,105.86h96.08l3.36-55.96,94.51-71c10.97-7.43,18.96-15.21,19.77-22.42,1.28-11.29-2.61-16.62-7.26-19.07,9.44-7.62,17.86-17.2,17.33-26.88Z"/>
      <path class="cls-8" d="m362.69,612.22c-.83,0-1.62-.45-2.02-1.24-.57-1.12-.13-2.48.99-3.06,30.74-15.71,57.96-44.13,58.23-44.41.86-.91,2.3-.94,3.21-.08.91.86.94,2.3.08,3.21-.28.29-28.03,29.27-59.45,45.33-.33.17-.68.25-1.03.25Z"/>
      <path class="cls-4" d="m306.04,658.75c-1.2,0-2.35-.68-2.89-1.84-.74-1.59-.04-3.48,1.55-4.22,31.97-14.79,77.72-54.96,78.18-55.36,1.32-1.16,3.33-1.03,4.49.28,1.16,1.32,1.03,3.33-.28,4.49-1.9,1.67-46.9,41.18-79.71,56.36-.43.2-.89.29-1.33.29Z"/>
      <rect class="cls-1" x="614.64" y="757.64" width="140.11" height="140.11"/>
      <path class="cls-3" d="m816.34,438.7c-34.05,46.75-56.32,95.3-90.4,75.17-34.08-20.13,14.98-81.85,14.98-81.85-62.49,28.43-66.32-37.89-66.32-37.89-8.01,4.44-14.84,10.91-17.73,17.3-5.04,11.16-5.52,79.29-30.85,78.82-27.5-.51-31.29-34.86-32.73-67.05-.46-10.19-1.83-31.37,6.12-50.37,0,0-11.46-23.52,10.93-45.53,16.52-16.24,39.83-36.54,104.27-41.28l12.23-17.87,142.41,82.95s-33.33,60.7-52.93,87.6Z"/>
      <path class="cls-6" d="m600.38,374.81c-.56.27-1.23.31-1.85.04-1.12-.49-1.63-1.79-1.15-2.9.22-.51,5.58-12.73,17.26-26.66,10.8-12.89,29.24-29.64,55.79-36.29,1.18-.3,2.38.42,2.68,1.61.3,1.18-.42,2.38-1.61,2.68-25.35,6.35-43.02,22.39-53.39,34.74-11.3,13.45-16.63,25.57-16.68,25.69-.22.5-.6.88-1.06,1.11Z"/>
      <path class="cls-6" d="m741.9,434c-.22.11-.47.18-.73.21-1.21.13-2.3-.74-2.44-1.96-.03-.27-3.14-26.73-19.38-35.06-16.53-8.48-43.89-1.02-44.16-.94-1.18.33-2.39-.36-2.72-1.53-.33-1.18.36-2.39,1.53-2.72,1.19-.33,29.29-8.02,47.37,1.26,18.36,9.43,21.62,37.33,21.75,38.51.1.95-.41,1.83-1.23,2.23Z"/>
      <path class="cls-6" d="m717.43,413.98c-1.1.53-2.42.08-2.95-1.02l-9.36-19.22c-.53-1.1-.08-2.42,1.02-2.95s2.42-.08,2.95,1.02l9.36,19.22c.53,1.1.08,2.42-1.02,2.95Z"/>
      <polygon class="cls-2" points="684.69 869.6 635.46 869.6 660.08 826.96 684.69 784.33 709.31 826.96 733.92 869.6 684.69 869.6"/>
      <g>
        <rect class="cls-9" x="296.61" y="566.72" width="129.93" height="129.93" transform="translate(-156.11 120.06) rotate(-15.55)"/>
        <polygon class="cls-2" points="401.66 618 383.86 649.53 327.68 617.81 302.63 662.19 316.41 711.69 441.58 676.86 429.59 633.78 401.66 618"/>
        <path class="cls-2" d="m404.11,584.7c3.06,10.99-3.37,22.38-14.37,25.44-10.99,3.06-22.39-3.37-25.44-14.37-3.06-10.99,3.37-22.39,14.37-25.44,10.99-3.06,22.39,3.37,25.44,14.37Z"/>
        <path class="cls-7" d="m316.4,714.01c-1.01,0-1.95-.67-2.23-1.7-.34-1.23.38-2.51,1.61-2.85l122.94-34.21-34.21-122.94c-.34-1.23.38-2.51,1.61-2.85,1.23-.34,2.51.38,2.85,1.61l34.83,125.18c.34,1.23-.38,2.51-1.61,2.85l-125.18,34.83c-.21.06-.42.09-.62.09Z"/>
      </g>
      <path class="cls-3" d="m387.83,496.41c-15.03-17.46-66.47,4.08-117.85,31.61-36.28,19.44-96.7,71-110.79,104.96-14.1,33.96-23.35,100.07-23.35,144.99h110.29v-24.74s73.88-19.03,52.29-109.75c0,0,8.41-10.69,21.99-28.75,10.81-14.38,22.69-35.35,17.95-50.1,9.59-5.29,27.67-15.26,39.83-21.92,17.24-9.43,24.67-28.83,9.63-46.3Z"/>
      <path class="cls-10" d="m263.18,747.98c-.78,0-1.54-.4-1.96-1.12-.63-1.08-.27-2.47.81-3.11,18.98-11.11,48.66-38.84,34.17-99.75-.16-.67,0-1.38.42-1.93.08-.11,8.55-10.88,21.96-28.72,6.96-9.26,22.61-32.47,17.61-48.04-.38-1.19.27-2.47,1.47-2.86,1.19-.38,2.47.27,2.86,1.47,5.45,16.96-9.13,39.96-18.3,52.16-11.29,15.01-19.09,25.04-21.35,27.93,14.56,63.01-16.59,91.97-36.54,103.65-.36.21-.76.31-1.14.31Z"/>
      <path class="cls-8" d="m192.68,631.69c-.86,0-1.69-.5-2.07-1.33-.52-1.14-.01-2.49,1.13-3.01l38.91-17.64c2.18-2.22,15.79-16.02,31.28-29.95,22.86-20.55,38.83-31.6,47.45-32.84,12.59-1.82,20.39,2.88,24.71,7.14,4.68,4.61,6.35,9.66,6.42,9.87.39,1.19-.27,2.47-1.46,2.86-1.19.39-2.47-.27-2.86-1.46-.23-.68-5.82-16.85-26.16-13.91-15.54,2.24-60.44,45.35-76.43,61.77-.2.2-.43.37-.69.48l-39.3,17.81c-.3.14-.62.2-.94.2Z"/>
      <path class="cls-10" d="m338.89,568.89c-1,0-1.91-.66-2.19-1.66-.33-1.21.37-2.46,1.58-2.79,10.37-2.87,41.9-19.87,54.85-42.97.61-1.09,2-1.48,3.09-.87,1.09.61,1.48,2,.87,3.09-7.47,13.32-20.26,23.93-29.67,30.48-11.38,7.92-22.23,13.06-27.93,14.64-.2.06-.41.08-.61.08Z"/>
    </g>
    <path class="cls-5" d="m919.1,276.04c.72-1.58.19-3.99-.95-5.15-.99-.92-1.92-1.81-2.91-2.73-2.67-2.52-5.4-5.07-8.16-7.56-16.7-15.19-34.25-29.48-52.68-42.43-21.68-15.18-44.98-30.78-69.51-40.99-2.15-.87-4.42-1.66-6.74-2.09-3.54-.8-7.24-.92-10.77-.04-2.56.65-4.98,1.83-7.22,3.72-8.99,7.76-12.03,23.86-16.04,34.58-4.95,13.23-8.77,27.84-14.58,40.76-2.1,4.68-9.96,14.25-7.51,18.47-.08,1.7,7.8,6.64,9.67,7.51.27.15.63.27.91.42,3.03,1.35,5.99,2.82,8.92,4.34,36.8,18.96,69.4,41.55,105,62.58,3.49,2.06,7.98,5.42,12.56,7.69,3.71,1.8,6.96,2.74,9.92,2.38,8.37-1.8,13.56-13.92,17.38-19.73,12.65-19.65,23.47-40.38,32.72-61.74Z"/>
    <path class="cls-5" d="m134.8,918.37c.28,2.9,2.11,5.94,3.75,6.64,1.38.49,2.69.98,4.07,1.47,3.74,1.38,7.55,2.75,11.35,4.02,23.07,7.79,46.36,13.55,69.65,16.62,27.36,3.53,56.36,6.31,83.37.23,2.35-.57,4.76-1.36,7.01-2.71,3.51-1.86,6.77-4.83,9.33-9.1,1.84-3.12,3.26-6.89,4.11-11.53,3.35-18.89-3.19-44.78-5.83-63.7-3.25-23.37-5.4-48.93-10.6-71.42-2-8.86,1.18-14.88-3.34-18.91-.9-2.53-9.32-5.77-11.43-5.44-.32.02-.7.15-1.02.17-3.38.62-6.78,1.02-10.18,1.3-42.58,3.85-85.48-12.56-128.2-12.74-4.19,0-9.97-1.06-15.22-.45-4.22.55-7.57,1.96-9.93,4.99-6.2,9.73-3.79,31.69-3.78,43.34.26,39.22,2.71,78.43,6.88,117.22Z"/>
  </g>
  <rect x="682.09" y="394.65" width="33.42" height="66.24" transform="translate(-16.09 828.08) rotate(-60.72)"/>
</svg>