<?xml version="1.0" encoding="UTF-8"?>
<svg id="Layer_16" data-name="Layer 16" xmlns="http://www.w3.org/2000/svg" viewBox="0 0 1080 1080">
  <defs>
    <style>
      .cls-1 {
        fill: #f12c2e;
      }

      .cls-2 {
        fill: #fff;
      }

      .cls-3 {
        fill: #0f48f6;
      }

      .cls-4 {
        fill: #ddff08;
      }
    </style>
  </defs>
  <polygon class="cls-2" points="127.55 419.61 253.46 498 367.67 494.33 372.44 671.89 252.36 677.02 127.55 749.05 127.55 419.61"/>
  <g>
    <path d="m650.77,510.97c-.38,0-.77-.05-1.16-.16-2.33-.64-3.71-3.05-3.06-5.38,12.6-45.98,22.99-94.56.24-138.6-22.74-44-69.21-64.13-111.67-78.01-51.64-16.89-120.32-37.98-209.98-64.47-2.32-.69-3.64-3.12-2.96-5.44.68-2.32,3.13-3.64,5.44-2.96,89.75,26.52,158.51,47.63,210.23,64.55,44.15,14.44,92.54,35.51,116.73,82.32,24.2,46.84,13.48,97.28.42,144.93-.53,1.94-2.29,3.22-4.22,3.22Z"/>
    <g>
      <path class="cls-2" d="m567.73,664.37l-75.87-1.5c1.11-55.87,5.6-113.97,46.34-156.47,40.71-42.46,99.79-49.73,152.21-51.24,62.59-1.8,145.34-2.68,252.97-2.68v75.88c-106.9,0-188.94.87-250.79,2.65-37.06,1.07-77.87,5.22-99.62,27.9-21.84,22.78-24.41,62.89-25.25,105.46Z"/>
      <path d="m567.73,668.74s-.06,0-.09,0l-75.87-1.51c-1.16-.02-2.27-.51-3.07-1.34-.81-.84-1.25-1.96-1.22-3.12,1.13-56.73,5.73-115.77,47.55-159.41,41.8-43.6,101.93-51.05,155.25-52.59,62.63-1.8,145.42-2.68,253.1-2.68,2.42,0,4.38,1.96,4.38,4.38v75.88c0,2.42-1.96,4.38-4.38,4.38-106.85,0-188.84.87-250.66,2.65-36.17,1.04-75.93,5.01-96.59,26.55-20.75,21.65-23.21,60.85-24.03,102.52-.02,1.16-.51,2.26-1.34,3.07-.82.78-1.9,1.22-3.03,1.22Zm-71.4-10.17l67.11,1.33c.97-41.84,4.21-80.91,26.37-104.03,22.84-23.83,64.71-28.15,102.66-29.25,61.06-1.76,141.73-2.62,246.53-2.65v-67.13c-105.46.02-186.77.9-248.47,2.68-51.54,1.48-109.57,8.57-149.18,49.89-38.6,40.27-43.77,95.5-45.03,149.15Z"/>
    </g>
    <path class="cls-1" d="m369.09,616.78c-1.74-6.73-11.42-72.44-51.86-86.22-7.43-2.53-34.71-3.63-47.56-6-6.26-1.16-20.29-6.19-26.44-7.78-31.16-8.05-49.29-30.43-74.48-50.27-5.44-4.29-11.9-8.6-18.84-4.68-19.69,11.1-1.53,42.43-.37,58.17.87,11.8-3.77,23.71-5.52,35.37-1.9,12.69-2.84,25.53-2.8,38.37.07,20.46,2.61,40.79,4.13,61.17,1.45,19.43,3.35,40.9-.41,60.11-2.55,13.04-8.81,25.86-19.59,33.63.02-67.53.05-135.05.07-202.58.01-41.44.03-82.88.04-124.32,0,1.36,11.64,7,13.19,7.93,4.69,2.82,9.38,5.64,14.07,8.46,9.26,5.57,18.54,11.1,27.77,16.71,18.4,11.19,36.81,22.35,55.22,33.51,5.63,3.41,11.33,6.86,17.63,8.75,13.15,3.96,102.13,1.05,115.81,1.44.32,17.44-1.23,30.79-1.47,48.22"/>
    <path d="m124.59,758.07c-.75,0-1.49-.19-2.16-.57-1.37-.78-2.22-2.24-2.21-3.82l.86-335.63c0-1.59.87-3.05,2.25-3.82,1.39-.77,3.08-.73,4.43.11l128.14,79.52,118.3-.88c1.03,0,2.29.43,3.13,1.25.84.82,1.31,1.93,1.32,3.1l1.29,176.03c.02,2.39-1.88,4.35-4.26,4.41l-118.44,1.51-130.38,78.18c-.69.42-1.47.62-2.25.62Zm5.22-332.15l-.82,320.03,124.72-74.78c.65-.39,1.39-.6,2.14-.62l113.29-1.43-1.22-167.32-113.17.84c-.71-.02-1.66-.22-2.37-.66l-122.56-76.06Z"/>
    <path class="cls-2" d="m404.25,404.75c-8.86.86-18.97-.08-25.02,6.39-4.73,5.06-5.52,12.49-6,19.36-6.86,96.53-4.22,205.23.91,301.86.38,7.08.78,14.3,3.45,20.87,2.67,6.57,8.08,12.49,15.09,13.85,0,0,387.44,3.66,387.91-1.86,32.1,1.17,52-36.78,52-76.64,0-49.89,1.71-107.35-.88-157.18-2.75-53.05-1.97-91.15-12.32-104.43-10.4-13.36-19.5-22.62-44.6-22.62-92.65,0-343.27-2.27-370.54.39Z"/>
    <path d="m627.03,772.66c-12.78,0-26.32-.02-40.58-.05-95.83-.22-192.84-1.13-193.81-1.14-.27,0-.53-.03-.8-.08-7.89-1.54-14.73-7.71-18.31-16.5-2.97-7.31-3.4-15.27-3.77-22.29-6.44-121.45-6.73-220.36-.9-302.4.56-7.87,1.58-16.05,7.17-22.04,6.06-6.48,14.87-6.97,22.64-7.4,1.74-.1,3.47-.19,5.16-.36h0c19.78-1.92,154.67-1.3,263.07-.79,42.01.2,81.7.38,107.9.38s37.32,10.54,48.05,24.31c9.21,11.82,10.29,38.1,11.93,77.88.37,9.06.77,18.76,1.3,29.01,1.87,36.04,1.51,75.78,1.15,114.2-.14,15.06-.27,29.29-.27,43.2,0,27.97-9.09,53.43-24.32,68.11-8.91,8.59-19.71,13.15-31.11,12.92-5.54,1.61-20.5,2.1-61.71,2.6-24.05.29-55.16.43-92.8.43Zm149.2-7.81h0s0,0,0,0Zm0-.01h0s0,0,0,0Zm0-.01h0s0,0,0,0Zm0-.01h0s0,0,0,0Zm.05-.38c-.02.12-.04.25-.05.38.01-.13.03-.25.05-.38Zm-383.13-1.71c147.02,1.39,368.86,2.19,385.15-1.22.71-.44,1.6-.66,2.45-.64,9.57.34,18.26-3.17,25.82-10.45,13.35-12.87,21.64-36.55,21.64-61.81,0-13.95.13-28.2.27-43.28.35-38.29.71-77.89-1.14-113.67-.53-10.29-.94-20.01-1.31-29.11-1.46-35.34-2.61-63.26-10.09-72.86-10.15-13.03-17.98-20.94-41.14-20.94-26.22,0-65.91-.19-107.94-.38-108.2-.51-242.84-1.13-262.17.75l-.43-4.36.43,4.36c-1.8.18-3.66.28-5.52.38-6.72.38-13.07.73-16.73,4.64-3.65,3.9-4.37,10.12-4.84,16.68-5.8,81.67-5.51,180.23.91,301.31.35,6.64.72,13.51,3.14,19.46,1.86,4.57,5.85,9.84,11.51,11.13Z"/>
    <g>
      <polygon class="cls-1" points="961.62 431.9 903.13 452.47 904.02 528.4 960.3 547.54 961.62 431.9"/>
      <path d="m960.3,551.92c-.47,0-.95-.08-1.41-.23l-56.27-19.14c-1.76-.6-2.94-2.24-2.97-4.09l-.89-75.92c-.02-1.88,1.15-3.56,2.92-4.18l58.49-20.57c1.35-.48,2.84-.26,4,.57,1.16.83,1.84,2.18,1.83,3.61l-1.33,115.63c-.02,1.4-.7,2.71-1.85,3.52-.75.53-1.63.8-2.53.8Zm-51.93-26.67l47.62,16.2,1.19-103.34-49.63,17.45.82,69.69Z"/>
    </g>
    <path d="m495.88,702.84c1.44-4.67,6.39-7.29,11.06-5.85,4.67,1.44,7.29,6.39,5.85,11.06-1.44,4.67-6.39,7.29-11.06,5.85-4.67-1.44-7.29-6.39-5.85-11.06Z"/>
    <path d="m432.19,702.84c1.44-4.67,6.39-7.29,11.06-5.85,4.67,1.44,7.29,6.39,5.86,11.06-1.44,4.67-6.39,7.29-11.06,5.85-4.67-1.44-7.29-6.39-5.86-11.06Z"/>
    <g>
      <path d="m218.25,201.97h0c3.17-15.62,18.4-25.71,34.02-22.54l159.39,32.36c15.62,3.17,25.71,18.4,22.54,34.02h0c-3.17,15.62-18.4,25.71-34.02,22.54l-159.39-32.36c-15.62-3.17-25.71-18.4-22.54-34.02Z"/>
      <path d="m406.11,273.34c-2.21,0-4.43-.22-6.65-.67l-159.71-32.42c-8.66-1.76-16.11-6.78-20.99-14.14-4.88-7.36-6.6-16.19-4.84-24.84l.07-.32c3.63-17.87,21.12-29.45,38.98-25.83l159.71,32.42c17.87,3.63,29.45,21.12,25.83,38.99l-.07.32c-1.76,8.66-6.78,16.11-14.14,20.99-5.48,3.63-11.77,5.51-18.2,5.51Zm-159.72-90.14c-11.32,0-21.48,7.96-23.82,19.48l-.07.32h0c-1.29,6.37-.03,12.85,3.56,18.26,3.59,5.41,9.07,9.11,15.43,10.4l159.71,32.42c13.15,2.67,26-5.85,28.66-18.99l.07-.32c2.67-13.14-5.85-26-18.99-28.66l-159.71-32.42c-1.63-.33-3.25-.49-4.84-.49Zm-28.17,18.93h.03-.03Z"/>
    </g>
    <path d="m750.52,549h-178.03c-.81,0-1.46-.65-1.46-1.46v-83.28c0-.81.65-1.46,1.46-1.46h178.03c.81,0,1.46.65,1.46,1.46v83.28c0,.81-.65,1.46-1.46,1.46Zm-176.57-2.92h175.11v-80.36h-175.11v80.36Z"/>
    <path class="cls-3" d="m736.38,413.68s-98.83,46.2-162.43,38.79c-63.6-7.41-142.5-12.72-155.65,50.35-13.15,63.07-46.01,75.8-43.55,139.55,0,0-7.65-196.99-.13-216.46,7.52-19.48-6.45-22.96,117.25-22.45,123.7.51,257.2,1.29,257.2,1.29l-12.68,8.93Z"/>
    <g>
      <g>
        <path class="cls-1" d="m422.72,933.87l158.33-195.19,25.08,20.35-158.33,195.19c-3.5,4.31-8.93,5.7-14.14,1.47l-9.47-7.68c-4.37-4.13-4.97-9.83-1.47-14.14Z"/>
        <path d="m440.16,960.5c-2.72,0-5.42-1.04-7.91-3.06l-9.47-7.68s-.09-.07-.13-.11c-5.21-4.92-5.9-11.99-1.68-17.19l158.33-195.19c.38-.46.92-.76,1.52-.82.59-.07,1.19.11,1.65.49l25.08,20.35c.97.78,1.11,2.2.33,3.17l-158.33,195.19c-2.17,2.67-4.88,4.31-7.85,4.75-.51.08-1.03.11-1.54.11Zm-14.47-14.18l9.4,7.63c1.98,1.61,3.99,2.27,5.96,1.98,1.83-.27,3.56-1.35,5-3.13l156.91-193.44-21.58-17.51-156.91,193.44h0c-2.74,3.38-2.26,7.7,1.21,11.02Zm-2.96-12.44h.01-.01Z"/>
      </g>
      <g>
        <path class="cls-2" d="m544.59,783.63l47.54-58.61c3.01-3.71,8.51-4.03,12.18-1.27l11.64,9.44c3.97,3.22,4.28,8.46,1.27,12.18l-47.54,58.61-25.08-20.35Z"/>
        <path d="m569.67,806.22c-.52,0-1.02-.18-1.42-.5l-25.08-20.35c-.97-.78-1.11-2.2-.33-3.17l47.54-58.61c3.66-4.51,10.51-5.25,15.28-1.65l11.7,9.49c2.37,1.92,3.82,4.57,4.08,7.45.25,2.81-.63,5.61-2.48,7.89l-47.54,58.61c-.38.46-.92.76-1.52.82-.08,0-.16.01-.23.01Zm-21.91-22.93l21.58,17.51,46.12-56.86c1.11-1.37,1.64-3.02,1.49-4.65-.15-1.68-.99-3.19-2.43-4.36l-11.64-9.44c-2.79-2.11-6.86-1.71-9.01.94l-46.12,56.86Z"/>
      </g>
      <g>
        <path class="cls-4" d="m530.81,682.8c8.48-3.27,15.28-10.12,19.6-18.11,4.32-7.99,6.32-17.07,7.03-26.13.79,8.6,1.63,17.37,5.1,25.27,3.47,7.91,10.1,14.94,18.58,16.58-8.12,1.4-14.71,7.79-18.28,15.21-3.57,7.42-4.55,15.81-5.03,24.03-1.03-7.74-2.14-15.7-6.05-22.45-4.18-7.22-11.51-12.53-20.94-14.41Z"/>
        <path d="m557.81,721.92c-1.12,0-2.08-.83-2.23-1.95-.95-7.1-2.03-15.15-5.77-21.62-3.99-6.9-10.89-11.63-19.43-13.33-.98-.2-1.72-1.02-1.8-2.02-.09-1,.5-1.93,1.43-2.3,7.49-2.89,14.04-8.96,18.43-17.08,3.71-6.87,5.99-15.36,6.77-25.23.09-1.17,1.06-2.07,2.23-2.08h.01c1.16,0,2.14.89,2.24,2.05.77,8.32,1.56,16.93,4.92,24.58,3.6,8.21,9.94,13.92,16.94,15.28,1.07.21,1.84,1.15,1.83,2.24s-.8,2.01-1.87,2.2c-6.77,1.17-12.99,6.39-16.64,13.97-3.46,7.19-4.36,15.39-4.81,23.18-.07,1.16-1,2.08-2.17,2.12-.03,0-.06,0-.09,0Zm-20.74-39.68c7.15,2.68,12.94,7.46,16.64,13.85,1.62,2.79,2.78,5.77,3.66,8.81.77-3.5,1.86-6.94,3.45-10.24,3.12-6.48,7.92-11.51,13.48-14.31-5.77-3.05-10.71-8.55-13.81-15.61-1.56-3.55-2.6-7.22-3.35-10.94-1.2,4.36-2.79,8.35-4.73,11.95-3.82,7.07-9.15,12.76-15.33,16.48Z"/>
      </g>
      <g>
        <path class="cls-4" d="m622.58,604.35c6.83-2.24,12.32-6.94,15.8-12.41,3.48-5.48,5.09-11.69,5.67-17.9.64,5.89,1.31,11.9,4.11,17.32,2.8,5.42,8.14,10.24,14.98,11.36-6.55.96-11.86,5.34-14.74,10.42-2.88,5.09-3.67,10.83-4.06,16.46-.83-5.3-1.73-10.76-4.88-15.38-3.37-4.95-9.28-8.59-16.88-9.87Z"/>
        <path d="m644.34,631.86c-1.1,0-2.05-.8-2.22-1.9-.79-5.01-1.6-10.19-4.52-14.46-3.14-4.6-8.6-7.77-15.4-8.92-1.02-.17-1.79-1.02-1.87-2.05-.08-1.03.56-1.99,1.54-2.31,5.95-1.95,11.14-6.03,14.61-11.48,2.96-4.66,4.7-10.18,5.33-16.9.11-1.15,1.07-2.04,2.23-2.05h.02c1.15,0,2.12.87,2.24,2.01.61,5.62,1.24,11.43,3.87,16.52,2.82,5.46,7.81,9.26,13.34,10.17,1.1.18,1.9,1.13,1.89,2.24-.01,1.11-.83,2.05-1.93,2.21-5.35.78-10.25,4.26-13.1,9.31-2.71,4.78-3.41,10.28-3.77,15.51-.08,1.14-1,2.05-2.15,2.1-.03,0-.07,0-.1,0Zm-15.1-28.05c5.13,1.94,9.31,5.08,12.08,9.14,1.1,1.61,1.94,3.3,2.61,5.02.61-2.02,1.42-4.01,2.51-5.94,2.31-4.08,5.72-7.34,9.68-9.38-4.14-2.23-7.65-5.8-9.96-10.26-1.06-2.05-1.83-4.17-2.42-6.32-.93,2.55-2.08,4.92-3.46,7.08-2.82,4.44-6.63,8.09-11.05,10.66Z"/>
      </g>
      <g>
        <path class="cls-4" d="m653.82,741.99c12.65-4.22,21.31-6.3,27.76-16.62,6.45-10.31,9.44-26.54,10.5-38.22,1.18,11.1,2.43,22.42,7.61,32.62,5.18,10.2,15.08,19.28,27.73,21.4-12.12,1.8-21.97,10.06-27.3,19.64-5.33,9.58-6.8,20.4-7.51,31.01-1.54-9.98-2.45-24.77-8.29-33.48-6.24-9.32-16.44-13.92-30.51-16.34Z"/>
        <path d="m692.62,794.07c-1.11,0-2.06-.81-2.23-1.91-.28-1.83-.54-3.81-.82-5.89-1.17-8.9-2.63-19.98-7.11-26.68-5.44-8.12-14.39-12.86-29.02-15.38-1.02-.18-1.79-1.02-1.87-2.05-.08-1.03.55-1.98,1.53-2.31,1.07-.36,2.12-.7,3.13-1.03,10.82-3.55,17.96-5.89,23.44-14.64,7.16-11.44,9.49-29.85,10.17-37.23.11-1.15,1.07-2.04,2.23-2.05h.02c1.15,0,2.12.87,2.24,2.02,1.15,10.77,2.33,21.9,7.38,31.84,5.5,10.83,15.26,18.38,26.1,20.2,1.09.18,1.89,1.13,1.88,2.24-.01,1.11-.82,2.04-1.92,2.21-10.49,1.56-20.08,8.48-25.66,18.5-5.2,9.35-6.55,19.98-7.24,30.07-.08,1.15-1,2.05-2.15,2.1-.03,0-.07,0-.1,0Zm-30.28-52.53c11.29,3.05,18.81,8,23.87,15.54,3.29,4.91,5.09,11.53,6.28,18.13,1.15-5.3,2.91-10.53,5.68-15.5,4.81-8.64,12.32-15.23,20.92-18.62-8.94-3.71-16.63-10.9-21.4-20.3-2.86-5.62-4.56-11.63-5.71-17.62-1.64,7.87-4.28,16.68-8.49,23.4-5.43,8.68-12.21,11.89-21.16,14.97Z"/>
      </g>
      <path d="m572.62,790.56c-.17,0-.33-.05-.47-.17l-14.85-12.01c-.32-.26-.37-.73-.11-1.06.26-.32.73-.37,1.06-.11l14.85,12.01c.32.26.37.73.11,1.06-.15.18-.37.28-.58.28Z"/>
    </g>
    <g>
      <g>
        <path class="cls-1" d="m777.16,934.68l-158.33-195.19-25.08,20.35,158.33,195.19c3.5,4.31,8.93,5.7,14.14,1.47l9.47-7.68c4.37-4.13,4.97-9.83,1.47-14.14Z"/>
        <path d="m758.18,961.19c-2.97-.43-5.68-2.08-7.85-4.75l-158.33-195.19c-.78-.97-.64-2.39.33-3.17l25.08-20.35c.46-.38,1.06-.56,1.65-.49.59.06,1.14.36,1.52.82l158.33,195.19c4.22,5.2,3.53,12.27-1.68,17.19-.04.04-.08.08-.13.11l-9.47,7.68c-2.49,2.02-5.19,3.06-7.91,3.06-.52,0-1.03-.04-1.54-.11Zm17.23-25.09h0l-156.91-193.44-21.58,17.51,156.91,193.44c1.44,1.78,3.17,2.86,5,3.13,1.97.29,3.98-.38,5.96-1.98l9.4-7.63c3.47-3.33,3.95-7.65,1.21-11.02Zm1.74-1.42h.01-.01Z"/>
      </g>
      <g>
        <path class="cls-2" d="m655.29,784.43l-47.54-58.61c-3.01-3.71-8.51-4.03-12.18-1.27l-11.64,9.44c-3.97,3.22-4.28,8.46-1.27,12.18l47.54,58.61,25.08-20.35Z"/>
        <path d="m629.97,807.02c-.59-.06-1.14-.36-1.52-.82l-47.54-58.61c-1.85-2.28-2.73-5.09-2.48-7.89.26-2.88,1.71-5.53,4.08-7.45l11.7-9.49c4.77-3.6,11.62-2.86,15.28,1.65l47.54,58.61c.78.97.64,2.39-.33,3.17l-25.08,20.35c-.4.33-.9.5-1.42.5-.08,0-.16,0-.23-.01Zm-23.97-79.78c-2.14-2.64-6.21-3.04-9.01-.94l-11.64,9.44c-1.44,1.17-2.28,2.67-2.43,4.36-.15,1.63.38,3.28,1.49,4.65l46.12,56.86,21.58-17.51-46.12-56.86Z"/>
      </g>
      <path d="m627.26,791.36c.17,0,.33-.05.47-.17l14.85-12.01c.32-.26.37-.73.11-1.06-.26-.32-.73-.37-1.06-.11l-14.85,12.01c-.32.26-.37.73-.11,1.06.15.18.37.28.58.28Z"/>
    </g>
  </g>
</svg>