<?xml version="1.0" encoding="UTF-8"?>
<svg id="Layer_22" data-name="Layer 22" xmlns="http://www.w3.org/2000/svg" viewBox="0 0 1080 1080">
  <defs>
    <style>
      .cls-1 {
        fill: #f12c2e;
      }

      .cls-2 {
        fill: #fff;
      }

      .cls-3 {
        fill: #0f48f6;
      }
    </style>
  </defs>
  <g>
    <polygon class="cls-2" points="944.33 637.66 121.33 644.38 112.48 183.61 925.72 192.87 944.33 637.66"/>
    <g>
      <path class="cls-3" d="m948.87,635.06c-.4-6.46-.75-12.87-.95-19.33-1.35-38.84-.15-77.68.1-116.51.55-77.08-8.52-153.71-13.29-230.57-1.05-16.69-1.6-33.33-1.96-49.98-3.21.04-6.47.09-9.68.23.2,11.23.6,22.42,1,33.56,1.5,38.79,4.21,77.49,6.97,116.19,2.71,38.43,5.27,76.86,5.77,115.38.5,38.79.45,77.63,1.8,116.38.4,11.55.9,23.1,1.66,34.7-102.85.41-205.75.73-308.6,1.18-115.24.54-230.47,1.05-345.71,1.68-52.7.27-105.66-.45-158.41.95-2.56-58.39-4.11-116.79-5.26-175.18-1.3-63.85-.8-127.65-1.15-191.5-.05-13.1-.2-26.19-.3-39.29-3.26.05-6.52.05-9.78.05-4.26,104.64-3.11,209.47.3,314.2,1,30.74,2.16,61.44,3.61,92.14.1,2.27.2,4.59.35,6.87,4.16.14,8.33.23,12.54.27,45.33.73,90.86-.18,136.15-.36,57.62-.23,115.23-.46,172.85-.73,115.24-.59,230.42-1,345.66-1.64,52.75-.32,105.56-.68,158.26-.95,2.86-.04,5.72-.04,8.58-.04-.2-2.59-.4-5.14-.5-7.69Z"/>
      <path class="cls-3" d="m934.32,218.67c-3.23.04-6.5.09-9.73.23-107.32,2.32-214.64,5-321.96,7.41-161.41,3.59-322.97,6.55-484.47,6.64-3.28.05-3.83.66-7.1.66.1-1.68-.2-4.48-.15-6.17.56-12.6-.71-24.51,0-37.1.2-2.59-.16-5.27,0-7.87l6.81-.14c45.97-.91,91.94-1.14,137.87-1.68,119.01-1.41,237.98-2.82,356.99-4.09,104.19-1.14,208.39-2.09,312.58-3.23,2.92,0,5.8-.04,8.72-.09,0,2.64,0,5.23.05,7.87.05,10.78.1,21.6.3,32.38.05,1.73.05,3.46.1,5.18Z"/>
      <g>
        <path d="m392.13,520.03c-1.82,9.96-3.91,19.83-6.23,29.74-1.23-.82-2.5-1.45-3.82-2-.86-.45-1.77-.77-2.68-1.09-6.09-2.23-12.82-2.96-19.96-3.09-.95,0-1.86-.05-2.82-.05-1.09,0-2.23-.04-3.37,0-1.23-.09-2.45-.04-3.73-.09,4-11.05,7.96-22.1,11.96-33.11,4.87,1.91,9.87,3.64,14.73,5.28,4.96,1.68,9.96,3.18,15.1,4.23.27.04.54.14.82.18Z"/>
        <path class="cls-1" d="m491.36,324.39c-28.51-32.7-67.12-49.62-107.55-40.02-64.44,15.28-117.74,87.04-97.78,158.31,17.87,63.9,92.59,94.32,149.26,77.58,44.75-13.23,77.4-50.39,87.59-91.18,9.23-36.75-4.59-73.81-31.52-104.69Zm3.09,132.16c-11.82,18.69-30.01,32.83-50.66,40.93-41.61,16.37-94.5,6.27-122.88-29.24-27.29-34.06-25.47-86.5,1.36-120.24,13.42-16.92,33.02-29.24,53.89-34.79,7.82-2.14,15.83-3.37,23.88-3.59,6.14-.91,12.46-.86,18.46-.32,13.46,1.23,26.47,6,37.75,13.37,22.6,14.78,37.93,39.06,45.66,64.53,7.14,23.56,5.96,48.2-7.46,69.35Z"/>
        <path class="cls-2" d="m405.61,609.87c-.46-6.91-1.56-13.88-3.31-20.66-.35-2.87-.8-5.71-1.55-8.5-2.52-9.42-7.52-17.89-14.19-24.96-.53-.56-1.12-.76-1.67-.69-5.21-4.81-11.62-7.04-19.3-7.71-12.23-1.09-24.6-1.14-36.84-.36-10.69.64-22.06,1.36-31.88,6.14-8.69,4.23-15.01,11.51-19.56,19.92-4.73,8.69-7.5,18.28-10.41,27.7-3.87,12.6-7.78,25.24-11.64,37.84-8.91,28.83-17.87,57.67-26.42,86.59-.18.73-.09,1.32.23,1.77-7.5,21.92-14.41,44.16-21.83,66.03-5.27,15.64-10.55,31.33-15.87,46.98-4.73,14.01-8.23,29.97-17.96,41.48-1.86,2.27,1.14,5.09,3.23,3.64.41.95,1.32,1.59,2.68,1.36,8.6-1.41,17.19-2.86,25.79-4.32.41,1,1.27,1.91,2.32,2.18,18.15,4.59,35.75-.32,53.48-3.91.41.5,1.05.91,1.96,1,10.23,1.09,20.47.86,30.56-1.14,7.96-1.59,16.1-3,17.74-12.1,3.87-21.42,5.77-43.38,8.41-65.03.64.09,1.36,0,2.09-.41,2.09-.32,4.09-1.55,5.41-3.55.68-1.04.5-2-.04-2.73,14.78-8,27.83-20.01,35.79-34.83,10.14-12.64,18.64-26.6,25.1-41.75,7.5-17.55,12.96-35.88,20.15-53.53,3.59-8.78,7.64-17.42,12.46-25.56,3.96-6.59,8.69-13.82,8.73-21.83.05-13.14-16.46-18.24-23.65-9.05Z"/>
        <path d="m280.78,566.77c-9.28,29.58-18.87,59.02-28.42,88.55-16.83,51.92-33.29,103.94-49.98,155.91-7.64,23.69-15.1,47.57-22.83,71.3-.77,2.36-1.55,4.73-2.32,7.09-3.05.19-6.05.32-9.05.28.77-2.32,1.5-4.64,2.27-6.95.59-1.81,1.18-3.66,1.77-5.47,33.84-104.59,67.44-209.31,102.19-313.62,1.41-4.45,7.73-1.39,6.37,2.92Z"/>
        <path d="m413.44,607.9c.9,2.82-1.07,4.71-3.18,4.95-1.52.16-3.13-.52-3.85-2.38-.13-.3-.22-.61-.31-.92-5.21-13.9-6.35-29.31-13.7-42.09-2.18-3.8-4.95-7.37-8.32-10.03-1.7-1.33-3.55-2.47-5.55-3.32-.27-.11-.54-.23-.79-.3-6.57-2.59-13.91-2.58-20.84-2.64-.91-.02-1.86-.03-2.75,0-2.49-.08-4.93-.03-7.38.02-11.56.15-23.16.85-34.64,2.28-12.77,1.57-24.3,5.29-33.34,14.93-1.92,2.07-5.5,0-4.26-2.79,5.71-13,20.81-17.34,33.52-19.28,13.65-2.12,27.62-2.8,41.49-2.82,1.24.02,2.46,0,3.71.06,1.12-.04,2.27,0,3.37.01.95,0,1.86.03,2.81.04,7.15.14,13.9.89,19.98,3.09.89.31,1.8.67,2.68,1.09,1.3.58,2.57,1.21,3.84,2,4.05,2.42,7.66,5.74,10.78,10.37,8.57,12.57,10.25,28.05,14.87,42.37.24.85.54,1.72.87,2.54.28.98.63,1.89,1,2.84Z"/>
        <path d="m407.35,617.65c-5.25-11.43-15.56-18.88-27.12-22.68-12.94-4.27-26.91-6.1-40.32-8.24-13.97-2.23-28.5-4.87-42.67-4.09-2.99.16-2.86,4.45-.19,5.1,11.92,2.89,24.31,3.8,36.41,5.77,11.91,1.93,23.81,4.14,35.52,7.1,10.33,2.61,20.75,6.27,27.43,15.27,6.82,9.2,7.12,20.29,1.42,30.09-2.33,4,4.03,7.95,6.77,4.33,7.02-9.26,7.54-22.2,2.75-32.64Z"/>
        <path d="m410.02,601.96c-.82-.94-1.99-1.42-3.15-.78-.97.54-1.76,1.94-1.2,3.08.32.64.6,1.3.83,1.98.11.32.2.65.29.98.16,1.37.07,2.1.16,2.72-.02.47-.03.85-.03,1.22-.18,2.02-.35,3.46-.7,4.88-.22.71-.35,1.06-.5,1.42-.3.71-.65,1.39-1.05,2.05-.63,1.05-.47,3.02.32,3.98.52,1.14,1.59,2,2.93,1.82.69.04,1.27.02,1.82-.21,1.07-.45,1.71-1.17,2.31-2.18,1.9-3.19,2.98-7.3,2.52-11.04-.45-3.62-2.18-7.21-4.56-9.93Z"/>
        <path d="m379.07,579.94c-9.92,2.02-19.84,4.5-29.46,7.71-2.73.91-1.78,5.37,1.1,5.01,10.05-1.23,20.06-3.25,29.89-5.7,3.89-.97,2.43-7.82-1.53-7.02Z"/>
        <path d="m372.8,591.13c-.72-.69-.93-.95-1.23-1.1-.29-.4-.33-.66-.47-.89-.14-.34-.36-.63-.65-.87-.21-.13-.41-.26-.62-.4-.33-.16-.67-.24-1.02-.22-.23-.04-.46-.02-.69.06-.35.05-.67.18-.97.41-.18.17-.36.34-.54.5-.31.39-.51.82-.59,1.32-.06.25-.07.5-.07.76,0,.25-.03.5,0,.75.04.3.11.6.19.89.21.56.39.9.58,1.23.49.62.74.94,1.04,1.19.3.25.63.48.99.63.51.17.81.28,1.12.35.51.08,1.01.04,1.49-.14.6-.37.81-.48,1.02-.59.39-.28.68-.64.88-1.08.19-.42.26-.87.22-1.33-.05-.57-.32-1.05-.68-1.47Z"/>
        <path d="m377.62,632.29c-12.28-5.01-24.5-8.08-37.61-9.79-14.76-1.92-29.51-3.85-44.38-4.48-3.08-.13-3.98,4.24-.81,4.93,11.74,2.55,23.57,4.22,35.46,5.77,11.28,1.47,22.7,2.65,33.54,6.34,5.16,1.75,10.2,3.87,15.22,5.98,4.78,2.01,9.82,4.07,13.44,7.97,9,9.69-.33,18.14-7.57,24.57-3.49,3.1.25,9.01,4.2,6.16,8.07-5.82,16.54-14.91,14.26-25.83-2.61-12.48-15.46-17.41-25.76-21.61Z"/>
        <path d="m384.44,674.8c-3.52-4.31-8.84-6.18-14.02-7.48-6.99-1.75-14.07-3.16-21.1-4.73-16.77-3.74-33.66-7.38-50.62-10.09-3.53-.56-4.13,4.45-.89,5.43,14.82,4.48,29.9,8.1,44.92,11.84,7.5,1.86,15.03,3.59,22.55,5.38,7.13,1.7,13.47,3.09,14.66,11.56.86,6.15,1.38,13.22-.08,19.3-1.66,6.93-6.85,11.07-12.47,14.76-2.7,1.78-5.45,3.47-8.19,5.2-3.04,1.92-7.1,5.59-10.72,5.84-2.86.2-6.04-1.93-8.57-3.08-3.64-1.66-7.28-3.31-10.92-4.96-5.09-2.31-8.69,5.73-3.58,8.05,5.99,2.72,12.03,6.11,18.32,8.04,6.46,1.97,11.48-1.01,16.87-4.41,10.14-6.41,22.94-12.45,26.94-24.87,1.77-5.49,1.91-11.26,1.63-16.99-.31-6.39-.52-13.62-4.73-18.78Z"/>
        <path d="m338.29,706.03c-2.51,7.12-5.24,14.16-8.4,20.99-5.46,11.72-14.69,24.31-29.07,22.26-5.18-.73-10.17-3.59-12.76-8.33-3.55-6.43-1.66-13.75.5-20.29,2.91-8.88,5.83-17.72,8.79-26.56,2.59.92,5.2,1.79,7.8,2.61,4.44,1.43,8.93,2.75,13.36,3.99,4.27,1.19,8.59,2.37,12.85,3.52.67.19,1.28.34,1.95.53,1.64.43,3.29.91,4.96,1.28Z"/>
        <path d="m348.02,707.44c-2.57.62-4.73-.14-7.23-.75-.81-.19-1.68-.42-2.51-.65-1.67-.37-3.32-.85-4.96-1.28-.67-.19-1.28-.34-1.95-.53-4.26-1.15-8.58-2.33-12.85-3.52-4.43-1.24-8.93-2.56-13.36-3.99-2.6-.82-5.22-1.68-7.8-2.61-2.64-.95-5.24-1.92-7.82-2.99-2.68-1.09-1.3-5.55,1.49-4.89,2.78.62,5.54,1.3,8.29,1.98,2.67.7,5.33,1.41,8.01,2.16,4.26,1.15,8.53,2.34,12.79,3.49,4.52,1.22,9.12,2.41,13.67,3.57.26.07.46.11.71.17,2.1.54,4.13,1.04,6.17,1.55.4.07.86.18,1.27.3,2.41.64,5.08.86,7.03,2.55,1.63,1.4,1.44,4.88-.95,5.45Z"/>
        <path d="m432.74,614.62c1.66,8.29-1.6,16.27-5.37,23.47-4.73,9.13-9.43,18.21-13.6,27.66-8.16,18.36-13.76,37.51-20.43,56.44-6.57,18.76-16.88,35.39-29.95,50.14-4.79,5.43-9.92,10.53-15.28,15.31-1.61,1.49-3.29,2.91-4.97,4.33-1.34,1.12-2.72,2.26-4.13,3.45-6.05,5.03-12.82,10.48-19.9,12.73-2.61.82-5.73-2.64-3.4-4.93,7.08-6.88,16.45-11.55,24.05-17.92,3.28-2.76,6.41-5.58,9.39-8.58,4.46-4.27,8.69-8.86,12.67-13.67,13.61-16.36,22.18-34.26,28.69-54.55,6.45-20.17,13.81-39.84,23.16-58.8,4.31-8.77,11.35-18.1,12.64-28,.51-4.01-.24-9.1-3.23-12.13-.23-.32-.54-.56-.85-.81-2.42-1.84-6.14-2.09-8.73-.54-1.31.73-2.33,1.95-2.75,3.62-.12.42-.26.75-.51,1.02-1.48,1.94-2.49,1.9-2.03-.98.09-.51-.58-1.33-.43-1.81.02-.1-1.38-4.09-1.39-4.13l.55,2.93c.86-2.96,2.05-4.85,4.61-6.34,2.1-1.25,4.62-1.9,7.21-1.8,4.42.23,7.74,2.38,10.13,5.44,1.92,2.42,3.21,5.42,3.84,8.47Z"/>
        <path d="m324.66,802.28c-1.59,13.72-4.73,27.26-7.05,40.84-1.77,10.01-3.41,20.03-4.91,30.09-.41,2.69-.82,5.42-1.23,8.16-2.5,1.39-5.09,1.95-7.64,2.36.14-.83.23-1.67.36-2.5.27-1.76.55-3.52.77-5.29,3.82-24.85,7.37-50.44,14.19-74.59,1-3.43,5.91-2.69,5.5.93Z"/>
        <path d="m332.2,730.22c-1.47-1.03-3.05-.9-4.33.4-2.99,3.05-1.13,9.94-1.17,13.94-.05,5.21-.52,10.42-1.32,15.57-1.55,10.04-4.42,19.81-8.49,29.09-8.45,19.26-21.69,34.13-37.15,47.82-2.78,2.46.02,6.54,3.25,4.76,18.69-10.31,32.78-29.71,41.31-49.16,4.34-9.89,7.45-20.44,9.09-31.15.83-5.43,1.26-10.91,1.37-16.4.08-4.18,1.27-12.21-2.56-14.88Z"/>
        <path d="m312.7,873.21c-.41,2.69-.82,5.42-1.23,8.16-2.5,1.39-5.09,1.95-7.64,2.36-5,.79-10.14,1.02-14.83,1.21-16.69.74-33.38,1.44-50.07,2.13-17.15.7-34.24,1.34-51.34,1.99-3.41.14-6.91.37-10.37.56-3.05.19-6.05.32-9.05.28.77-2.32,1.5-4.64,2.27-6.95,2.64-.14,5.73-.28,9.09-.42,23.1-1.07,60.21-2.64,64.99-2.83,14.28-.6,28.51-1.16,42.79-1.76,6.28-.23,12.1-.6,17.64-1.99,2.68-.6,5.23-1.48,7.73-2.73Z"/>
        <path d="m371.77,366.95c-9.23,2.6-17.69,9.36-25.37,14.87-8,5.74-15.78,11.76-23.42,17.97-3.15,2.56-3.49,7.85.7,9.74,6.24,2.81,12.28,6.08,17.89,9.99,5.8,4.04,10.77,8.82,16.07,13.44,4.52,3.94,12.32-2.44,8.16-7.26-7.91-9.14-18.37-16.58-29.23-22.35,5.3-4.16,10.64-8.28,16.06-12.28,3.89-2.87,7.8-5.71,11.67-8.6,3.93-2.94,8.17-6.03,11.31-9.84,2.28-2.77-.48-6.63-3.83-5.68Z"/>
        <path d="m422.04,347.17c-.45-.45-1.03-.93-1.69-1-2.03-.21-3.96.07-4.94,1.51-10.54,15.42-14.48,35.38-19.8,53.02-2.76,9.13-5.76,18.21-9.67,26.93-3.85,8.59-9.8,17.22-10.76,26.78-.68,6.77,8.03,9.02,10.68,3.44,3.58-8.72,7.92-16.94,11.92-25.56,3.95-8.52,6.96-17.41,9.7-26.38,2.78-9.07,5.07-18.28,7.75-27.38,2.65-8.99,5.97-17.82,8.37-26.88.44-1.68-.4-3.33-1.55-4.47Z"/>
        <path d="m477.42,399.73c-7.47-5.51-14.65-11.37-21.78-17.3-3.41-2.83-6.76-5.73-10.21-8.51-3.65-2.94-7.22-6.27-11.62-8.01-2.29-.9-5.03,1.08-4.13,3.64,1.57,4.46,4.71,7.94,7.79,11.45,3.14,3.57,6.43,6.9,9.89,10.15,4.62,4.34,9.51,8.36,14.49,12.28-12.89,7.2-24.51,16.43-34.42,27.46-5.27,5.2,3.25,14.5,8.99,8.17,10.93-12.05,24.16-21.8,38.92-28.67,3.9-1.82,6.31-7.54,2.08-10.66Z"/>
      </g>
      <path class="cls-2" d="m914.96,201.98c-2.3-1.02-4.53-2.17-6.74-3.38-2.31-1.27-4.15-2.41-6.11-3.79-2.06-1.45-3.98-3.07-5.95-4.63-2.02-1.6-3.85-3.44-5.95-4.92-2.56-1.8-5.55.84-4.05,3.61,1.32,2.45,3.36,4.5,5.27,6.51,1.82,1.92,3.92,3.6,6.02,5.19,4.39,3.33,9.1,6.16,14.14,8.38,1.91.84,4.24.12,5.17-1.81.89-1.84.11-4.32-1.81-5.17Z"/>
      <path class="cls-2" d="m908.72,184.08c-2.3,1.02-4.16,3.03-5.85,4.86-1.58,1.72-3.03,3.59-4.55,5.37-1.47,1.74-2.93,3.48-4.34,5.27-.73.92-1.45,1.85-2.18,2.77-1.01,1.29-2.12,2.47-2.48,4.11-.55,2.51,2.27,5.47,4.84,4.25.91-.43,1.64-.86,2.3-1.63.41-.47.78-.96,1.17-1.44.74-.91,1.48-1.82,2.22-2.73,1.48-1.82,2.91-3.69,4.32-5.56,1.37-1.82,2.79-3.61,4.12-5.46.78-1.08,1.45-2.24,2.15-3.37.69-1.11,1.29-2.25,1.55-3.55.34-1.73-1.5-3.67-3.28-2.88Z"/>
      <path class="cls-2" d="m869.06,183.3c-4.26.52-8.51,1.03-12.77,1.52-2.13.25-4.26.49-6.39.74-2.17.25-4.62.24-6.65,1.08-1.76.73-2.37,2.82-1.68,4.3-.39,1.07-.49,2.3-.6,3.49-.18,2.06-.27,4.13-.21,6.2.12,3.96.83,7.87,1.97,11.65.45,1.47,2.06,2.52,3.58,2.4,4.1-.32,8.2-.64,12.29-.95,1.97-.15,3.93-.3,5.9-.46,2.39-.19,4.9-.28,6.38-2.49,1.2-1.79.97-4.12,1.05-6.18l.23-5.89c.16-4.09.31-8.18.47-12.27.07-1.75-1.91-3.35-3.58-3.15Zm-6.97,22.98c-1.8.15-3.6.3-5.41.45-2.63.22-5.26.44-7.89.66-.59-2.44-1.05-4.91-1.23-7.43-.12-1.7-.14-3.41-.05-5.11.04-.81.15-1.61.22-2.41.87-.11,1.73-.23,2.58-.33,2.13-.24,4.26-.47,6.39-.71,3-.33,6.01-.65,9.01-.97-.13,2.42-.27,4.84-.41,7.26-.1,1.72-.19,3.44-.29,5.16-.05.9-.1,1.8-.15,2.7-1.14.59-1.96.66-2.78.73Z"/>
      <path class="cls-2" d="m822.5,208.1c-4.45.19-8.91.22-13.37.07-2.18-.07-4.36-.14-6.54-.25-2.19-.11-4.76-.67-6.71.44-2.59.2-2.72,3.31-.81,4.39.94.99,1.95,1.38,3.45,1.56,1.04.12,2.08.24,3.12.34,2.47.24,4.94.45,7.42.54,4.63.17,9.26.15,13.89-.05,4.53-.2,4.07-7.22-.45-7.02Z"/>
      <path d="m878.81,516.53c-25.27.57-50.44,3.34-75.75,3.45-12.5.05-24.96-1.01-37.45-.97-6.04.02-12.08,0-18.11,0-6.29,0-12.51-.49-18.21,2.43-3.59,1.84-2.35,7.03.62,8.63,5.14,2.77,11.62,2.23,17.3,2.24,6.04.02,12.07-.06,18.1-.14,12.81-.16,25.58-1.72,38.37-2.41,25.15-1.37,50.68-1.15,75.71-4.08,5.86-.69,5.33-9.28-.58-9.15Z"/>
      <path d="m696.54,527.09c-2.86-2.44-6.04-2.13-9.66-2.32-3.55-.19-7.02-.19-10.58-.07-7.92.25-15.84.19-23.76.27-7.62.08-15.24.13-22.86.19-7.83.06-15.92-.54-23.67.78-5.64.96-6.78,8.96-.67,10.34,7.86,1.77,16.25,1.45,24.26,1.58,7.62.13,15.25.06,22.86-.11,7.61-.17,15.22-.7,22.83-1.08,4.15-.21,8.15-.5,12.26-1.15,3.56-.56,6.78-.72,9.35-3.48,1.29-1.39,1.02-3.76-.38-4.96Z"/>
      <path d="m881.23,489.18c-22.96,3.17-46.12,4.35-69.28,4.15-11.61-.1-23.23-.49-34.82-1.11-11.88-.63-23.64-2.37-35.5-3.3-23-1.79-46.17-2.74-69.22-3.25-11.6-.26-23.21-.32-34.81.15-11.25.46-22.84.63-33.73,3.72-4.61,1.31-4.41,9.24.64,9.67,11.27.95,22.62-.3,33.92-.52,11.6-.23,23.21-.27,34.81-.04,23.28.46,46.48,2.38,69.75,3.09,23.12.7,46.42.87,69.56.78,23.16-.1,46.31-1.24,69.26-4.47,5.64-.79,5.11-9.65-.57-8.87Z"/>
    </g>
  </g>
  <path class="cls-3" d="m169.79,942.25c.11,1.37,1.48,2.85,2.8,3.22,1.11.26,2.16.53,3.27.79,3.01.74,6.07,1.48,9.13,2.16,18.58,4.22,37.43,7.5,56.38,9.5,22.28,2.32,45.93,4.33,68.31,2.11,1.95-.21,3.96-.53,5.86-1.11,2.96-.79,5.75-2.11,8.02-4.06,1.64-1.42,2.96-3.17,3.85-5.33,3.54-8.82-.74-21.17-2.11-30.15-1.69-11.09-2.38-23.18-5.7-33.89-1.27-4.22-3.91-7.81-7.44-9.82-.63-1.21-1.9-2.11-3.64-2.01-.26,0-.58.05-.84.05-2.8.21-5.6.32-8.39.37-35.06.79-69.53-7.97-104.53-9.08-3.43-.11-8.13-.74-12.46-.58-3.48.16-6.28.74-8.34,2.11-5.49,4.43-4.43,14.84-4.91,20.33-1.43,18.48-1.06,37.01.74,55.38Z"/>
</svg>